<?xml version="1.0" encoding="utf-8"?>
<!-- Generator: Adobe Illustrator 16.0.3, SVG Export Plug-In . SVG Version: 6.00 Build 0)  -->
<!DOCTYPE svg PUBLIC "-//W3C//DTD SVG 1.1//EN" "http://www.w3.org/Graphics/SVG/1.1/DTD/svg11.dtd">
<svg version="1.1" id="Capa_1" xmlns="http://www.w3.org/2000/svg" xmlns:xlink="http://www.w3.org/1999/xlink" x="0px" y="0px"
	 width="195px" height="82px" viewBox="0 0 195 82" enable-background="new 0 0 195 82" xml:space="preserve">
<g id="Capa_2" display="none">
	<path display="inline" fill="#FFFFFF" stroke="#EA0F0F" stroke-miterlimit="10" d="M136.494,62.602
		c0,6.705-5.631,12.141-12.576,12.141H63.402c-6.945,0-12.575-5.436-12.575-12.141V22.134c0-6.706,5.629-12.142,12.575-12.142
		h60.516c6.945,0,12.576,5.436,12.576,12.142V62.602z"/>
	<g display="inline">
		<path fill="#FFFFFF" stroke="#EA0F0F" stroke-miterlimit="10" d="M93.394,75.996c-10.833,0-21.666,0.003-32.499-0.001
			c-7.843-0.003-12.235-4.388-12.235-12.204c0-14.501-0.003-29.003,0-43.506c0.002-7.332,4.511-11.844,11.887-11.848
			c21.899-0.012,43.799-0.012,65.695,0c7.381,0.003,11.885,4.51,11.889,11.848c0.002,14.619,0.002,29.236,0,43.855
			c-0.004,7.334-4.514,11.841-11.889,11.852C115.293,76.008,104.346,75.996,93.394,75.996z M63.396,29.789
			c0,14.387,0,28.391,0,42.43c20.051,0,39.986,0,59.908,0c0-14.131,0-28.148,0-42.35c-0.557,0.425-0.93,0.697-1.289,0.987
			c-8.932,7.191-17.873,14.368-26.774,21.594c-1.302,1.058-2.318,1.165-3.669,0.06c-5.941-4.871-11.945-9.664-17.928-14.482
			C70.305,35.337,66.963,32.655,63.396,29.789z M127.076,72.188c4.213,0.154,7.396-2.854,7.42-7.147
			c0.078-15.196,0.059-30.395,0.01-45.59c-0.01-3.38-1.938-5.885-4.869-6.976c-1.172-0.436-2.037-0.258-3.018,0.54
			c-10.385,8.45-20.805,16.855-31.214,25.274c-1.888,1.525-2.17,1.525-4.037,0.016c-10.41-8.418-20.83-16.826-31.219-25.27
			c-0.963-0.782-1.824-1.007-3.01-0.56c-3.14,1.182-4.875,3.804-4.878,7.689c-0.01,14.673-0.009,29.347,0.008,44.019
			c0.001,0.926,0.076,1.873,0.286,2.771c0.747,3.188,3.801,5.465,7.065,5.183c0-0.66,0-1.346,0-2.029
			c0-14.207-0.001-28.414,0.003-42.621c0-0.64-0.033-1.296,0.098-1.912c0.286-1.343,1.487-1.869,2.664-1.181
			c0.547,0.322,1.029,0.759,1.527,1.16c9.203,7.412,18.402,14.829,27.604,22.242c0.62,0.497,1.253,0.979,1.884,1.474
			c8.02-6.461,15.907-12.814,23.793-19.167c2.266-1.824,4.508-3.686,6.82-5.451c1.506-1.151,2.881-0.494,3.043,1.367
			c0.045,0.521,0.02,1.047,0.02,1.572c0,14.148,0,28.3,0,42.446C127.076,70.721,127.076,71.411,127.076,72.188z M93.374,35.284
			c9.47-7.658,18.845-15.238,28.515-23.059c-19.156,0-37.887,0-57.037,0C74.512,20.034,83.858,27.589,93.374,35.284z"/>
		<path fill="#FFFFFF" stroke="#EA0F0F" stroke-miterlimit="10" d="M127.076,72.188c0-0.776,0-1.469,0-2.158
			c0-14.148,0-28.298-0.002-42.447c0-0.522,0.027-1.051-0.018-1.571c-0.164-1.861-1.539-2.519-3.045-1.367
			c-2.314,1.766-4.555,3.627-6.818,5.451c-7.887,6.353-15.773,12.706-23.794,19.167c-0.631-0.492-1.264-0.976-1.884-1.473
			c-9.202-7.414-18.401-14.83-27.604-22.241c-0.498-0.402-0.979-0.839-1.527-1.16c-1.176-0.688-2.377-0.164-2.664,1.18
			c-0.131,0.617-0.098,1.273-0.098,1.912c-0.005,14.206-0.003,28.415-0.003,42.622c0,0.686,0,1.369,0,2.027
			c-3.265,0.284-6.319-1.994-7.065-5.181c-0.21-0.896-0.285-1.845-0.286-2.771C52.25,49.51,52.25,34.836,52.26,20.163
			c0.003-3.885,1.739-6.507,4.878-7.689c1.186-0.447,2.047-0.222,3.01,0.56c10.389,8.443,20.809,16.852,31.219,25.27
			c1.867,1.51,2.149,1.51,4.037-0.016c10.411-8.419,20.831-16.824,31.213-25.274c0.98-0.797,1.848-0.976,3.02-0.54
			c2.932,1.091,4.857,3.595,4.869,6.976c0.049,15.195,0.066,30.394-0.012,45.59C134.473,69.333,131.289,72.342,127.076,72.188z"/>
		<path fill="#FFFFFF" stroke="#EA0F0F" stroke-miterlimit="10" d="M98.598,55.746c0.521-0.667,0.848-1.287,1.348-1.691
			c4.061-3.287,8.154-6.533,12.234-9.799c0.979-0.783,2.021-1.107,2.895,0.002c0.85,1.088,0.357,2.043-0.639,2.836
			c-4.09,3.25-8.145,6.551-12.283,9.735c-0.57,0.438-1.58,0.533-2.328,0.423C99.396,57.188,99.084,56.378,98.598,55.746z"/>
		<path fill="#FFFFFF" stroke="#EA0F0F" stroke-miterlimit="10" d="M117.854,43.643c-0.455-0.676-1.139-1.301-1.305-2.041
			c-0.221-0.992,1.297-2.269,2.412-2.225c1.104,0.042,1.697,0.646,1.717,1.748C120.697,42.247,119.434,43.396,117.854,43.643z"/>
	</g>
</g>
<g id="Capa_3" display="none">
	<path display="inline" opacity="0.8" fill="#FFFFFF" stroke="#088AFF" stroke-miterlimit="10" d="M138.089,65.188
		c0,6.705-5.631,12.141-12.576,12.141H64.997c-6.945,0-12.575-5.436-12.575-12.141V24.72c0-6.706,5.629-12.142,12.575-12.142h60.516
		c6.945,0,12.576,5.436,12.576,12.142V65.188z"/>
	<g display="inline" opacity="0.8">
		<path fill="#FFFFFF" stroke="#088AFF" stroke-miterlimit="10" d="M94.988,78.582c-10.833,0-21.666,0.003-32.499-0.001
			c-7.843-0.003-12.235-4.388-12.235-12.204c0-14.501-0.003-29.003,0-43.506c0.002-7.332,4.511-11.844,11.887-11.848
			c21.899-0.012,43.799-0.012,65.695,0c7.381,0.003,11.885,4.51,11.889,11.848c0.002,14.619,0.002,29.236,0,43.855
			c-0.004,7.334-4.514,11.841-11.889,11.852C116.888,78.594,105.94,78.582,94.988,78.582z M64.991,32.375c0,14.387,0,28.391,0,42.43
			c20.051,0,39.986,0,59.908,0c0-14.131,0-28.148,0-42.35c-0.557,0.425-0.93,0.697-1.289,0.987
			c-8.932,7.191-17.873,14.368-26.774,21.594c-1.302,1.058-2.318,1.165-3.669,0.06c-5.941-4.871-11.945-9.664-17.928-14.482
			C71.899,37.923,68.558,35.241,64.991,32.375z M128.671,74.773c4.213,0.154,7.396-2.854,7.42-7.147
			c0.078-15.196,0.059-30.395,0.01-45.59c-0.01-3.38-1.938-5.885-4.869-6.976c-1.172-0.436-2.037-0.258-3.018,0.54
			C117.829,24.05,107.409,32.455,97,40.874c-1.888,1.525-2.17,1.525-4.037,0.016c-10.41-8.418-20.83-16.826-31.219-25.27
			c-0.963-0.782-1.824-1.007-3.01-0.56c-3.14,1.182-4.875,3.804-4.878,7.689c-0.01,14.673-0.009,29.347,0.008,44.019
			c0.001,0.926,0.076,1.873,0.286,2.771c0.747,3.188,3.801,5.465,7.065,5.183c0-0.66,0-1.346,0-2.029
			c0-14.207-0.001-28.414,0.003-42.621c0-0.64-0.033-1.296,0.098-1.912c0.286-1.343,1.487-1.869,2.664-1.181
			c0.547,0.322,1.029,0.759,1.527,1.16C74.709,35.55,83.908,42.967,93.11,50.38c0.62,0.497,1.253,0.979,1.884,1.474
			c8.02-6.461,15.907-12.814,23.793-19.167c2.266-1.824,4.508-3.686,6.82-5.451c1.506-1.151,2.881-0.494,3.043,1.367
			c0.045,0.521,0.02,1.047,0.02,1.572c0,14.148,0,28.3,0,42.446C128.671,73.307,128.671,73.997,128.671,74.773z M94.968,37.87
			c9.47-7.658,18.845-15.238,28.515-23.059c-19.156,0-37.887,0-57.037,0C76.106,22.62,85.453,30.175,94.968,37.87z"/>
		<path fill="#FFFFFF" stroke="#088AFF" stroke-miterlimit="10" d="M128.671,74.773c0-0.776,0-1.469,0-2.158
			c0-14.148,0-28.298-0.002-42.447c0-0.522,0.027-1.051-0.018-1.571c-0.164-1.861-1.539-2.519-3.045-1.367
			c-2.314,1.766-4.555,3.627-6.818,5.451c-7.887,6.353-15.773,12.706-23.794,19.167c-0.631-0.492-1.264-0.976-1.884-1.473
			c-9.202-7.414-18.401-14.83-27.604-22.241c-0.498-0.402-0.979-0.839-1.527-1.16c-1.176-0.688-2.377-0.164-2.664,1.18
			c-0.131,0.617-0.098,1.273-0.098,1.912c-0.005,14.206-0.003,28.415-0.003,42.622c0,0.686,0,1.369,0,2.027
			c-3.265,0.284-6.319-1.994-7.065-5.181c-0.21-0.896-0.285-1.845-0.286-2.771c-0.017-14.668-0.018-29.342-0.008-44.015
			c0.003-3.885,1.739-6.507,4.878-7.689c1.186-0.447,2.047-0.222,3.01,0.56c10.389,8.443,20.809,16.852,31.219,25.27
			c1.867,1.51,2.149,1.51,4.037-0.016c10.411-8.419,20.831-16.824,31.213-25.274c0.98-0.797,1.848-0.976,3.02-0.54
			c2.932,1.091,4.857,3.595,4.869,6.976c0.049,15.195,0.066,30.394-0.012,45.59C136.067,71.919,132.884,74.928,128.671,74.773z"/>
		<path fill="#FFFFFF" stroke="#088AFF" stroke-miterlimit="10" d="M100.192,58.332c0.521-0.667,0.848-1.287,1.348-1.691
			c4.061-3.287,8.154-6.533,12.234-9.799c0.979-0.783,2.021-1.107,2.895,0.002c0.85,1.088,0.357,2.043-0.639,2.836
			c-4.09,3.25-8.145,6.551-12.283,9.735c-0.57,0.438-1.58,0.533-2.328,0.423C100.991,59.773,100.679,58.964,100.192,58.332z"/>
		<path fill="#FFFFFF" stroke="#088AFF" stroke-miterlimit="10" d="M119.448,46.229c-0.455-0.676-1.139-1.301-1.305-2.041
			c-0.221-0.992,1.297-2.269,2.412-2.225c1.104,0.042,1.697,0.646,1.717,1.748C122.292,44.833,121.028,45.982,119.448,46.229z"/>
	</g>
</g>
<g>
	<path fill="#FFFFFF" d="M94.234,77.254c-10.833,0-21.666,0.003-32.499-0.001C53.892,77.25,49.5,72.865,49.5,65.049
		c0-14.501-0.003-29.003,0-43.506c0.002-7.332,4.511-11.844,11.887-11.848c21.899-0.012,43.798-0.012,65.696,0
		c7.381,0.003,11.884,4.51,11.888,11.848c0.002,14.619,0.002,29.236,0,43.855c-0.004,7.334-4.513,11.841-11.888,11.852
		C116.133,77.266,105.186,77.254,94.234,77.254z M64.237,31.047c0,14.387,0,28.391,0,42.43c20.051,0,39.986,0,59.908,0
		c0-14.131,0-28.148,0-42.35c-0.557,0.425-0.93,0.697-1.289,0.987c-8.932,7.191-17.873,14.368-26.773,21.594
		c-1.302,1.058-2.318,1.165-3.669,0.06c-5.941-4.871-11.945-9.664-17.928-14.482C71.145,36.595,67.803,33.913,64.237,31.047z
		 M127.916,73.445c4.214,0.154,7.396-2.854,7.42-7.147c0.078-15.196,0.059-30.394,0.01-45.59c-0.01-3.38-1.938-5.885-4.869-6.976
		c-1.172-0.436-2.037-0.258-3.018,0.54c-10.384,8.449-20.805,16.855-31.214,25.274c-1.888,1.526-2.17,1.525-4.037,0.015
		c-10.41-8.418-20.83-16.825-31.219-25.269c-0.963-0.782-1.824-1.007-3.01-0.56c-3.14,1.182-4.875,3.804-4.878,7.689
		c-0.01,14.673-0.009,29.347,0.008,44.019c0.001,0.926,0.076,1.873,0.286,2.771c0.747,3.188,3.801,5.465,7.065,5.183
		c0-0.66,0-1.346,0-2.029c0-14.207-0.001-28.414,0.003-42.621c0-0.639-0.033-1.295,0.098-1.912c0.286-1.343,1.487-1.869,2.664-1.18
		c0.547,0.321,1.029,0.758,1.527,1.16c9.203,7.412,18.402,14.829,27.604,22.242c0.62,0.497,1.253,0.979,1.884,1.474
		c8.021-6.461,15.906-12.814,23.794-19.167c2.266-1.825,4.507-3.686,6.819-5.452c1.506-1.151,2.881-0.494,3.043,1.368
		c0.045,0.52,0.02,1.047,0.02,1.571c0.001,14.149,0.001,28.3,0.001,42.447C127.916,71.979,127.916,72.669,127.916,73.445z
		 M94.214,36.542c9.47-7.658,18.845-15.239,28.515-23.059c-19.155,0-37.887,0-57.037,0C75.352,21.292,84.698,28.847,94.214,36.542z"
		/>
	<path fill="#FF0000" d="M127.916,73.445c0-0.776,0-1.469,0-2.158c0-14.148,0-28.298-0.001-42.447c0-0.523,0.026-1.051-0.019-1.571
		c-0.164-1.862-1.539-2.519-3.045-1.368c-2.313,1.766-4.555,3.627-6.818,5.452c-7.887,6.352-15.773,12.706-23.794,19.167
		c-0.631-0.492-1.264-0.976-1.884-1.473c-9.202-7.414-18.401-14.83-27.604-22.242c-0.498-0.401-0.979-0.838-1.527-1.16
		c-1.176-0.688-2.377-0.163-2.664,1.18c-0.131,0.617-0.098,1.273-0.098,1.912c-0.005,14.207-0.003,28.416-0.003,42.623
		c0,0.686,0,1.369,0,2.027c-3.265,0.284-6.319-1.994-7.065-5.181c-0.21-0.896-0.285-1.845-0.286-2.771
		C53.091,50.768,53.09,36.094,53.1,21.421c0.003-3.885,1.739-6.507,4.878-7.689c1.186-0.447,2.047-0.222,3.01,0.56
		c10.389,8.444,20.809,16.851,31.219,25.269c1.867,1.51,2.149,1.511,4.037-0.015c10.41-8.419,20.831-16.825,31.214-25.274
		c0.979-0.797,1.847-0.976,3.019-0.54c2.933,1.091,4.858,3.595,4.869,6.976c0.049,15.196,0.067,30.394-0.011,45.59
		C135.313,70.591,132.13,73.6,127.916,73.445z"/>
	<path fill="#00A0C6" d="M99.438,57.004c0.521-0.667,0.848-1.287,1.348-1.691c4.061-3.287,8.154-6.533,12.234-9.799
		c0.979-0.783,2.022-1.107,2.895,0.002c0.85,1.088,0.357,2.043-0.639,2.836c-4.09,3.25-8.145,6.551-12.283,9.735
		c-0.569,0.438-1.579,0.533-2.328,0.423C100.236,58.445,99.924,57.636,99.438,57.004z"/>
	<path fill="#00A0C6" d="M118.693,44.9c-0.455-0.676-1.139-1.301-1.305-2.041c-0.221-0.992,1.297-2.269,2.412-2.225
		c1.104,0.042,1.697,0.646,1.717,1.748C121.538,43.505,120.273,44.654,118.693,44.9z"/>
</g>
</svg>
