<?xml version="1.0" encoding="utf-8"?>
<!-- Generator: Adobe Illustrator 16.0.3, SVG Export Plug-In . SVG Version: 6.00 Build 0)  -->
<!DOCTYPE svg PUBLIC "-//W3C//DTD SVG 1.1//EN" "http://www.w3.org/Graphics/SVG/1.1/DTD/svg11.dtd">
<svg version="1.1" id="Capa_1" xmlns="http://www.w3.org/2000/svg" xmlns:xlink="http://www.w3.org/1999/xlink" x="0px" y="0px"
	 width="195px" height="82px" viewBox="0 0 195 82" enable-background="new 0 0 195 82" xml:space="preserve">
<path fill="none" d="M127.375,59.875c0,6.627-5.557,12-12.407,12H82.657c-6.853,0-12.407-5.373-12.407-12v-32.5
	c0-6.627,5.555-12,12.407-12h32.311c6.853,0,12.407,5.373,12.407,12V59.875z"/>
<g>
	<path fill="#FFFFFF" stroke="#490C3D" stroke-width="1.5" stroke-miterlimit="10" d="M98.438,75.506
		c-4.902,0-9.809,0.008-14.711-0.011c-0.641-0.003-1.28-0.146-1.922-0.22c-8.938-1.002-15.629-7.588-15.946-16.635
		c-0.371-10.609-0.362-21.251-0.011-31.863c0.3-9.018,7.005-15.758,15.95-16.588c4.658-0.432,9.363-0.518,14.048-0.503
		c6.362,0.019,12.75-0.027,19.081,0.515c9.223,0.789,15.825,7.611,16.117,16.837c0.333,10.44,0.335,20.908,0.014,31.352
		c-0.285,9.225-6.945,16.012-16.117,16.84c-5.477,0.496-10.994,0.5-16.492,0.726C98.441,75.805,98.439,75.654,98.438,75.506z
		 M83.895,15.887c-2.738,0.063-5.356,0.795-7.599,2.494c-2.945,2.231-4.426,5.341-4.53,8.902
		c-0.242,8.295-0.282,16.596-0.302,24.895c-0.007,2.483,0.131,5,0.537,7.445c0.907,5.456,4.726,9.009,10.267,9.656
		c2.558,0.3,5.146,0.462,7.72,0.461c7.44-0.001,14.883-0.064,22.321-0.225c1.691-0.037,3.437-0.371,5.047-0.896
		c4.957-1.618,7.485-5.378,7.75-10.352c0.387-7.252,0.359-14.527,0.414-21.793c0.021-3.006-0.078-6.025-0.345-9.02
		c-0.628-7.043-5.063-11.318-12.13-11.565c-4.854-0.169-9.716-0.032-14.574-0.032C93.611,15.855,88.75,15.775,83.895,15.887z"/>
	<path fill="none" d="M113.125,43.7c0,6.517-6.491,11.8-14.5,11.8l0,0c-8.008,0-14.5-5.283-14.5-11.8v-2.4
		c0-6.517,6.492-11.8,14.5-11.8l0,0c8.009,0,14.5,5.283,14.5,11.8V43.7z"/>
	<path opacity="0.8" fill="#FF0000" d="M98.398,25.716c9.297-0.033,16.951,7.558,16.985,16.851
		c0.038,9.484-7.545,17.136-16.971,17.121c-9.325-0.015-16.902-7.588-16.919-16.912C81.479,33.356,89.015,25.75,98.398,25.716z
		 M98.419,53.757c6.089,0.011,11.039-4.974,11.022-11.099c-0.018-6.061-4.938-10.996-10.983-11.008
		c-6.095-0.011-11.038,4.966-11.022,11.098C87.452,48.807,92.381,53.747,98.419,53.757z"/>
	<path fill="#00A0C6" d="M120.025,24.424c-0.012-2.157-1.781-3.926-3.928-3.929c-2.217-0.002-3.959,1.8-3.921,4.051
		c0.038,2.173,1.822,3.903,3.979,3.858C118.323,28.359,120.039,26.595,120.025,24.424z"/>
</g>
</svg>
