<?xml version="1.0" encoding="utf-8"?>
<!-- Generator: Adobe Illustrator 16.0.3, SVG Export Plug-In . SVG Version: 6.00 Build 0)  -->
<!DOCTYPE svg PUBLIC "-//W3C//DTD SVG 1.1//EN" "http://www.w3.org/Graphics/SVG/1.1/DTD/svg11.dtd">
<svg version="1.1" id="Capa_1" xmlns="http://www.w3.org/2000/svg" xmlns:xlink="http://www.w3.org/1999/xlink" x="0px" y="0px"
	 width="195px" height="82px" viewBox="0 0 195 82" enable-background="new 0 0 195 82" xml:space="preserve">
<g>
	<rect x="80.667" y="42" display="none" fill="#E77F17" width="51.5" height="31"/>
	<path fill="#FFFFFF" d="M134,60.355c0,6.912-5.695,12.52-12.718,12.52H90.719C83.695,72.875,78,67.27,78,60.355V50.271
		c0-6.916,5.695-12.521,12.719-12.521h30.563c7.022,0,12.718,5.605,12.718,12.521V60.355z"/>
	<path fill="#FFFFFF" d="M94.134,31.741c-1.343,0-2.594,0-3.934,0c0-0.27,0-0.509,0-0.749c0-2.455-0.077-4.91,0.023-7.36
		c0.092-2.227-0.354-4.336-1.034-6.414c-1.194-3.648-2.431-7.285-3.648-10.926c-0.092-0.274-0.173-0.551-0.272-0.869
		c1.392,0,2.733,0,4.116,0c0.916,3.377,1.833,6.753,2.749,10.13c0.036,0.003,0.073,0.007,0.109,0.011
		c0.358-1.357,0.718-2.713,1.072-4.069c0.489-1.868,0.982-3.736,1.454-5.608c0.081-0.324,0.168-0.512,0.56-0.503
		c1.147,0.025,2.293,0.009,3.511,0.009c-0.057,0.246-0.094,0.453-0.154,0.654c-1.441,4.771-2.896,9.541-4.327,14.316
		c-0.139,0.464-0.211,0.967-0.213,1.452c-0.02,3.038-0.011,6.078-0.011,9.116C94.134,31.176,94.134,31.419,94.134,31.741z"/>
	<path fill="#FFFFFF" d="M112.381,12.162c1.21,0,2.328,0,3.537,0c0,0.287,0,0.547,0,0.809c0,4.386-0.002,8.773,0.002,13.16
		c0.002,0.563,0.02,1.124,0.063,1.685c0.066,0.88,0.563,1.195,1.381,0.904c0.98-0.351,1.73-1.416,1.73-2.464
		c0-4.409,0-8.819,0-13.228c0-0.267,0-0.533,0-0.846c1.182,0,2.318,0,3.498,0c0,6.509,0,13.017,0,19.558c-1.15,0-2.266,0-3.474,0
		c0-0.638,0-1.271,0-1.905c-0.054-0.024-0.104-0.048-0.156-0.073c-0.245,0.244-0.478,0.501-0.735,0.729
		c-1.014,0.891-2.082,1.65-3.539,1.528c-1.112-0.095-1.869-0.705-2.039-1.797c-0.139-0.885-0.25-1.784-0.254-2.679
		c-0.021-4.949-0.014-9.899-0.014-14.848C112.381,12.539,112.381,12.384,112.381,12.162z"/>
	<path fill="#FF0000" d="M106.535,77.673c-5.733-0.178-11.468-0.329-17.199-0.55c-1.682-0.063-3.373-0.221-5.027-0.506
		c-3.15-0.543-5.337-2.846-5.985-5.99c-0.635-3.078-0.839-6.195-0.899-9.316c-0.091-4.793-0.163-9.59,0.403-14.356
		c0.191-1.62,0.459-3.282,1.049-4.784c1.196-3.03,3.675-4.343,6.855-4.612c11.23-0.954,22.48-0.756,33.727-0.501
		c2.719,0.063,5.434,0.301,8.145,0.537c4.146,0.359,6.638,2.599,7.295,6.745c0.414,2.614,0.668,5.269,0.769,7.91
		c0.19,5.104,0.207,10.215-0.353,15.303c-0.193,1.759-0.395,3.548-1.227,5.153c-1.256,2.419-3.252,3.818-5.975,4.033
		c-3.588,0.275-7.18,0.555-10.772,0.664c-3.596,0.113-7.198,0.025-10.8,0.025C106.537,77.508,106.536,77.592,106.535,77.673z
		 M111.289,67.547c0.598,0.503,1.057,0.979,1.598,1.33c2.004,1.305,4.396,0.737,4.926-1.891c0.104-0.526,0.203-1.065,0.211-1.602
		c0.035-3.217,0.062-6.438,0.056-9.654c-0.003-1.076-0.054-2.162-0.188-3.23c-0.283-2.238-1.93-3.419-3.938-2.75
		c-0.756,0.25-1.402,0.844-2.088,1.299c-0.186,0.124-0.326,0.314-0.621,0.609c0-2.967,0-5.725,0-8.491c-1.186,0-2.301,0-3.454,0
		c0,8.711,0,17.386,0,26.081c1.176,0,2.308,0,3.5,0C111.289,68.674,111.289,68.148,111.289,67.547z M131.309,60.202
		c0-1.944,0.061-3.808-0.029-5.665c-0.035-0.785-0.26-1.618-0.613-2.321c-1.131-2.248-3.659-3.18-6.238-2.397
		c-2.152,0.654-3.488,2.521-3.529,5.119c-0.047,3.059-0.08,6.117,0.012,9.18c0.084,2.77,1.486,5.172,5.005,5.433
		c2.006,0.149,3.881-0.806,4.842-2.548c0.771-1.396,0.624-2.896,0.647-4.4c-1.234,0-2.406,0-3.647,0
		c0,0.707,0.037,1.357-0.007,2.006c-0.078,1.074-0.646,1.679-1.543,1.726c-0.895,0.051-1.633-0.502-1.703-1.547
		c-0.104-1.49-0.025-2.997-0.025-4.58C126.747,60.202,129.05,60.202,131.309,60.202z M101.16,49.844c0,0.273,0,0.516,0,0.758
		c0,4.366-0.03,8.732,0.025,13.101c0.012,0.876-0.313,1.448-0.906,1.975c-0.467,0.41-0.981,0.813-1.627,0.587
		c-0.674-0.236-0.563-0.91-0.565-1.455c-0.017-4.729-0.017-9.453-0.022-14.181c0-0.259,0-0.521,0-0.774c-1.223,0-2.336,0-3.488,0
		c-0.012,0.188-0.027,0.344-0.027,0.498c0,5.019-0.009,10.037,0.014,15.057c0.004,0.805,0.113,1.617,0.249,2.41
		c0.16,0.938,0.771,1.483,1.71,1.662c1.576,0.299,2.717-0.521,3.808-1.465c0.258-0.225,0.486-0.479,0.857-0.849
		c0,0.835,0,1.453,0,2.083c1.19,0,2.322,0,3.451,0c0-6.496,0-12.943,0-19.4C103.469,49.844,102.352,49.844,101.16,49.844z
		 M93.985,46.85c0-1.281,0-2.464,0-3.673c-4.098,0-8.153,0-12.229,0c0,1.229,0,2.41,0,3.696c1.386,0,2.74,0,4.144,0
		c0,7.52,0,14.936,0,22.38c1.324,0,2.591,0,3.929,0c0-7.479,0-14.911,0-22.403C91.24,46.85,92.581,46.85,93.985,46.85z"/>
	<path fill="#FFFFFF" d="M109.504,22.086c-0.079,1.81-0.059,3.684-0.271,5.532c-0.227,1.991-1.258,3.546-3.266,4.139
		c-1.979,0.584-3.887,0.398-5.445-1.155c-1.026-1.024-1.477-2.34-1.504-3.73c-0.063-3.26-0.093-6.523,0.002-9.782
		c0.076-2.572,1.494-4.455,3.613-4.977c3.277-0.808,6.19,0.739,6.614,4.331C109.466,18.288,109.426,20.166,109.504,22.086z
		 M102.521,21.948c-0.01,0-0.021,0-0.033,0c0,1.304-0.027,2.607,0.014,3.91c0.021,0.666,0.104,1.343,0.277,1.983
		c0.186,0.684,0.744,0.994,1.447,0.981c0.676-0.012,1.184-0.346,1.377-0.99c0.158-0.531,0.266-1.099,0.27-1.652
		c0.025-2.808,0.031-5.617-0.003-8.426c-0.009-0.615-0.149-1.248-0.347-1.833c-0.188-0.554-0.678-0.801-1.278-0.817
		c-0.621-0.017-1.13,0.203-1.376,0.771c-0.184,0.423-0.317,0.9-0.329,1.356C102.499,18.802,102.521,20.375,102.521,21.948z"/>
	<path fill="#FF0000" d="M111.281,59.584c0-1.799,0-3.594,0.001-5.393c0.001-0.676,0.417-1.137,1.219-1.352
		c0.761-0.201,1.39-0.011,1.662,0.635c0.207,0.481,0.347,1.032,0.353,1.555c0.033,3.012,0.02,6.021,0.018,9.031
		c0,0.222-0.032,0.445-0.067,0.67c-0.104,0.664-0.295,1.297-1.021,1.526c-0.748,0.235-1.373-0.095-1.898-0.581
		c-0.164-0.15-0.248-0.464-0.25-0.703C111.271,63.177,111.281,61.38,111.281,59.584z"/>
	<path fill="#FF0000" d="M127.938,57.229c-1.263,0-2.355,0-3.53,0c-0.037-1.17-0.173-2.33,0.229-3.447
		c0.268-0.744,0.842-1.057,1.643-0.994c0.757,0.059,1.299,0.49,1.431,1.367C127.859,55.145,127.861,56.152,127.938,57.229z"/>
</g>
</svg>
