<?xml version="1.0" encoding="utf-8"?>
<!-- Generator: Adobe Illustrator 16.0.3, SVG Export Plug-In . SVG Version: 6.00 Build 0)  -->
<!DOCTYPE svg PUBLIC "-//W3C//DTD SVG 1.1//EN" "http://www.w3.org/Graphics/SVG/1.1/DTD/svg11.dtd">
<svg version="1.1" id="Capa_1" xmlns="http://www.w3.org/2000/svg" xmlns:xlink="http://www.w3.org/1999/xlink" x="0px" y="0px"
	 width="140px" height="140px" viewBox="0 0 140 140" enable-background="new 0 0 140 140" xml:space="preserve">
<g opacity="0.8">
	<path fill-rule="evenodd" clip-rule="evenodd" fill="#00A0C6" d="M36.886,5.407c-1.025,0.797-2.153,1.498-3.069,2.407
		c-7.591,7.537-15.129,15.128-22.72,22.664c-1.264,1.254-1.88,2.621-1.857,4.418c0.064,5.112,0.023,10.225,0.023,15.434
		c2.706,0,5.361,0,8.16,0c0-4.006,0-8.027,0-12.181c0.595,0,1.05,0,1.506,0c4.771,0,9.546,0.014,14.319-0.003
		c5.29-0.019,8.728-3.44,8.75-8.714c0.02-4.776,0.005-9.549,0.005-14.32c0-0.461,0-0.921,0-1.52c0.56,0,1.014,0,1.469,0
		c19.649,0,39.295,0,58.943,0c3.591,0,5.072,1.462,5.072,5.011c0,34.863,0,69.724,0,104.587c0,3.495-1.488,4.999-4.951,4.999
		c-8.737,0.003-17.475,0.003-26.21,0.003c-0.465,0-0.93,0-1.579,0c0,2.768,0,5.479,0,8.183c9.975,0,19.95,0,29.926,0
		c0.153-0.063,0.302-0.16,0.46-0.185c3.164-0.442,5.711-1.947,7.761-4.381c1.577-1.877,2.272-4.106,2.778-6.435
		c0-36.321,0-72.644,0-108.966c-0.067-0.199-0.171-0.39-0.201-0.593c-0.467-3.061-1.929-5.541-4.271-7.55
		c-1.895-1.625-4.158-2.346-6.527-2.859C82.078,5.407,59.481,5.407,36.886,5.407z"/>
</g>
<path opacity="0.5" fill-rule="evenodd" clip-rule="evenodd" fill="#FF0000" d="M43.844,3.368c-1.019,0.795-2.134,1.495-3.042,2.404
	c-7.524,7.523-14.996,15.102-22.521,22.625c-1.253,1.252-1.866,2.616-1.839,4.412c0.063,5.103,0.019,10.207,0.019,15.407
	c2.684,0,5.318,0,8.09,0c0-3.999,0-8.013,0-12.161c0.59,0,1.042,0,1.493,0c4.731,0,9.462,0.015,14.195-0.001
	c5.242-0.02,8.65-3.436,8.671-8.701c0.02-4.767,0.005-9.533,0.005-14.298c0-0.459,0-0.92,0-1.515c0.555,0,1.005,0,1.456,0
	c19.476,0,38.951,0,58.423,0c3.561,0,5.029,1.46,5.029,5.001c0,34.806,0,69.612,0,104.419c0,3.489-1.477,4.99-4.909,4.99
	c-8.658,0.002-17.32,0.002-25.98,0.002c-0.459,0-0.92,0-1.563,0c0,2.767,0,5.469,0,8.17c9.888,0,19.774,0,29.664,0
	c0.151-0.062,0.297-0.159,0.456-0.185c3.134-0.44,5.658-1.943,7.689-4.373c1.566-1.874,2.255-4.1,2.755-6.424
	c0-36.262,0-72.526,0-108.79c-0.067-0.198-0.17-0.39-0.198-0.591c-0.463-3.055-1.913-5.533-4.234-7.538
	c-1.876-1.624-4.12-2.344-6.468-2.854C88.638,3.368,66.238,3.368,43.844,3.368z"/>
<g opacity="0.8">
	<path fill-rule="evenodd" clip-rule="evenodd" fill="#00A0C6" d="M26.702,111.011c0.449-1.587,0.916-3.17,1.342-4.765
		c4.524-16.941,9.04-33.884,13.559-50.822c0.292-1.115,0.379-1.186,1.381-1.188c4.504,0,9.008,0,13.514,0.002
		c0.975,0,1.044,0.063,1.337,1.149c4.973,18.363,9.946,36.726,14.917,55.088c0.061,0.228,0.141,0.448,0.182,0.677
		c0.097,0.558-0.141,0.927-0.627,0.996c-0.143,0.018-0.289,0.012-0.433,0.012c-3.719,0-7.437-0.016-11.157,0.016
		c-0.675,0.005-0.994-0.265-1.185-1.012c-1.091-4.259-2.228-8.504-3.328-12.765c-0.139-0.545-0.342-0.726-0.852-0.721
		c-3.926,0.029-7.851,0.024-11.776,0.003c-0.467,0-0.667,0.134-0.8,0.686c-0.998,4.241-2.036,8.473-3.061,12.704
		c-0.242,1.006-0.335,1.089-1.24,1.089c-3.554,0-7.11,0.014-10.662-0.02c-0.369-0.005-0.74-0.272-1.11-0.418
		C26.702,111.482,26.702,111.247,26.702,111.011z M49.322,68.028c-1.406,6.055-2.86,12.285-4.318,18.542c2.989,0,5.957,0,8.942,0
		C52.388,80.312,50.837,74.083,49.322,68.028z"/>
	<path fill-rule="evenodd" clip-rule="evenodd" fill="#00A0C6" d="M90.193,60.169c-0.296,1.176-0.598,2.337-1.283,3.327
		c-2.678,3.858-9.353,3.987-11.336-1.478c-1.495-4.124,0.188-9.648,5.438-10.066c3.052-0.248,5.531,1.361,6.599,4.161
		c0.253,0.661,0.393,1.377,0.583,2.068C90.193,58.844,90.193,59.506,90.193,60.169z"/>
	<path fill-rule="evenodd" clip-rule="evenodd" fill="#00A0C6" d="M89.826,90.95c0,6.627,0,13.25,0,19.875
		c0,1.188-0.13,1.334-1.184,1.334c-3.392,0-6.78,0.003-10.167,0c-0.962-0.003-1.108-0.165-1.108-1.28c0-13.295,0-26.595,0-39.892
		c0-1.075,0.188-1.281,1.127-1.285c3.406,0,6.815-0.001,10.225,0c0.924,0.003,1.107,0.22,1.107,1.302
		C89.826,77.653,89.826,84.303,89.826,90.95z"/>
</g>
<g opacity="0.6">
	<path fill-rule="evenodd" clip-rule="evenodd" fill="#FF0000" d="M34.869,109.228c0.451-1.587,0.918-3.169,1.342-4.764
		c4.523-16.941,9.038-33.884,13.558-50.822c0.292-1.114,0.38-1.186,1.381-1.189c4.504,0,9.008,0,13.514,0.003
		c0.975,0,1.046,0.063,1.337,1.148c4.973,18.363,9.946,36.726,14.917,55.088c0.063,0.228,0.143,0.447,0.184,0.677
		c0.095,0.557-0.143,0.927-0.629,0.996c-0.142,0.018-0.287,0.011-0.434,0.011c-3.716,0-7.436-0.016-11.154,0.016
		c-0.677,0.004-0.997-0.264-1.186-1.011c-1.092-4.261-2.231-8.505-3.328-12.765c-0.141-0.546-0.342-0.726-0.852-0.722
		c-3.926,0.03-7.853,0.025-11.778,0.005c-0.469-0.003-0.667,0.134-0.798,0.685c-0.998,4.241-2.037,8.473-3.062,12.705
		c-0.241,1.003-0.337,1.087-1.241,1.087c-3.554,0-7.108,0.015-10.662-0.019c-0.369-0.005-0.74-0.273-1.11-0.42
		C34.869,109.7,34.869,109.465,34.869,109.228z M57.49,66.246c-1.41,6.056-2.862,12.285-4.32,18.541c2.987,0,5.958,0,8.944,0
		C60.554,78.527,59.004,72.302,57.49,66.246z"/>
	<path fill-rule="evenodd" clip-rule="evenodd" fill="#FF0000" d="M98.361,58.387c-0.295,1.175-0.599,2.336-1.284,3.327
		c-2.678,3.858-9.351,3.987-11.335-1.478c-1.497-4.126,0.188-9.648,5.437-10.068c3.052-0.246,5.531,1.364,6.599,4.162
		c0.253,0.661,0.392,1.377,0.584,2.067C98.361,57.062,98.361,57.725,98.361,58.387z"/>
	<path fill-rule="evenodd" clip-rule="evenodd" fill="#FF0000" d="M97.993,89.168c0,6.627,0,13.25,0,19.875
		c0,1.187-0.129,1.333-1.186,1.333c-3.39,0-6.776,0.002-10.163,0c-0.966-0.002-1.11-0.164-1.11-1.279c0-13.295,0-26.596,0-39.893
		c0-1.075,0.186-1.282,1.125-1.284c3.407,0,6.817,0,10.227,0c0.924,0.002,1.107,0.219,1.107,1.303
		C97.993,75.87,97.993,82.52,97.993,89.168z"/>
</g>
<g>
	<path fill-rule="evenodd" clip-rule="evenodd" d="M30.281,109.228c0.451-1.587,0.918-3.169,1.342-4.764
		c4.523-16.941,9.04-33.884,13.559-50.822c0.292-1.114,0.379-1.186,1.383-1.189c4.504,0,9.006,0,13.512,0.003
		c0.975,0,1.044,0.063,1.337,1.148c4.973,18.363,9.948,36.726,14.918,55.088c0.059,0.228,0.139,0.447,0.18,0.677
		c0.097,0.557-0.139,0.927-0.627,0.996c-0.143,0.018-0.287,0.011-0.432,0.011c-3.719,0-7.438-0.016-11.158,0.016
		c-0.675,0.004-0.995-0.264-1.184-1.011c-1.092-4.261-2.229-8.505-3.328-12.765c-0.139-0.546-0.344-0.726-0.854-0.722
		c-3.925,0.03-7.852,0.025-11.776,0.005c-0.467-0.003-0.667,0.134-0.799,0.685c-0.998,4.241-2.037,8.473-3.062,12.705
		c-0.242,1.003-0.335,1.087-1.239,1.087c-3.556,0-7.11,0.015-10.662-0.019c-0.371-0.005-0.741-0.273-1.112-0.42
		C30.281,109.7,30.281,109.465,30.281,109.228z M52.903,66.246c-1.408,6.056-2.861,12.285-4.321,18.541c2.989,0,5.958,0,8.942,0
		C55.966,78.527,54.416,72.302,52.903,66.246z"/>
	<path fill-rule="evenodd" clip-rule="evenodd" d="M93.772,58.387c-0.294,1.175-0.598,2.336-1.283,3.327
		c-2.678,3.858-9.353,3.987-11.334-1.478c-1.496-4.126,0.187-9.648,5.436-10.068c3.052-0.246,5.531,1.364,6.599,4.162
		c0.255,0.661,0.392,1.377,0.583,2.067C93.772,57.062,93.772,57.725,93.772,58.387z"/>
	<path fill-rule="evenodd" clip-rule="evenodd" d="M93.405,89.168c0,6.627,0,13.25,0,19.875c0,1.187-0.129,1.333-1.184,1.333
		c-3.392,0-6.778,0.002-10.167,0c-0.962-0.002-1.108-0.164-1.108-1.279c0-13.295,0-26.596,0-39.893c0-1.075,0.188-1.282,1.127-1.284
		c3.405,0,6.815,0,10.225,0c0.924,0.002,1.107,0.219,1.107,1.303C93.405,75.87,93.405,82.52,93.405,89.168z"/>
</g>
<g>
	<path fill-rule="evenodd" clip-rule="evenodd" d="M40.467,3.625c-1.027,0.797-2.153,1.497-3.069,2.408
		c-7.591,7.536-15.13,15.126-22.722,22.663c-1.264,1.255-1.88,2.62-1.855,4.419c0.063,5.111,0.021,10.223,0.021,15.432
		c2.708,0,5.361,0,8.16,0c0-4.005,0-8.026,0-12.181c0.597,0,1.052,0,1.506,0c4.771,0,9.546,0.015,14.321-0.001
		c5.289-0.021,8.727-3.442,8.75-8.716c0.02-4.775,0.003-9.548,0.003-14.321c0-0.46,0-0.921,0-1.518c0.56,0,1.014,0,1.469,0
		c19.648,0,39.297,0,58.945,0c3.589,0,5.07,1.462,5.07,5.009c0,34.863,0,69.726,0,104.589c0,3.495-1.488,4.998-4.951,4.998
		c-8.737,0.003-17.473,0.003-26.21,0.003c-0.465,0-0.929,0-1.579,0c0,2.77,0,5.478,0,8.183c9.975,0,19.95,0,29.928,0
		c0.151-0.063,0.3-0.159,0.46-0.185c3.162-0.441,5.711-1.946,7.759-4.38c1.579-1.877,2.274-4.106,2.778-6.435
		c0-36.321,0-72.646,0-108.968c-0.065-0.198-0.171-0.39-0.199-0.591c-0.468-3.061-1.931-5.542-4.272-7.55
		c-1.893-1.626-4.156-2.347-6.525-2.859C85.659,3.625,63.061,3.625,40.467,3.625z"/>
</g>
<g>
</g>
<g>
</g>
<g>
</g>
<g>
</g>
<g>
</g>
<g>
</g>
</svg>
