<?xml version="1.0" encoding="utf-8"?>
<!-- Generator: Adobe Illustrator 16.0.3, SVG Export Plug-In . SVG Version: 6.00 Build 0)  -->
<!DOCTYPE svg PUBLIC "-//W3C//DTD SVG 1.1//EN" "http://www.w3.org/Graphics/SVG/1.1/DTD/svg11.dtd">
<svg version="1.1" id="Capa_1" xmlns="http://www.w3.org/2000/svg" xmlns:xlink="http://www.w3.org/1999/xlink" x="0px" y="0px"
	 width="100px" height="100px" viewBox="0 0 100 100" enable-background="new 0 0 100 100" xml:space="preserve">
<g>
	<path fill-rule="evenodd" clip-rule="evenodd" fill="#F2F2F2" d="M96.541,49.719c0,8.16,0.282,16.334-0.071,24.479
		c-0.432,9.955-5.643,16.858-14.776,20.797c-2.887,1.245-5.942,1.66-9.054,1.663c-15.333,0.017-30.668,0.028-46,0
		c-11.653-0.021-20.83-7.309-23.443-18.655c-0.404-1.745-0.499-3.593-0.503-5.394c-0.038-15.292,0.062-30.585-0.05-45.876
		C2.562,15.515,9.939,5.801,20.987,3.284c1.833-0.417,3.755-0.59,5.638-0.596C41.96,2.641,57.292,2.641,72.627,2.668
		c11.642,0.021,20.906,7.373,23.444,18.656c0.418,1.867,0.489,3.84,0.501,5.765c0.057,7.542,0.023,15.085,0.023,22.629
		C96.577,49.719,96.561,49.719,96.541,49.719z M49.601,8.583c0-0.014,0-0.028,0-0.043c-7.584,0-15.171-0.025-22.755,0.021
		c-1.595,0.009-3.24,0.075-4.776,0.455C13.914,11.03,8.492,17.99,8.478,26.413c-0.024,15.5-0.01,31,0.002,46.5
		c0,0.944,0.1,1.893,0.211,2.831c0.942,7.911,8.377,14.907,16.301,14.967c16.199,0.121,32.402,0.076,48.602,0.017
		c1.737-0.006,3.561-0.318,5.191-0.905c7.62-2.747,12.002-9.115,12.007-17.218c0.009-15.294,0.007-30.589-0.008-45.883
		c0-1.067-0.092-2.14-0.218-3.2c-0.914-7.809-8.394-14.787-16.229-14.909C66.092,8.483,57.846,8.583,49.601,8.583z"/>
	<path fill-rule="evenodd" clip-rule="evenodd" fill="#F2F2F2" d="M58.563,47.014c0.368,0.092,0.735,0.192,1.106,0.274
		c6.141,1.358,9.661,5.146,10.026,11.195c0.34,5.565-2.245,10.832-8.199,13.05c-2.393,0.892-5.025,1.477-7.569,1.555
		c-6.92,0.213-13.852,0.081-20.778,0.083c-0.197,0-0.396-0.028-0.663-0.05c0-16.527,0-32.997,0-49.55
		c0.39-0.022,0.748-0.061,1.106-0.061c6.103-0.003,12.204-0.038,18.304,0.009c3.834,0.031,7.585,0.508,10.784,2.911
		c3.514,2.638,4.919,6.286,4.463,10.52c-0.489,4.574-3.083,7.698-7.446,9.286c-0.39,0.143-0.776,0.289-1.166,0.432
		C58.541,46.784,58.553,46.899,58.563,47.014z M40.068,66.481c0.356,0.065,0.594,0.145,0.829,0.146
		c3.791,0.007,7.584,0.098,11.37-0.041c1.655-0.061,3.376-0.378,4.922-0.966c3.441-1.306,4.906-3.955,4.662-7.832
		c-0.202-3.176-2.213-5.558-5.526-6.501c-0.708-0.202-1.443-0.412-2.172-0.435c-4.399-0.137-8.803-0.21-13.204-0.326
		c-0.852-0.023-0.888,0.48-0.885,1.116c0.012,3.503,0.004,7.005,0.004,10.507C40.068,63.587,40.068,65.021,40.068,66.481z
		 M40.123,44.359c4.209,0,8.285,0.153,12.344-0.06c2.314-0.122,4.513-1.018,5.979-3.053c2.97-4.112,0.441-10.198-4.8-10.818
		c-4.352-0.515-8.788-0.296-13.187-0.392c-0.1-0.002-0.202,0.113-0.337,0.195C40.123,34.917,40.123,39.605,40.123,44.359z"/>
</g>
<g>
</g>
<g>
</g>
<g>
</g>
<g>
</g>
<g>
</g>
<g>
</g>
</svg>
