<?xml version="1.0" encoding="utf-8"?>
<!-- Generator: Adobe Illustrator 16.0.3, SVG Export Plug-In . SVG Version: 6.00 Build 0)  -->
<!DOCTYPE svg PUBLIC "-//W3C//DTD SVG 1.1//EN" "http://www.w3.org/Graphics/SVG/1.1/DTD/svg11.dtd">
<svg version="1.1" id="Capa_1" xmlns="http://www.w3.org/2000/svg" xmlns:xlink="http://www.w3.org/1999/xlink" x="0px" y="0px"
	 width="140px" height="140px" viewBox="0 0 140 140" enable-background="new 0 0 140 140" xml:space="preserve">
<g opacity="0.8">
	<path fill="#00A0C6" d="M102.842,113.055c14.018-17.281,11.141-40.55-3.479-54.181c-13.123-12.237-34.55-13.652-49.349-2.771
		c-9.113,6.702-14.667,15.713-15.929,26.907c-1.242,11.032,1.683,21.146,9.148,30.17c-4.287,0-8.099,0.006-11.911-0.004
		c-4.665-0.009-9.329-0.018-13.994-0.048c-5.425-0.034-8.819-3.472-8.821-8.892C8.5,85.281,8.494,66.328,8.475,47.375
		c-0.005-4.792,3.536-8.359,8.591-8.436c5.313-0.079,10.628-0.029,15.943-0.031c4.776-0.002,9.552-0.001,14.503-0.001
		c0.044-0.688,0.08-1.25,0.113-1.814c0.178-3.045,2.062-4.986,5.093-4.999c11.04-0.05,22.082-0.038,33.122-0.049
		c2.186-0.003,4.369-0.018,6.555-0.015c3.842,0.005,5.75,1.844,5.906,5.671c0.014,0.341,0.078,0.679,0.143,1.218
		c2.293,0,4.523,0.002,6.756,0c7.439-0.01,14.883-0.03,22.32-0.03c6.021,0,9.4,3.242,9.424,9.271
		c0.049,13.286-0.012,26.57-0.018,39.855c-0.002,5.195,0.035,10.392,0.037,15.59c0,6.17-3.387,9.576-9.502,9.574
		c-7.912-0.009-15.824-0.021-23.736-0.031C103.51,113.148,103.293,113.104,102.842,113.055z M118.197,55.987
		c0-0.008,0-0.016,0-0.023c2.652,0,5.305,0.032,7.957-0.01c2.543-0.041,4.477-2.039,4.473-4.535c-0.002-2.412-2.063-4.5-4.52-4.511
		c-5.188-0.026-10.375-0.034-15.564-0.019c-2.977,0.009-5.043,1.917-5.004,4.546c0.041,2.644,2.094,4.512,5.055,4.546
		C113.129,56.01,115.662,55.987,118.197,55.987z"/>
	<path fill="#00A0C6" d="M38.933,88.092C38.881,69.82,52.691,54.501,71.475,53.718c19.619-0.817,35.252,14.095,35.514,34.026
		c0.244,18.395-14.57,33.475-32.891,34.052C54.4,122.415,38.922,106.63,38.933,88.092z M93.072,87.967
		C92.908,76.156,83.898,67.288,72.2,67.66c-10.745,0.342-19.308,9.218-19.318,19.67c-0.009,11.915,8.932,20.675,20.629,20.556
		C83.996,107.779,93.217,98.389,93.072,87.967z"/>
	<path fill="#00A0C6" d="M19.247,36.742c0-2.122-0.124-4.066,0.033-5.989c0.178-2.167,1.982-3.993,4.247-4.055
		c4.951-0.136,9.91-0.118,14.861,0.002c2.108,0.05,3.945,1.758,4.126,3.743c0.188,2.032,0.042,4.095,0.042,6.298
		c-3.896,0-7.771,0-11.646,0C27.077,36.742,23.244,36.742,19.247,36.742z"/>
</g>
<g opacity="0.6">
	<path fill="#FF0000" d="M95.878,108.242c14.018-17.281,11.141-40.55-3.479-54.182C79.276,41.824,57.85,40.409,43.049,51.29
		c-9.113,6.702-14.667,15.713-15.929,26.907c-1.242,11.031,1.683,21.146,9.148,30.169c-4.287,0-8.099,0.007-11.911-0.003
		c-4.665-0.01-9.329-0.018-13.994-0.049c-5.425-0.033-8.819-3.471-8.821-8.891c-0.005-18.955-0.011-37.908-0.03-56.862
		c-0.005-4.792,3.536-8.359,8.591-8.436c5.313-0.079,10.628-0.029,15.943-0.031c4.776-0.002,9.552-0.001,14.503-0.001
		c0.044-0.688,0.08-1.25,0.113-1.814c0.178-3.045,2.062-4.986,5.093-4.999c11.04-0.05,22.082-0.038,33.122-0.049
		c2.187-0.003,4.369-0.018,6.556-0.015c3.842,0.005,5.75,1.844,5.905,5.671c0.015,0.341,0.078,0.679,0.144,1.218
		c2.293,0,4.522,0.002,6.754,0c7.44-0.01,14.884-0.03,22.322-0.03c6.021,0,9.399,3.242,9.424,9.271
		c0.047,13.286-0.012,26.57-0.019,39.856c-0.002,5.195,0.035,10.391,0.037,15.589c0,6.171-3.388,9.576-9.502,9.574
		c-7.912-0.007-15.824-0.019-23.735-0.03C96.546,108.336,96.329,108.292,95.878,108.242z M111.233,51.174c0-0.008,0-0.016,0-0.022
		c2.652,0,5.305,0.032,7.957-0.011c2.543-0.041,4.477-2.039,4.473-4.535c-0.002-2.411-2.063-4.5-4.52-4.51
		c-5.188-0.026-10.375-0.034-15.564-0.019c-2.977,0.009-5.043,1.917-5.004,4.546c0.041,2.644,2.094,4.513,5.055,4.546
		C106.165,51.197,108.698,51.174,111.233,51.174z"/>
	<path fill="#FF0000" d="M31.97,83.279c-0.052-18.271,13.758-33.592,32.542-34.374C84.129,48.088,99.763,63,100.024,82.932
		c0.244,18.394-14.569,33.475-32.889,34.051C47.437,117.602,31.958,101.817,31.97,83.279z M86.108,83.154
		c-0.164-11.811-9.174-20.68-20.873-20.307c-10.744,0.342-19.307,9.217-19.317,19.67c-0.009,11.914,8.933,20.675,20.629,20.556
		C77.032,102.969,86.253,93.575,86.108,83.154z"/>
	<path fill="#FF0000" d="M12.283,31.929c0-2.122-0.124-4.066,0.033-5.989c0.178-2.167,1.982-3.993,4.247-4.055
		c4.951-0.136,9.91-0.118,14.861,0.002c2.108,0.05,3.945,1.758,4.126,3.743c0.188,2.032,0.042,4.095,0.042,6.298
		c-3.896,0-7.771,0-11.646,0C20.114,31.929,16.28,31.929,12.283,31.929z"/>
</g>
<g>
	<path d="M99.123,109.922c14.018-17.281,11.141-40.55-3.479-54.181C82.521,43.504,61.094,42.089,46.294,52.97
		c-9.113,6.701-14.667,15.713-15.929,26.907c-1.242,11.032,1.683,21.146,9.148,30.169c-4.287,0-8.099,0.007-11.911-0.003
		c-4.665-0.009-9.329-0.018-13.994-0.048c-5.425-0.034-8.819-3.472-8.821-8.892C4.781,82.148,4.775,63.195,4.756,44.242
		c-0.005-4.792,3.536-8.359,8.591-8.436c5.313-0.079,10.628-0.029,15.943-0.031c4.776-0.002,9.552-0.001,14.503-0.001
		c0.044-0.688,0.08-1.25,0.113-1.814c0.178-3.045,2.062-4.986,5.093-4.999c11.04-0.05,22.082-0.038,33.123-0.049
		c2.187-0.003,4.369-0.018,6.555-0.015c3.843,0.005,5.75,1.844,5.906,5.671c0.015,0.341,0.078,0.679,0.144,1.218
		c2.293,0,4.522,0.002,6.754,0c7.44-0.01,14.883-0.03,22.321-0.03c6.021,0,9.4,3.242,9.425,9.271
		c0.047,13.285-0.013,26.571-0.019,39.856c-0.002,5.196,0.035,10.391,0.037,15.59c0,6.17-3.388,9.575-9.502,9.573
		c-7.912-0.007-15.824-0.019-23.736-0.03C99.791,110.016,99.574,109.973,99.123,109.922z M114.479,52.854c0-0.008,0-0.016,0-0.023
		c2.652,0,5.307,0.032,7.957-0.01c2.543-0.041,4.479-2.039,4.475-4.535c-0.002-2.412-2.063-4.5-4.521-4.511
		c-5.188-0.026-10.375-0.034-15.563-0.019c-2.979,0.009-5.043,1.917-5.006,4.546c0.041,2.644,2.096,4.512,5.057,4.546
		C109.41,52.877,111.943,52.854,114.479,52.854z"/>
	<path d="M35.214,84.959c-0.052-18.271,13.758-33.591,32.542-34.374c19.619-0.817,35.251,14.095,35.514,34.026
		c0.244,18.394-14.569,33.475-32.892,34.052C50.681,119.282,35.203,103.497,35.214,84.959z M89.354,84.834
		c-0.164-11.811-9.174-20.679-20.873-20.307c-10.745,0.342-19.309,9.218-19.319,19.67c-0.009,11.914,8.932,20.675,20.629,20.556
		C80.277,104.646,89.498,95.255,89.354,84.834z"/>
	<path d="M15.527,33.609c0-2.122-0.124-4.066,0.033-5.989c0.178-2.167,1.982-3.993,4.247-4.055c4.951-0.136,9.91-0.118,14.861,0.002
		c2.108,0.05,3.945,1.758,4.126,3.743c0.188,2.032,0.042,4.095,0.042,6.298c-3.896,0-7.771,0-11.646,0
		C23.358,33.609,19.524,33.609,15.527,33.609z"/>
</g>
</svg>
