<?xml version="1.0" encoding="utf-8"?>
<!-- Generator: Adobe Illustrator 16.0.3, SVG Export Plug-In . SVG Version: 6.00 Build 0)  -->
<!DOCTYPE svg PUBLIC "-//W3C//DTD SVG 1.1//EN" "http://www.w3.org/Graphics/SVG/1.1/DTD/svg11.dtd">
<svg version="1.1" id="Capa_1" xmlns="http://www.w3.org/2000/svg" xmlns:xlink="http://www.w3.org/1999/xlink" x="0px" y="0px"
	 width="140px" height="140px" viewBox="0 0 140 140" enable-background="new 0 0 140 140" xml:space="preserve">
<g opacity="0.6">
	<path fill-rule="evenodd" clip-rule="evenodd" fill="#FF0000" d="M64.155,103.921c-2.14-2.166-4.167-4.221-6.361-6.441
		c15.875-13.982,31.787-27.998,47.745-42.056c2.108,6.23,5.731,8.821,10.634,7.722c4.27-0.958,7.174-5.137,6.592-9.485
		c-0.716-5.347-4.443-7.489-12.736-7.255c0-3.544,0-7.087,0-10.793c-4.289,0-8.479,0-12.825,0c0-1.521,0.014-2.882-0.003-4.243
		c-0.063-4.892-3.764-8.6-8.562-8.592c-4.664,0.008-8.45,3.727-8.508,8.356c-0.06,4.884,3.608,8.611,8.581,8.716
		c0.329,0.007,0.659,0,1.379,0c-14.126,16.134-28.05,32.036-41.915,47.871c-2.177-2.184-4.241-4.254-6.616-6.635
		c0.958-0.844,2.105-1.756,3.14-2.781c4.749-4.709,9.432-9.483,14.205-14.166c4.69-4.603,6.883-10.152,6.437-16.681
		c-0.52-7.588,0.886-14.708,4.683-21.34c7.711-13.474,23.262-20.564,38.564-17.545c15.232,3.005,26.834,15.48,28.834,31.005
		c1.967,15.264-6.162,30.276-20.004,37.081c-5.806,2.854-11.919,4.049-18.339,3.604c-5.085-0.354-9.835,0.518-14.075,3.449
		c-1.201,0.83-2.327,1.801-3.365,2.83c-5.66,5.607-11.282,11.254-16.918,16.885C64.559,103.589,64.374,103.729,64.155,103.921z
		 M101.533,16.279c13.233,0.884,22.044,7.559,26.667,19.915c1.361-0.425,2.648-0.826,3.924-1.224
		c-3.316-12.935-19.358-24.804-30.591-22.712C101.533,13.556,101.533,14.868,101.533,16.279z M128.97,40.169
		c0.095,1.401,0.177,2.614,0.262,3.868c1.457,0,2.805,0,4.337,0c-0.113-1.528-0.22-2.956-0.335-4.521
		C131.72,39.748,130.425,39.946,128.97,40.169z"/>
	<path fill-rule="evenodd" clip-rule="evenodd" fill="#FF0000" d="M105.737,39.86c0,3.118,0.049,6.01-0.045,8.897
		c-0.018,0.542-0.504,1.185-0.952,1.581C92.946,60.762,81.128,71.161,69.314,81.563c-4.873,4.293-9.745,8.584-14.622,12.881
		c-1.175-1.193-2.299-2.336-3.515-3.57c2.501-2.869,5.04-5.793,7.591-8.705c12.123-13.838,24.248-27.673,36.382-41.5
		c0.291-0.331,0.712-0.767,1.081-0.774C99.349,39.833,102.467,39.86,105.737,39.86z"/>
	<path fill-rule="evenodd" clip-rule="evenodd" fill="#FF0000" d="M25.615,97.55c7.506,7.514,14.928,14.941,22.409,22.43
		c-4.167,5.131-9.38,8.281-16.318,7.109c-6.63-1.117-11.079-5.088-12.843-11.568C16.821,108.022,19.93,102.241,25.615,97.55z"/>
	<path fill-rule="evenodd" clip-rule="evenodd" fill="#FF0000" d="M41.628,32.251c-6.11,6.101-12.129,12.11-17.864,17.836
		c-2.718-2.526-5.753-4.927-8.255-7.793c-2.431-2.786-2.007-7.225,0.53-9.932c2.364-2.521,4.809-4.973,7.327-7.339
		c3.029-2.846,7.827-2.944,10.891-0.146C36.839,27.235,39.214,29.82,41.628,32.251z"/>
	<path fill-rule="evenodd" clip-rule="evenodd" fill="#FF0000" d="M74.011,100.634c2.325-2.355,4.773-4.834,7.138-7.229
		c7.047,7.045,14.137,14.135,21.159,21.156c-2.372,2.357-4.847,4.818-7.21,7.164C88.143,114.769,81.06,107.685,74.011,100.634z"/>
	<path fill-rule="evenodd" clip-rule="evenodd" fill="#FF0000" d="M105.65,111.067c-6.954-6.953-14.044-14.045-21.194-21.195
		c2.372-2.678,5.391-4.396,9.016-5.025c0.356-0.061,0.886,0.08,1.137,0.328c6.221,6.172,12.414,12.373,18.485,18.438
		C110.562,106.147,108.1,108.616,105.65,111.067z"/>
	<path fill-rule="evenodd" clip-rule="evenodd" fill="#FF0000" d="M69.404,116.019c-0.063,2.191-1.857,3.275-3.39,2.488
		c-0.37-0.189-0.698-0.49-0.997-0.787c-12.375-12.365-24.745-24.736-37.112-37.107c-0.266-0.268-0.543-0.545-0.728-0.869
		c-0.584-1.025-0.495-2.029,0.344-2.863c0.84-0.832,1.848-0.918,2.866-0.32c0.361,0.213,0.669,0.527,0.969,0.828
		c12.272,12.266,24.547,24.531,36.797,36.818C68.753,114.808,69.137,115.624,69.404,116.019z"/>
	<path fill-rule="evenodd" clip-rule="evenodd" fill="#FF0000" d="M99.411,124.3c5.433-5.428,10.71-10.701,16.074-16.061
		c2.333,7.58,4.68,15.205,7.137,23.191C114.737,129.007,107.104,126.661,99.411,124.3z"/>
	<path fill-rule="evenodd" clip-rule="evenodd" fill="#FF0000" d="M59.099,118.556c-0.602,0.781-0.974,1.654-1.625,1.994
		c-0.597,0.314-1.532,0.191-2.248,0c-0.489-0.131-0.878-0.689-1.279-1.09c-9.289-9.281-18.572-18.568-27.857-27.855
		c-0.268-0.268-0.552-0.523-0.791-0.814c-0.881-1.074-0.856-2.273,0.045-3.207c0.943-0.975,2.188-1.008,3.31-0.072
		c0.254,0.213,0.481,0.459,0.715,0.691c9.354,9.352,18.712,18.697,28.047,28.068C58.023,116.88,58.453,117.667,59.099,118.556z"/>
	<path fill-rule="evenodd" clip-rule="evenodd" fill="#FF0000" d="M44.767,71.623c-3.766-3.778-7.633-7.655-11.511-11.546
		c2.429-2.371,4.923-4.805,7.316-7.142c3.766,3.782,7.65,7.684,11.454,11.505C49.729,66.714,47.257,69.159,44.767,71.623z"/>
	<path fill-rule="evenodd" clip-rule="evenodd" fill="#FF0000" d="M55.71,61.088c-3.951-3.939-7.832-7.808-11.686-11.651
		c2.418-2.366,4.906-4.801,7.732-7.566c0.741,0.864,1.579,1.946,2.525,2.924c1.909,1.974,3.908,3.863,5.794,5.857
		c0.385,0.407,0.684,1.161,0.607,1.697C60.224,55.618,58.21,59.029,55.71,61.088z"/>
	<path fill-rule="evenodd" clip-rule="evenodd" fill="#FF0000" d="M29.628,56.938c-0.73-0.795-1.564-1.7-2.394-2.609
		c-0.155-0.17-0.293-0.357-0.362-0.441c6.074-6.058,12.097-12.067,18.181-18.136c0.856,0.901,1.878,1.978,2.825,2.974
		C41.913,44.679,35.891,50.689,29.628,56.938z"/>
	<path fill-rule="evenodd" clip-rule="evenodd" fill="#FF0000" d="M92.92,35.57c-1.601,0-2.975,0.052-4.342-0.012
		c-2.368-0.11-4.236-2.1-4.169-4.358c0.064-2.166,1.94-4.058,4.107-4.143c2.258-0.089,4.271,1.767,4.391,4.132
		C92.979,32.595,92.92,34.006,92.92,35.57z"/>
	<path fill-rule="evenodd" clip-rule="evenodd" fill="#FF0000" d="M113.545,50.563c3.258,0.003,5.46,2.203,4.931,4.926
		c-0.41,2.11-2.24,3.589-4.351,3.516c-2.096-0.072-3.835-1.69-4.084-3.819c-0.044-0.374-0.025-0.755-0.027-1.133
		C110.001,50.881,110.325,50.561,113.545,50.563z"/>
</g>
<g opacity="0.75">
	<path fill-rule="evenodd" clip-rule="evenodd" fill="#00A0C6" d="M57.065,104.756c-2.14-2.166-4.167-4.221-6.36-6.441
		c15.874-13.982,31.786-27.998,47.744-42.056c2.108,6.229,5.731,8.821,10.634,7.722c4.27-0.958,7.174-5.137,6.592-9.484
		c-0.716-5.348-4.443-7.489-12.736-7.255c0-3.544,0-7.087,0-10.793c-4.289,0-8.479,0-12.825,0c0-1.521,0.014-2.882-0.003-4.243
		c-0.063-4.892-3.764-8.6-8.562-8.592c-4.664,0.008-8.45,3.727-8.508,8.356c-0.06,4.884,3.608,8.611,8.581,8.716
		c0.329,0.007,0.659,0,1.379,0c-14.126,16.134-28.05,32.036-41.915,47.872c-2.177-2.184-4.24-4.254-6.615-6.635
		c0.957-0.844,2.105-1.756,3.14-2.781c4.749-4.709,9.433-9.484,14.205-14.167c4.69-4.603,6.883-10.152,6.437-16.681
		c-0.52-7.588,0.886-14.708,4.683-21.34c7.711-13.474,23.262-20.564,38.564-17.545c15.232,3.005,26.834,15.48,28.834,31.005
		c1.967,15.264-6.162,30.277-20.004,37.082c-5.806,2.854-11.919,4.049-18.339,3.604c-5.085-0.354-9.835,0.518-14.075,3.449
		c-1.201,0.83-2.327,1.801-3.365,2.83c-5.66,5.607-11.282,11.254-16.918,16.885C57.469,104.424,57.284,104.564,57.065,104.756z
		 M94.443,17.113c13.233,0.884,22.044,7.559,26.667,19.915c1.361-0.425,2.648-0.826,3.924-1.224
		C121.718,22.869,105.676,11,94.443,13.092C94.443,14.391,94.443,15.703,94.443,17.113z M121.88,41.004
		c0.095,1.401,0.177,2.614,0.262,3.868c1.457,0,2.805,0,4.337,0c-0.113-1.528-0.22-2.956-0.335-4.521
		C124.63,40.583,123.335,40.781,121.88,41.004z"/>
	<path fill-rule="evenodd" clip-rule="evenodd" fill="#00A0C6" d="M98.647,40.694c0,3.118,0.049,6.01-0.045,8.897
		c-0.018,0.543-0.504,1.186-0.952,1.581C85.856,61.597,74.038,71.996,62.225,82.398c-4.873,4.293-9.744,8.584-14.622,12.881
		c-1.175-1.193-2.299-2.336-3.515-3.57c2.502-2.869,5.04-5.793,7.592-8.705c12.122-13.838,24.247-27.674,36.382-41.5
		c0.291-0.331,0.712-0.767,1.081-0.774C92.259,40.668,95.377,40.694,98.647,40.694z"/>
	<path fill-rule="evenodd" clip-rule="evenodd" fill="#00A0C6" d="M18.525,98.385c7.506,7.514,14.928,14.941,22.408,22.43
		c-4.166,5.131-9.379,8.281-16.317,7.109c-6.63-1.117-11.079-5.088-12.843-11.568C9.731,108.857,12.84,103.076,18.525,98.385z"/>
	<path fill-rule="evenodd" clip-rule="evenodd" fill="#00A0C6" d="M34.538,33.086c-6.11,6.101-12.13,12.11-17.864,17.835
		c-2.718-2.525-5.753-4.926-8.254-7.793c-2.432-2.786-2.008-7.225,0.529-9.932c2.363-2.521,4.809-4.973,7.327-7.339
		c3.029-2.846,7.827-2.944,10.891-0.146C29.749,28.069,32.125,30.655,34.538,33.086z"/>
	<path fill-rule="evenodd" clip-rule="evenodd" fill="#00A0C6" d="M66.921,101.469c2.325-2.355,4.773-4.834,7.138-7.229
		c7.047,7.045,14.137,14.135,21.159,21.156c-2.372,2.357-4.847,4.818-7.21,7.164C81.053,115.604,73.97,108.52,66.921,101.469z"/>
	<path fill-rule="evenodd" clip-rule="evenodd" fill="#00A0C6" d="M98.561,111.902c-6.954-6.953-14.044-14.045-21.194-21.195
		c2.372-2.678,5.391-4.396,9.016-5.025c0.356-0.061,0.886,0.08,1.137,0.328c6.221,6.172,12.414,12.373,18.485,18.438
		C103.472,106.982,101.01,109.451,98.561,111.902z"/>
	<path fill-rule="evenodd" clip-rule="evenodd" fill="#00A0C6" d="M62.314,116.854c-0.063,2.191-1.857,3.275-3.39,2.488
		c-0.37-0.189-0.698-0.49-0.997-0.787c-12.375-12.365-24.745-24.736-37.111-37.107c-0.267-0.268-0.544-0.545-0.729-0.869
		c-0.584-1.025-0.495-2.029,0.344-2.863c0.84-0.832,1.849-0.918,2.867-0.32c0.36,0.213,0.668,0.527,0.969,0.828
		c12.272,12.266,24.547,24.531,36.797,36.818C61.663,115.643,62.047,116.459,62.314,116.854z"/>
	<path fill-rule="evenodd" clip-rule="evenodd" fill="#00A0C6" d="M92.321,125.135c5.433-5.428,10.71-10.701,16.074-16.061
		c2.333,7.58,4.68,15.205,7.137,23.191C107.647,129.842,100.015,127.496,92.321,125.135z"/>
	<path fill-rule="evenodd" clip-rule="evenodd" fill="#00A0C6" d="M52.009,119.391c-0.602,0.781-0.974,1.654-1.625,1.994
		c-0.597,0.314-1.532,0.191-2.248,0c-0.489-0.131-0.878-0.689-1.279-1.09C37.568,111.014,28.284,101.727,19,92.439
		c-0.269-0.268-0.553-0.523-0.791-0.814c-0.881-1.074-0.856-2.273,0.045-3.207c0.942-0.975,2.188-1.008,3.309-0.072
		c0.255,0.213,0.482,0.459,0.716,0.691c9.354,9.352,18.712,18.697,28.047,28.068C50.934,117.715,51.363,118.502,52.009,119.391z"/>
	<path fill-rule="evenodd" clip-rule="evenodd" fill="#00A0C6" d="M37.678,72.457c-3.767-3.778-7.633-7.655-11.512-11.545
		c2.43-2.371,4.924-4.805,7.316-7.143c3.766,3.783,7.65,7.685,11.455,11.506C42.639,67.548,40.168,69.994,37.678,72.457z"/>
	<path fill-rule="evenodd" clip-rule="evenodd" fill="#00A0C6" d="M48.62,61.923c-3.951-3.939-7.831-7.809-11.686-11.652
		c2.418-2.366,4.905-4.801,7.731-7.566c0.742,0.864,1.58,1.946,2.525,2.924c1.909,1.974,3.908,3.862,5.794,5.857
		c0.386,0.407,0.684,1.161,0.607,1.697C53.135,56.453,51.121,59.863,48.62,61.923z"/>
	<path fill-rule="evenodd" clip-rule="evenodd" fill="#00A0C6" d="M22.539,57.773c-0.73-0.795-1.564-1.7-2.395-2.609
		c-0.154-0.17-0.293-0.356-0.362-0.44c6.073-6.058,12.097-12.067,18.181-18.136c0.856,0.901,1.879,1.978,2.826,2.974
		C34.823,45.514,28.801,51.523,22.539,57.773z"/>
	<path fill-rule="evenodd" clip-rule="evenodd" fill="#00A0C6" d="M85.83,36.404c-1.601,0-2.975,0.052-4.342-0.012
		c-2.368-0.11-4.236-2.1-4.169-4.358c0.064-2.166,1.94-4.058,4.107-4.143c2.258-0.089,4.271,1.767,4.391,4.132
		C85.889,33.429,85.83,34.841,85.83,36.404z"/>
	<path fill-rule="evenodd" clip-rule="evenodd" fill="#00A0C6" d="M106.455,51.398c3.258,0.004,5.46,2.203,4.931,4.926
		c-0.41,2.109-2.24,3.589-4.351,3.516c-2.096-0.072-3.835-1.689-4.084-3.818c-0.044-0.374-0.025-0.756-0.027-1.133
		C102.911,51.715,103.235,51.396,106.455,51.398z"/>
</g>
<g>
	<path fill-rule="evenodd" clip-rule="evenodd" d="M60.815,104.264c-2.14-2.166-4.167-4.221-6.361-6.441
		c15.875-13.982,31.787-27.999,47.745-42.056c2.108,6.23,5.731,8.822,10.634,7.722c4.27-0.958,7.174-5.137,6.592-9.485
		c-0.716-5.347-4.443-7.489-12.736-7.255c0-3.544,0-7.087,0-10.793c-4.289,0-8.479,0-12.825,0c0-1.521,0.014-2.882-0.003-4.243
		c-0.063-4.892-3.764-8.6-8.562-8.592c-4.664,0.008-8.45,3.727-8.508,8.356c-0.06,4.884,3.608,8.611,8.581,8.716
		c0.329,0.007,0.659,0,1.379,0c-14.126,16.134-28.05,32.036-41.915,47.871c-2.177-2.184-4.241-4.254-6.616-6.635
		c0.958-0.844,2.105-1.756,3.14-2.781c4.749-4.709,9.432-9.483,14.205-14.167c4.69-4.602,6.883-10.152,6.437-16.68
		c-0.52-7.588,0.886-14.708,4.683-21.34c7.711-13.474,23.262-20.564,38.564-17.545c15.232,3.005,26.834,15.48,28.834,31.005
		c1.967,15.264-6.162,30.276-20.004,37.081c-5.806,2.854-11.919,4.049-18.339,3.604c-5.085-0.354-9.835,0.518-14.075,3.449
		c-1.201,0.83-2.327,1.801-3.365,2.83c-5.66,5.607-11.282,11.254-16.918,16.885C61.219,103.932,61.034,104.072,60.815,104.264z
		 M98.193,16.622c13.233,0.884,22.044,7.559,26.667,19.915c1.361-0.425,2.648-0.826,3.924-1.224
		c-3.316-12.935-19.358-24.804-30.591-22.712C98.193,13.899,98.193,15.211,98.193,16.622z M125.63,40.512
		c0.095,1.401,0.177,2.614,0.262,3.868c1.457,0,2.805,0,4.337,0c-0.113-1.528-0.22-2.956-0.335-4.521
		C128.38,40.091,127.085,40.289,125.63,40.512z"/>
	<path fill-rule="evenodd" clip-rule="evenodd" d="M102.397,40.203c0,3.118,0.049,6.01-0.045,8.897
		c-0.018,0.542-0.504,1.185-0.952,1.581C89.606,61.105,77.788,71.504,65.975,81.906c-4.873,4.293-9.745,8.584-14.622,12.881
		c-1.175-1.193-2.299-2.336-3.515-3.57c2.501-2.869,5.04-5.793,7.591-8.705c12.123-13.837,24.248-27.673,36.382-41.5
		c0.291-0.331,0.712-0.767,1.081-0.774C96.009,40.176,99.127,40.203,102.397,40.203z"/>
	<path fill-rule="evenodd" clip-rule="evenodd" d="M22.275,97.893c7.506,7.514,14.928,14.941,22.409,22.43
		c-4.167,5.131-9.38,8.281-16.318,7.109c-6.63-1.117-11.079-5.088-12.843-11.568C13.481,108.365,16.59,102.584,22.275,97.893z"/>
	<path fill-rule="evenodd" clip-rule="evenodd" d="M38.288,32.594c-6.11,6.101-12.129,12.11-17.864,17.836
		c-2.718-2.526-5.753-4.927-8.255-7.793c-2.431-2.786-2.007-7.225,0.53-9.932c2.364-2.521,4.809-4.973,7.327-7.339
		c3.029-2.846,7.827-2.944,10.891-0.146C33.499,27.578,35.875,30.163,38.288,32.594z"/>
	<path fill-rule="evenodd" clip-rule="evenodd" d="M70.671,100.977c2.325-2.355,4.773-4.834,7.138-7.229
		c7.047,7.045,14.137,14.135,21.159,21.156c-2.372,2.357-4.847,4.818-7.21,7.164C84.803,115.111,77.72,108.027,70.671,100.977z"/>
	<path fill-rule="evenodd" clip-rule="evenodd" d="M102.311,111.41c-6.954-6.953-14.044-14.045-21.194-21.195
		c2.372-2.678,5.391-4.396,9.016-5.025c0.356-0.061,0.886,0.08,1.137,0.328c6.221,6.172,12.414,12.373,18.485,18.438
		C107.222,106.49,104.76,108.959,102.311,111.41z"/>
	<path fill-rule="evenodd" clip-rule="evenodd" d="M66.064,116.361c-0.063,2.191-1.857,3.275-3.39,2.488
		c-0.37-0.189-0.698-0.49-0.997-0.787c-12.375-12.365-24.745-24.736-37.112-37.107c-0.266-0.268-0.543-0.545-0.728-0.869
		c-0.584-1.025-0.495-2.029,0.344-2.863c0.84-0.832,1.848-0.918,2.866-0.32c0.361,0.213,0.669,0.527,0.969,0.828
		c12.272,12.266,24.547,24.531,36.797,36.818C65.413,115.15,65.797,115.967,66.064,116.361z"/>
	<path fill-rule="evenodd" clip-rule="evenodd" d="M96.071,124.643c5.433-5.428,10.71-10.701,16.074-16.061
		c2.333,7.58,4.68,15.205,7.137,23.191C111.397,129.35,103.765,127.004,96.071,124.643z"/>
	<path fill-rule="evenodd" clip-rule="evenodd" d="M55.759,118.898c-0.602,0.781-0.974,1.654-1.625,1.994
		c-0.597,0.314-1.532,0.191-2.248,0c-0.489-0.131-0.878-0.689-1.279-1.09c-9.289-9.281-18.572-18.568-27.857-27.855
		c-0.268-0.268-0.552-0.523-0.791-0.814c-0.881-1.074-0.856-2.273,0.045-3.207c0.943-0.975,2.188-1.008,3.31-0.072
		c0.254,0.213,0.481,0.459,0.715,0.691c9.354,9.352,18.712,18.697,28.047,28.068C54.683,117.223,55.113,118.01,55.759,118.898z"/>
	<path fill-rule="evenodd" clip-rule="evenodd" d="M41.427,71.966c-3.766-3.778-7.633-7.656-11.511-11.546
		c2.429-2.371,4.923-4.805,7.316-7.142c3.766,3.782,7.65,7.684,11.454,11.505C46.389,67.056,43.917,69.502,41.427,71.966z"/>
	<path fill-rule="evenodd" clip-rule="evenodd" d="M52.37,61.431c-3.951-3.939-7.832-7.808-11.686-11.651
		c2.418-2.366,4.906-4.801,7.732-7.566c0.741,0.864,1.579,1.946,2.525,2.924c1.909,1.974,3.908,3.863,5.794,5.857
		c0.385,0.407,0.684,1.161,0.607,1.697C56.884,55.96,54.871,59.372,52.37,61.431z"/>
	<path fill-rule="evenodd" clip-rule="evenodd" d="M26.289,57.281c-0.73-0.795-1.564-1.7-2.394-2.609
		c-0.155-0.17-0.293-0.357-0.362-0.441c6.074-6.058,12.097-12.067,18.181-18.136c0.856,0.901,1.878,1.978,2.825,2.974
		C38.573,45.022,32.551,51.032,26.289,57.281z"/>
	<path fill-rule="evenodd" clip-rule="evenodd" d="M89.58,35.913c-1.601,0-2.975,0.052-4.342-0.012
		c-2.368-0.11-4.236-2.1-4.169-4.358c0.064-2.166,1.94-4.058,4.107-4.143c2.258-0.089,4.271,1.767,4.391,4.132
		C89.639,32.938,89.58,34.349,89.58,35.913z"/>
	<path fill-rule="evenodd" clip-rule="evenodd" d="M110.205,50.906c3.258,0.003,5.46,2.203,4.931,4.926
		c-0.41,2.11-2.24,3.589-4.351,3.516c-2.096-0.072-3.835-1.69-4.084-3.819c-0.044-0.374-0.025-0.755-0.027-1.133
		C106.661,51.224,106.985,50.904,110.205,50.906z"/>
</g>
<g>
</g>
<g>
</g>
<g>
</g>
<g>
</g>
<g>
</g>
<g>
</g>
</svg>
