<?xml version="1.0" encoding="utf-8"?>
<!-- Generator: Adobe Illustrator 16.0.3, SVG Export Plug-In . SVG Version: 6.00 Build 0)  -->
<!DOCTYPE svg PUBLIC "-//W3C//DTD SVG 1.1//EN" "http://www.w3.org/Graphics/SVG/1.1/DTD/svg11.dtd">
<svg version="1.1" id="Capa_1" xmlns="http://www.w3.org/2000/svg" xmlns:xlink="http://www.w3.org/1999/xlink" x="0px" y="0px"
	 width="100px" height="100px" viewBox="0 0 100 100" enable-background="new 0 0 100 100" xml:space="preserve">
<g>
	<path fill="#F2F2F2" d="M59.322,4.458c0.719,0.558,1.507,1.048,2.15,1.686c5.313,5.275,10.592,10.59,15.907,15.866
		c0.882,0.878,1.315,1.834,1.299,3.094c-0.047,3.579-0.017,7.158-0.017,10.804c-1.894,0-3.756,0-5.713,0c0-2.804,0-5.62,0-8.527
		c-0.417,0-0.733,0-1.053,0c-3.344,0-6.685,0.01-10.025-0.002c-3.706-0.013-6.112-2.409-6.129-6.101
		c-0.012-3.343-0.002-6.685-0.002-10.026c0-0.322,0-0.644,0-1.063c-0.395,0-0.712,0-1.03,0c-13.754,0-27.509,0-41.265,0
		c-2.514,0-3.551,1.023-3.551,3.507c0,24.407,0,48.813,0,73.22c0,2.449,1.042,3.501,3.468,3.501
		c6.116,0.001,12.233,0.001,18.349,0.001c0.325,0,0.651,0,1.107,0c0,1.938,0,3.835,0,5.728c-6.984,0-13.969,0-20.953,0
		c-0.107-0.043-0.21-0.111-0.322-0.129c-2.213-0.31-3.997-1.361-5.432-3.067c-1.105-1.313-1.592-2.873-1.946-4.503
		c0-25.43,0-50.858,0-76.287c0.047-0.139,0.121-0.272,0.142-0.415C4.632,9.6,5.656,7.864,7.297,6.457
		c1.323-1.137,2.91-1.643,4.566-2C27.683,4.458,43.504,4.458,59.322,4.458z"/>
	<path fill="#F2F2F2" d="M95.855,71.254c-0.543,1.37-0.891,2.865-1.677,4.078c-1.417,2.19-3.602,3.412-6.219,3.533
		c-2.467,0.116-4.963,0.186-7.414-0.056c-4.403-0.437-7.397-3.854-7.575-8.379c1.86,0,3.719,0,5.587,0
		c0.737,2.324,1.394,2.794,3.928,2.794c1.521,0,3.043,0.013,4.563-0.002c1.813-0.019,3.094-1.241,3.071-2.904
		c-0.022-1.626-1.29-2.791-3.063-2.826c-2.265-0.043-4.553,0.1-6.786-0.184c-3.554-0.451-5.917-2.586-6.934-6.002
		c-0.995-3.352-0.105-6.304,2.416-8.721c1.576-1.51,3.522-2.231,5.68-2.26c2.326-0.031,4.662-0.077,6.97,0.136
		c3.716,0.341,6.747,3.374,7.303,7.034c0.025,0.172,0.1,0.34,0.151,0.507c0,0.297,0,0.597,0,0.896c-1.898,0-3.797,0-5.674,0
		c-0.446-2.103-1.382-2.863-3.435-2.866c-1.64-0.002-3.279-0.008-4.919,0.002c-1.884,0.013-3.181,1.207-3.159,2.899
		c0.019,1.655,1.3,2.815,3.141,2.829c1.728,0.01,3.456-0.014,5.185,0.004c2.947,0.035,5.372,1.15,7.177,3.523
		c0.939,1.239,1.362,2.686,1.685,4.174C95.855,70.061,95.855,70.656,95.855,71.254z"/>
	<path fill="#F2F2F2" d="M70.024,58.866c-1.914,0-3.757,0-5.593,0c-0.633-2.26-1.399-2.833-3.766-2.833
		c-1.521,0-3.044-0.006-4.564,0c-1.918,0.011-3.208,1.156-3.221,2.845c-0.01,1.695,1.286,2.859,3.182,2.89
		c2.236,0.036,4.485-0.043,6.703,0.17c4.354,0.415,7.791,4.893,7.226,9.22c-0.57,4.369-3.43,7.306-7.841,7.696
		c-2.453,0.218-4.962,0.192-7.413-0.048c-4.386-0.431-7.433-3.926-7.552-8.445c0.945,0,1.889,0,2.835,0c0.923,0,1.845,0,2.752,0
		c0.642,2.293,1.406,2.866,3.773,2.866c1.523,0,3.045,0.004,4.564-0.002c1.919-0.008,3.209-1.153,3.221-2.847
		c0.011-1.693-1.284-2.855-3.183-2.886c-2.233-0.039-4.482,0.041-6.701-0.172c-4.355-0.414-7.791-4.895-7.226-9.218
		c0.571-4.368,3.432-7.309,7.842-7.698c2.453-0.217,4.961-0.192,7.413,0.049C66.86,50.881,69.907,54.376,70.024,58.866z"/>
	<path fill="#F2F2F2" d="M38.583,67.527c1.89,0,3.732,0,5.667,0c0.031,1.973-0.462,3.776-1.39,5.467
		c-2.502,4.552-7.689,6.842-12.701,5.627c-5.084-1.23-8.681-5.625-8.777-10.852c-0.045-2.561-0.128-5.149,0.17-7.685
		c0.635-5.381,5.242-9.497,10.619-9.76c5.532-0.273,10.458,3.349,11.743,8.664c0.208,0.864,0.289,1.756,0.439,2.712
		c-1.977,0-3.842,0-5.774,0c-0.151-1.699-0.748-3.202-2.121-4.331c-3.377-2.775-8.621-0.954-9.193,3.373
		c-0.337,2.546-0.258,5.193-0.01,7.76c0.263,2.749,2.814,4.718,5.565,4.717c2.753-0.002,5.118-1.987,5.616-4.717
		C38.488,68.209,38.525,67.913,38.583,67.527z"/>
</g>
<g>
</g>
<g>
</g>
<g>
</g>
<g>
</g>
<g>
</g>
<g>
</g>
</svg>
