<?xml version="1.0" encoding="utf-8"?>
<!-- Generator: Adobe Illustrator 16.0.3, SVG Export Plug-In . SVG Version: 6.00 Build 0)  -->
<!DOCTYPE svg PUBLIC "-//W3C//DTD SVG 1.1//EN" "http://www.w3.org/Graphics/SVG/1.1/DTD/svg11.dtd">
<svg version="1.1" id="Capa_1" xmlns="http://www.w3.org/2000/svg" xmlns:xlink="http://www.w3.org/1999/xlink" x="0px" y="0px"
	 width="140px" height="140px" viewBox="0 0 140 140" enable-background="new 0 0 140 140" xml:space="preserve">
<g opacity="0.8">
	<path fill-rule="evenodd" clip-rule="evenodd" fill="#00A0C6" d="M77.416,4.696c0.971,0.752,2.034,1.414,2.899,2.274
		c7.174,7.121,14.297,14.294,21.471,21.415c1.193,1.186,1.778,2.476,1.755,4.176c-0.062,4.83-0.022,9.662-0.022,14.583
		c-2.555,0-5.066,0-7.71,0c0-3.786,0-7.587,0-11.511c-0.562,0-0.992,0-1.422,0c-4.512,0-9.021,0.014-13.532-0.002
		c-4.999-0.019-8.248-3.251-8.27-8.235c-0.019-4.513-0.004-9.023-0.004-13.532c0-0.436,0-0.871,0-1.435c-0.528,0-0.959,0-1.39,0
		c-18.565,0-37.131,0-55.696,0c-3.393,0-4.794,1.381-4.794,4.733c0,32.943,0,65.887,0,98.83c0,3.303,1.407,4.725,4.679,4.725
		c8.256,0.003,16.511,0.003,24.768,0.003c0.439,0,0.879,0,1.493,0c0,2.614,0,5.176,0,7.731c-9.425,0-18.853,0-28.281,0
		c-0.144-0.06-0.284-0.151-0.434-0.174c-2.987-0.42-5.396-1.841-7.332-4.14c-1.492-1.773-2.148-3.881-2.627-6.08
		c0-34.322,0-68.645,0-102.968c0.064-0.188,0.163-0.368,0.191-0.561c0.441-2.892,1.823-5.235,4.037-7.134
		c1.788-1.536,3.929-2.216,6.165-2.701C34.711,4.696,56.065,4.696,77.416,4.696z"/>
	<path fill-rule="evenodd" clip-rule="evenodd" fill="#00A0C6" d="M126.726,94.856c-0.735,1.848-1.2,3.868-2.263,5.505
		c-1.914,2.956-4.86,4.604-8.394,4.769c-3.329,0.155-6.7,0.249-10.006-0.076c-5.942-0.589-9.984-5.201-10.227-11.31
		c2.511,0,5.021,0,7.542,0c0.996,3.14,1.878,3.771,5.301,3.771c2.051,0,4.106,0.015,6.158-0.004c2.446-0.025,4.178-1.675,4.145-3.92
		c-0.029-2.193-1.739-3.766-4.133-3.814c-3.056-0.056-6.145,0.135-9.16-0.246c-4.797-0.608-7.984-3.492-9.357-8.103
		c-1.346-4.524-0.145-8.509,3.258-11.771c2.129-2.038,4.756-3.011,7.668-3.05c3.137-0.041,6.292-0.103,9.406,0.183
		c5.018,0.46,9.109,4.555,9.857,9.493c0.034,0.233,0.134,0.458,0.204,0.685c0,0.402,0,0.806,0,1.212c-2.563,0-5.126,0-7.658,0
		c-0.604-2.842-1.866-3.866-4.637-3.871c-2.213-0.003-4.426-0.011-6.637,0.003c-2.545,0.015-4.292,1.63-4.267,3.912
		c0.026,2.234,1.756,3.804,4.237,3.819c2.331,0.014,4.666-0.02,7,0.008c3.979,0.043,7.252,1.551,9.688,4.753
		c1.269,1.674,1.837,3.628,2.273,5.635C126.726,93.244,126.726,94.05,126.726,94.856z"/>
	<path fill-rule="evenodd" clip-rule="evenodd" fill="#00A0C6" d="M91.861,78.133c-2.584,0-5.071,0-7.55,0
		c-0.855-3.05-1.889-3.823-5.084-3.823c-2.054,0-4.106-0.006-6.161,0.003c-2.589,0.011-4.33,1.558-4.345,3.84
		c-0.015,2.285,1.732,3.857,4.294,3.899c3.018,0.048,6.051-0.059,9.048,0.228c5.874,0.562,10.515,6.606,9.753,12.446
		c-0.771,5.896-4.63,9.861-10.585,10.388c-3.311,0.293-6.695,0.26-10.005-0.064c-5.92-0.581-10.032-5.299-10.191-11.399
		c1.274,0,2.549,0,3.825,0c1.245,0,2.489,0,3.713,0c0.866,3.095,1.899,3.866,5.093,3.866c2.056,0,4.109,0.008,6.163-0.001
		c2.588-0.012,4.331-1.558,4.345-3.842c0.015-2.286-1.732-3.856-4.295-3.898c-3.018-0.049-6.05,0.059-9.046-0.228
		c-5.877-0.563-10.517-6.608-9.753-12.448c0.771-5.894,4.631-9.862,10.584-10.387c3.312-0.294,6.697-0.261,10.005,0.064
		C87.588,67.356,91.702,72.074,91.861,78.133z"/>
	<path fill-rule="evenodd" clip-rule="evenodd" fill="#00A0C6" d="M49.422,89.826c2.551,0,5.037,0,7.649,0
		c0.04,2.661-0.625,5.098-1.877,7.377c-3.377,6.146-10.376,9.237-17.144,7.597c-6.861-1.66-11.717-7.591-11.845-14.646
		c-0.063-3.458-0.175-6.95,0.229-10.372c0.858-7.266,7.076-12.818,14.333-13.175c7.467-0.368,14.116,4.523,15.851,11.696
		c0.282,1.163,0.39,2.368,0.593,3.657c-2.669,0-5.186,0-7.793,0c-0.204-2.293-1.01-4.322-2.863-5.847
		c-4.558-3.745-11.636-1.287-12.409,4.554c-0.456,3.438-0.348,7.012-0.015,10.476c0.356,3.71,3.8,6.368,7.513,6.364
		c3.716,0,6.907-2.68,7.579-6.364C49.294,90.745,49.345,90.346,49.422,89.826z"/>
</g>
<g opacity="0.6">
	<path fill-rule="evenodd" clip-rule="evenodd" fill="#FF0000" d="M85.718,3c0.979,0.757,2.051,1.424,2.921,2.291
		c7.226,7.172,14.4,14.396,21.625,21.568c1.201,1.194,1.789,2.493,1.768,4.205c-0.064,4.865-0.022,9.729-0.022,14.688
		c-2.576,0-5.104,0-7.766,0c0-3.813,0-7.64,0-11.593c-0.566,0-1,0-1.433,0c-4.544,0-9.086,0.015-13.63-0.001
		c-5.033-0.019-8.306-3.275-8.326-8.294c-0.019-4.543-0.005-9.087-0.005-13.629c0-0.438,0-0.876,0-1.443c-0.533,0-0.966,0-1.399,0
		c-18.697,0-37.396,0-56.093,0c-3.417,0-4.828,1.391-4.828,4.766c0,33.178,0,66.357,0,99.535c0,3.326,1.417,4.758,4.712,4.758
		c8.315,0.002,16.629,0.002,24.944,0.002c0.442,0,0.885,0,1.503,0c0,2.635,0,5.214,0,7.787c-9.493,0-18.987,0-28.482,0
		c-0.145-0.059-0.286-0.152-0.438-0.175c-3.009-0.422-5.434-1.853-7.384-4.168c-1.502-1.787-2.164-3.909-2.646-6.124
		c0-34.566,0-69.135,0-103.702c0.064-0.189,0.164-0.372,0.192-0.564c0.444-2.913,1.836-5.274,4.065-7.186
		c1.801-1.548,3.957-2.234,6.209-2.72C42.71,3,64.216,3,85.718,3z"/>
	<path fill-rule="evenodd" clip-rule="evenodd" fill="#FF0000" d="M135.381,93.802c-0.741,1.862-1.211,3.896-2.279,5.543
		c-1.927,2.978-4.896,4.638-8.454,4.804c-3.354,0.157-6.746,0.25-10.077-0.077c-5.984-0.592-10.056-5.237-10.299-11.389
		c2.527,0,5.056,0,7.595,0c1.004,3.159,1.892,3.798,5.338,3.798c2.068,0,4.136,0.014,6.203-0.004
		c2.465-0.025,4.207-1.687,4.175-3.947c-0.03-2.21-1.752-3.794-4.162-3.842c-3.079-0.058-6.19,0.136-9.227-0.249
		c-4.831-0.613-8.042-3.517-9.423-8.16c-1.354-4.556-0.146-8.567,3.281-11.854c2.143-2.054,4.79-3.033,7.721-3.073
		c3.16-0.042,6.338-0.104,9.476,0.185c5.05,0.464,9.173,4.586,9.928,9.561c0.034,0.234,0.133,0.461,0.205,0.689
		c0,0.405,0,0.811,0,1.219c-2.581,0-5.163,0-7.714,0c-0.609-2.86-1.878-3.893-4.67-3.897c-2.229-0.003-4.456-0.011-6.684,0.003
		c-2.564,0.016-4.325,1.64-4.296,3.941c0.025,2.248,1.766,3.83,4.268,3.846c2.348,0.014,4.697-0.019,7.05,0.007
		c4.006,0.044,7.302,1.563,9.753,4.788c1.28,1.686,1.853,3.652,2.293,5.675C135.381,92.18,135.381,92.99,135.381,93.802z"/>
	<path fill-rule="evenodd" clip-rule="evenodd" fill="#FF0000" d="M100.268,76.96c-2.602,0-5.107,0-7.604,0
		c-0.859-3.071-1.901-3.852-5.12-3.852c-2.066,0-4.136-0.006-6.204,0.003c-2.607,0.012-4.362,1.569-4.378,3.867
		c-0.014,2.303,1.746,3.885,4.326,3.927c3.039,0.049,6.094-0.058,9.112,0.23c5.917,0.564,10.591,6.652,9.821,12.534
		c-0.774,5.938-4.662,9.932-10.659,10.462c-3.335,0.295-6.744,0.263-10.077-0.064c-5.961-0.585-10.103-5.337-10.264-11.48
		c1.284,0,2.567,0,3.853,0c1.254,0,2.508,0,3.739,0c0.872,3.116,1.914,3.894,5.132,3.894c2.069,0,4.138,0.008,6.205,0
		c2.607-0.014,4.364-1.569,4.378-3.87c0.015-2.304-1.746-3.884-4.327-3.926c-3.037-0.05-6.093,0.059-9.11-0.23
		c-5.919-0.566-10.592-6.655-9.823-12.536c0.776-5.937,4.664-9.932,10.661-10.462c3.334-0.296,6.744-0.26,10.076,0.067
		C95.964,66.105,100.107,70.858,100.268,76.96z"/>
	<path fill-rule="evenodd" clip-rule="evenodd" fill="#FF0000" d="M57.526,88.735c2.569,0,5.073,0,7.704,0
		c0.041,2.682-0.629,5.135-1.89,7.429c-3.401,6.19-10.451,9.305-17.267,7.652c-6.91-1.673-11.8-7.646-11.929-14.751
		c-0.064-3.482-0.177-7.002,0.229-10.445c0.865-7.317,7.126-12.911,14.436-13.269c7.52-0.372,14.216,4.552,15.963,11.779
		c0.284,1.172,0.392,2.383,0.597,3.684c-2.688,0-5.224,0-7.849,0c-0.205-2.31-1.016-4.354-2.883-5.889
		c-4.591-3.772-11.718-1.296-12.497,4.586c-0.458,3.461-0.351,7.062-0.015,10.551c0.358,3.735,3.827,6.413,7.567,6.41
		c3.741-0.002,6.956-2.7,7.632-6.41C57.396,89.662,57.447,89.259,57.526,88.735z"/>
</g>
<g>
	<path fill-rule="evenodd" clip-rule="evenodd" d="M81.353,3c0.978,0.757,2.049,1.424,2.921,2.291
		c7.225,7.172,14.398,14.396,21.624,21.568c1.201,1.194,1.789,2.493,1.767,4.205c-0.063,4.865-0.021,9.729-0.021,14.688
		c-2.574,0-5.104,0-7.765,0c0-3.813,0-7.64,0-11.593c-0.567,0-1,0-1.434,0c-4.544,0-9.086,0.015-13.629-0.001
		c-5.034-0.019-8.306-3.275-8.328-8.294c-0.018-4.543-0.004-9.087-0.004-13.629c0-0.438,0-0.876,0-1.443c-0.532,0-0.967,0-1.398,0
		c-18.698,0-37.396,0-56.094,0c-3.417,0-4.828,1.391-4.828,4.766c0,33.178,0,66.357,0,99.535c0,3.326,1.417,4.758,4.712,4.758
		c8.315,0.002,16.629,0.002,24.944,0.002c0.442,0,0.884,0,1.502,0c0,2.635,0,5.214,0,7.787c-9.493,0-18.987,0-28.481,0
		c-0.145-0.059-0.286-0.152-0.438-0.175c-3.008-0.422-5.434-1.853-7.383-4.168c-1.502-1.787-2.164-3.909-2.646-6.124
		c0-34.566,0-69.135,0-103.702c0.065-0.189,0.164-0.372,0.193-0.564C7.01,9.993,8.402,7.631,10.632,5.72
		c1.8-1.548,3.956-2.234,6.209-2.72C38.344,3,59.85,3,81.353,3z"/>
	<path fill-rule="evenodd" clip-rule="evenodd" d="M131.014,93.802c-0.74,1.862-1.21,3.896-2.28,5.543
		c-1.925,2.978-4.894,4.638-8.452,4.804c-3.354,0.157-6.747,0.25-10.077-0.077c-5.985-0.592-10.056-5.237-10.3-11.389
		c2.529,0,5.058,0,7.596,0c1.005,3.159,1.894,3.798,5.338,3.798c2.066,0,4.136,0.014,6.203-0.004
		c2.463-0.025,4.207-1.687,4.175-3.947c-0.028-2.21-1.752-3.794-4.162-3.842c-3.079-0.058-6.189,0.136-9.225-0.249
		c-4.832-0.613-8.043-3.517-9.424-8.16c-1.355-4.556-0.147-8.567,3.281-11.854c2.142-2.054,4.789-3.033,7.72-3.073
		c3.159-0.042,6.338-0.104,9.474,0.185c5.054,0.464,9.175,4.586,9.929,9.561c0.035,0.234,0.134,0.461,0.205,0.689
		c0,0.405,0,0.811,0,1.219c-2.58,0-5.162,0-7.713,0c-0.607-2.86-1.88-3.893-4.67-3.897c-2.229-0.003-4.458-0.011-6.685,0.003
		c-2.563,0.016-4.322,1.64-4.296,3.941c0.028,2.248,1.767,3.83,4.269,3.846c2.348,0.014,4.698-0.019,7.05,0.007
		c4.008,0.044,7.302,1.563,9.755,4.788c1.279,1.686,1.851,3.652,2.29,5.675C131.014,92.18,131.014,92.99,131.014,93.802z"/>
	<path fill-rule="evenodd" clip-rule="evenodd" d="M95.9,76.96c-2.602,0-5.106,0-7.604,0c-0.86-3.071-1.902-3.852-5.119-3.852
		c-2.068,0-4.137-0.006-6.206,0.003c-2.606,0.012-4.361,1.569-4.376,3.867c-0.015,2.303,1.746,3.885,4.325,3.927
		c3.039,0.049,6.095-0.058,9.112,0.23c5.917,0.564,10.59,6.652,9.821,12.534c-0.774,5.938-4.661,9.932-10.659,10.462
		c-3.334,0.295-6.744,0.263-10.076-0.064c-5.962-0.585-10.104-5.337-10.265-11.48c1.283,0,2.567,0,3.853,0c1.254,0,2.508,0,3.74,0
		c0.872,3.116,1.913,3.894,5.13,3.894c2.07,0,4.139,0.008,6.206,0c2.606-0.014,4.363-1.569,4.377-3.87
		c0.015-2.304-1.745-3.884-4.326-3.926c-3.038-0.05-6.093,0.059-9.11-0.23c-5.918-0.566-10.592-6.655-9.822-12.536
		c0.776-5.937,4.664-9.932,10.66-10.462c3.335-0.296,6.744-0.26,10.076,0.067C91.599,66.105,95.74,70.858,95.9,76.96z"/>
	<path fill-rule="evenodd" clip-rule="evenodd" d="M53.16,88.735c2.569,0,5.072,0,7.703,0c0.041,2.682-0.629,5.135-1.89,7.429
		c-3.401,6.19-10.451,9.305-17.267,7.652c-6.91-1.673-11.8-7.646-11.929-14.751c-0.063-3.482-0.176-7.002,0.23-10.445
		c0.865-7.317,7.125-12.911,14.436-13.269c7.52-0.372,14.216,4.552,15.963,11.779c0.284,1.172,0.392,2.383,0.597,3.684
		c-2.688,0-5.223,0-7.849,0c-0.205-2.31-1.016-4.354-2.883-5.889c-4.591-3.772-11.718-1.296-12.497,4.586
		c-0.458,3.461-0.35,7.062-0.015,10.551c0.359,3.735,3.827,6.413,7.567,6.41c3.741-0.002,6.957-2.7,7.632-6.41
		C53.031,89.662,53.081,89.259,53.16,88.735z"/>
</g>
<g>
</g>
<g>
</g>
<g>
</g>
<g>
</g>
<g>
</g>
<g>
</g>
</svg>
