<?xml version="1.0" encoding="utf-8"?>
<!-- Generator: Adobe Illustrator 16.0.3, SVG Export Plug-In . SVG Version: 6.00 Build 0)  -->
<!DOCTYPE svg PUBLIC "-//W3C//DTD SVG 1.1//EN" "http://www.w3.org/Graphics/SVG/1.1/DTD/svg11.dtd">
<svg version="1.1" id="Capa_1" xmlns="http://www.w3.org/2000/svg" xmlns:xlink="http://www.w3.org/1999/xlink" x="0px" y="0px"
	 width="140px" height="140px" viewBox="0 0 140 140" enable-background="new 0 0 140 140" xml:space="preserve">
<g opacity="0.8">
	<path fill="#00A0C6" d="M77.416,4.696c0.971,0.752,2.034,1.414,2.898,2.274c7.174,7.121,14.297,14.294,21.472,21.415
		c1.192,1.186,1.778,2.476,1.755,4.176c-0.063,4.83-0.021,9.662-0.021,14.583c-2.556,0-5.066,0-7.711,0c0-3.786,0-7.587,0-11.511
		c-0.562,0-0.992,0-1.422,0c-4.512,0-9.021,0.014-13.531-0.002c-5-0.019-8.248-3.251-8.271-8.235
		c-0.019-4.513-0.004-9.023-0.004-13.532c0-0.436,0-0.871,0-1.435c-0.528,0-0.959,0-1.39,0c-18.565,0-37.131,0-55.696,0
		c-3.393,0-4.794,1.381-4.794,4.733c0,32.943,0,65.887,0,98.83c0,3.303,1.407,4.725,4.679,4.725
		c8.256,0.004,16.511,0.004,24.768,0.004c0.439,0,0.879,0,1.493,0c0,2.613,0,5.176,0,7.73c-9.425,0-18.853,0-28.281,0
		c-0.144-0.061-0.284-0.151-0.434-0.174c-2.987-0.42-5.396-1.842-7.332-4.141c-1.492-1.772-2.148-3.881-2.627-6.08
		c0-34.322,0-68.645,0-102.968c0.064-0.188,0.163-0.368,0.191-0.561c0.441-2.892,1.823-5.235,4.037-7.134
		c1.788-1.536,3.929-2.216,6.165-2.701C34.711,4.696,56.065,4.696,77.416,4.696z"/>
	<path fill="#00A0C6" d="M126.727,94.855c-0.735,1.849-1.201,3.869-2.264,5.506c-1.914,2.955-4.859,4.604-8.395,4.769
		c-3.328,0.155-6.699,0.249-10.006-0.075c-5.941-0.59-9.983-5.201-10.227-11.311c2.512,0,5.021,0,7.542,0
		c0.996,3.14,1.878,3.771,5.302,3.771c2.051,0,4.105,0.014,6.157-0.005c2.446-0.024,4.179-1.675,4.146-3.92
		c-0.029-2.192-1.739-3.766-4.133-3.813c-3.057-0.057-6.146,0.135-9.16-0.246c-4.797-0.608-7.984-3.492-9.357-8.104
		c-1.346-4.523-0.145-8.509,3.258-11.771c2.129-2.038,4.756-3.011,7.668-3.05c3.137-0.041,6.292-0.103,9.406,0.183
		c5.018,0.46,9.109,4.556,9.857,9.493c0.033,0.232,0.133,0.458,0.203,0.685c0,0.402,0,0.806,0,1.212c-2.563,0-5.125,0-7.658,0
		c-0.604-2.842-1.865-3.865-4.637-3.871c-2.213-0.002-4.426-0.011-6.637,0.004c-2.545,0.015-4.292,1.629-4.268,3.912
		c0.026,2.233,1.757,3.803,4.238,3.818c2.33,0.014,4.666-0.02,7,0.008c3.979,0.043,7.252,1.551,9.688,4.754
		c1.27,1.674,1.837,3.627,2.273,5.635C126.727,93.244,126.727,94.05,126.727,94.855z"/>
	<path fill="#00A0C6" d="M91.861,78.133c-2.584,0-5.071,0-7.551,0c-0.854-3.05-1.889-3.822-5.084-3.822
		c-2.054,0-4.105-0.006-6.16,0.002c-2.589,0.012-4.331,1.559-4.345,3.84c-0.015,2.285,1.732,3.857,4.294,3.899
		c3.018,0.048,6.051-0.059,9.047,0.228c5.875,0.563,10.516,6.606,9.754,12.447c-0.771,5.896-4.631,9.86-10.586,10.388
		c-3.311,0.293-6.694,0.26-10.004-0.064c-5.92-0.581-10.033-5.299-10.191-11.399c1.274,0,2.549,0,3.825,0c1.245,0,2.489,0,3.713,0
		c0.866,3.096,1.899,3.867,5.093,3.867c2.057,0,4.109,0.008,6.163-0.002c2.588-0.012,4.331-1.558,4.345-3.842
		c0.016-2.285-1.732-3.855-4.295-3.898c-3.018-0.049-6.05,0.06-9.046-0.228c-5.877-0.563-10.517-6.608-9.753-12.448
		c0.771-5.894,4.631-9.862,10.584-10.387c3.313-0.294,6.697-0.261,10.005,0.064C87.588,67.356,91.702,72.074,91.861,78.133z"/>
	<path fill="#00A0C6" d="M49.422,89.826c2.551,0,5.037,0,7.649,0c0.04,2.66-0.625,5.098-1.877,7.377
		c-3.377,6.146-10.376,9.236-17.144,7.597c-6.861-1.659-11.717-7.591-11.845-14.646c-0.063-3.459-0.175-6.95,0.229-10.372
		c0.858-7.267,7.076-12.818,14.333-13.175c7.467-0.368,14.116,4.523,15.851,11.696c0.282,1.163,0.39,2.368,0.593,3.657
		c-2.669,0-5.186,0-7.793,0c-0.204-2.293-1.01-4.321-2.863-5.847c-4.558-3.745-11.636-1.287-12.409,4.554
		c-0.456,3.438-0.348,7.013-0.015,10.476c0.356,3.711,3.8,6.368,7.513,6.364c3.716,0,6.907-2.68,7.579-6.364
		C49.294,90.745,49.345,90.346,49.422,89.826z"/>
</g>
<g opacity="0.6">
	<path fill="#FF0000" d="M85.718,3c0.979,0.757,2.052,1.424,2.921,2.291c7.227,7.172,14.4,14.396,21.625,21.568
		c1.201,1.194,1.789,2.493,1.769,4.205c-0.064,4.865-0.022,9.729-0.022,14.688c-2.576,0-5.104,0-7.766,0c0-3.813,0-7.64,0-11.593
		c-0.566,0-1,0-1.434,0c-4.543,0-9.086,0.015-13.629-0.001c-5.033-0.019-8.307-3.275-8.326-8.294
		c-0.02-4.543-0.006-9.087-0.006-13.629c0-0.438,0-0.876,0-1.443c-0.533,0-0.966,0-1.398,0c-18.697,0-37.396,0-56.093,0
		c-3.417,0-4.828,1.391-4.828,4.766c0,33.178,0,66.357,0,99.535c0,3.326,1.417,4.759,4.712,4.759
		c8.315,0.002,16.629,0.002,24.944,0.002c0.442,0,0.885,0,1.503,0c0,2.635,0,5.213,0,7.787c-9.493,0-18.987,0-28.482,0
		c-0.145-0.06-0.286-0.152-0.438-0.176c-3.009-0.422-5.434-1.854-7.384-4.168c-1.502-1.787-2.164-3.908-2.646-6.124
		c0-34.565,0-69.135,0-103.702c0.064-0.189,0.164-0.372,0.192-0.564c0.444-2.913,1.836-5.274,4.065-7.186
		c1.801-1.548,3.957-2.234,6.209-2.72C42.71,3,64.216,3,85.718,3z"/>
	<path fill="#FF0000" d="M135.381,93.802c-0.74,1.862-1.211,3.896-2.279,5.544c-1.927,2.978-4.896,4.637-8.453,4.803
		c-3.354,0.158-6.746,0.25-10.078-0.076c-5.983-0.592-10.055-5.237-10.299-11.389c2.527,0,5.057,0,7.596,0
		c1.004,3.158,1.892,3.797,5.338,3.797c2.068,0,4.136,0.015,6.203-0.004c2.465-0.024,4.207-1.687,4.175-3.947
		c-0.03-2.209-1.752-3.793-4.162-3.842c-3.079-0.058-6.19,0.137-9.228-0.248c-4.83-0.613-8.041-3.518-9.422-8.16
		c-1.354-4.557-0.146-8.567,3.28-11.854c2.144-2.054,4.79-3.033,7.722-3.073c3.16-0.042,6.338-0.104,9.476,0.185
		c5.05,0.464,9.173,4.586,9.928,9.561c0.034,0.234,0.134,0.461,0.205,0.689c0,0.404,0,0.811,0,1.219c-2.581,0-5.163,0-7.714,0
		c-0.609-2.859-1.878-3.893-4.67-3.896c-2.229-0.004-4.456-0.012-6.684,0.002c-2.564,0.017-4.326,1.641-4.297,3.941
		c0.025,2.248,1.767,3.83,4.269,3.846c2.348,0.015,4.696-0.019,7.05,0.008c4.006,0.044,7.303,1.563,9.753,4.787
		c1.28,1.687,1.853,3.652,2.293,5.676C135.381,92.18,135.381,92.99,135.381,93.802z"/>
	<path fill="#FF0000" d="M100.268,76.96c-2.602,0-5.106,0-7.604,0c-0.859-3.071-1.9-3.853-5.12-3.853
		c-2.065,0-4.136-0.006-6.204,0.004c-2.607,0.012-4.361,1.568-4.378,3.867c-0.014,2.303,1.746,3.885,4.326,3.926
		c3.039,0.05,6.094-0.057,9.112,0.23c5.916,0.564,10.591,6.652,9.82,12.534c-0.773,5.938-4.662,9.933-10.658,10.462
		c-3.336,0.295-6.744,0.264-10.078-0.064c-5.961-0.584-10.103-5.336-10.263-11.479c1.284,0,2.567,0,3.853,0c1.254,0,2.508,0,3.738,0
		c0.873,3.116,1.914,3.894,5.133,3.894c2.068,0,4.138,0.009,6.205,0c2.606-0.014,4.363-1.568,4.377-3.869
		c0.016-2.305-1.745-3.885-4.326-3.926c-3.037-0.051-6.094,0.059-9.11-0.23c-5.919-0.566-10.592-6.655-9.823-12.536
		c0.776-5.937,4.664-9.932,10.662-10.462c3.334-0.296,6.743-0.26,10.075,0.067C95.964,66.105,100.107,70.857,100.268,76.96z"/>
	<path fill="#FF0000" d="M57.526,88.734c2.569,0,5.073,0,7.704,0c0.041,2.683-0.629,5.136-1.89,7.43
		c-3.401,6.189-10.451,9.305-17.267,7.652c-6.91-1.674-11.8-7.646-11.929-14.752c-0.064-3.481-0.177-7.002,0.229-10.444
		c0.865-7.317,7.126-12.911,14.436-13.269c7.52-0.372,14.216,4.552,15.963,11.779c0.284,1.172,0.392,2.384,0.597,3.685
		c-2.688,0-5.224,0-7.849,0c-0.205-2.311-1.016-4.354-2.883-5.89c-4.591-3.772-11.718-1.296-12.497,4.586
		c-0.458,3.462-0.351,7.063-0.015,10.552c0.358,3.734,3.827,6.412,7.567,6.41c3.741-0.002,6.956-2.701,7.632-6.41
		C57.396,89.662,57.447,89.259,57.526,88.734z"/>
</g>
<g>
	<path fill="#FFFFFF" d="M81.354,3c0.978,0.757,2.049,1.424,2.92,2.291c7.226,7.172,14.398,14.396,21.625,21.568
		c1.201,1.194,1.789,2.493,1.767,4.205c-0.063,4.865-0.021,9.729-0.021,14.688c-2.574,0-5.104,0-7.766,0c0-3.813,0-7.64,0-11.593
		c-0.566,0-1,0-1.434,0c-4.545,0-9.086,0.015-13.629-0.001c-5.034-0.019-8.307-3.275-8.328-8.294
		c-0.018-4.543-0.004-9.087-0.004-13.629c0-0.438,0-0.876,0-1.443c-0.532,0-0.967,0-1.398,0c-18.698,0-37.396,0-56.094,0
		c-3.417,0-4.828,1.391-4.828,4.766c0,33.178,0,66.357,0,99.535c0,3.326,1.417,4.759,4.712,4.759
		c8.315,0.002,16.629,0.002,24.944,0.002c0.442,0,0.884,0,1.502,0c0,2.635,0,5.213,0,7.787c-9.493,0-18.987,0-28.481,0
		c-0.145-0.06-0.286-0.152-0.438-0.176c-3.008-0.422-5.434-1.854-7.383-4.168c-1.502-1.787-2.164-3.908-2.646-6.124
		c0-34.565,0-69.135,0-103.702c0.065-0.189,0.164-0.372,0.193-0.564C7.01,9.993,8.402,7.631,10.632,5.72
		c1.8-1.548,3.956-2.234,6.209-2.72C38.344,3,59.85,3,81.354,3z"/>
	<path fill="#FFFFFF" d="M131.014,93.802c-0.74,1.862-1.209,3.896-2.279,5.544c-1.926,2.978-4.895,4.637-8.452,4.803
		c-3.354,0.158-6.747,0.25-10.077-0.076c-5.984-0.592-10.057-5.237-10.301-11.389c2.529,0,5.059,0,7.597,0
		c1.005,3.158,1.894,3.797,5.338,3.797c2.065,0,4.136,0.015,6.203-0.004c2.463-0.024,4.207-1.687,4.175-3.947
		c-0.027-2.209-1.752-3.793-4.162-3.842c-3.078-0.058-6.188,0.137-9.225-0.248c-4.832-0.613-8.043-3.518-9.424-8.16
		c-1.355-4.557-0.147-8.567,3.281-11.854c2.142-2.054,4.789-3.033,7.72-3.073c3.159-0.042,6.338-0.104,9.474,0.185
		c5.055,0.464,9.176,4.586,9.93,9.561c0.035,0.234,0.133,0.461,0.205,0.689c0,0.404,0,0.811,0,1.219c-2.58,0-5.162,0-7.713,0
		c-0.607-2.859-1.881-3.893-4.671-3.896c-2.229-0.004-4.458-0.012-6.685,0.002c-2.563,0.017-4.322,1.641-4.297,3.941
		c0.029,2.248,1.768,3.83,4.27,3.846c2.348,0.015,4.698-0.019,7.051,0.008c4.008,0.044,7.301,1.563,9.754,4.787
		c1.279,1.687,1.852,3.652,2.291,5.676C131.014,92.18,131.014,92.99,131.014,93.802z"/>
	<path fill="#FFFFFF" d="M95.9,76.96c-2.603,0-5.106,0-7.604,0c-0.86-3.071-1.901-3.853-5.119-3.853
		c-2.067,0-4.137-0.006-6.206,0.004c-2.605,0.012-4.361,1.568-4.375,3.867c-0.016,2.303,1.745,3.885,4.324,3.926
		c3.039,0.05,6.096-0.057,9.112,0.23c5.917,0.564,10.59,6.652,9.821,12.534c-0.774,5.938-4.662,9.933-10.66,10.462
		c-3.334,0.295-6.743,0.264-10.075-0.064c-5.962-0.584-10.104-5.336-10.265-11.479c1.283,0,2.567,0,3.853,0c1.254,0,2.508,0,3.739,0
		c0.873,3.116,1.914,3.894,5.131,3.894c2.07,0,4.139,0.009,6.206,0c2.606-0.014,4.362-1.568,4.377-3.869
		c0.015-2.305-1.745-3.885-4.326-3.926c-3.038-0.051-6.093,0.059-9.11-0.23c-5.917-0.566-10.592-6.655-9.822-12.536
		c0.776-5.937,4.664-9.932,10.66-10.462c3.336-0.296,6.744-0.26,10.076,0.067C91.6,66.105,95.74,70.857,95.9,76.96z"/>
	<path fill="#FFFFFF" d="M53.16,88.734c2.569,0,5.072,0,7.703,0c0.041,2.683-0.629,5.136-1.89,7.43
		c-3.401,6.189-10.451,9.305-17.267,7.652c-6.91-1.674-11.8-7.646-11.929-14.752c-0.063-3.481-0.176-7.002,0.23-10.444
		c0.865-7.317,7.125-12.911,14.436-13.269c7.52-0.372,14.216,4.552,15.963,11.779c0.284,1.172,0.392,2.384,0.597,3.685
		c-2.688,0-5.223,0-7.849,0c-0.205-2.311-1.016-4.354-2.883-5.89c-4.591-3.772-11.718-1.296-12.497,4.586
		c-0.458,3.462-0.35,7.063-0.015,10.552c0.359,3.734,3.827,6.412,7.567,6.41c3.741-0.002,6.957-2.701,7.632-6.41
		C53.031,89.662,53.081,89.259,53.16,88.734z"/>
</g>
</svg>
