<?xml version="1.0" encoding="utf-8"?>
<!-- Generator: Adobe Illustrator 16.0.3, SVG Export Plug-In . SVG Version: 6.00 Build 0)  -->
<!DOCTYPE svg PUBLIC "-//W3C//DTD SVG 1.1//EN" "http://www.w3.org/Graphics/SVG/1.1/DTD/svg11.dtd">
<svg version="1.1" id="Capa_1" xmlns="http://www.w3.org/2000/svg" xmlns:xlink="http://www.w3.org/1999/xlink" x="0px" y="0px"
	 width="140px" height="140px" viewBox="0 0 140 140" enable-background="new 0 0 140 140" xml:space="preserve">
<g opacity="0.75">
	<path fill="#FF0000" d="M71.396,119.18c-16.421,0-32.836,0.006-49.254,0c-11.887-0.008-18.545-6.656-18.545-18.5
		c-0.001-21.977-0.005-43.955,0-65.936c0.005-11.113,6.836-17.945,18.021-17.952c33.188-0.021,66.373-0.021,99.562,0
		c11.195,0.007,18.014,6.833,18.014,17.952c0.008,22.154,0.008,44.314,0,66.468c0,11.12-6.832,17.944-18.014,17.964
		C104.584,119.195,87.99,119.18,71.396,119.18z M25.933,49.147c0,21.808,0,43.026,0,64.306c30.39,0,60.599,0,90.803,0
		c0-21.413,0-42.659,0-64.183c-0.85,0.643-1.422,1.054-1.971,1.494c-13.525,10.898-27.08,21.771-40.568,32.737
		c-1.975,1.597-3.514,1.753-5.563,0.089C59.63,76.202,50.531,68.934,41.46,61.628C36.399,57.555,31.339,53.492,25.933,49.147z
		 M122.439,113.404c6.393,0.236,11.211-4.323,11.25-10.825c0.123-23.033,0.093-46.069,0.014-69.099
		c-0.014-5.125-2.934-8.921-7.378-10.571c-1.773-0.666-3.087-0.392-4.576,0.818c-15.735,12.805-31.53,25.543-47.304,38.299
		c-2.86,2.319-3.291,2.319-6.121,0.023C52.55,49.297,36.755,36.556,21.011,23.755c-1.463-1.184-2.765-1.529-4.564-0.847
		c-4.755,1.789-7.386,5.758-7.388,11.651c-0.016,22.233-0.016,44.474,0.01,66.716c0,1.393,0.112,2.828,0.429,4.188
		c1.137,4.832,5.766,8.289,10.707,7.854c0-0.995,0-2.036,0-3.067c0-21.536,0-43.066,0.009-64.602c0-0.97-0.051-1.962,0.151-2.896
		c0.431-2.038,2.249-2.833,4.036-1.791c0.829,0.487,1.556,1.151,2.311,1.76C40.663,53.956,54.605,65.189,68.55,76.43
		c0.941,0.747,1.896,1.488,2.857,2.232c12.155-9.793,24.108-19.423,36.063-29.054c3.43-2.764,6.828-5.584,10.33-8.258
		c2.288-1.745,4.366-0.751,4.616,2.064c0.063,0.797,0.026,1.593,0.026,2.388c0,21.443,0,42.888,0,64.337
		C122.439,111.188,122.439,112.225,122.439,113.404z M71.363,57.474c14.353-11.605,28.562-23.092,43.221-34.948
		c-29.032,0-57.421,0-86.443,0C42.778,34.362,56.946,45.81,71.363,57.474z"/>
	<path fill="#FF0000" d="M79.286,88.491c0.788-1.017,1.282-1.954,2.036-2.562c6.152-4.986,12.363-9.908,18.548-14.854
		c1.479-1.19,3.063-1.684,4.386,0c1.289,1.65,0.542,3.099-0.97,4.3c-6.198,4.921-12.337,9.924-18.614,14.763
		c-0.863,0.661-2.395,0.803-3.533,0.633C80.499,90.672,80.021,89.448,79.286,88.491z"/>
	<path fill="#FF0000" d="M108.469,70.146c-0.687-1.026-1.727-1.975-1.977-3.092c-0.34-1.507,1.972-3.439,3.652-3.376
		c1.676,0.069,2.57,0.981,2.603,2.653C112.775,68.035,110.861,69.771,108.469,70.146z"/>
</g>
<g opacity="0.8">
	<path fill="#00A0C6" d="M69,111.928c-16.421,0-32.836,0.008-49.254,0c-11.887-0.007-18.545-6.654-18.545-18.5
		c-0.001-21.976-0.005-43.954,0-65.935C1.206,16.38,8.037,9.548,19.222,9.541c33.188-0.021,66.374-0.021,99.562,0
		c11.194,0.007,18.014,6.833,18.014,17.952c0.007,22.154,0.007,44.315,0,66.468c0,11.12-6.832,17.943-18.014,17.964
		C102.188,111.943,85.596,111.928,69,111.928z M23.537,41.896c0,21.807,0,43.026,0,64.306c30.39,0,60.6,0,90.803,0
		c0-21.413,0-42.659,0-64.183c-0.849,0.643-1.421,1.054-1.97,1.494C98.844,54.411,85.289,65.284,71.801,76.25
		c-1.975,1.598-3.515,1.753-5.562,0.089c-9.004-7.388-18.104-14.656-27.174-21.961C34.004,50.304,28.943,46.241,23.537,41.896z
		 M120.045,106.154c6.393,0.234,11.21-4.324,11.25-10.826c0.122-23.033,0.092-46.069,0.014-69.099
		c-0.014-5.125-2.935-8.921-7.379-10.571c-1.772-0.666-3.086-0.392-4.576,0.818C103.619,29.281,87.824,42.019,72.05,54.775
		c-2.861,2.319-3.289,2.319-6.121,0.023c-15.775-12.752-31.57-25.493-47.314-38.294c-1.463-1.184-2.765-1.529-4.564-0.847
		c-4.755,1.789-7.386,5.758-7.388,11.651c-0.016,22.233-0.016,44.474,0.01,66.717c0,1.392,0.112,2.828,0.429,4.188
		c1.137,4.832,5.766,8.289,10.707,7.854c0-0.994,0-2.035,0-3.066c0-21.536,0-43.066,0.009-64.602c0-0.97-0.051-1.962,0.151-2.896
		c0.431-2.038,2.249-2.833,4.036-1.791c0.829,0.487,1.556,1.151,2.311,1.76c13.953,11.233,27.895,22.467,41.839,33.706
		c0.941,0.748,1.896,1.489,2.856,2.233c12.157-9.793,24.109-19.423,36.063-29.054c3.43-2.764,6.828-5.584,10.33-8.258
		c2.289-1.745,4.367-0.751,4.617,2.064c0.063,0.797,0.026,1.593,0.026,2.388c0,21.444,0,42.888,0,64.336
		C120.045,103.936,120.045,104.975,120.045,106.154z M68.968,50.223c14.353-11.605,28.562-23.092,43.222-34.948
		c-29.032,0-57.421,0-86.443,0C40.382,27.111,54.551,38.559,68.968,50.223z"/>
	<path fill="#00A0C6" d="M76.891,81.24c0.789-1.018,1.282-1.954,2.036-2.561c6.153-4.988,12.364-9.908,18.548-14.854
		c1.48-1.19,3.063-1.684,4.387,0c1.289,1.649,0.541,3.099-0.971,4.3c-6.197,4.921-12.336,9.924-18.613,14.764
		c-0.864,0.66-2.395,0.803-3.534,0.633C78.104,83.421,77.626,82.197,76.891,81.24z"/>
	<path fill="#00A0C6" d="M106.073,62.895c-0.687-1.027-1.728-1.974-1.978-3.092c-0.34-1.507,1.973-3.439,3.653-3.376
		c1.676,0.069,2.569,0.981,2.603,2.653C110.38,60.784,108.467,62.52,106.073,62.895z"/>
</g>
<g>
	<path d="M70.895,116.104c-16.421,0-32.836,0.008-49.254,0c-11.887-0.006-18.545-6.654-18.545-18.5
		c-0.001-21.976-0.005-43.954,0-65.935C3.1,20.556,9.931,13.724,21.116,13.717c33.188-0.021,66.372-0.021,99.562,0
		c11.195,0.007,18.014,6.833,18.014,17.952c0.008,22.154,0.008,44.315,0,66.468c0,11.12-6.832,17.944-18.014,17.965
		C104.082,116.12,87.488,116.104,70.895,116.104z M25.431,46.072c0,21.807,0,43.026,0,64.306c30.39,0,60.598,0,90.803,0
		c0-21.413,0-42.659,0-64.183c-0.85,0.643-1.422,1.054-1.971,1.494c-13.527,10.898-27.08,21.771-40.57,32.737
		c-1.975,1.598-3.513,1.754-5.562,0.09c-9.004-7.389-18.104-14.657-27.174-21.961C35.897,54.479,30.837,50.417,25.431,46.072z
		 M121.938,110.33c6.393,0.234,11.211-4.324,11.25-10.826c0.123-23.033,0.092-46.069,0.014-69.099
		c-0.014-5.125-2.934-8.921-7.378-10.571c-1.773-0.666-3.087-0.392-4.576,0.818c-15.735,12.805-31.53,25.543-47.304,38.299
		c-2.861,2.319-3.291,2.319-6.122,0.023C52.048,46.222,36.253,33.48,20.509,20.68c-1.463-1.184-2.765-1.529-4.564-0.847
		c-4.755,1.789-7.386,5.758-7.388,11.651c-0.016,22.233-0.016,44.474,0.01,66.717c0,1.392,0.112,2.828,0.429,4.188
		c1.137,4.832,5.766,8.289,10.707,7.854c0-0.995,0-2.036,0-3.067c0-21.535,0-43.066,0.009-64.602c0-0.97-0.051-1.962,0.151-2.896
		c0.431-2.038,2.249-2.833,4.036-1.791c0.829,0.487,1.556,1.151,2.311,1.76C40.163,50.88,54.105,62.114,68.049,73.354
		c0.941,0.748,1.896,1.488,2.857,2.232c12.156-9.793,24.109-19.423,36.063-29.054c3.43-2.764,6.829-5.584,10.331-8.258
		c2.288-1.745,4.366-0.751,4.616,2.064c0.063,0.797,0.027,1.593,0.027,2.388c0,21.443,0,42.888,0,64.336
		C121.938,108.111,121.938,109.148,121.938,110.33z M70.861,54.399c14.353-11.605,28.562-23.092,43.221-34.948
		c-29.032,0-57.421,0-86.443,0C42.276,31.287,56.444,42.735,70.861,54.399z"/>
	<path d="M78.784,85.416c0.788-1.018,1.282-1.954,2.036-2.561c6.152-4.987,12.363-9.908,18.548-14.854
		c1.479-1.19,3.063-1.684,4.386,0c1.289,1.65,0.542,3.099-0.97,4.3c-6.198,4.922-12.337,9.924-18.614,14.764
		c-0.863,0.66-2.395,0.803-3.533,0.633C79.997,87.598,79.52,86.373,78.784,85.416z"/>
	<path d="M107.967,67.07c-0.688-1.027-1.727-1.974-1.977-3.092c-0.34-1.507,1.972-3.439,3.652-3.376
		c1.676,0.069,2.57,0.981,2.603,2.653C112.273,64.96,110.359,66.696,107.967,67.07z"/>
</g>
</svg>
