<?xml version="1.0" encoding="utf-8"?>
<!-- Generator: Adobe Illustrator 16.0.3, SVG Export Plug-In . SVG Version: 6.00 Build 0)  -->
<!DOCTYPE svg PUBLIC "-//W3C//DTD SVG 1.1//EN" "http://www.w3.org/Graphics/SVG/1.1/DTD/svg11.dtd">
<svg version="1.1" id="Capa_1" xmlns="http://www.w3.org/2000/svg" xmlns:xlink="http://www.w3.org/1999/xlink" x="0px" y="0px"
	 width="140px" height="140px" viewBox="0 0 140 140" enable-background="new 0 0 140 140" xml:space="preserve">
<g opacity="0.8">
	<path fill="#00A0C6" d="M106.318,127.072c-0.873,3.101-1.973,4.007-5.508,3.882c-2.06-0.075-4.261-0.108-6.119-0.853
		c-3.379-1.355-4.808-4.267-4.806-7.879c0.003-11.127,0-22.252,0-33.377c0-2.176-0.014-4.35,0.005-6.522
		c0.039-5.048,3.45-8.511,8.491-8.621c1.147-0.025,2.302-0.024,3.451,0.001c2.301,0.05,3.75,1.212,4.358,3.402
		c0.088,0.315,0.313,0.785,0.554,0.838c1.815,0.412,3.649,0.74,5.659,1.129c0-1.139,0-2.23,0-3.322c0-2.643,0.005-5.285,0-7.929
		c-0.002-2.529,1.13-4.38,3.287-5.676c0.357-0.215,0.756-0.725,0.763-1.104c0.06-3.324,0.03-6.65,0.022-9.975
		c0-0.162-0.061-0.323-0.11-0.57c-3.005-0.179-4.802-2.011-5.953-4.551c-1.906-4.199-5.172-6.9-9.149-9.046
		c-10.808-5.83-22.394-8.268-34.567-8.217c-8.639,0.036-17.048,1.487-25.156,4.516c-4.813,1.798-9.394,4.082-13.45,7.248
		c-1.123,0.877-1.804,2.339-2.633,3.569c-0.523,0.775-0.973,1.603-1.407,2.433c-1.201,2.297-2.931,3.847-5.744,4.054
		c-0.022,0.491-0.06,0.946-0.061,1.401c-0.005,2.941,0.014,5.882-0.015,8.824c-0.007,0.707,0.167,1.122,0.85,1.493
		c2.163,1.178,3.243,3.063,3.245,5.541c0.003,3.283,0.002,6.565,0.003,9.849c0,0.461,0,0.923,0,1.464
		c2.002-0.388,3.872-0.729,5.726-1.144c0.209-0.046,0.398-0.478,0.478-0.764c0.64-2.296,2.053-3.464,4.433-3.452
		c1.871,0.009,3.784-0.065,5.6,0.293c3.786,0.75,6.264,4.124,6.275,8.254c0.023,7.843,0.007,15.687,0.007,23.53
		c0,5.414,0.005,10.827-0.002,16.24c-0.007,5.501-3.442,8.938-8.937,8.955c-1.109,0.002-2.219,0.037-3.325-0.017
		c-1.979-0.09-3.53-1.297-3.946-3.22c-0.182-0.844-0.545-1.038-1.329-1.148c-12.794-1.817-21.929-12.727-21.276-25.418
		c0.205-3.978,1.357-7.688,3.304-11.177c0.43-0.771,0.702-1.735,0.71-2.616c0.06-6.35,0.053-12.701,0.022-19.054
		c-0.014-2.802,1.012-4.948,3.539-6.315c0.283-0.152,0.542-0.641,0.545-0.975c0.038-3.794,0.041-7.588,0.001-11.381
		c-0.004-0.412-0.25-0.886-0.521-1.219c-1.78-2.192-2.07-4.584-0.764-7.038c6.961-13.084,17.194-22.666,30.903-28.378
		c14.415-6.006,29.097-6.412,43.83-1.344c11.404,3.922,20.883,10.718,28.205,20.342c2.133,2.803,3.955,5.854,5.775,8.879
		c1.688,2.804,1.402,5.067-0.604,7.68c-0.256,0.333-0.394,0.843-0.396,1.271c-0.031,3.666-0.041,7.333,0.014,10.997
		c0.008,0.43,0.35,1.035,0.717,1.248c2.291,1.333,3.342,3.319,3.345,5.916c0.006,6.48-0.021,12.96,0.03,19.438
		c0.008,0.842,0.246,1.776,0.664,2.505c7.387,12.938,2.172,28.971-11.481,34.864C111.514,125.844,108.922,126.316,106.318,127.072z
		 M95.596,29.579c-8.977-6.413-18.978-9.433-29.97-9.058c-9.712,0.332-18.546,3.324-26.438,9.051
		C58,22.871,76.785,22.881,95.596,29.579z M14.157,83.961c1.391-0.97,2.557-1.744,3.669-2.59c0.249-0.188,0.431-0.629,0.433-0.955
		c0.025-4.251,0.033-8.503-0.016-12.755c-0.006-0.502-0.231-1.22-0.598-1.451c-0.583-0.368-1.418-0.655-2.063-0.535
		c-1.03,0.193-1.42,1.115-1.421,2.15c-0.002,3.485-0.002,6.973-0.003,10.46C14.157,80.1,14.157,81.914,14.157,83.961z
		 M120.51,83.898c0.031-0.385,0.07-0.621,0.07-0.857c0.004-5.018,0.01-10.035-0.004-15.054c-0.004-1.494-0.797-2.436-2.002-2.471
		c-1.268-0.037-2.102,0.912-2.109,2.488c-0.018,4.082-0.014,8.164,0.008,12.246c0,0.35,0.078,0.846,0.312,1.021
		C117.949,82.166,119.178,82.975,120.51,83.898z"/>
</g>
<g opacity="0.6">
	<path fill="#FF0000" d="M113.744,122.299c-0.874,3.102-1.973,4.008-5.51,3.883c-2.059-0.076-4.26-0.108-6.117-0.854
		c-3.379-1.355-4.807-4.266-4.807-7.878c0.004-11.127,0.002-22.253,0.002-33.378c0-2.176-0.015-4.35,0.002-6.522
		c0.041-5.048,3.451-8.51,8.492-8.621c1.149-0.025,2.303-0.024,3.452,0.001c2.3,0.05,3.75,1.212,4.359,3.403
		c0.088,0.315,0.313,0.784,0.553,0.838c1.815,0.412,3.649,0.74,5.659,1.128c0-1.138,0-2.23,0-3.322c0-2.643,0.004-5.285,0.001-7.928
		c-0.003-2.531,1.128-4.381,3.287-5.677c0.356-0.215,0.756-0.726,0.762-1.104c0.058-3.324,0.031-6.649,0.022-9.974
		c0-0.162-0.061-0.323-0.11-0.57c-3.004-0.179-4.801-2.011-5.954-4.551c-1.904-4.199-5.172-6.9-9.15-9.046
		c-10.806-5.83-22.392-8.268-34.563-8.217c-8.639,0.036-17.049,1.487-25.156,4.516c-4.813,1.798-9.394,4.082-13.45,7.248
		c-1.123,0.877-1.804,2.339-2.633,3.569c-0.523,0.775-0.973,1.603-1.407,2.433c-1.201,2.297-2.931,3.847-5.744,4.054
		c-0.022,0.491-0.06,0.946-0.061,1.401c-0.005,2.941,0.014,5.882-0.015,8.824c-0.007,0.707,0.167,1.121,0.85,1.494
		c2.163,1.177,3.243,3.063,3.245,5.541c0.003,3.282,0.002,6.564,0.003,9.847c0,0.462,0,0.923,0,1.464
		c2.002-0.388,3.872-0.729,5.726-1.143c0.209-0.047,0.398-0.479,0.478-0.764c0.64-2.296,2.053-3.464,4.433-3.453
		c1.871,0.009,3.784-0.066,5.6,0.293c3.786,0.75,6.264,4.125,6.274,8.254c0.023,7.843,0.008,15.686,0.008,23.53
		c0,5.414,0.006,10.826-0.002,16.239c-0.007,5.501-3.442,8.938-8.937,8.956c-1.109,0.002-2.219,0.036-3.325-0.017
		c-1.979-0.091-3.53-1.298-3.946-3.22c-0.182-0.845-0.545-1.039-1.329-1.148c-12.794-1.818-21.929-12.727-21.276-25.418
		c0.205-3.979,1.357-7.689,3.304-11.178c0.43-0.771,0.702-1.735,0.71-2.615c0.06-6.35,0.053-12.702,0.022-19.054
		c-0.014-2.803,1.012-4.947,3.539-6.314c0.283-0.154,0.542-0.641,0.545-0.975c0.038-3.795,0.041-7.589,0.001-11.382
		c-0.004-0.412-0.25-0.886-0.521-1.219c-1.78-2.192-2.07-4.584-0.764-7.038c6.96-13.086,17.193-22.667,30.902-28.38
		c14.414-6.006,29.097-6.412,43.829-1.344c11.402,3.922,20.883,10.718,28.205,20.342c2.131,2.803,3.955,5.854,5.773,8.879
		c1.688,2.804,1.403,5.067-0.604,7.68c-0.256,0.333-0.394,0.843-0.396,1.271c-0.031,3.666-0.041,7.333,0.014,10.998
		c0.008,0.428,0.351,1.033,0.717,1.246c2.291,1.334,3.343,3.32,3.345,5.918c0.005,6.479-0.022,12.959,0.03,19.438
		c0.008,0.842,0.246,1.775,0.664,2.504c7.388,12.938,2.172,28.972-11.481,34.865C118.938,121.07,116.348,121.543,113.744,122.299z
		 M103.021,24.806c-8.978-6.413-18.978-9.433-29.97-9.058c-9.712,0.332-18.546,3.324-26.438,9.051
		C65.425,18.097,84.211,18.107,103.021,24.806z M21.583,79.188c1.391-0.97,2.557-1.744,3.669-2.59
		c0.249-0.188,0.431-0.629,0.433-0.955c0.025-4.25,0.033-8.503-0.016-12.753c-0.006-0.504-0.231-1.221-0.598-1.452
		c-0.583-0.368-1.418-0.655-2.063-0.534c-1.03,0.193-1.42,1.115-1.421,2.149c-0.002,3.487-0.002,6.973-0.003,10.46
		C21.583,75.325,21.583,77.141,21.583,79.188z M127.936,79.125c0.031-0.384,0.069-0.62,0.069-0.857
		c0.004-5.017,0.011-10.035-0.003-15.053c-0.004-1.495-0.798-2.438-2.003-2.472c-1.267-0.037-2.103,0.911-2.108,2.489
		c-0.018,4.082-0.014,8.163,0.008,12.245c0,0.351,0.078,0.846,0.311,1.022C125.374,77.393,126.604,78.2,127.936,79.125z"/>
</g>
<g>
	<path fill="#FFFFFF" d="M110.078,124.799c-0.874,3.102-1.973,4.008-5.51,3.883c-2.059-0.076-4.26-0.108-6.117-0.854
		c-3.379-1.355-4.807-4.266-4.807-7.878c0.004-11.127,0.002-22.253,0.002-33.378c0-2.176-0.015-4.35,0.002-6.522
		c0.041-5.048,3.451-8.51,8.492-8.62c1.149-0.025,2.303-0.025,3.452,0c2.3,0.051,3.75,1.213,4.359,3.403
		c0.088,0.315,0.313,0.784,0.553,0.838c1.815,0.412,3.649,0.74,5.659,1.128c0-1.138,0-2.23,0-3.322c0-2.643,0.004-5.285,0.001-7.928
		c-0.003-2.53,1.128-4.38,3.287-5.676c0.356-0.215,0.756-0.725,0.762-1.104c0.058-3.324,0.031-6.649,0.022-9.975
		c0-0.162-0.061-0.323-0.11-0.57c-3.004-0.179-4.801-2.011-5.954-4.551c-1.904-4.199-5.172-6.9-9.15-9.046
		c-10.806-5.83-22.392-8.268-34.564-8.217c-8.639,0.036-17.048,1.487-25.156,4.516c-4.813,1.798-9.394,4.082-13.45,7.248
		c-1.123,0.877-1.804,2.339-2.633,3.569c-0.523,0.775-0.973,1.603-1.407,2.433c-1.201,2.297-2.931,3.847-5.744,4.054
		c-0.022,0.491-0.06,0.946-0.061,1.401c-0.005,2.941,0.014,5.882-0.015,8.824c-0.007,0.707,0.167,1.122,0.85,1.494
		c2.163,1.177,3.243,3.063,3.245,5.541c0.003,3.283,0.002,6.564,0.003,9.847c0,0.462,0,0.923,0,1.464
		c2.002-0.388,3.872-0.729,5.726-1.143c0.209-0.047,0.398-0.479,0.478-0.764c0.64-2.297,2.053-3.465,4.433-3.453
		c1.871,0.01,3.784-0.065,5.6,0.293c3.786,0.75,6.264,4.125,6.275,8.254c0.023,7.844,0.007,15.687,0.007,23.531
		c0,5.414,0.005,10.826-0.002,16.239c-0.007,5.501-3.442,8.938-8.937,8.956c-1.109,0.002-2.219,0.036-3.325-0.017
		c-1.979-0.091-3.53-1.298-3.946-3.22c-0.182-0.845-0.545-1.039-1.329-1.148C18.275,122.511,9.14,111.604,9.792,98.911
		c0.205-3.978,1.357-7.688,3.304-11.177c0.43-0.771,0.702-1.736,0.71-2.616c0.06-6.351,0.053-12.702,0.022-19.054
		c-0.014-2.802,1.012-4.948,3.539-6.315c0.283-0.153,0.542-0.641,0.545-0.975c0.038-3.794,0.041-7.588,0.001-11.382
		c-0.004-0.412-0.25-0.886-0.521-1.219c-1.78-2.192-2.07-4.584-0.764-7.038C23.59,26.051,33.823,16.47,47.532,10.757
		c14.415-6.006,29.097-6.412,43.829-1.344c11.404,3.922,20.884,10.718,28.205,20.342c2.133,2.803,3.955,5.854,5.774,8.879
		c1.688,2.804,1.403,5.067-0.604,7.68c-0.256,0.333-0.393,0.843-0.396,1.271c-0.03,3.666-0.041,7.333,0.015,10.998
		c0.006,0.429,0.35,1.034,0.717,1.247c2.291,1.333,3.342,3.32,3.344,5.917c0.005,6.479-0.021,12.959,0.029,19.438
		c0.009,0.842,0.248,1.775,0.664,2.504c7.389,12.938,2.173,28.972-11.48,34.865C115.271,123.57,112.682,124.043,110.078,124.799z
		 M99.354,27.306c-8.977-6.413-18.977-9.433-29.969-9.058c-9.712,0.332-18.546,3.324-26.438,9.051
		C61.759,20.597,80.545,20.607,99.354,27.306z M17.917,81.688c1.391-0.97,2.557-1.744,3.669-2.59
		c0.249-0.188,0.431-0.629,0.433-0.955c0.025-4.25,0.033-8.502-0.016-12.753c-0.006-0.503-0.231-1.22-0.598-1.452
		c-0.583-0.368-1.418-0.655-2.063-0.535c-1.03,0.193-1.42,1.115-1.421,2.15c-0.002,3.487-0.002,6.974-0.003,10.46
		C17.917,77.825,17.917,79.641,17.917,81.688z M124.27,81.625c0.031-0.384,0.069-0.62,0.069-0.857
		c0.004-5.017,0.011-10.035-0.003-15.053c-0.004-1.495-0.798-2.437-2.003-2.471c-1.267-0.037-2.103,0.912-2.108,2.489
		c-0.018,4.082-0.014,8.164,0.008,12.246c0,0.351,0.078,0.846,0.311,1.022C121.708,79.893,122.938,80.7,124.27,81.625z"/>
</g>
</svg>
