<?xml version="1.0" encoding="utf-8"?>
<!-- Generator: Adobe Illustrator 16.0.3, SVG Export Plug-In . SVG Version: 6.00 Build 0)  -->
<!DOCTYPE svg PUBLIC "-//W3C//DTD SVG 1.1//EN" "http://www.w3.org/Graphics/SVG/1.1/DTD/svg11.dtd">
<svg version="1.1" id="Capa_1" xmlns="http://www.w3.org/2000/svg" xmlns:xlink="http://www.w3.org/1999/xlink" x="0px" y="0px"
	 width="140px" height="140px" viewBox="0 0 140 140" enable-background="new 0 0 140 140" xml:space="preserve">
<g opacity="0.8">
	<path fill-rule="evenodd" clip-rule="evenodd" fill="#00A0C6" d="M106.318,127.072c-0.873,3.101-1.973,4.007-5.508,3.882
		c-2.059-0.075-4.26-0.108-6.119-0.853c-3.379-1.355-4.807-4.266-4.805-7.878c0.002-11.127,0-22.253,0-33.378
		c0-2.175-0.014-4.349,0.004-6.522c0.039-5.048,3.451-8.51,8.492-8.621c1.148-0.025,2.301-0.024,3.451,0.001
		c2.301,0.05,3.75,1.212,4.359,3.403c0.088,0.315,0.313,0.784,0.553,0.838c1.816,0.412,3.65,0.74,5.66,1.128c0-1.138,0-2.23,0-3.322
		c0-2.643,0.004-5.285,0-7.929c-0.002-2.529,1.129-4.38,3.287-5.676c0.357-0.215,0.756-0.725,0.762-1.104
		c0.059-3.324,0.031-6.65,0.023-9.975c0-0.162-0.061-0.323-0.111-0.57c-3.004-0.179-4.801-2.011-5.953-4.551
		c-1.906-4.199-5.172-6.9-9.15-9.046c-10.807-5.83-22.393-8.268-34.566-8.217c-8.639,0.036-17.048,1.487-25.156,4.516
		c-4.813,1.798-9.394,4.082-13.45,7.248c-1.123,0.877-1.804,2.339-2.633,3.569c-0.523,0.775-0.973,1.603-1.407,2.433
		c-1.201,2.297-2.931,3.847-5.744,4.054c-0.022,0.491-0.06,0.946-0.061,1.401c-0.005,2.941,0.014,5.882-0.015,8.824
		c-0.007,0.707,0.167,1.122,0.85,1.493c2.163,1.178,3.243,3.063,3.245,5.541c0.003,3.283,0.002,6.565,0.003,9.848
		c0,0.462,0,0.923,0,1.464c2.002-0.388,3.872-0.729,5.726-1.143c0.209-0.046,0.398-0.478,0.478-0.764
		c0.64-2.296,2.053-3.464,4.433-3.452c1.871,0.009,3.784-0.066,5.6,0.293c3.786,0.75,6.264,4.124,6.275,8.254
		c0.023,7.843,0.007,15.686,0.007,23.53c0,5.414,0.005,10.827-0.002,16.24c-0.007,5.501-3.442,8.938-8.937,8.956
		c-1.109,0.002-2.219,0.036-3.325-0.017c-1.979-0.09-3.53-1.297-3.946-3.22c-0.182-0.844-0.545-1.038-1.329-1.148
		c-12.794-1.818-21.929-12.727-21.276-25.418c0.205-3.978,1.357-7.689,3.304-11.177c0.43-0.771,0.702-1.736,0.71-2.616
		c0.06-6.35,0.053-12.702,0.022-19.054c-0.014-2.802,1.012-4.948,3.539-6.315c0.283-0.152,0.542-0.641,0.545-0.975
		c0.038-3.794,0.041-7.588,0.001-11.381c-0.004-0.412-0.25-0.886-0.521-1.219c-1.78-2.192-2.07-4.584-0.764-7.038
		c6.961-13.084,17.194-22.666,30.903-28.378c14.415-6.006,29.097-6.412,43.83-1.344c11.404,3.922,20.883,10.718,28.205,20.342
		c2.133,2.803,3.955,5.854,5.775,8.879c1.688,2.804,1.402,5.067-0.604,7.68c-0.256,0.333-0.393,0.843-0.396,1.271
		c-0.031,3.666-0.041,7.333,0.014,10.997c0.008,0.43,0.35,1.035,0.717,1.248c2.291,1.333,3.342,3.319,3.344,5.916
		c0.006,6.48-0.021,12.96,0.031,19.438c0.008,0.842,0.246,1.776,0.664,2.505c7.387,12.938,2.172,28.971-11.482,34.864
		C111.514,125.844,108.922,126.316,106.318,127.072z M95.596,29.579c-8.977-6.413-18.978-9.433-29.97-9.058
		c-9.712,0.332-18.546,3.324-26.438,9.051C58,22.871,76.785,22.881,95.596,29.579z M14.157,83.961
		c1.391-0.97,2.557-1.744,3.669-2.59c0.249-0.188,0.431-0.629,0.433-0.955c0.025-4.251,0.033-8.503-0.016-12.755
		c-0.006-0.502-0.231-1.22-0.598-1.451c-0.583-0.368-1.418-0.655-2.063-0.535c-1.03,0.193-1.42,1.115-1.421,2.15
		c-0.002,3.486-0.002,6.973-0.003,10.46C14.157,80.099,14.157,81.914,14.157,83.961z M120.51,83.898
		c0.031-0.384,0.07-0.62,0.07-0.857c0.004-5.017,0.01-10.035-0.004-15.054c-0.004-1.494-0.797-2.436-2.002-2.471
		c-1.268-0.037-2.102,0.912-2.109,2.488c-0.018,4.082-0.014,8.164,0.008,12.246c0,0.35,0.078,0.845,0.311,1.022
		C117.949,82.166,119.178,82.974,120.51,83.898z"/>
</g>
<g opacity="0.6">
	<path fill-rule="evenodd" clip-rule="evenodd" fill="#FF0000" d="M113.744,122.299c-0.874,3.101-1.973,4.007-5.509,3.882
		c-2.059-0.075-4.26-0.108-6.118-0.853c-3.379-1.355-4.807-4.266-4.806-7.878c0.003-11.127,0.001-22.253,0.001-33.378
		c0-2.175-0.014-4.349,0.003-6.522c0.04-5.048,3.451-8.51,8.492-8.621c1.149-0.025,2.302-0.024,3.452,0.001
		c2.3,0.05,3.75,1.212,4.359,3.403c0.088,0.315,0.313,0.784,0.553,0.838c1.815,0.412,3.65,0.74,5.659,1.128c0-1.138,0-2.23,0-3.322
		c0-2.643,0.004-5.285,0.001-7.928c-0.003-2.531,1.128-4.381,3.287-5.677c0.357-0.215,0.756-0.726,0.762-1.104
		c0.058-3.324,0.031-6.649,0.023-9.974c0-0.162-0.061-0.323-0.111-0.57c-3.004-0.179-4.801-2.011-5.954-4.551
		c-1.905-4.199-5.172-6.9-9.15-9.046c-10.806-5.83-22.392-8.268-34.564-8.217c-8.639,0.036-17.049,1.487-25.156,4.516
		c-4.813,1.798-9.394,4.082-13.45,7.248c-1.123,0.877-1.804,2.339-2.633,3.569c-0.523,0.775-0.973,1.603-1.407,2.433
		c-1.201,2.297-2.931,3.847-5.744,4.054c-0.022,0.491-0.06,0.946-0.061,1.401c-0.005,2.941,0.014,5.882-0.015,8.824
		c-0.007,0.707,0.167,1.121,0.85,1.494c2.163,1.177,3.243,3.063,3.245,5.541c0.003,3.282,0.002,6.564,0.003,9.847
		c0,0.462,0,0.923,0,1.464c2.002-0.388,3.872-0.729,5.726-1.143c0.209-0.046,0.398-0.478,0.478-0.764
		c0.64-2.296,2.053-3.464,4.433-3.452c1.871,0.009,3.784-0.066,5.6,0.293c3.786,0.75,6.264,4.124,6.274,8.254
		c0.023,7.843,0.008,15.686,0.008,23.53c0,5.414,0.006,10.827-0.002,16.24c-0.007,5.501-3.442,8.938-8.937,8.956
		c-1.109,0.002-2.219,0.036-3.325-0.017c-1.979-0.09-3.53-1.297-3.946-3.22c-0.182-0.844-0.545-1.038-1.329-1.148
		c-12.794-1.818-21.929-12.727-21.276-25.418c0.205-3.978,1.357-7.689,3.304-11.177c0.43-0.771,0.702-1.736,0.71-2.616
		c0.06-6.35,0.053-12.702,0.022-19.054c-0.014-2.803,1.012-4.947,3.539-6.314c0.283-0.154,0.542-0.641,0.545-0.975
		c0.038-3.795,0.041-7.589,0.001-11.382c-0.004-0.412-0.25-0.886-0.521-1.219c-1.78-2.192-2.07-4.584-0.764-7.038
		C27.256,23.551,37.489,13.97,51.198,8.257c14.414-6.006,29.097-6.412,43.829-1.344c11.403,3.922,20.883,10.718,28.205,20.342
		c2.132,2.803,3.955,5.854,5.774,8.879c1.688,2.804,1.403,5.067-0.604,7.68c-0.256,0.333-0.393,0.843-0.396,1.271
		c-0.031,3.666-0.041,7.333,0.014,10.998c0.007,0.428,0.35,1.033,0.717,1.246c2.291,1.334,3.342,3.32,3.344,5.918
		c0.005,6.479-0.022,12.959,0.03,19.438c0.008,0.842,0.247,1.776,0.664,2.505c7.388,12.938,2.172,28.971-11.481,34.864
		C118.938,121.07,116.347,121.543,113.744,122.299z M103.021,24.806c-8.977-6.413-18.977-9.433-29.969-9.058
		c-9.712,0.332-18.546,3.324-26.438,9.051C65.425,18.097,84.211,18.107,103.021,24.806z M21.583,79.188
		c1.391-0.97,2.557-1.744,3.669-2.59c0.249-0.188,0.431-0.629,0.433-0.955c0.025-4.251,0.033-8.504-0.016-12.754
		c-0.006-0.504-0.231-1.221-0.598-1.452c-0.583-0.368-1.418-0.655-2.063-0.534c-1.03,0.193-1.42,1.115-1.421,2.149
		c-0.002,3.487-0.002,6.973-0.003,10.46C21.583,75.325,21.583,77.141,21.583,79.188z M127.935,79.125
		c0.032-0.384,0.07-0.62,0.07-0.857c0.004-5.017,0.011-10.035-0.003-15.053c-0.004-1.495-0.798-2.438-2.003-2.472
		c-1.267-0.037-2.102,0.911-2.108,2.489c-0.018,4.082-0.014,8.163,0.007,12.245c0.001,0.35,0.078,0.845,0.311,1.022
		C125.374,77.393,126.603,78.2,127.935,79.125z"/>
</g>
<g>
	<path fill-rule="evenodd" clip-rule="evenodd" d="M110.078,124.799c-0.874,3.101-1.973,4.007-5.509,3.882
		c-2.059-0.075-4.26-0.108-6.118-0.853c-3.379-1.355-4.807-4.266-4.806-7.878c0.003-11.127,0.001-22.253,0.001-33.378
		c0-2.175-0.014-4.349,0.003-6.522c0.04-5.048,3.451-8.51,8.492-8.621c1.149-0.025,2.302-0.024,3.452,0.001
		c2.3,0.05,3.75,1.212,4.359,3.403c0.088,0.315,0.313,0.784,0.553,0.838c1.815,0.412,3.65,0.74,5.659,1.128c0-1.138,0-2.23,0-3.322
		c0-2.643,0.004-5.285,0.001-7.928c-0.003-2.53,1.128-4.38,3.287-5.676c0.357-0.215,0.756-0.725,0.762-1.104
		c0.058-3.324,0.031-6.649,0.023-9.975c0-0.162-0.061-0.323-0.111-0.57c-3.004-0.179-4.801-2.011-5.954-4.551
		c-1.905-4.199-5.172-6.9-9.15-9.046c-10.806-5.83-22.392-8.268-34.565-8.217c-8.639,0.036-17.048,1.487-25.156,4.516
		c-4.813,1.798-9.394,4.082-13.45,7.248c-1.123,0.877-1.804,2.339-2.633,3.569c-0.523,0.775-0.973,1.603-1.407,2.433
		c-1.201,2.297-2.931,3.847-5.744,4.054c-0.022,0.491-0.06,0.946-0.061,1.401c-0.005,2.941,0.014,5.882-0.015,8.824
		c-0.007,0.707,0.167,1.122,0.85,1.494c2.163,1.177,3.243,3.063,3.245,5.541c0.003,3.283,0.002,6.565,0.003,9.847
		c0,0.462,0,0.923,0,1.464c2.002-0.388,3.872-0.729,5.726-1.143c0.209-0.046,0.398-0.478,0.478-0.764
		c0.64-2.296,2.053-3.464,4.433-3.452c1.871,0.009,3.784-0.066,5.6,0.293c3.786,0.75,6.264,4.124,6.275,8.254
		c0.023,7.843,0.007,15.686,0.007,23.53c0,5.414,0.005,10.827-0.002,16.24c-0.007,5.501-3.442,8.938-8.937,8.956
		c-1.109,0.002-2.219,0.036-3.325-0.017c-1.979-0.09-3.53-1.297-3.946-3.22c-0.182-0.844-0.545-1.038-1.329-1.148
		C18.275,122.511,9.14,111.603,9.792,98.911c0.205-3.978,1.357-7.689,3.304-11.177c0.43-0.771,0.702-1.736,0.71-2.616
		c0.06-6.35,0.053-12.702,0.022-19.054c-0.014-2.802,1.012-4.948,3.539-6.315c0.283-0.153,0.542-0.641,0.545-0.975
		c0.038-3.794,0.041-7.588,0.001-11.382c-0.004-0.412-0.25-0.886-0.521-1.219c-1.78-2.192-2.07-4.584-0.764-7.038
		C23.59,26.051,33.823,16.47,47.532,10.757c14.415-6.006,29.097-6.412,43.83-1.344c11.403,3.922,20.883,10.718,28.205,20.342
		c2.132,2.803,3.955,5.854,5.774,8.879c1.688,2.804,1.403,5.067-0.604,7.68c-0.256,0.333-0.393,0.843-0.396,1.271
		c-0.031,3.666-0.041,7.333,0.014,10.998c0.007,0.429,0.35,1.034,0.717,1.247c2.291,1.333,3.342,3.32,3.344,5.917
		c0.005,6.48-0.022,12.959,0.03,19.438c0.008,0.842,0.247,1.776,0.664,2.505c7.388,12.938,2.172,28.971-11.481,34.864
		C115.272,123.57,112.681,124.043,110.078,124.799z M99.354,27.306c-8.977-6.413-18.977-9.433-29.969-9.058
		c-9.712,0.332-18.546,3.324-26.438,9.051C61.759,20.597,80.545,20.607,99.354,27.306z M17.917,81.688
		c1.391-0.97,2.557-1.744,3.669-2.59c0.249-0.188,0.431-0.629,0.433-0.955c0.025-4.251,0.033-8.503-0.016-12.754
		c-0.006-0.503-0.231-1.22-0.598-1.452c-0.583-0.368-1.418-0.655-2.063-0.535c-1.03,0.193-1.42,1.115-1.421,2.15
		c-0.002,3.487-0.002,6.973-0.003,10.46C17.917,77.825,17.917,79.641,17.917,81.688z M124.269,81.625
		c0.032-0.384,0.07-0.62,0.07-0.857c0.004-5.017,0.011-10.035-0.003-15.053c-0.004-1.495-0.798-2.437-2.003-2.471
		c-1.267-0.037-2.102,0.912-2.108,2.489c-0.018,4.082-0.014,8.164,0.007,12.246c0.001,0.35,0.078,0.845,0.311,1.022
		C121.708,79.893,122.937,80.7,124.269,81.625z"/>
</g>
<g>
</g>
<g>
</g>
<g>
</g>
<g>
</g>
<g>
</g>
<g>
</g>
</svg>
