<?xml version="1.0" encoding="utf-8"?>
<!-- Generator: Adobe Illustrator 16.0.3, SVG Export Plug-In . SVG Version: 6.00 Build 0)  -->
<!DOCTYPE svg PUBLIC "-//W3C//DTD SVG 1.1//EN" "http://www.w3.org/Graphics/SVG/1.1/DTD/svg11.dtd">
<svg version="1.1" id="Capa_1" xmlns="http://www.w3.org/2000/svg" xmlns:xlink="http://www.w3.org/1999/xlink" x="0px" y="0px"
	 width="100px" height="100px" viewBox="0 0 100 100" enable-background="new 0 0 100 100" xml:space="preserve">
<g>
	<path fill="#F2F2F2" d="M99,90.785c-0.47,1.049-1.285,1.397-2.416,1.396c-16.299-0.022-32.593-0.015-48.89-0.016
		c-0.251,0-0.504-0.002-0.752-0.033c-0.946-0.118-1.609-0.83-1.647-1.757c-0.036-0.932,0.55-1.712,1.486-1.893
		c0.426-0.085,0.873-0.081,1.312-0.081c15.259-0.004,30.52-0.004,45.78-0.004c0.407,0,0.813,0,1.29,0c0-9.763,0-19.478,0-29.245
		c-23.802,0-47.589,0-71.457,0c0,9.694,0,19.403,0,29.245c0.985,0,1.976-0.004,2.967,0c1.194,0.004,2.389-0.035,3.579,0.026
		c1.108,0.059,1.855,0.874,1.849,1.88c-0.007,1.015-0.768,1.827-1.868,1.841c-2.827,0.034-5.654,0.038-8.479,0.001
		c-1.238-0.015-1.889-0.773-1.891-2.096c-0.011-3.767-0.004-7.536-0.004-11.304c0-0.341,0-0.683,0-1.158c-0.387,0-0.719,0-1.05,0
		c-3.455,0-6.908,0.002-10.362-0.001c-2.985-0.002-4.873-1.41-5.766-4.284c-0.028-0.084-0.099-0.153-0.148-0.231
		c0-20.913,0-41.829,0-62.743C3.89,6.855,5.33,5.748,8.56,5.748c24.178-0.003,48.357-0.003,72.537,0.003
		c0.623,0.002,1.267,0.023,1.866,0.174c2.583,0.645,4.16,2.807,4.16,5.665c0.005,14.194,0.003,28.386,0.003,42.579
		c0,0.362,0,0.726,0,1.157c3.239,0,6.344,0.037,9.448-0.019c1.137-0.019,1.943,0.337,2.426,1.372C99,68.049,99,79.416,99,90.785z
		 M19.858,73.815c0-0.446,0-0.787,0-1.125c0-4.897,0-9.794,0-14.694c0-2.16,0.502-2.669,2.648-2.669c19.875,0,39.75,0,59.624,0
		c0.394,0,0.788,0,1.162,0c0-9.587,0-19.021,0-28.46c-25.692,0-51.32,0-76.993,0c0,0.333,0,0.583,0,0.832
		c0,14.631,0,29.262,0,43.894c0,0.158-0.005,0.313,0.004,0.471c0.07,1.033,0.708,1.735,1.733,1.742
		C11.929,73.834,15.819,73.815,19.858,73.815z M83.357,22.974c0-0.433,0-0.775,0-1.115c0-3.264,0-6.53,0-9.794
		c0-2.073-0.474-2.55-2.541-2.55c-9.731-0.001-19.463-0.001-29.197-0.001c-14.25,0-28.503,0-42.755,0.001
		c-2.094,0-2.564,0.463-2.564,2.52c0,3.297,0,6.593,0,9.891c0,0.334,0,0.67,0,1.048C32.016,22.974,57.622,22.974,83.357,22.974z"/>
	<path fill="#F2F2F2" d="M72.876,74.343c-0.586,2.041-1.17,4.081-1.755,6.122c-0.414,1.45-1.121,2.106-2.271,2.102
		c-1.137-0.005-1.829-0.654-2.262-2.121c-0.552-1.862-1.105-3.725-1.663-5.584c-0.059-0.198-0.146-0.387-0.302-0.787
		c-0.417,2.273-0.782,4.323-1.171,6.369c-0.278,1.461-1.114,2.201-2.219,2.01c-1.191-0.203-1.734-1.19-1.467-2.673
		c0.762-4.227,1.524-8.451,2.287-12.678c0.253-1.396,0.933-2.105,2.069-2.172c1.204-0.069,1.97,0.54,2.39,1.945
		c0.663,2.219,1.311,4.443,1.968,6.667c0.085,0.285,0.186,0.564,0.368,1.108c0.486-1.688,0.903-3.117,1.313-4.548
		c0.329-1.143,0.637-2.295,0.976-3.436c0.354-1.187,1.145-1.782,2.256-1.743c1.084,0.037,1.842,0.7,2.083,1.929
		c0.869,4.43,1.724,8.862,2.562,13.294c0.216,1.14-0.478,2.122-1.55,2.306c-1.001,0.174-1.934-0.51-2.157-1.637
		c-0.399-1.999-0.766-4.003-1.148-6.004c-0.028-0.147-0.079-0.289-0.12-0.436C73,74.367,72.938,74.355,72.876,74.343z"/>
	<path fill="#F2F2F2" d="M37.71,75.415c-2.021,0-3.891,0-5.889,0c0,0.508,0.002,0.967,0,1.431c-0.01,1.349,0.025,2.701-0.05,4.046
		c-0.055,1.006-0.844,1.665-1.815,1.673c-0.974,0.006-1.712-0.64-1.861-1.642c-0.033-0.217-0.04-0.439-0.04-0.657
		c-0.001-4.363-0.001-8.725,0-13.088c0-0.157,0-0.314,0.017-0.471c0.12-1.111,0.874-1.806,1.924-1.78
		c1.003,0.026,1.748,0.718,1.796,1.799c0.057,1.252,0.024,2.512,0.029,3.766c0.001,0.339,0,0.679,0,1.062c1.983,0,3.856,0,5.889,0
		c0-0.813-0.002-1.612,0-2.413c0.004-0.846-0.025-1.697,0.031-2.542c0.065-0.956,0.792-1.618,1.723-1.668
		c0.954-0.049,1.711,0.505,1.925,1.441c0.067,0.302,0.084,0.619,0.085,0.932c0.005,4.3,0.004,8.602,0.001,12.9
		c0,0.251-0.005,0.505-0.05,0.748c-0.183,1.047-0.968,1.671-1.985,1.602c-0.963-0.063-1.677-0.76-1.709-1.783
		c-0.045-1.414-0.018-2.826-0.022-4.238C37.709,76.193,37.71,75.854,37.71,75.415z"/>
	<path fill="#F2F2F2" d="M49.103,68.667c-0.738,0-1.334,0.036-1.925-0.01c-1.16-0.087-1.912-0.885-1.877-1.938
		c0.034-1.028,0.776-1.776,1.91-1.792c2.541-0.031,5.084-0.031,7.625,0c1.114,0.014,1.879,0.79,1.913,1.802
		c0.032,1.002-0.712,1.823-1.81,1.919c-0.646,0.056-1.302,0.011-2.067,0.011c0,0.457,0,0.793,0,1.13
		c-0.001,3.576,0.012,7.153-0.007,10.731c-0.009,1.458-1.112,2.337-2.407,1.972c-0.862-0.243-1.348-0.978-1.351-2.126
		c-0.008-3.515-0.003-7.03-0.003-10.543C49.103,69.48,49.103,69.14,49.103,68.667z"/>
	<path fill="#F2F2F2" d="M85.92,78.811c1.033,0,1.91-0.02,2.785,0.005c1.271,0.036,2.041,0.741,2.056,1.845
		c0.014,1.114-0.738,1.867-1.996,1.901c-1.536,0.036-3.076,0.04-4.614-0.002c-1.296-0.035-1.979-0.715-1.985-2.011
		c-0.021-4.521-0.02-9.042-0.003-13.563c0.005-1.274,0.731-2.043,1.834-2.062c1.142-0.017,1.904,0.766,1.914,2.086
		c0.022,3.516,0.01,7.032,0.01,10.548C85.92,77.929,85.92,78.3,85.92,78.811z"/>
	<path fill="#F2F2F2" d="M38.69,92.148c-1.074-0.001-1.895-0.839-1.87-1.903c0.023-1.014,0.858-1.829,1.87-1.827
		c1.04,0.001,1.913,0.894,1.883,1.923C40.545,91.36,39.723,92.148,38.69,92.148z"/>
	<path fill="#F2F2F2" d="M15.47,41.207c1.42,1.717,2.817,3.367,4.169,5.052c1.001,1.25,0.503,2.94-0.977,3.118
		c-0.58,0.07-1.422-0.226-1.806-0.658c-1.816-2.034-3.528-4.161-5.25-6.278c-0.65-0.798-0.635-1.689,0.023-2.496
		c1.704-2.09,3.423-4.169,5.161-6.23c0.758-0.901,1.836-1.018,2.67-0.358c0.857,0.679,0.974,1.799,0.21,2.75
		C18.318,37.794,16.923,39.449,15.47,41.207z"/>
	<path fill="#F2F2F2" d="M41.233,41.207c-1.442-1.745-2.834-3.403-4.192-5.085c-0.763-0.948-0.663-2.071,0.187-2.755
		c0.801-0.649,1.885-0.586,2.607,0.263c1.787,2.103,3.542,4.234,5.278,6.378c0.617,0.761,0.614,1.651-0.01,2.418
		c-1.719,2.119-3.458,4.221-5.22,6.303c-0.758,0.895-1.855,0.984-2.676,0.309c-0.81-0.666-0.931-1.788-0.209-2.688
		C38.37,44.641,39.781,42.964,41.233,41.207z"/>
	<path fill="#F2F2F2" d="M31.935,33.765c-0.34,1.531-0.735,3.302-1.128,5.072c-0.754,3.393-1.506,6.784-2.265,10.175
		c-0.295,1.327-1.223,2.03-2.309,1.772c-1.119-0.265-1.652-1.264-1.362-2.576c1.092-4.921,2.185-9.839,3.284-14.76
		c0.068-0.302,0.146-0.616,0.289-0.887c0.402-0.776,1.332-1.142,2.17-0.896C31.412,31.902,31.939,32.637,31.935,33.765z"/>
	<path fill="#F2F2F2" d="M58.602,48.356c-2.354,0-4.708,0.015-7.062-0.005c-1.233-0.013-2.024-0.68-2.116-1.701
		c-0.107-1.206,0.688-2.051,2.004-2.055c4.175-0.014,8.349-0.006,12.523-0.006c0.659,0,1.319-0.016,1.978,0.006
		c1.096,0.039,1.882,0.789,1.913,1.802c0.031,1.002-0.705,1.848-1.803,1.926c-1.031,0.074-2.069,0.03-3.106,0.033
		C61.49,48.359,60.047,48.356,58.602,48.356z"/>
	<path fill="#F2F2F2" d="M69.326,34.908c2.354,0.001,4.708-0.016,7.061,0.008c1.394,0.013,2.209,0.857,2.092,2.082
		c-0.087,0.911-0.756,1.582-1.755,1.641c-1.001,0.06-2.007,0.035-3.012,0.036c-3.639,0.002-7.279,0.001-10.921,0
		c-0.313,0-0.629,0.002-0.939-0.027c-1.051-0.105-1.778-0.854-1.797-1.83c-0.017-1.006,0.735-1.844,1.835-1.883
		c1.628-0.057,3.263-0.024,4.894-0.027C67.632,34.906,68.479,34.908,69.326,34.908z"/>
	<path fill="#F2F2F2" d="M75.095,44.6c0.563,0,1.128-0.031,1.689,0.007c0.947,0.065,1.633,0.767,1.699,1.686
		c0.066,0.95-0.451,1.838-1.391,1.931c-1.327,0.131-2.684,0.138-4.013,0.012c-0.977-0.092-1.517-1.01-1.422-1.998
		c0.086-0.908,0.785-1.582,1.747-1.635c0.562-0.032,1.125-0.007,1.689-0.007C75.095,44.599,75.095,44.599,75.095,44.6z"/>
	<path fill="#F2F2F2" d="M52.844,38.635c-0.596,0-1.19,0.049-1.779-0.011c-0.998-0.1-1.646-0.855-1.652-1.826
		c-0.002-0.936,0.601-1.752,1.542-1.819c1.242-0.087,2.5-0.09,3.743-0.002c0.98,0.071,1.592,0.92,1.556,1.899
		c-0.035,0.927-0.672,1.646-1.631,1.747C54.034,38.685,53.438,38.634,52.844,38.635z"/>
	<path fill="#F2F2F2" d="M26.633,18.163c-3.829,0-7.658,0.003-11.488-0.004c-0.437,0-0.885-0.006-1.309-0.099
		c-0.869-0.191-1.415-0.976-1.375-1.883c0.037-0.862,0.62-1.559,1.461-1.72c0.244-0.046,0.5-0.059,0.75-0.059
		c7.972-0.004,15.947-0.004,23.918,0c0.25,0,0.504,0.007,0.75,0.05c0.886,0.155,1.5,0.88,1.521,1.774
		c0.021,0.895-0.549,1.664-1.429,1.848c-0.395,0.081-0.81,0.089-1.215,0.089C34.356,18.165,30.496,18.163,26.633,18.163z"/>
	<path fill="#F2F2F2" d="M59.463,16.259c0.005,1.04-0.796,1.858-1.83,1.874c-1.06,0.015-1.943-0.862-1.918-1.903
		c0.024-1.02,0.865-1.829,1.899-1.821C58.657,14.416,59.459,15.217,59.463,16.259z"/>
	<path fill="#F2F2F2" d="M77.188,16.258c0.005,1.04-0.793,1.857-1.827,1.874c-1.06,0.018-1.934-0.851-1.911-1.902
		c0.021-1.021,0.859-1.83,1.891-1.822C76.382,14.414,77.185,15.217,77.188,16.258z"/>
	<path fill="#F2F2F2" d="M68.324,16.242c0.014,1.044-0.774,1.866-1.811,1.89c-1.063,0.024-1.949-0.841-1.938-1.885
		c0.014-1.019,0.853-1.837,1.883-1.838C67.506,14.408,68.313,15.201,68.324,16.242z"/>
</g>
<g>
</g>
<g>
</g>
<g>
</g>
<g>
</g>
<g>
</g>
<g>
</g>
</svg>
