<?xml version="1.0" encoding="utf-8"?>
<!-- Generator: Adobe Illustrator 16.0.3, SVG Export Plug-In . SVG Version: 6.00 Build 0)  -->
<!DOCTYPE svg PUBLIC "-//W3C//DTD SVG 1.1//EN" "http://www.w3.org/Graphics/SVG/1.1/DTD/svg11.dtd">
<svg version="1.1" id="Capa_1" xmlns="http://www.w3.org/2000/svg" xmlns:xlink="http://www.w3.org/1999/xlink" x="0px" y="0px"
	 width="140px" height="140px" viewBox="0 0 140 140" enable-background="new 0 0 140 140" xml:space="preserve">
<g opacity="0.8">
	<path fill-rule="evenodd" clip-rule="evenodd" fill="#00A0C6" d="M129.505,114.938c-0.605,1.352-1.655,1.802-3.113,1.799
		c-20.992-0.027-41.983-0.018-62.976-0.02c-0.322,0-0.648-0.001-0.968-0.042c-1.22-0.151-2.071-1.07-2.12-2.265
		c-0.048-1.198,0.707-2.202,1.912-2.438c0.549-0.105,1.123-0.104,1.69-0.104c19.655-0.005,39.312-0.005,58.968-0.005
		c0.524,0,1.049,0,1.662,0c0-12.576,0-25.088,0-37.672c-30.658,0-61.299,0-92.042,0c0,12.487,0,24.994,0,37.672
		c1.269,0,2.545-0.002,3.823,0c1.538,0.005,3.077-0.045,4.61,0.034c1.428,0.074,2.39,1.126,2.381,2.42
		c-0.009,1.308-0.987,2.354-2.407,2.372c-3.64,0.044-7.281,0.049-10.921,0.001c-1.595-0.019-2.432-0.996-2.437-2.698
		c-0.013-4.852-0.006-9.707-0.006-14.56c0-0.439,0-0.881,0-1.492c-0.499,0-0.926,0-1.352,0c-4.449,0-8.898,0.002-13.347-0.002
		c-3.845-0.001-6.276-1.814-7.428-5.517c-0.034-0.108-0.126-0.197-0.191-0.299c0-26.938,0-53.876,0-80.818
		c1.749-4.476,3.604-5.901,7.764-5.901C44.154,5.4,75.298,5.4,106.442,5.411c0.802,0.002,1.631,0.03,2.403,0.225
		c3.329,0.829,5.361,3.614,5.361,7.296c0.006,18.282,0.002,36.564,0.002,54.845c0,0.469,0,0.935,0,1.492
		c4.173,0,8.173,0.046,12.169-0.025c1.467-0.027,2.506,0.433,3.127,1.766C129.505,85.652,129.505,100.296,129.505,114.938z
		 M27.562,93.083c0-0.577,0-1.013,0-1.448c0-6.312,0-12.62,0-18.929c0-2.784,0.649-3.438,3.412-3.438c25.601,0,51.202,0,76.802,0
		c0.506,0,1.013,0,1.495,0c0-12.35,0-24.502,0-36.66c-33.093,0-66.104,0-99.174,0c0,0.428,0,0.749,0,1.072
		c0,18.844,0,37.692,0,56.537c0,0.206-0.006,0.406,0.006,0.607c0.09,1.331,0.912,2.235,2.232,2.244
		C17.349,93.103,22.361,93.083,27.562,93.083z M109.355,27.592c0-0.557,0-0.997,0-1.435c0-4.204,0-8.411,0-12.616
		c0-2.67-0.609-3.284-3.272-3.284c-12.536-0.001-25.071-0.001-37.607-0.001c-18.357,0-36.716,0-55.074,0.001
		c-2.698,0-3.304,0.595-3.304,3.245c0,4.247,0,8.493,0,12.74c0,0.432,0,0.864,0,1.35C43.222,27.592,76.205,27.592,109.355,27.592z"
		/>
	<path fill-rule="evenodd" clip-rule="evenodd" fill="#00A0C6" d="M95.853,93.762c-0.752,2.628-1.507,5.257-2.258,7.885
		c-0.535,1.868-1.446,2.715-2.926,2.707c-1.466-0.005-2.354-0.842-2.914-2.731c-0.71-2.398-1.423-4.797-2.141-7.192
		c-0.075-0.255-0.188-0.496-0.389-1.013c-0.537,2.929-1.008,5.568-1.509,8.205c-0.356,1.88-1.435,2.834-2.857,2.588
		c-1.534-0.263-2.234-1.534-1.889-3.443c0.98-5.445,1.962-10.888,2.944-16.328c0.325-1.799,1.201-2.715,2.667-2.799
		c1.552-0.09,2.537,0.694,3.076,2.502c0.854,2.861,1.689,5.728,2.534,8.592c0.11,0.365,0.24,0.725,0.476,1.428
		c0.628-2.174,1.164-4.014,1.691-5.858c0.425-1.473,0.818-2.957,1.256-4.424c0.458-1.528,1.476-2.298,2.906-2.247
		c1.397,0.048,2.373,0.903,2.684,2.485c1.119,5.705,2.22,11.413,3.3,17.123c0.276,1.469-0.616,2.732-1.996,2.97
		c-1.29,0.221-2.49-0.659-2.78-2.108c-0.515-2.576-0.987-5.154-1.479-7.732c-0.036-0.19-0.102-0.373-0.154-0.562
		C96.016,93.792,95.934,93.775,95.853,93.762z"/>
	<path fill-rule="evenodd" clip-rule="evenodd" fill="#00A0C6" d="M50.558,95.142c-2.604,0-5.014,0-7.585,0
		c0,0.652,0.003,1.247,0,1.842c-0.012,1.736,0.034,3.478-0.063,5.212c-0.072,1.297-1.088,2.146-2.339,2.155
		c-1.253,0.007-2.205-0.825-2.396-2.116c-0.042-0.278-0.053-0.563-0.053-0.845c-0.002-5.62-0.002-11.24,0-16.859
		c0-0.2,0-0.404,0.022-0.606c0.153-1.43,1.125-2.327,2.479-2.292c1.292,0.032,2.25,0.924,2.313,2.317
		c0.072,1.612,0.031,3.233,0.037,4.851c0.002,0.437,0,0.872,0,1.365c2.554,0,4.966,0,7.585,0c0-1.044-0.003-2.075,0.001-3.108
		c0.004-1.09-0.033-2.186,0.041-3.271c0.084-1.232,1.02-2.088,2.216-2.15c1.23-0.063,2.206,0.65,2.48,1.855
		c0.09,0.39,0.111,0.8,0.112,1.2c0.005,5.54,0.004,11.078,0.001,16.618c0,0.321-0.008,0.649-0.063,0.963
		c-0.237,1.347-1.248,2.153-2.56,2.063c-1.24-0.081-2.157-0.979-2.201-2.298c-0.056-1.818-0.023-3.641-0.027-5.459
		C50.557,96.144,50.558,95.706,50.558,95.142z"/>
	<path fill-rule="evenodd" clip-rule="evenodd" fill="#00A0C6" d="M65.234,86.449c-0.952,0-1.72,0.045-2.481-0.012
		c-1.494-0.111-2.462-1.14-2.418-2.499c0.043-1.322,1-2.288,2.459-2.307c3.274-0.04,6.549-0.04,9.821,0
		c1.438,0.019,2.422,1.018,2.465,2.321c0.042,1.287-0.916,2.348-2.329,2.471c-0.834,0.072-1.678,0.014-2.664,0.014
		c0,0.591,0,1.021,0,1.454c-0.001,4.607,0.015,9.215-0.009,13.826c-0.01,1.877-1.433,3.008-3.101,2.538
		c-1.108-0.313-1.734-1.26-1.739-2.739c-0.012-4.526-0.004-9.056-0.004-13.581C65.234,87.498,65.234,87.06,65.234,86.449z"/>
	<path fill-rule="evenodd" clip-rule="evenodd" fill="#00A0C6" d="M112.656,99.515c1.333,0,2.461-0.024,3.586,0.006
		c1.638,0.045,2.631,0.955,2.648,2.378c0.02,1.433-0.951,2.406-2.57,2.447c-1.98,0.048-3.965,0.051-5.943-0.003
		c-1.672-0.045-2.55-0.921-2.557-2.59c-0.03-5.822-0.027-11.645-0.005-17.47c0.006-1.641,0.942-2.63,2.362-2.653
		c1.472-0.022,2.455,0.986,2.465,2.688c0.03,4.528,0.013,9.056,0.014,13.586C112.656,98.381,112.656,98.856,112.656,99.515z"/>
	<path fill-rule="evenodd" clip-rule="evenodd" fill="#00A0C6" d="M51.819,116.696c-1.381-0.002-2.441-1.079-2.408-2.453
		c0.03-1.304,1.107-2.355,2.408-2.354c1.34,0.003,2.465,1.15,2.427,2.478C54.21,115.681,53.152,116.696,51.819,116.696z"/>
	<path fill-rule="evenodd" clip-rule="evenodd" fill="#00A0C6" d="M21.911,51.078c1.831,2.213,3.629,4.338,5.37,6.509
		c1.292,1.608,0.648,3.787-1.258,4.015c-0.747,0.09-1.831-0.293-2.327-0.848c-2.339-2.621-4.544-5.36-6.763-8.086
		c-0.836-1.028-0.817-2.176,0.031-3.216c2.196-2.693,4.409-5.37,6.647-8.026c0.977-1.161,2.365-1.309,3.439-0.459
		c1.104,0.874,1.255,2.316,0.271,3.542C25.578,46.682,23.782,48.813,21.911,51.078z"/>
	<path fill-rule="evenodd" clip-rule="evenodd" fill="#00A0C6" d="M55.096,51.078c-1.858-2.248-3.649-4.382-5.399-6.55
		c-0.983-1.221-0.854-2.667,0.241-3.549c1.032-0.836,2.429-0.754,3.358,0.34c2.3,2.708,4.56,5.454,6.798,8.215
		c0.795,0.979,0.792,2.125-0.011,3.115c-2.215,2.729-4.455,5.437-6.725,8.119c-0.976,1.153-2.391,1.267-3.448,0.396
		c-1.042-0.857-1.198-2.303-0.268-3.461C51.407,55.501,53.227,53.342,55.096,51.078z"/>
	<path fill-rule="evenodd" clip-rule="evenodd" fill="#00A0C6" d="M43.119,41.493c-0.44,1.972-0.947,4.252-1.455,6.533
		c-0.972,4.371-1.939,8.74-2.916,13.108c-0.382,1.707-1.576,2.613-2.976,2.281c-1.442-0.341-2.128-1.627-1.753-3.316
		c1.406-6.338,2.814-12.675,4.229-19.011c0.088-0.391,0.188-0.794,0.372-1.143c0.52-1,1.716-1.472,2.795-1.154
		C42.446,39.092,43.125,40.04,43.119,41.493z"/>
	<path fill-rule="evenodd" clip-rule="evenodd" fill="#00A0C6" d="M77.468,60.287c-3.031,0-6.063,0.02-9.095-0.007
		c-1.591-0.016-2.609-0.874-2.728-2.19c-0.138-1.553,0.889-2.642,2.583-2.646c5.377-0.019,10.755-0.009,16.132-0.009
		c0.848,0,1.698-0.019,2.546,0.009c1.412,0.049,2.424,1.016,2.464,2.321c0.04,1.292-0.906,2.38-2.32,2.481
		c-1.329,0.095-2.667,0.038-4.002,0.042C81.189,60.291,79.329,60.287,77.468,60.287z"/>
	<path fill-rule="evenodd" clip-rule="evenodd" fill="#00A0C6" d="M91.281,42.964c3.032,0.001,6.063-0.02,9.096,0.01
		c1.794,0.018,2.845,1.103,2.694,2.683c-0.111,1.172-0.973,2.036-2.26,2.113c-1.291,0.076-2.587,0.044-3.879,0.046
		c-4.689,0.005-9.379,0.003-14.068,0c-0.402,0-0.81,0.005-1.211-0.034c-1.353-0.135-2.289-1.101-2.313-2.358
		c-0.022-1.295,0.947-2.375,2.362-2.425c2.1-0.074,4.204-0.03,6.305-0.035C89.099,42.961,90.19,42.964,91.281,42.964z"/>
	<path fill-rule="evenodd" clip-rule="evenodd" fill="#00A0C6" d="M98.712,55.449c0.725,0,1.453-0.041,2.176,0.009
		c1.221,0.084,2.104,0.988,2.188,2.171c0.087,1.223-0.581,2.368-1.791,2.488c-1.709,0.168-3.458,0.177-5.168,0.015
		c-1.26-0.12-1.953-1.302-1.832-2.574c0.111-1.169,1.014-2.038,2.252-2.106c0.722-0.04,1.45-0.007,2.175-0.007
		C98.712,55.447,98.712,55.447,98.712,55.449z"/>
	<path fill-rule="evenodd" clip-rule="evenodd" fill="#00A0C6" d="M70.05,47.766c-0.765,0-1.535,0.063-2.291-0.014
		c-1.285-0.129-2.122-1.102-2.127-2.351c-0.005-1.205,0.773-2.257,1.986-2.345c1.602-0.112,3.221-0.116,4.82-0.002
		c1.264,0.091,2.053,1.186,2.005,2.445c-0.044,1.194-0.865,2.121-2.101,2.25C71.585,47.829,70.815,47.764,70.05,47.766z"/>
	<path fill-rule="evenodd" clip-rule="evenodd" fill="#00A0C6" d="M36.291,21.396c-4.933,0-9.865,0.004-14.798-0.007
		c-0.563,0-1.141-0.007-1.686-0.126c-1.12-0.247-1.823-1.258-1.772-2.427c0.048-1.109,0.799-2.007,1.883-2.214
		c0.316-0.06,0.645-0.077,0.966-0.077c10.27-0.003,20.54-0.003,30.81,0c0.322,0,0.65,0.01,0.966,0.065
		c1.141,0.2,1.932,1.131,1.959,2.284c0.028,1.152-0.709,2.144-1.842,2.38c-0.508,0.105-1.043,0.114-1.565,0.114
		C46.238,21.398,41.265,21.396,36.291,21.396z"/>
	<path fill-rule="evenodd" clip-rule="evenodd" fill="#00A0C6" d="M78.577,18.943c0.005,1.341-1.024,2.394-2.359,2.414
		c-1.363,0.02-2.501-1.109-2.471-2.452c0.031-1.314,1.117-2.356,2.447-2.347C77.541,16.569,78.572,17.6,78.577,18.943z"/>
	<path fill-rule="evenodd" clip-rule="evenodd" fill="#00A0C6" d="M101.409,18.941c0.007,1.34-1.02,2.394-2.353,2.413
		c-1.367,0.025-2.491-1.096-2.462-2.447c0.027-1.317,1.107-2.358,2.436-2.349C100.371,16.567,101.403,17.6,101.409,18.941z"/>
	<path fill-rule="evenodd" clip-rule="evenodd" fill="#00A0C6" d="M89.992,18.921c0.016,1.346-0.999,2.404-2.334,2.434
		c-1.367,0.032-2.509-1.082-2.493-2.429c0.016-1.311,1.096-2.364,2.426-2.368C88.938,16.558,89.978,17.581,89.992,18.921z"/>
</g>
<g opacity="0.6">
	<path fill-rule="evenodd" clip-rule="evenodd" fill="#FF0000" d="M136.313,113.452c-0.605,1.352-1.656,1.801-3.114,1.798
		c-20.992-0.028-41.983-0.017-62.974-0.02c-0.323,0-0.648-0.002-0.968-0.04c-1.22-0.153-2.072-1.072-2.12-2.266
		c-0.048-1.198,0.706-2.205,1.911-2.438c0.549-0.106,1.125-0.104,1.69-0.104c19.656-0.004,39.313-0.004,58.969-0.004
		c0.524,0,1.049,0,1.662,0c0-12.575,0-25.087,0-37.671c-30.659,0-61.299,0-92.042,0c0,12.487,0,24.994,0,37.671
		c1.269,0,2.545-0.003,3.823,0c1.537,0.004,3.077-0.044,4.609,0.033c1.429,0.075,2.39,1.128,2.382,2.421
		c-0.01,1.308-0.988,2.355-2.407,2.372c-3.64,0.045-7.282,0.049-10.921,0.002c-1.596-0.019-2.433-0.996-2.438-2.698
		c-0.013-4.853-0.005-9.708-0.005-14.56c0-0.439,0-0.881,0-1.492c-0.5,0-0.927,0-1.353,0c-4.449,0-8.898,0.002-13.347-0.003
		c-3.845-0.001-6.277-1.815-7.428-5.516c-0.034-0.109-0.126-0.197-0.19-0.299c0-26.939,0-53.878,0-80.818
		c1.749-4.476,3.604-5.904,7.765-5.904c31.145-0.002,62.288-0.002,93.434,0.007c0.802,0.002,1.63,0.03,2.403,0.224
		c3.328,0.83,5.36,3.616,5.36,7.298c0.007,18.282,0.004,36.564,0.004,54.845c0,0.468,0,0.934,0,1.492
		c4.173,0,8.172,0.046,12.168-0.025c1.466-0.027,2.505,0.432,3.127,1.766C136.313,84.167,136.313,98.81,136.313,113.452z
		 M34.371,91.597c0-0.576,0-1.014,0-1.449c0-6.31,0-12.618,0-18.929c0-2.782,0.648-3.436,3.411-3.436c25.602,0,51.202,0,76.803,0
		c0.506,0,1.014,0,1.495,0c0-12.351,0-24.502,0-36.66c-33.094,0-66.104,0-99.174,0c0,0.427,0,0.748,0,1.07
		c0,18.847,0,37.693,0,56.538c0,0.205-0.006,0.407,0.006,0.608c0.09,1.33,0.913,2.234,2.233,2.242
		C24.157,91.617,29.169,91.597,34.371,91.597z M116.164,26.106c0-0.557,0-0.997,0-1.435c0-4.204,0-8.412,0-12.617
		c0-2.671-0.61-3.283-3.273-3.283c-12.535-0.002-25.071-0.002-37.607-0.002c-18.356,0-36.715,0-55.074,0.002
		c-2.698,0-3.303,0.595-3.303,3.246c0,4.246,0,8.493,0,12.739c0,0.432,0,0.864,0,1.351C50.031,26.106,83.014,26.106,116.164,26.106z
		"/>
	<path fill-rule="evenodd" clip-rule="evenodd" fill="#FF0000" d="M102.662,92.274c-0.752,2.63-1.509,5.259-2.259,7.885
		c-0.536,1.87-1.445,2.716-2.926,2.709c-1.466-0.005-2.355-0.844-2.914-2.731c-0.71-2.399-1.423-4.798-2.14-7.193
		c-0.076-0.255-0.188-0.497-0.391-1.014c-0.536,2.931-1.007,5.569-1.507,8.207c-0.358,1.878-1.436,2.834-2.858,2.586
		c-1.535-0.262-2.234-1.534-1.89-3.443c0.98-5.443,1.962-10.886,2.944-16.327c0.325-1.8,1.202-2.714,2.667-2.799
		c1.553-0.091,2.537,0.695,3.076,2.503c0.855,2.861,1.691,5.729,2.536,8.592c0.108,0.365,0.24,0.724,0.474,1.427
		c0.629-2.175,1.166-4.015,1.693-5.857c0.423-1.473,0.816-2.958,1.255-4.426c0.457-1.528,1.476-2.297,2.905-2.246
		c1.397,0.048,2.373,0.901,2.685,2.486c1.119,5.703,2.219,11.411,3.3,17.122c0.277,1.468-0.616,2.733-1.997,2.969
		c-1.29,0.223-2.49-0.656-2.779-2.108c-0.516-2.574-0.988-5.152-1.48-7.731c-0.036-0.189-0.1-0.375-0.152-0.561
		C102.823,92.307,102.742,92.291,102.662,92.274z"/>
	<path fill-rule="evenodd" clip-rule="evenodd" fill="#FF0000" d="M57.366,93.656c-2.603,0-5.014,0-7.585,0
		c0,0.652,0.004,1.244,0,1.841c-0.011,1.737,0.034,3.478-0.062,5.212c-0.073,1.298-1.09,2.146-2.34,2.156
		c-1.253,0.008-2.205-0.826-2.396-2.116c-0.042-0.278-0.052-0.563-0.052-0.846c-0.002-5.62-0.002-11.239,0-16.858
		c0-0.202,0-0.404,0.021-0.606c0.153-1.43,1.124-2.327,2.478-2.293c1.293,0.032,2.251,0.924,2.313,2.317
		c0.073,1.612,0.032,3.234,0.037,4.852c0.002,0.437,0,0.871,0,1.365c2.554,0,4.968,0,7.585,0c0-1.045-0.003-2.076,0.001-3.108
		c0.005-1.091-0.032-2.187,0.041-3.271c0.085-1.231,1.021-2.088,2.217-2.149c1.229-0.063,2.205,0.649,2.48,1.854
		c0.088,0.39,0.11,0.801,0.111,1.202c0.006,5.539,0.006,11.077,0.002,16.617c0,0.322-0.009,0.649-0.064,0.964
		c-0.236,1.347-1.248,2.152-2.559,2.063c-1.241-0.082-2.158-0.979-2.2-2.299c-0.057-1.82-0.025-3.641-0.028-5.458
		C57.365,94.658,57.366,94.221,57.366,93.656z"/>
	<path fill-rule="evenodd" clip-rule="evenodd" fill="#FF0000" d="M72.042,84.963c-0.95,0-1.719,0.044-2.481-0.011
		c-1.493-0.111-2.462-1.141-2.417-2.499c0.044-1.323,0.999-2.29,2.46-2.308c3.273-0.04,6.549-0.04,9.819,0
		c1.438,0.018,2.423,1.019,2.465,2.322c0.043,1.287-0.916,2.347-2.329,2.471c-0.834,0.072-1.678,0.014-2.664,0.014
		c0,0.589,0,1.021,0,1.454c0,4.607,0.015,9.215-0.008,13.824c-0.01,1.876-1.434,3.01-3.101,2.539
		c-1.109-0.313-1.735-1.26-1.74-2.738c-0.011-4.529-0.004-9.056-0.004-13.582C72.042,86.013,72.042,85.573,72.042,84.963z"/>
	<path fill-rule="evenodd" clip-rule="evenodd" fill="#FF0000" d="M119.465,98.026c1.332,0,2.46-0.022,3.585,0.007
		c1.639,0.045,2.631,0.956,2.649,2.379c0.019,1.435-0.952,2.405-2.571,2.447c-1.979,0.048-3.964,0.051-5.943-0.002
		c-1.67-0.045-2.549-0.921-2.557-2.591c-0.029-5.821-0.027-11.646-0.005-17.469c0.007-1.641,0.944-2.633,2.362-2.654
		c1.472-0.022,2.455,0.986,2.466,2.688c0.031,4.529,0.012,9.057,0.014,13.587C119.465,96.896,119.465,97.37,119.465,98.026z"/>
	<path fill-rule="evenodd" clip-rule="evenodd" fill="#FF0000" d="M58.628,115.211c-1.382-0.003-2.441-1.08-2.409-2.453
		c0.031-1.304,1.108-2.355,2.409-2.354c1.339,0.004,2.465,1.151,2.427,2.478C61.018,114.195,59.961,115.211,58.628,115.211z"/>
	<path fill-rule="evenodd" clip-rule="evenodd" fill="#FF0000" d="M28.719,49.593c1.831,2.212,3.63,4.337,5.37,6.507
		c1.292,1.609,0.648,3.787-1.258,4.015c-0.747,0.091-1.832-0.292-2.326-0.847c-2.34-2.621-4.545-5.36-6.764-8.087
		c-0.836-1.028-0.817-2.176,0.031-3.215c2.196-2.693,4.408-5.37,6.647-8.027c0.977-1.16,2.366-1.309,3.439-0.46
		c1.104,0.875,1.254,2.317,0.271,3.543C32.387,45.195,30.59,47.327,28.719,49.593z"/>
	<path fill-rule="evenodd" clip-rule="evenodd" fill="#FF0000" d="M61.905,49.593c-1.858-2.249-3.649-4.382-5.4-6.551
		c-0.983-1.221-0.854-2.667,0.24-3.549c1.034-0.835,2.431-0.754,3.358,0.341c2.302,2.708,4.561,5.453,6.799,8.215
		c0.796,0.979,0.791,2.125-0.012,3.115c-2.214,2.729-4.455,5.438-6.725,8.118c-0.977,1.153-2.39,1.269-3.448,0.398
		c-1.042-0.857-1.197-2.303-0.268-3.461C58.215,54.015,60.035,51.855,61.905,49.593z"/>
	<path fill-rule="evenodd" clip-rule="evenodd" fill="#FF0000" d="M49.926,40.006c-0.439,1.973-0.947,4.251-1.453,6.534
		c-0.973,4.371-1.94,8.74-2.917,13.108c-0.381,1.707-1.576,2.612-2.975,2.279c-1.442-0.341-2.128-1.627-1.753-3.315
		c1.405-6.34,2.815-12.675,4.23-19.012c0.087-0.39,0.187-0.793,0.371-1.143c0.52-0.999,1.716-1.471,2.795-1.154
		C49.254,37.606,49.933,38.553,49.926,40.006z"/>
	<path fill-rule="evenodd" clip-rule="evenodd" fill="#FF0000" d="M84.276,58.801c-3.031,0-6.064,0.018-9.096-0.008
		c-1.591-0.016-2.609-0.875-2.728-2.19c-0.138-1.553,0.889-2.643,2.582-2.647c5.378-0.018,10.755-0.007,16.132-0.007
		c0.849,0,1.698-0.02,2.547,0.007c1.412,0.051,2.424,1.019,2.464,2.322c0.041,1.292-0.907,2.38-2.321,2.481
		c-1.328,0.095-2.666,0.038-4,0.042C87.997,58.805,86.138,58.801,84.276,58.801z"/>
	<path fill-rule="evenodd" clip-rule="evenodd" fill="#FF0000" d="M98.089,41.478c3.033,0.001,6.065-0.02,9.096,0.01
		c1.795,0.017,2.845,1.104,2.695,2.683c-0.112,1.172-0.973,2.037-2.261,2.114c-1.289,0.076-2.585,0.043-3.878,0.046
		c-4.689,0.004-9.379,0.002-14.068,0c-0.403,0-0.81,0.004-1.211-0.035c-1.354-0.134-2.29-1.1-2.313-2.358
		c-0.022-1.294,0.947-2.375,2.362-2.425c2.1-0.072,4.203-0.031,6.304-0.034C95.908,41.475,96.998,41.478,98.089,41.478z"/>
	<path fill-rule="evenodd" clip-rule="evenodd" fill="#FF0000" d="M105.52,53.963c0.725,0,1.454-0.042,2.176,0.009
		c1.222,0.084,2.104,0.988,2.189,2.171c0.087,1.223-0.58,2.368-1.791,2.489c-1.709,0.168-3.458,0.176-5.168,0.015
		c-1.259-0.12-1.954-1.303-1.832-2.575c0.11-1.167,1.014-2.036,2.251-2.104c0.723-0.041,1.451-0.008,2.175-0.008
		C105.52,53.96,105.52,53.96,105.52,53.963z"/>
	<path fill-rule="evenodd" clip-rule="evenodd" fill="#FF0000" d="M76.857,46.28c-0.765,0-1.535,0.063-2.29-0.014
		c-1.284-0.129-2.122-1.102-2.129-2.351c-0.003-1.205,0.774-2.257,1.986-2.345c1.603-0.112,3.222-0.117,4.822-0.001
		c1.262,0.091,2.052,1.184,2.004,2.445c-0.045,1.195-0.865,2.121-2.102,2.25C78.393,46.343,77.623,46.278,76.857,46.28z"/>
	<path fill-rule="evenodd" clip-rule="evenodd" fill="#FF0000" d="M43.099,19.909c-4.933,0-9.864,0.004-14.798-0.005
		c-0.563,0-1.141-0.008-1.686-0.126c-1.121-0.247-1.823-1.258-1.772-2.427c0.048-1.111,0.8-2.007,1.883-2.214
		c0.316-0.06,0.645-0.078,0.966-0.078c10.27-0.003,20.541-0.003,30.809,0c0.323,0,0.649,0.01,0.966,0.065
		c1.141,0.201,1.933,1.132,1.96,2.285c0.027,1.153-0.71,2.143-1.842,2.38c-0.51,0.104-1.045,0.115-1.566,0.115
		C53.046,19.911,48.074,19.909,43.099,19.909z"/>
	<path fill-rule="evenodd" clip-rule="evenodd" fill="#FF0000" d="M85.386,17.457c0.006,1.34-1.024,2.394-2.359,2.415
		c-1.362,0.02-2.502-1.111-2.472-2.453c0.033-1.313,1.118-2.355,2.447-2.345C84.349,15.083,85.38,16.114,85.386,17.457z"/>
	<path fill-rule="evenodd" clip-rule="evenodd" fill="#FF0000" d="M108.219,17.454c0.005,1.34-1.021,2.394-2.354,2.415
		c-1.367,0.024-2.492-1.097-2.463-2.449c0.028-1.315,1.107-2.357,2.438-2.347C107.18,15.081,108.212,16.114,108.219,17.454z"/>
	<path fill-rule="evenodd" clip-rule="evenodd" fill="#FF0000" d="M96.8,17.435c0.017,1.346-0.999,2.402-2.334,2.434
		c-1.365,0.032-2.508-1.082-2.492-2.429c0.016-1.312,1.097-2.364,2.425-2.368C95.746,15.073,96.785,16.095,96.8,17.435z"/>
</g>
<g>
	<path fill-rule="evenodd" clip-rule="evenodd" d="M132.489,113.452c-0.605,1.352-1.656,1.801-3.113,1.798
		c-20.993-0.028-41.984-0.017-62.975-0.02c-0.323,0-0.649-0.002-0.969-0.04c-1.219-0.153-2.07-1.072-2.12-2.266
		c-0.048-1.198,0.707-2.205,1.912-2.438c0.549-0.106,1.125-0.104,1.69-0.104c19.656-0.004,39.313-0.004,58.97-0.004
		c0.522,0,1.047,0,1.661,0c0-12.575,0-25.087,0-37.671c-30.659,0-61.3,0-92.042,0c0,12.487,0,24.994,0,37.671
		c1.268,0,2.545-0.003,3.822,0c1.538,0.004,3.077-0.044,4.609,0.033c1.429,0.075,2.39,1.128,2.382,2.421
		c-0.009,1.308-0.987,2.355-2.407,2.372c-3.64,0.045-7.281,0.049-10.92,0.002c-1.596-0.019-2.433-0.996-2.438-2.698
		c-0.013-4.853-0.005-9.708-0.005-14.56c0-0.439,0-0.881,0-1.492c-0.5,0-0.926,0-1.352,0c-4.449,0-8.898,0.002-13.347-0.003
		c-3.846-0.001-6.277-1.815-7.429-5.516c-0.034-0.109-0.126-0.197-0.19-0.299c0-26.939,0-53.878,0-80.818
		c1.749-4.476,3.604-5.904,7.765-5.904c31.145-0.002,62.291-0.002,93.434,0.007c0.803,0.002,1.631,0.03,2.403,0.224
		c3.328,0.83,5.36,3.616,5.36,7.298c0.006,18.282,0.004,36.564,0.004,54.845c0,0.468,0,0.934,0,1.492
		c4.173,0,8.171,0.046,12.168-0.025c1.467-0.027,2.506,0.432,3.127,1.766C132.489,84.167,132.489,98.81,132.489,113.452z
		 M30.546,91.597c0-0.576,0-1.014,0-1.449c0-6.31,0-12.618,0-18.929c0-2.782,0.648-3.436,3.412-3.436c25.601,0,51.202,0,76.802,0
		c0.507,0,1.014,0,1.496,0c0-12.351,0-24.502,0-36.66c-33.095,0-66.103,0-99.174,0c0,0.427,0,0.748,0,1.07
		c0,18.847,0,37.693,0,56.538c0,0.205-0.006,0.407,0.007,0.608c0.089,1.33,0.912,2.234,2.232,2.242
		C20.333,91.617,25.345,91.597,30.546,91.597z M112.34,26.106c0-0.557,0-0.997,0-1.435c0-4.204,0-8.412,0-12.617
		c0-2.671-0.61-3.283-3.273-3.283C96.53,8.769,83.995,8.769,71.459,8.769c-18.356,0-36.716,0-55.074,0.002
		c-2.698,0-3.304,0.595-3.304,3.246c0,4.246,0,8.493,0,12.739c0,0.432,0,0.864,0,1.351C46.206,26.106,79.189,26.106,112.34,26.106z"
		/>
	<path fill-rule="evenodd" clip-rule="evenodd" d="M98.838,92.274c-0.753,2.63-1.509,5.259-2.259,7.885
		c-0.535,1.87-1.446,2.716-2.927,2.709c-1.466-0.005-2.354-0.844-2.913-2.731c-0.71-2.399-1.424-4.798-2.14-7.193
		c-0.076-0.255-0.189-0.497-0.391-1.014c-0.536,2.931-1.007,5.569-1.508,8.207c-0.357,1.878-1.435,2.834-2.857,2.586
		c-1.535-0.262-2.235-1.534-1.891-3.443c0.982-5.443,1.964-10.886,2.945-16.327c0.326-1.8,1.201-2.714,2.668-2.799
		c1.552-0.091,2.537,0.695,3.075,2.503c0.855,2.861,1.69,5.729,2.536,8.592c0.107,0.365,0.24,0.724,0.474,1.427
		c0.628-2.175,1.164-4.015,1.693-5.857c0.423-1.473,0.816-2.958,1.255-4.426c0.457-1.528,1.476-2.297,2.905-2.246
		c1.397,0.048,2.374,0.901,2.684,2.486c1.121,5.703,2.221,11.411,3.3,17.122c0.278,1.468-0.615,2.733-1.996,2.969
		c-1.291,0.223-2.49-0.656-2.779-2.108c-0.516-2.574-0.987-5.152-1.48-7.731c-0.036-0.189-0.1-0.375-0.152-0.561
		C98.999,92.307,98.918,92.291,98.838,92.274z"/>
	<path fill-rule="evenodd" clip-rule="evenodd" d="M53.542,93.656c-2.603,0-5.013,0-7.585,0c0,0.652,0.005,1.244,0,1.841
		c-0.011,1.737,0.034,3.478-0.062,5.212c-0.073,1.298-1.089,2.146-2.341,2.156c-1.252,0.008-2.204-0.826-2.396-2.116
		c-0.042-0.278-0.053-0.563-0.053-0.846c-0.002-5.62-0.002-11.239,0-16.858c0-0.202,0-0.404,0.022-0.606
		c0.154-1.43,1.124-2.327,2.478-2.293c1.294,0.032,2.251,0.924,2.314,2.317c0.073,1.612,0.031,3.234,0.037,4.852
		c0.002,0.437,0,0.871,0,1.365c2.554,0,4.968,0,7.585,0c0-1.045-0.003-2.076,0.001-3.108c0.004-1.091-0.033-2.187,0.04-3.271
		c0.084-1.231,1.021-2.088,2.217-2.149c1.229-0.063,2.205,0.649,2.48,1.854c0.089,0.39,0.11,0.801,0.111,1.202
		c0.005,5.539,0.004,11.077,0.001,16.617c0,0.322-0.008,0.649-0.063,0.964c-0.235,1.347-1.248,2.152-2.558,2.063
		c-1.241-0.082-2.158-0.979-2.201-2.299c-0.057-1.82-0.025-3.641-0.028-5.458C53.541,94.658,53.542,94.221,53.542,93.656z"/>
	<path fill-rule="evenodd" clip-rule="evenodd" d="M68.218,84.963c-0.952,0-1.72,0.044-2.481-0.011
		c-1.494-0.111-2.462-1.141-2.417-2.499c0.042-1.323,0.999-2.29,2.459-2.308c3.273-0.04,6.549-0.04,9.819,0
		c1.438,0.018,2.423,1.019,2.466,2.322c0.042,1.287-0.917,2.347-2.33,2.471c-0.834,0.072-1.678,0.014-2.664,0.014
		c0,0.589,0,1.021,0,1.454c-0.001,4.607,0.015,9.215-0.009,13.824c-0.01,1.876-1.433,3.01-3.1,2.539
		c-1.109-0.313-1.735-1.26-1.739-2.738c-0.012-4.529-0.004-9.056-0.004-13.582C68.218,86.013,68.218,85.573,68.218,84.963z"/>
	<path fill-rule="evenodd" clip-rule="evenodd" d="M115.64,98.026c1.332,0,2.46-0.022,3.588,0.007
		c1.636,0.045,2.629,0.956,2.647,2.379c0.019,1.435-0.952,2.405-2.571,2.447c-1.979,0.048-3.964,0.051-5.944-0.002
		c-1.669-0.045-2.548-0.921-2.556-2.591c-0.029-5.821-0.027-11.646-0.005-17.469c0.007-1.641,0.944-2.633,2.362-2.654
		c1.473-0.022,2.454,0.986,2.465,2.688c0.032,4.529,0.014,9.057,0.014,13.587C115.64,96.896,115.64,97.37,115.64,98.026z"/>
	<path fill-rule="evenodd" clip-rule="evenodd" d="M54.804,115.211c-1.383-0.003-2.442-1.08-2.409-2.453
		c0.03-1.304,1.107-2.355,2.409-2.354c1.338,0.004,2.464,1.151,2.426,2.478C57.194,114.195,56.136,115.211,54.804,115.211z"/>
	<path fill-rule="evenodd" clip-rule="evenodd" d="M24.895,49.593c1.83,2.212,3.629,4.337,5.369,6.507
		c1.292,1.609,0.649,3.787-1.258,4.015c-0.747,0.091-1.831-0.292-2.326-0.847c-2.339-2.621-4.545-5.36-6.764-8.087
		c-0.837-1.028-0.817-2.176,0.031-3.215c2.196-2.693,4.409-5.37,6.647-8.027c0.977-1.16,2.366-1.309,3.44-0.46
		c1.104,0.875,1.254,2.317,0.27,3.543C28.563,45.195,26.766,47.327,24.895,49.593z"/>
	<path fill-rule="evenodd" clip-rule="evenodd" d="M58.081,49.593c-1.858-2.249-3.65-4.382-5.401-6.551
		c-0.981-1.221-0.854-2.667,0.241-3.549c1.034-0.835,2.431-0.754,3.359,0.341c2.301,2.708,4.56,5.453,6.799,8.215
		c0.794,0.979,0.791,2.125-0.013,3.115c-2.215,2.729-4.455,5.438-6.725,8.118c-0.976,1.153-2.39,1.269-3.448,0.398
		c-1.042-0.857-1.197-2.303-0.268-3.461C54.391,54.015,56.211,51.855,58.081,49.593z"/>
	<path fill-rule="evenodd" clip-rule="evenodd" d="M46.102,40.006c-0.44,1.973-0.947,4.251-1.454,6.534
		c-0.972,4.371-1.939,8.74-2.917,13.108c-0.381,1.707-1.575,2.612-2.975,2.279c-1.441-0.341-2.128-1.627-1.753-3.315
		c1.406-6.34,2.815-12.675,4.23-19.012c0.087-0.39,0.188-0.793,0.371-1.143c0.52-0.999,1.716-1.471,2.795-1.154
		C45.43,37.606,46.109,38.553,46.102,40.006z"/>
	<path fill-rule="evenodd" clip-rule="evenodd" d="M80.452,58.801c-3.031,0-6.064,0.018-9.096-0.008
		c-1.591-0.016-2.609-0.875-2.728-2.19c-0.138-1.553,0.889-2.643,2.583-2.647c5.378-0.018,10.755-0.007,16.132-0.007
		c0.849,0,1.697-0.02,2.547,0.007c1.412,0.051,2.424,1.019,2.465,2.322c0.04,1.292-0.908,2.38-2.322,2.481
		c-1.328,0.095-2.666,0.038-4.001,0.042C84.172,58.805,82.313,58.801,80.452,58.801z"/>
	<path fill-rule="evenodd" clip-rule="evenodd" d="M94.265,41.478c3.033,0.001,6.064-0.02,9.096,0.01
		c1.796,0.017,2.845,1.104,2.694,2.683c-0.111,1.172-0.972,2.037-2.26,2.114c-1.289,0.076-2.585,0.043-3.879,0.046
		c-4.689,0.004-9.379,0.002-14.066,0c-0.404,0-0.812,0.004-1.212-0.035c-1.354-0.134-2.291-1.1-2.313-2.358
		c-0.023-1.294,0.946-2.375,2.361-2.425c2.1-0.072,4.203-0.031,6.305-0.034C92.084,41.475,93.174,41.478,94.265,41.478z"/>
	<path fill-rule="evenodd" clip-rule="evenodd" d="M101.695,53.963c0.725,0,1.454-0.042,2.175,0.009
		c1.222,0.084,2.105,0.988,2.189,2.171c0.089,1.223-0.58,2.368-1.791,2.489c-1.708,0.168-3.457,0.176-5.166,0.015
		c-1.261-0.12-1.955-1.303-1.834-2.575c0.11-1.167,1.014-2.036,2.251-2.104c0.724-0.041,1.451-0.008,2.176-0.008
		C101.695,53.96,101.695,53.96,101.695,53.963z"/>
	<path fill-rule="evenodd" clip-rule="evenodd" d="M73.033,46.28c-0.764,0-1.534,0.063-2.291-0.014
		c-1.285-0.129-2.121-1.102-2.127-2.351c-0.003-1.205,0.773-2.257,1.987-2.345c1.6-0.112,3.22-0.117,4.821-0.001
		c1.262,0.091,2.052,1.184,2.004,2.445c-0.045,1.195-0.865,2.121-2.102,2.25C74.57,46.343,73.798,46.278,73.033,46.28z"/>
	<path fill-rule="evenodd" clip-rule="evenodd" d="M39.275,19.909c-4.933,0-9.865,0.004-14.798-0.005
		c-0.563,0-1.141-0.008-1.686-0.126c-1.12-0.247-1.822-1.258-1.772-2.427c0.048-1.111,0.799-2.007,1.883-2.214
		c0.316-0.06,0.645-0.078,0.966-0.078c10.27-0.003,20.54-0.003,30.809,0c0.322,0,0.65,0.01,0.966,0.065
		c1.141,0.201,1.932,1.132,1.959,2.285c0.028,1.153-0.709,2.143-1.842,2.38c-0.508,0.104-1.042,0.115-1.565,0.115
		C49.222,19.911,44.249,19.909,39.275,19.909z"/>
	<path fill-rule="evenodd" clip-rule="evenodd" d="M81.562,17.457c0.005,1.34-1.024,2.394-2.359,2.415
		c-1.363,0.02-2.501-1.111-2.471-2.453c0.032-1.313,1.117-2.355,2.447-2.345C80.524,15.083,81.556,16.114,81.562,17.457z"/>
	<path fill-rule="evenodd" clip-rule="evenodd" d="M104.393,17.454c0.007,1.34-1.02,2.394-2.352,2.415
		c-1.366,0.024-2.492-1.097-2.463-2.449c0.028-1.315,1.106-2.357,2.438-2.347C103.355,15.081,104.389,16.114,104.393,17.454z"/>
	<path fill-rule="evenodd" clip-rule="evenodd" d="M92.976,17.435c0.016,1.346-0.999,2.402-2.334,2.434
		c-1.365,0.032-2.509-1.082-2.492-2.429c0.016-1.312,1.097-2.364,2.425-2.368C91.922,15.073,92.961,16.095,92.976,17.435z"/>
</g>
<g>
</g>
<g>
</g>
<g>
</g>
<g>
</g>
<g>
</g>
<g>
</g>
</svg>
