<?xml version="1.0" encoding="utf-8"?>
<!-- Generator: Adobe Illustrator 16.0.3, SVG Export Plug-In . SVG Version: 6.00 Build 0)  -->
<!DOCTYPE svg PUBLIC "-//W3C//DTD SVG 1.1//EN" "http://www.w3.org/Graphics/SVG/1.1/DTD/svg11.dtd">
<svg version="1.1" id="Capa_1" xmlns="http://www.w3.org/2000/svg" xmlns:xlink="http://www.w3.org/1999/xlink" x="0px" y="0px"
	 width="140px" height="140px" viewBox="0 0 140 140" enable-background="new 0 0 140 140" xml:space="preserve">
<g opacity="0.8">
	<path fill="#00A0C6" d="M129.505,114.938c-0.604,1.353-1.655,1.803-3.112,1.799c-20.992-0.026-41.983-0.018-62.977-0.02
		c-0.322,0-0.648-0.001-0.968-0.042c-1.22-0.151-2.071-1.069-2.12-2.265c-0.048-1.198,0.707-2.202,1.912-2.438
		c0.549-0.105,1.123-0.104,1.69-0.104c19.655-0.005,39.312-0.005,58.968-0.005c0.523,0,1.049,0,1.662,0c0-12.576,0-25.088,0-37.672
		c-30.658,0-61.299,0-92.042,0c0,12.486,0,24.994,0,37.672c1.269,0,2.545-0.002,3.823,0c1.538,0.005,3.077-0.045,4.61,0.033
		c1.428,0.074,2.39,1.127,2.381,2.42c-0.009,1.309-0.987,2.354-2.407,2.373c-3.64,0.043-7.281,0.049-10.921,0
		c-1.595-0.019-2.432-0.996-2.437-2.697c-0.013-4.852-0.006-9.707-0.006-14.561c0-0.438,0-0.881,0-1.492c-0.499,0-0.926,0-1.352,0
		c-4.449,0-8.898,0.002-13.347-0.002c-3.845,0-6.276-1.813-7.428-5.517c-0.034-0.108-0.126-0.196-0.191-0.299
		c0-26.938,0-53.876,0-80.818c1.749-4.476,3.604-5.901,7.764-5.901C44.154,5.4,75.298,5.4,106.441,5.411
		c0.803,0.002,1.632,0.03,2.404,0.225c3.328,0.829,5.36,3.614,5.36,7.296c0.006,18.282,0.002,36.564,0.002,54.845
		c0,0.469,0,0.935,0,1.492c4.173,0,8.173,0.046,12.169-0.025c1.467-0.027,2.506,0.433,3.127,1.766
		C129.505,85.652,129.505,100.296,129.505,114.938z M27.562,93.083c0-0.577,0-1.013,0-1.448c0-6.312,0-12.619,0-18.929
		c0-2.784,0.649-3.438,3.412-3.438c25.601,0,51.202,0,76.801,0c0.507,0,1.014,0,1.496,0c0-12.35,0-24.502,0-36.66
		c-33.094,0-66.104,0-99.174,0c0,0.428,0,0.749,0,1.072c0,18.844,0,37.692,0,56.537c0,0.206-0.006,0.406,0.006,0.607
		c0.09,1.33,0.912,2.234,2.232,2.244C17.349,93.104,22.361,93.083,27.562,93.083z M109.355,27.592c0-0.557,0-0.997,0-1.435
		c0-4.204,0-8.411,0-12.616c0-2.67-0.609-3.284-3.272-3.284c-12.536-0.001-25.071-0.001-37.607-0.001
		c-18.357,0-36.716,0-55.074,0.001c-2.698,0-3.304,0.595-3.304,3.245c0,4.247,0,8.493,0,12.74c0,0.432,0,0.864,0,1.35
		C43.222,27.592,76.205,27.592,109.355,27.592z"/>
	<path fill="#00A0C6" d="M95.854,93.762c-0.752,2.629-1.508,5.258-2.258,7.885c-0.535,1.869-1.447,2.715-2.927,2.707
		c-1.466-0.004-2.354-0.842-2.914-2.73c-0.71-2.398-1.423-4.797-2.142-7.191c-0.074-0.256-0.188-0.496-0.389-1.014
		c-0.537,2.93-1.008,5.568-1.509,8.205c-0.356,1.88-1.435,2.834-2.856,2.588c-1.534-0.263-2.234-1.534-1.889-3.443
		c0.979-5.444,1.961-10.888,2.943-16.328c0.324-1.799,1.201-2.715,2.667-2.799c1.552-0.09,2.537,0.694,3.076,2.502
		c0.854,2.861,1.688,5.729,2.534,8.592c0.109,0.365,0.24,0.726,0.476,1.429c0.628-2.174,1.164-4.015,1.69-5.858
		c0.426-1.473,0.818-2.957,1.256-4.424c0.459-1.527,1.477-2.298,2.906-2.247c1.397,0.048,2.373,0.903,2.685,2.485
		c1.118,5.705,2.22,11.413,3.3,17.123c0.275,1.469-0.615,2.732-1.996,2.97c-1.29,0.222-2.49-0.659-2.779-2.108
		c-0.516-2.576-0.987-5.153-1.479-7.731c-0.036-0.19-0.103-0.373-0.154-0.562C96.016,93.792,95.934,93.775,95.854,93.762z"/>
	<path fill="#00A0C6" d="M50.558,95.143c-2.604,0-5.014,0-7.585,0c0,0.651,0.003,1.246,0,1.842
		c-0.012,1.736,0.034,3.478-0.063,5.211c-0.072,1.298-1.088,2.146-2.339,2.156c-1.253,0.006-2.205-0.826-2.396-2.117
		c-0.042-0.277-0.053-0.563-0.053-0.844c-0.002-5.621-0.002-11.24,0-16.859c0-0.2,0-0.404,0.022-0.606
		c0.153-1.43,1.125-2.327,2.479-2.292c1.292,0.032,2.25,0.924,2.313,2.317c0.072,1.612,0.031,3.233,0.037,4.851
		c0.002,0.438,0,0.872,0,1.365c2.554,0,4.966,0,7.585,0c0-1.044-0.003-2.075,0.001-3.107c0.004-1.091-0.033-2.187,0.041-3.271
		c0.084-1.232,1.02-2.088,2.216-2.15c1.23-0.063,2.206,0.65,2.48,1.855c0.09,0.39,0.111,0.8,0.112,1.199
		c0.005,5.541,0.004,11.078,0.001,16.619c0,0.32-0.008,0.648-0.063,0.963c-0.237,1.347-1.248,2.152-2.56,2.063
		c-1.24-0.081-2.157-0.979-2.201-2.298c-0.056-1.818-0.023-3.642-0.027-5.459C50.557,96.145,50.558,95.706,50.558,95.143z"/>
	<path fill="#00A0C6" d="M65.234,86.449c-0.952,0-1.72,0.045-2.481-0.012c-1.494-0.111-2.462-1.141-2.418-2.5
		c0.043-1.321,1-2.287,2.459-2.307c3.274-0.04,6.549-0.04,9.821,0c1.438,0.02,2.422,1.018,2.465,2.321
		c0.042,1.287-0.916,2.348-2.329,2.471c-0.834,0.072-1.678,0.015-2.664,0.015c0,0.59,0,1.021,0,1.453
		c-0.001,4.607,0.015,9.215-0.009,13.826c-0.01,1.877-1.433,3.008-3.101,2.538c-1.108-0.313-1.734-1.26-1.739-2.739
		c-0.012-4.525-0.004-9.056-0.004-13.58C65.234,87.498,65.234,87.061,65.234,86.449z"/>
	<path fill="#00A0C6" d="M112.656,99.516c1.332,0,2.461-0.024,3.586,0.006c1.638,0.045,2.631,0.955,2.648,2.377
		c0.02,1.434-0.951,2.406-2.57,2.447c-1.98,0.049-3.965,0.051-5.943-0.003c-1.672-0.045-2.55-0.921-2.557-2.59
		c-0.03-5.821-0.027-11.646-0.006-17.47c0.006-1.641,0.942-2.631,2.362-2.653c1.472-0.022,2.455,0.986,2.466,2.688
		c0.029,4.527,0.012,9.056,0.014,13.586C112.656,98.381,112.656,98.855,112.656,99.516z"/>
	<path fill="#00A0C6" d="M51.819,116.695c-1.381-0.002-2.441-1.078-2.408-2.452c0.03-1.304,1.107-2.354,2.408-2.354
		c1.34,0.004,2.465,1.15,2.427,2.479C54.21,115.682,53.152,116.695,51.819,116.695z"/>
	<path fill="#00A0C6" d="M21.911,51.078c1.831,2.213,3.629,4.338,5.37,6.509c1.292,1.608,0.648,3.787-1.258,4.015
		c-0.747,0.09-1.831-0.293-2.327-0.848c-2.339-2.621-4.544-5.36-6.763-8.086c-0.836-1.028-0.817-2.176,0.031-3.216
		c2.196-2.693,4.409-5.37,6.647-8.026c0.977-1.161,2.365-1.309,3.439-0.459c1.104,0.874,1.255,2.316,0.271,3.542
		C25.578,46.682,23.782,48.813,21.911,51.078z"/>
	<path fill="#00A0C6" d="M55.096,51.078c-1.858-2.248-3.649-4.382-5.399-6.55c-0.983-1.221-0.854-2.667,0.241-3.549
		c1.032-0.836,2.429-0.754,3.358,0.34c2.3,2.708,4.56,5.454,6.798,8.215c0.795,0.979,0.792,2.125-0.011,3.115
		c-2.215,2.729-4.455,5.437-6.725,8.119c-0.976,1.153-2.391,1.267-3.448,0.396c-1.042-0.857-1.198-2.303-0.268-3.461
		C51.407,55.501,53.227,53.342,55.096,51.078z"/>
	<path fill="#00A0C6" d="M43.119,41.493c-0.44,1.972-0.947,4.252-1.455,6.533c-0.972,4.371-1.939,8.74-2.916,13.108
		c-0.382,1.707-1.576,2.613-2.976,2.281c-1.442-0.341-2.128-1.627-1.753-3.316c1.406-6.338,2.814-12.675,4.229-19.011
		c0.088-0.391,0.188-0.794,0.372-1.143c0.52-1,1.716-1.472,2.795-1.154C42.446,39.092,43.125,40.04,43.119,41.493z"/>
	<path fill="#00A0C6" d="M77.468,60.287c-3.03,0-6.063,0.02-9.095-0.007c-1.591-0.016-2.609-0.874-2.728-2.19
		c-0.138-1.553,0.889-2.642,2.583-2.646c5.377-0.019,10.754-0.009,16.131-0.009c0.849,0,1.699-0.019,2.547,0.009
		c1.412,0.049,2.424,1.016,2.464,2.321c0.04,1.292-0.906,2.38-2.32,2.481c-1.329,0.095-2.667,0.038-4.002,0.042
		C81.189,60.291,79.329,60.287,77.468,60.287z"/>
	<path fill="#00A0C6" d="M91.281,42.964c3.031,0.001,6.063-0.02,9.096,0.01c1.794,0.018,2.846,1.103,2.693,2.683
		c-0.11,1.172-0.973,2.036-2.26,2.113c-1.291,0.076-2.586,0.044-3.879,0.046c-4.688,0.005-9.379,0.003-14.068,0
		c-0.401,0-0.809,0.005-1.211-0.034c-1.353-0.135-2.289-1.101-2.313-2.358c-0.021-1.295,0.947-2.375,2.362-2.425
		c2.1-0.074,4.204-0.03,6.305-0.035C89.1,42.961,90.189,42.964,91.281,42.964z"/>
	<path fill="#00A0C6" d="M98.712,55.449c0.726,0,1.453-0.041,2.177,0.009c1.221,0.084,2.104,0.988,2.188,2.171
		c0.087,1.223-0.581,2.368-1.791,2.488c-1.709,0.168-3.458,0.177-5.168,0.015c-1.26-0.12-1.953-1.302-1.832-2.574
		c0.111-1.169,1.014-2.038,2.252-2.106c0.722-0.04,1.449-0.007,2.175-0.007C98.712,55.447,98.712,55.447,98.712,55.449z"/>
	<path fill="#00A0C6" d="M70.05,47.766c-0.765,0-1.535,0.063-2.291-0.014c-1.285-0.129-2.122-1.102-2.127-2.351
		c-0.005-1.205,0.773-2.257,1.986-2.345c1.602-0.112,3.221-0.116,4.819-0.002c1.265,0.091,2.054,1.186,2.006,2.445
		c-0.045,1.194-0.865,2.121-2.102,2.25C71.585,47.829,70.814,47.764,70.05,47.766z"/>
	<path fill="#00A0C6" d="M36.291,21.396c-4.933,0-9.865,0.004-14.798-0.007c-0.563,0-1.141-0.007-1.686-0.126
		c-1.12-0.247-1.823-1.258-1.772-2.427c0.048-1.109,0.799-2.007,1.883-2.214c0.316-0.06,0.645-0.077,0.966-0.077
		c10.27-0.003,20.54-0.003,30.81,0c0.322,0,0.65,0.01,0.966,0.065c1.141,0.2,1.932,1.131,1.959,2.284
		c0.028,1.152-0.709,2.144-1.842,2.38c-0.508,0.105-1.043,0.114-1.565,0.114C46.238,21.398,41.265,21.396,36.291,21.396z"/>
	<path fill="#00A0C6" d="M78.577,18.943c0.005,1.341-1.024,2.394-2.359,2.414c-1.362,0.02-2.501-1.109-2.471-2.452
		c0.03-1.314,1.116-2.356,2.446-2.347C77.541,16.569,78.572,17.6,78.577,18.943z"/>
	<path fill="#00A0C6" d="M101.409,18.941c0.007,1.34-1.021,2.394-2.353,2.413c-1.367,0.025-2.492-1.096-2.463-2.447
		c0.027-1.317,1.107-2.358,2.436-2.349C100.371,16.567,101.402,17.6,101.409,18.941z"/>
	<path fill="#00A0C6" d="M89.992,18.921c0.016,1.346-0.999,2.404-2.334,2.434c-1.367,0.032-2.51-1.082-2.493-2.429
		c0.017-1.311,1.096-2.364,2.426-2.368C88.938,16.558,89.979,17.581,89.992,18.921z"/>
</g>
<g opacity="0.6">
	<path fill="#FF0000" d="M136.313,113.452c-0.604,1.353-1.655,1.801-3.113,1.798c-20.992-0.027-41.983-0.018-62.974-0.02
		c-0.323,0-0.648-0.002-0.968-0.041c-1.22-0.152-2.072-1.071-2.12-2.266c-0.048-1.197,0.706-2.205,1.911-2.438
		c0.549-0.106,1.125-0.104,1.69-0.104c19.656-0.004,39.313-0.004,58.969-0.004c0.523,0,1.049,0,1.662,0c0-12.575,0-25.087,0-37.671
		c-30.659,0-61.299,0-92.042,0c0,12.486,0,24.994,0,37.671c1.269,0,2.545-0.003,3.823,0c1.537,0.004,3.077-0.044,4.609,0.033
		c1.429,0.075,2.39,1.128,2.382,2.421c-0.01,1.309-0.988,2.355-2.407,2.372c-3.64,0.045-7.282,0.049-10.921,0.002
		c-1.596-0.019-2.433-0.996-2.438-2.698c-0.013-4.854-0.005-9.708-0.005-14.56c0-0.439,0-0.882,0-1.492c-0.5,0-0.927,0-1.353,0
		c-4.449,0-8.898,0.002-13.347-0.003c-3.845-0.001-6.277-1.814-7.428-5.516c-0.034-0.109-0.126-0.197-0.19-0.299
		c0-26.939,0-53.879,0-80.819c1.749-4.476,3.604-5.904,7.765-5.904c31.145-0.002,62.289-0.002,93.434,0.007
		c0.802,0.002,1.63,0.03,2.403,0.224c3.328,0.83,5.359,3.616,5.359,7.298c0.008,18.282,0.004,36.564,0.004,54.845
		c0,0.468,0,0.934,0,1.492c4.174,0,8.172,0.046,12.168-0.025c1.467-0.027,2.506,0.432,3.127,1.766
		C136.313,84.167,136.313,98.811,136.313,113.452z M34.371,91.598c0-0.576,0-1.015,0-1.449c0-6.311,0-12.619,0-18.93
		c0-2.782,0.648-3.436,3.411-3.436c25.602,0,51.202,0,76.803,0c0.506,0,1.015,0,1.495,0c0-12.351,0-24.502,0-36.66
		c-33.094,0-66.104,0-99.174,0c0,0.427,0,0.748,0,1.07c0,18.847,0,37.693,0,56.538c0,0.205-0.006,0.408,0.006,0.608
		c0.09,1.33,0.913,2.234,2.233,2.242C24.157,91.617,29.169,91.598,34.371,91.598z M116.164,26.106c0-0.557,0-0.997,0-1.435
		c0-4.204,0-8.412,0-12.617c0-2.671-0.609-3.283-3.273-3.283c-12.535-0.002-25.07-0.002-37.606-0.002
		c-18.356,0-36.715,0-55.074,0.002c-2.698,0-3.303,0.595-3.303,3.246c0,4.246,0,8.493,0,12.739c0,0.432,0,0.864,0,1.351
		C50.031,26.106,83.014,26.106,116.164,26.106z"/>
	<path fill="#FF0000" d="M102.662,92.273c-0.752,2.631-1.51,5.26-2.26,7.886c-0.535,1.87-1.444,2.716-2.926,2.709
		c-1.466-0.005-2.354-0.845-2.914-2.731c-0.709-2.398-1.422-4.798-2.14-7.193c-0.075-0.254-0.188-0.496-0.391-1.014
		c-0.536,2.932-1.007,5.569-1.507,8.207c-0.358,1.879-1.437,2.834-2.858,2.586c-1.535-0.262-2.233-1.533-1.89-3.443
		c0.979-5.442,1.961-10.885,2.943-16.326c0.325-1.801,1.202-2.714,2.668-2.799c1.553-0.092,2.536,0.695,3.075,2.503
		c0.854,2.86,1.69,5.729,2.536,8.592c0.107,0.365,0.24,0.724,0.475,1.427c0.629-2.175,1.166-4.015,1.692-5.857
		c0.423-1.473,0.815-2.957,1.255-4.426c0.457-1.527,1.477-2.297,2.905-2.246c1.397,0.049,2.373,0.901,2.685,2.486
		c1.119,5.703,2.219,11.411,3.301,17.122c0.276,1.468-0.617,2.733-1.998,2.97c-1.289,0.223-2.489-0.656-2.778-2.108
		c-0.517-2.574-0.988-5.152-1.479-7.731c-0.037-0.189-0.101-0.375-0.152-0.561C102.823,92.307,102.742,92.291,102.662,92.273z"/>
	<path fill="#FF0000" d="M57.366,93.656c-2.603,0-5.014,0-7.585,0c0,0.652,0.004,1.244,0,1.841
		c-0.011,1.737,0.034,3.478-0.063,5.212c-0.073,1.298-1.09,2.146-2.34,2.156c-1.253,0.008-2.205-0.826-2.396-2.116
		c-0.042-0.278-0.052-0.563-0.052-0.847c-0.002-5.619-0.002-11.238,0-16.857c0-0.202,0-0.404,0.021-0.605
		c0.153-1.431,1.124-2.328,2.478-2.293c1.293,0.031,2.251,0.924,2.313,2.316c0.073,1.612,0.032,3.234,0.037,4.852
		c0.002,0.438,0,0.871,0,1.365c2.554,0,4.968,0,7.585,0c0-1.045-0.003-2.076,0.001-3.107c0.005-1.092-0.032-2.188,0.041-3.271
		c0.085-1.23,1.021-2.088,2.217-2.148c1.229-0.063,2.205,0.648,2.48,1.854c0.088,0.391,0.11,0.801,0.111,1.202
		c0.006,5.539,0.006,11.077,0.002,16.617c0,0.321-0.009,0.649-0.064,0.964c-0.236,1.347-1.248,2.152-2.559,2.063
		c-1.241-0.082-2.158-0.979-2.2-2.299c-0.057-1.82-0.025-3.641-0.028-5.457C57.365,94.658,57.366,94.221,57.366,93.656z"/>
	<path fill="#FF0000" d="M72.042,84.963c-0.95,0-1.719,0.044-2.481-0.011c-1.493-0.111-2.462-1.142-2.417-2.499
		c0.044-1.323,0.999-2.29,2.46-2.309c3.273-0.039,6.548-0.039,9.819,0c1.438,0.019,2.423,1.02,2.466,2.322
		c0.043,1.287-0.916,2.348-2.33,2.471c-0.834,0.072-1.678,0.015-2.664,0.015c0,0.589,0,1.021,0,1.454
		c0,4.607,0.016,9.215-0.008,13.824c-0.01,1.875-1.434,3.01-3.101,2.539c-1.109-0.313-1.735-1.261-1.74-2.738
		c-0.011-4.529-0.004-9.057-0.004-13.582C72.042,86.014,72.042,85.573,72.042,84.963z"/>
	<path fill="#FF0000" d="M119.465,98.025c1.332,0,2.46-0.021,3.585,0.008c1.64,0.045,2.632,0.956,2.649,2.379
		c0.019,1.436-0.952,2.404-2.571,2.447c-1.979,0.048-3.964,0.051-5.942-0.002c-1.67-0.045-2.55-0.922-2.558-2.592
		c-0.028-5.82-0.026-11.646-0.005-17.469c0.007-1.641,0.943-2.633,2.361-2.654c1.473-0.021,2.455,0.986,2.467,2.688
		c0.031,4.528,0.012,9.058,0.014,13.587C119.465,96.896,119.465,97.37,119.465,98.025z"/>
	<path fill="#FF0000" d="M58.628,115.211c-1.382-0.003-2.441-1.08-2.409-2.453c0.031-1.304,1.108-2.355,2.409-2.354
		c1.339,0.004,2.465,1.15,2.427,2.478C61.018,114.195,59.961,115.211,58.628,115.211z"/>
	<path fill="#FF0000" d="M28.719,49.593c1.831,2.212,3.63,4.337,5.37,6.507c1.292,1.609,0.648,3.787-1.258,4.015
		c-0.747,0.091-1.832-0.292-2.326-0.847c-2.34-2.621-4.545-5.36-6.764-8.087c-0.836-1.028-0.817-2.176,0.031-3.215
		c2.196-2.693,4.408-5.37,6.647-8.027c0.977-1.16,2.366-1.309,3.439-0.46c1.104,0.875,1.254,2.317,0.271,3.543
		C32.387,45.195,30.59,47.327,28.719,49.593z"/>
	<path fill="#FF0000" d="M61.905,49.593c-1.858-2.249-3.649-4.382-5.4-6.551c-0.983-1.221-0.854-2.667,0.24-3.549
		c1.034-0.835,2.431-0.754,3.358,0.341c2.302,2.708,4.561,5.453,6.799,8.215c0.796,0.979,0.791,2.125-0.012,3.115
		c-2.214,2.729-4.455,5.438-6.725,8.118c-0.977,1.153-2.39,1.269-3.448,0.398c-1.042-0.857-1.197-2.303-0.268-3.461
		C58.215,54.015,60.035,51.855,61.905,49.593z"/>
	<path fill="#FF0000" d="M49.926,40.006c-0.439,1.973-0.947,4.251-1.453,6.534c-0.973,4.371-1.94,8.74-2.917,13.108
		c-0.381,1.707-1.576,2.612-2.975,2.279c-1.442-0.341-2.128-1.627-1.753-3.315c1.405-6.34,2.815-12.675,4.23-19.012
		c0.087-0.39,0.187-0.793,0.371-1.143c0.52-0.999,1.716-1.471,2.795-1.154C49.254,37.606,49.933,38.553,49.926,40.006z"/>
	<path fill="#FF0000" d="M84.275,58.801c-3.03,0-6.063,0.018-9.096-0.008c-1.591-0.016-2.609-0.875-2.728-2.19
		c-0.138-1.553,0.889-2.643,2.582-2.647c5.378-0.018,10.755-0.007,16.132-0.007c0.85,0,1.697-0.02,2.547,0.007
		c1.412,0.051,2.424,1.019,2.464,2.322c0.041,1.292-0.907,2.38-2.321,2.481c-1.328,0.095-2.666,0.038-4,0.042
		C87.997,58.805,86.139,58.801,84.275,58.801z"/>
	<path fill="#FF0000" d="M98.089,41.478c3.033,0.001,6.065-0.02,9.097,0.01c1.795,0.017,2.844,1.104,2.694,2.683
		c-0.112,1.172-0.973,2.037-2.261,2.114c-1.289,0.076-2.585,0.043-3.878,0.046c-4.689,0.004-9.38,0.002-14.068,0
		c-0.403,0-0.81,0.004-1.211-0.035c-1.354-0.134-2.29-1.1-2.313-2.358c-0.021-1.294,0.947-2.375,2.362-2.425
		c2.101-0.072,4.203-0.031,6.304-0.034C95.908,41.475,96.998,41.478,98.089,41.478z"/>
	<path fill="#FF0000" d="M105.52,53.963c0.726,0,1.455-0.042,2.176,0.009c1.223,0.084,2.104,0.988,2.189,2.171
		c0.088,1.223-0.58,2.368-1.791,2.489c-1.709,0.168-3.457,0.176-5.168,0.015c-1.259-0.12-1.953-1.303-1.832-2.575
		c0.11-1.167,1.014-2.036,2.252-2.104c0.723-0.041,1.45-0.008,2.174-0.008C105.52,53.96,105.52,53.96,105.52,53.963z"/>
	<path fill="#FF0000" d="M76.857,46.28c-0.766,0-1.535,0.063-2.291-0.014c-1.283-0.129-2.121-1.102-2.129-2.351
		c-0.002-1.205,0.774-2.257,1.986-2.345c1.604-0.112,3.223-0.117,4.822-0.001c1.262,0.091,2.052,1.184,2.004,2.445
		c-0.045,1.195-0.865,2.121-2.102,2.25C78.393,46.343,77.623,46.278,76.857,46.28z"/>
	<path fill="#FF0000" d="M43.099,19.909c-4.933,0-9.864,0.004-14.798-0.005c-0.563,0-1.141-0.008-1.686-0.126
		c-1.121-0.247-1.823-1.258-1.772-2.427c0.048-1.111,0.8-2.007,1.883-2.214c0.316-0.06,0.645-0.078,0.966-0.078
		c10.27-0.003,20.541-0.003,30.809,0c0.323,0,0.649,0.01,0.966,0.065c1.141,0.201,1.933,1.132,1.96,2.285
		c0.027,1.153-0.71,2.143-1.842,2.38c-0.51,0.104-1.045,0.115-1.566,0.115C53.046,19.911,48.074,19.909,43.099,19.909z"/>
	<path fill="#FF0000" d="M85.387,17.457c0.006,1.34-1.025,2.394-2.359,2.415c-1.362,0.02-2.502-1.111-2.473-2.453
		c0.033-1.313,1.118-2.355,2.447-2.345C84.35,15.083,85.38,16.114,85.387,17.457z"/>
	<path fill="#FF0000" d="M108.219,17.454c0.006,1.34-1.021,2.394-2.354,2.415c-1.367,0.024-2.492-1.097-2.463-2.449
		c0.027-1.315,1.106-2.357,2.438-2.347C107.18,15.081,108.212,16.114,108.219,17.454z"/>
	<path fill="#FF0000" d="M96.8,17.435c0.017,1.346-0.999,2.402-2.334,2.434c-1.364,0.032-2.508-1.082-2.491-2.429
		c0.016-1.312,1.096-2.364,2.424-2.368C95.746,15.073,96.785,16.095,96.8,17.435z"/>
</g>
<g>
	<path fill="#FFFFFF" d="M132.488,113.452c-0.604,1.353-1.655,1.801-3.112,1.798c-20.993-0.027-41.983-0.018-62.975-0.02
		c-0.323,0-0.649-0.002-0.969-0.041c-1.219-0.152-2.07-1.071-2.12-2.266c-0.048-1.197,0.707-2.205,1.912-2.438
		c0.549-0.106,1.125-0.104,1.69-0.104c19.656-0.004,39.313-0.004,58.97-0.004c0.522,0,1.048,0,1.661,0c0-12.575,0-25.087,0-37.671
		c-30.658,0-61.3,0-92.042,0c0,12.486,0,24.994,0,37.671c1.268,0,2.545-0.003,3.822,0c1.538,0.004,3.077-0.044,4.609,0.033
		c1.429,0.075,2.39,1.128,2.382,2.421c-0.009,1.309-0.987,2.355-2.407,2.372c-3.64,0.045-7.281,0.049-10.92,0.002
		c-1.596-0.019-2.433-0.996-2.438-2.698c-0.013-4.854-0.005-9.708-0.005-14.56c0-0.439,0-0.882,0-1.492c-0.5,0-0.926,0-1.352,0
		c-4.449,0-8.898,0.002-13.347-0.003c-3.846-0.001-6.277-1.814-7.429-5.516c-0.034-0.109-0.126-0.197-0.19-0.299
		c0-26.939,0-53.879,0-80.819c1.749-4.476,3.604-5.904,7.765-5.904c31.145-0.002,62.291-0.002,93.434,0.007
		c0.804,0.002,1.632,0.03,2.403,0.224c3.328,0.83,5.359,3.616,5.359,7.298c0.006,18.282,0.004,36.564,0.004,54.845
		c0,0.468,0,0.934,0,1.492c4.174,0,8.172,0.046,12.168-0.025c1.468-0.027,2.507,0.432,3.127,1.766
		C132.488,84.167,132.488,98.811,132.488,113.452z M30.546,91.598c0-0.576,0-1.015,0-1.449c0-6.311,0-12.619,0-18.93
		c0-2.782,0.648-3.436,3.412-3.436c25.601,0,51.202,0,76.802,0c0.508,0,1.014,0,1.496,0c0-12.351,0-24.502,0-36.66
		c-33.095,0-66.103,0-99.174,0c0,0.427,0,0.748,0,1.07c0,18.847,0,37.693,0,56.538c0,0.205-0.006,0.408,0.007,0.608
		c0.089,1.33,0.912,2.234,2.232,2.242C20.333,91.617,25.345,91.598,30.546,91.598z M112.34,26.106c0-0.557,0-0.997,0-1.435
		c0-4.204,0-8.412,0-12.617c0-2.671-0.609-3.283-3.273-3.283C96.529,8.769,83.995,8.769,71.459,8.769
		c-18.356,0-36.716,0-55.074,0.002c-2.698,0-3.304,0.595-3.304,3.246c0,4.246,0,8.493,0,12.739c0,0.432,0,0.864,0,1.351
		C46.206,26.106,79.189,26.106,112.34,26.106z"/>
	<path fill="#FFFFFF" d="M98.838,92.273c-0.753,2.631-1.509,5.26-2.259,7.886c-0.535,1.87-1.446,2.716-2.927,2.709
		c-1.467-0.005-2.354-0.845-2.914-2.731c-0.709-2.398-1.424-4.798-2.139-7.193c-0.076-0.254-0.189-0.496-0.392-1.014
		c-0.536,2.932-1.007,5.569-1.508,8.207c-0.357,1.879-1.435,2.834-2.857,2.586c-1.534-0.262-2.235-1.533-1.891-3.443
		c0.981-5.442,1.964-10.885,2.944-16.326c0.326-1.801,1.201-2.714,2.668-2.799c1.553-0.092,2.537,0.695,3.076,2.503
		c0.854,2.86,1.689,5.729,2.535,8.592c0.107,0.365,0.24,0.724,0.475,1.427c0.627-2.175,1.164-4.015,1.692-5.857
		c0.423-1.473,0.816-2.957,1.255-4.426c0.457-1.527,1.477-2.297,2.905-2.246c1.397,0.049,2.374,0.901,2.685,2.486
		c1.121,5.703,2.221,11.411,3.299,17.122c0.279,1.468-0.614,2.733-1.995,2.97c-1.291,0.223-2.49-0.656-2.779-2.108
		c-0.517-2.574-0.987-5.152-1.479-7.731c-0.037-0.189-0.101-0.375-0.152-0.561C98.999,92.307,98.918,92.291,98.838,92.273z"/>
	<path fill="#FFFFFF" d="M53.542,93.656c-2.603,0-5.013,0-7.585,0c0,0.652,0.005,1.244,0,1.841
		c-0.011,1.737,0.034,3.478-0.062,5.212c-0.073,1.298-1.089,2.146-2.341,2.156c-1.252,0.008-2.204-0.826-2.396-2.116
		c-0.042-0.278-0.053-0.563-0.053-0.847c-0.002-5.619-0.002-11.238,0-16.857c0-0.202,0-0.404,0.022-0.605
		c0.154-1.431,1.124-2.328,2.478-2.293c1.294,0.031,2.251,0.924,2.314,2.316c0.073,1.612,0.031,3.234,0.037,4.852
		c0.002,0.438,0,0.871,0,1.365c2.554,0,4.968,0,7.585,0c0-1.045-0.003-2.076,0.001-3.107c0.004-1.092-0.033-2.188,0.04-3.271
		c0.084-1.23,1.021-2.088,2.217-2.148c1.229-0.063,2.205,0.648,2.48,1.854c0.089,0.391,0.11,0.801,0.111,1.202
		c0.005,5.539,0.004,11.077,0.001,16.617c0,0.321-0.008,0.649-0.063,0.964c-0.235,1.347-1.248,2.152-2.558,2.063
		c-1.241-0.082-2.158-0.979-2.201-2.299c-0.057-1.82-0.025-3.641-0.028-5.457C53.541,94.658,53.542,94.221,53.542,93.656z"/>
	<path fill="#FFFFFF" d="M68.218,84.963c-0.952,0-1.72,0.044-2.481-0.011c-1.494-0.111-2.462-1.142-2.417-2.499
		c0.042-1.323,0.999-2.29,2.459-2.309c3.273-0.039,6.549-0.039,9.819,0c1.438,0.019,2.424,1.02,2.467,2.322
		c0.041,1.287-0.918,2.348-2.33,2.471c-0.834,0.072-1.678,0.015-2.664,0.015c0,0.589,0,1.021,0,1.454
		c-0.002,4.607,0.015,9.215-0.01,13.824c-0.01,1.875-1.433,3.01-3.1,2.539c-1.109-0.313-1.735-1.261-1.739-2.738
		c-0.012-4.529-0.004-9.057-0.004-13.582C68.218,86.014,68.218,85.573,68.218,84.963z"/>
	<path fill="#FFFFFF" d="M115.641,98.025c1.332,0,2.459-0.021,3.588,0.008c1.635,0.045,2.629,0.956,2.646,2.379
		c0.02,1.436-0.952,2.404-2.57,2.447c-1.979,0.048-3.965,0.051-5.945-0.002c-1.668-0.045-2.547-0.922-2.555-2.592
		c-0.029-5.82-0.027-11.646-0.006-17.469c0.008-1.641,0.944-2.633,2.362-2.654c1.473-0.021,2.454,0.986,2.465,2.688
		c0.032,4.528,0.015,9.058,0.015,13.587C115.641,96.896,115.641,97.37,115.641,98.025z"/>
	<path fill="#FFFFFF" d="M54.804,115.211c-1.383-0.003-2.442-1.08-2.409-2.453c0.03-1.304,1.107-2.355,2.409-2.354
		c1.338,0.004,2.464,1.15,2.426,2.478C57.194,114.195,56.136,115.211,54.804,115.211z"/>
	<path fill="#FFFFFF" d="M24.895,49.593c1.83,2.212,3.629,4.337,5.369,6.507c1.292,1.609,0.649,3.787-1.258,4.015
		c-0.747,0.091-1.831-0.292-2.326-0.847c-2.339-2.621-4.545-5.36-6.764-8.087c-0.837-1.028-0.817-2.176,0.031-3.215
		c2.196-2.693,4.409-5.37,6.647-8.027c0.977-1.16,2.366-1.309,3.44-0.46c1.104,0.875,1.254,2.317,0.27,3.543
		C28.563,45.195,26.766,47.327,24.895,49.593z"/>
	<path fill="#FFFFFF" d="M58.081,49.593c-1.858-2.249-3.65-4.382-5.401-6.551c-0.981-1.221-0.854-2.667,0.241-3.549
		c1.034-0.835,2.431-0.754,3.359,0.341c2.301,2.708,4.56,5.453,6.799,8.215c0.794,0.979,0.791,2.125-0.013,3.115
		c-2.215,2.729-4.455,5.438-6.725,8.118c-0.976,1.153-2.39,1.269-3.448,0.398c-1.042-0.857-1.197-2.303-0.268-3.461
		C54.391,54.015,56.211,51.855,58.081,49.593z"/>
	<path fill="#FFFFFF" d="M46.102,40.006c-0.44,1.973-0.947,4.251-1.454,6.534c-0.972,4.371-1.939,8.74-2.917,13.108
		c-0.381,1.707-1.575,2.612-2.975,2.279c-1.441-0.341-2.128-1.627-1.753-3.315c1.406-6.34,2.815-12.675,4.23-19.012
		c0.087-0.39,0.188-0.793,0.371-1.143c0.52-0.999,1.716-1.471,2.795-1.154C45.43,37.606,46.109,38.553,46.102,40.006z"/>
	<path fill="#FFFFFF" d="M80.452,58.801c-3.031,0-6.063,0.018-9.097-0.008c-1.59-0.016-2.608-0.875-2.728-2.19
		c-0.138-1.553,0.889-2.643,2.583-2.647c5.378-0.018,10.755-0.007,16.132-0.007c0.849,0,1.697-0.02,2.548,0.007
		c1.411,0.051,2.424,1.019,2.465,2.322c0.039,1.292-0.908,2.38-2.322,2.481c-1.328,0.095-2.666,0.038-4.001,0.042
		C84.172,58.805,82.313,58.801,80.452,58.801z"/>
	<path fill="#FFFFFF" d="M94.266,41.478c3.032,0.001,6.063-0.02,9.096,0.01c1.796,0.017,2.845,1.104,2.693,2.683
		c-0.111,1.172-0.972,2.037-2.26,2.114c-1.289,0.076-2.585,0.043-3.879,0.046c-4.689,0.004-9.379,0.002-14.066,0
		c-0.404,0-0.812,0.004-1.211-0.035c-1.354-0.134-2.291-1.1-2.313-2.358c-0.023-1.294,0.946-2.375,2.36-2.425
		c2.101-0.072,4.203-0.031,6.306-0.034C92.084,41.475,93.174,41.478,94.266,41.478z"/>
	<path fill="#FFFFFF" d="M101.695,53.963c0.725,0,1.453-0.042,2.175,0.009c1.222,0.084,2.104,0.988,2.188,2.171
		c0.09,1.223-0.58,2.368-1.791,2.489c-1.707,0.168-3.457,0.176-5.166,0.015c-1.261-0.12-1.955-1.303-1.834-2.575
		c0.11-1.167,1.015-2.036,2.252-2.104c0.724-0.041,1.451-0.008,2.176-0.008C101.695,53.96,101.695,53.96,101.695,53.963z"/>
	<path fill="#FFFFFF" d="M73.033,46.28c-0.764,0-1.534,0.063-2.291-0.014c-1.285-0.129-2.121-1.102-2.127-2.351
		c-0.003-1.205,0.773-2.257,1.986-2.345c1.601-0.112,3.221-0.117,4.821-0.001c1.263,0.091,2.052,1.184,2.004,2.445
		c-0.045,1.195-0.864,2.121-2.102,2.25C74.57,46.343,73.798,46.278,73.033,46.28z"/>
	<path fill="#FFFFFF" d="M39.275,19.909c-4.933,0-9.865,0.004-14.798-0.005c-0.563,0-1.141-0.008-1.686-0.126
		c-1.12-0.247-1.822-1.258-1.772-2.427c0.048-1.111,0.799-2.007,1.883-2.214c0.316-0.06,0.645-0.078,0.966-0.078
		c10.27-0.003,20.54-0.003,30.809,0c0.322,0,0.65,0.01,0.966,0.065c1.141,0.201,1.932,1.132,1.959,2.285
		c0.028,1.153-0.709,2.143-1.842,2.38c-0.508,0.104-1.042,0.115-1.565,0.115C49.222,19.911,44.249,19.909,39.275,19.909z"/>
	<path fill="#FFFFFF" d="M81.563,17.457c0.004,1.34-1.024,2.394-2.359,2.415c-1.363,0.02-2.501-1.111-2.471-2.453
		c0.031-1.313,1.117-2.355,2.447-2.345C80.523,15.083,81.557,16.114,81.563,17.457z"/>
	<path fill="#FFFFFF" d="M104.393,17.454c0.008,1.34-1.02,2.394-2.352,2.415c-1.366,0.024-2.492-1.097-2.463-2.449
		c0.027-1.315,1.105-2.357,2.438-2.347C103.355,15.081,104.389,16.114,104.393,17.454z"/>
	<path fill="#FFFFFF" d="M92.977,17.435c0.016,1.346-1,2.402-2.334,2.434c-1.365,0.032-2.51-1.082-2.492-2.429
		c0.016-1.312,1.097-2.364,2.425-2.368C91.922,15.073,92.961,16.095,92.977,17.435z"/>
</g>
</svg>
