<?xml version="1.0" encoding="utf-8"?>
<!-- Generator: Adobe Illustrator 16.0.3, SVG Export Plug-In . SVG Version: 6.00 Build 0)  -->
<!DOCTYPE svg PUBLIC "-//W3C//DTD SVG 1.1//EN" "http://www.w3.org/Graphics/SVG/1.1/DTD/svg11.dtd">
<svg version="1.1" id="Capa_1" xmlns="http://www.w3.org/2000/svg" xmlns:xlink="http://www.w3.org/1999/xlink" x="0px" y="0px"
	 width="140px" height="140px" viewBox="0 0 140 140" enable-background="new 0 0 140 140" xml:space="preserve">
<g id="Capa_1_1_" display="none">
	<g display="inline" opacity="0.75">
		<path fill="#FF0000" d="M71.396,118.18c-16.421,0-32.836,0.006-49.254,0c-11.887-0.008-18.545-6.656-18.545-18.5
			c-0.001-21.977-0.005-43.955,0-65.936c0.005-11.113,6.836-17.945,18.021-17.952c33.188-0.021,66.373-0.021,99.562,0
			c11.195,0.007,18.014,6.833,18.014,17.952c0.008,22.154,0.008,44.314,0,66.468c0,11.12-6.832,17.944-18.014,17.964
			C104.584,118.195,87.99,118.18,71.396,118.18z M25.933,48.147c0,21.808,0,43.026,0,64.306c30.39,0,60.599,0,90.803,0
			c0-21.413,0-42.659,0-64.183c-0.85,0.643-1.422,1.054-1.971,1.494c-13.525,10.898-27.08,21.771-40.568,32.737
			c-1.975,1.597-3.514,1.753-5.563,0.089C59.63,75.202,50.531,67.934,41.46,60.628C36.399,56.555,31.339,52.492,25.933,48.147z
			 M122.439,112.404c6.393,0.236,11.211-4.323,11.25-10.825c0.123-23.033,0.093-46.069,0.014-69.099
			c-0.014-5.125-2.934-8.921-7.378-10.571c-1.773-0.666-3.086-0.392-4.576,0.818c-15.735,12.805-31.53,25.543-47.304,38.299
			c-2.86,2.319-3.291,2.319-6.121,0.023C52.55,48.297,36.755,35.556,21.011,22.755c-1.463-1.184-2.765-1.529-4.564-0.847
			c-4.755,1.789-7.386,5.758-7.388,11.651c-0.016,22.233-0.016,44.474,0.01,66.716c0,1.393,0.112,2.828,0.429,4.188
			c1.137,4.832,5.766,8.289,10.707,7.854c0-0.995,0-2.036,0-3.067c0-21.536,0-43.066,0.009-64.602c0-0.97-0.051-1.962,0.151-2.896
			c0.431-2.038,2.249-2.833,4.036-1.791c0.829,0.487,1.556,1.151,2.311,1.76C40.663,52.956,54.605,64.189,68.55,75.43
			c0.941,0.747,1.896,1.488,2.857,2.232c12.155-9.793,24.108-19.423,36.063-29.054c3.43-2.764,6.828-5.584,10.33-8.258
			c2.288-1.745,4.366-0.751,4.616,2.064c0.063,0.797,0.026,1.593,0.026,2.388c0,21.443,0,42.888,0,64.337
			C122.439,110.188,122.439,111.225,122.439,112.404z M71.363,56.474c14.353-11.605,28.562-23.092,43.221-34.948
			c-29.032,0-57.421,0-86.443,0C42.778,33.362,56.946,44.81,71.363,56.474z"/>
		<path fill="#FF0000" d="M79.286,87.491c0.788-1.017,1.282-1.954,2.036-2.562c6.152-4.986,12.363-9.908,18.548-14.854
			c1.479-1.19,3.063-1.684,4.386,0c1.289,1.65,0.542,3.099-0.97,4.3c-6.198,4.921-12.337,9.924-18.614,14.763
			c-0.863,0.661-2.395,0.803-3.533,0.633C80.499,89.672,80.021,88.448,79.286,87.491z"/>
		<path fill="#FF0000" d="M108.469,69.146c-0.687-1.026-1.727-1.974-1.977-3.092c-0.34-1.507,1.972-3.439,3.652-3.376
			c1.676,0.069,2.57,0.981,2.603,2.653C112.775,67.035,110.861,68.771,108.469,69.146z"/>
	</g>
	<g display="inline" opacity="0.8">
		<path fill="#00A0C6" d="M69,113.928c-16.421,0-32.836,0.008-49.254,0c-11.887-0.007-18.545-6.654-18.545-18.5
			c-0.001-21.976-0.005-43.954,0-65.935C1.206,18.38,8.037,11.548,19.222,11.541c33.188-0.021,66.374-0.021,99.562,0
			c11.194,0.007,18.014,6.833,18.014,17.952c0.007,22.154,0.007,44.315,0,66.468c0,11.12-6.832,17.943-18.014,17.964
			C102.188,113.943,85.596,113.928,69,113.928z M23.537,43.896c0,21.807,0,43.026,0,64.306c30.39,0,60.6,0,90.803,0
			c0-21.413,0-42.659,0-64.183c-0.849,0.643-1.421,1.054-1.97,1.494C98.844,56.411,85.289,67.284,71.801,78.25
			c-1.975,1.598-3.515,1.753-5.562,0.089c-9.004-7.388-18.104-14.656-27.174-21.961C34.004,52.304,28.943,48.241,23.537,43.896z
			 M120.045,108.154c6.393,0.234,11.21-4.324,11.25-10.826c0.122-23.033,0.092-46.069,0.014-69.099
			c-0.014-5.125-2.935-8.921-7.379-10.571c-1.772-0.666-3.086-0.392-4.576,0.818C103.619,31.281,87.824,44.019,72.05,56.775
			c-2.861,2.319-3.289,2.319-6.121,0.023c-15.775-12.752-31.57-25.493-47.314-38.294c-1.463-1.184-2.765-1.529-4.564-0.847
			c-4.755,1.789-7.386,5.758-7.388,11.651c-0.016,22.233-0.016,44.474,0.01,66.717c0,1.392,0.112,2.828,0.429,4.188
			c1.137,4.832,5.766,8.289,10.707,7.854c0-0.994,0-2.035,0-3.066c0-21.536,0-43.066,0.009-64.602c0-0.97-0.051-1.962,0.151-2.896
			c0.431-2.038,2.249-2.833,4.036-1.791c0.829,0.487,1.556,1.151,2.311,1.76c13.953,11.233,27.895,22.467,41.839,33.706
			c0.941,0.748,1.896,1.489,2.856,2.233c12.157-9.793,24.109-19.423,36.063-29.054c3.43-2.764,6.828-5.584,10.33-8.258
			c2.289-1.745,4.367-0.751,4.617,2.064c0.063,0.797,0.026,1.593,0.026,2.388c0,21.444,0,42.888,0,64.336
			C120.045,105.936,120.045,106.975,120.045,108.154z M68.968,52.223c14.353-11.605,28.562-23.092,43.222-34.948
			c-29.032,0-57.421,0-86.443,0C40.382,29.111,54.551,40.559,68.968,52.223z"/>
		<path fill="#00A0C6" d="M76.891,83.24c0.789-1.018,1.282-1.954,2.036-2.561c6.153-4.988,12.364-9.908,18.548-14.854
			c1.48-1.19,3.063-1.684,4.387,0c1.289,1.649,0.541,3.099-0.971,4.3c-6.197,4.921-12.336,9.924-18.613,14.764
			c-0.864,0.66-2.395,0.803-3.534,0.633C78.104,85.421,77.626,84.197,76.891,83.24z"/>
		<path fill="#00A0C6" d="M106.073,64.895c-0.687-1.027-1.728-1.974-1.978-3.092c-0.34-1.507,1.973-3.439,3.653-3.376
			c1.676,0.069,2.569,0.981,2.603,2.653C110.38,62.784,108.467,64.52,106.073,64.895z"/>
	</g>
	<g display="inline">
		<path d="M70.895,116.104c-16.421,0-32.836,0.008-49.254,0c-11.887-0.006-18.545-6.654-18.545-18.5
			c-0.001-21.976-0.005-43.954,0-65.935C3.1,20.556,9.931,13.724,21.116,13.717c33.188-0.021,66.372-0.021,99.562,0
			c11.195,0.007,18.014,6.833,18.014,17.952c0.008,22.154,0.008,44.315,0,66.468c0,11.12-6.832,17.944-18.014,17.965
			C104.082,116.12,87.488,116.104,70.895,116.104z M25.431,46.072c0,21.807,0,43.026,0,64.306c30.39,0,60.598,0,90.803,0
			c0-21.413,0-42.659,0-64.183c-0.85,0.643-1.422,1.054-1.971,1.494c-13.527,10.898-27.08,21.771-40.57,32.737
			c-1.975,1.598-3.513,1.754-5.562,0.09c-9.004-7.389-18.104-14.657-27.174-21.961C35.897,54.479,30.837,50.417,25.431,46.072z
			 M121.938,110.33c6.393,0.234,11.211-4.324,11.25-10.826c0.123-23.033,0.092-46.069,0.014-69.099
			c-0.014-5.125-2.934-8.921-7.378-10.571c-1.773-0.666-3.087-0.392-4.576,0.818c-15.735,12.805-31.53,25.543-47.304,38.299
			c-2.861,2.319-3.291,2.319-6.122,0.023C52.048,46.222,36.253,33.48,20.509,20.68c-1.463-1.184-2.765-1.529-4.564-0.847
			c-4.755,1.789-7.386,5.758-7.388,11.651c-0.016,22.233-0.016,44.474,0.01,66.717c0,1.392,0.112,2.828,0.429,4.188
			c1.137,4.832,5.766,8.289,10.707,7.854c0-0.995,0-2.036,0-3.067c0-21.535,0-43.066,0.009-64.602c0-0.97-0.051-1.962,0.151-2.896
			c0.431-2.038,2.249-2.833,4.036-1.791c0.829,0.487,1.556,1.151,2.311,1.76C40.163,50.88,54.105,62.114,68.049,73.354
			c0.941,0.748,1.896,1.488,2.857,2.232c12.156-9.793,24.109-19.423,36.063-29.054c3.43-2.764,6.829-5.584,10.331-8.258
			c2.288-1.745,4.366-0.751,4.616,2.064c0.063,0.797,0.027,1.593,0.027,2.388c0,21.443,0,42.888,0,64.336
			C121.938,108.111,121.938,109.148,121.938,110.33z M70.861,54.399c14.353-11.605,28.562-23.092,43.221-34.948
			c-29.032,0-57.421,0-86.443,0C42.276,31.287,56.444,42.735,70.861,54.399z"/>
		<path d="M78.784,85.416c0.788-1.018,1.282-1.954,2.036-2.561c6.152-4.987,12.363-9.908,18.548-14.854
			c1.479-1.19,3.063-1.684,4.386,0c1.289,1.65,0.542,3.099-0.97,4.3c-6.198,4.922-12.337,9.924-18.614,14.764
			c-0.863,0.66-2.395,0.803-3.533,0.633C79.997,87.598,79.52,86.373,78.784,85.416z"/>
		<path d="M107.967,67.07c-0.688-1.027-1.727-1.974-1.977-3.092c-0.34-1.507,1.972-3.439,3.652-3.376
			c1.676,0.069,2.57,0.981,2.603,2.653C112.273,64.96,110.359,66.696,107.967,67.07z"/>
	</g>
</g>
<g id="Capa_2">
	<g opacity="0.75">
		<path fill="#00A0C6" d="M65.559,126.754c-9.042,0-18.084,0.021-27.126-0.007c-1.171-0.011-2.355-0.276-3.541-0.408
			C18.408,124.491,6.068,112.35,5.483,95.664C4.798,76.102,4.824,56.478,5.468,36.913C6.023,20.281,18.379,7.858,34.877,6.319
			c8.589-0.791,17.267-0.95,25.896-0.922c11.743,0.035,23.52-0.051,35.192,0.949c17.004,1.446,29.174,14.03,29.723,31.045
			c0.617,19.252,0.617,38.548,0.027,57.8c-0.539,17.013-12.814,29.533-29.727,31.063c-10.09,0.9-20.271,0.924-30.418,1.332
			C65.57,127.313,65.57,127.031,65.559,126.754z M38.748,16.827c-5.053,0.12-9.876,1.468-14.014,4.6
			c-5.434,4.119-8.16,9.851-8.351,16.417c-0.453,15.293-0.524,30.606-0.559,45.903c-0.011,4.584,0.244,9.218,0.992,13.728
			c1.673,10.063,8.714,16.613,18.928,17.812c4.715,0.547,9.488,0.851,14.235,0.851c13.721-0.009,27.444-0.126,41.158-0.416
			c3.118-0.068,6.329-0.687,9.313-1.648c9.133-2.987,13.807-9.926,14.283-19.088c0.721-13.379,0.656-26.792,0.762-40.185
			c0.043-5.548-0.146-11.111-0.635-16.635c-1.154-12.989-9.33-20.868-22.355-21.33c-8.953-0.307-17.926-0.057-26.892-0.057
			C56.666,16.77,47.704,16.619,38.748,16.827z"/>
		<path fill="#00A0C6" d="M65.488,34.948c17.155-0.058,31.254,13.94,31.333,31.077c0.057,17.486-13.92,31.589-31.308,31.568
			c-17.19-0.03-31.159-13.989-31.186-31.186C34.295,49.042,48.182,35.019,65.488,34.948z M65.524,86.662
			c11.232,0.016,20.351-9.174,20.332-20.469c-0.026-11.179-9.11-20.278-20.265-20.3c-11.226-0.015-20.35,9.163-20.315,20.465
			C45.301,77.527,54.388,86.639,65.524,86.662z"/>
		<path fill="#00A0C6" d="M105.373,32.568c-0.023-3.974-3.287-7.237-7.24-7.242c-4.088,0-7.303,3.32-7.234,7.47
			c0.08,4.011,3.359,7.198,7.334,7.114C102.23,39.823,105.398,36.572,105.373,32.568z"/>
	</g>
	<g opacity="0.8">
		<path fill="#FF0000" d="M75.331,133.561c-9.042,0-18.084,0.021-27.126-0.006c-1.171-0.012-2.355-0.277-3.541-0.408
			c-16.484-1.849-28.824-13.989-29.409-30.676c-0.685-19.563-0.659-39.186-0.015-58.75c0.555-16.632,12.911-29.055,29.409-30.593
			c8.589-0.791,17.267-0.95,25.896-0.922c11.742,0.035,23.52-0.051,35.191,0.949c17.005,1.446,29.174,14.03,29.723,31.045
			c0.618,19.252,0.618,38.549,0.027,57.8c-0.539,17.013-12.813,29.534-29.727,31.063c-10.09,0.9-20.271,0.924-30.419,1.332
			C75.342,134.119,75.342,133.838,75.331,133.561z M48.52,23.633c-5.053,0.12-9.876,1.468-14.014,4.6
			c-5.434,4.119-8.16,9.851-8.351,16.417c-0.453,15.293-0.524,30.606-0.559,45.903c-0.011,4.584,0.244,9.219,0.992,13.727
			c1.673,10.063,8.714,16.615,18.928,17.813c4.715,0.547,9.488,0.852,14.235,0.852c13.722-0.01,27.444-0.127,41.157-0.418
			c3.119-0.066,6.33-0.686,9.313-1.647c9.133-2.987,13.807-9.926,14.282-19.088c0.722-13.378,0.656-26.792,0.763-40.184
			c0.043-5.548-0.146-11.111-0.636-16.635c-1.153-12.989-9.329-20.868-22.354-21.33c-8.952-0.307-17.926-0.057-26.892-0.057
			C66.438,23.577,57.476,23.425,48.52,23.633z"/>
		<path fill="#FF0000" d="M75.26,41.754c17.154-0.058,31.254,13.94,31.332,31.078c0.057,17.484-13.919,31.589-31.308,31.566
			c-17.19-0.03-31.159-13.988-31.186-31.186C44.067,55.849,57.954,41.826,75.26,41.754z M75.296,93.469
			C86.527,93.484,95.646,84.295,95.627,73c-0.025-11.18-9.109-20.278-20.264-20.301c-11.227-0.015-20.35,9.163-20.315,20.465
			C55.073,84.335,64.16,93.443,75.296,93.469z"/>
		<path fill="#FF0000" d="M115.146,39.375c-0.024-3.974-3.287-7.237-7.242-7.242c-4.086,0-7.303,3.32-7.233,7.47
			c0.081,4.011,3.36,7.198,7.334,7.114C112.002,46.629,115.171,43.379,115.146,39.375z"/>
	</g>
	<g>
		<path fill="#FFFFFF" d="M70.889,130.1c-9.042,0-18.084,0.021-27.126-0.007c-1.171-0.011-2.355-0.276-3.541-0.407
			c-16.484-1.849-28.824-13.99-29.409-30.676c-0.685-19.563-0.659-39.186-0.015-58.751c0.555-16.632,12.911-29.055,29.409-30.593
			c8.589-0.791,17.267-0.95,25.896-0.922c11.742,0.035,23.52-0.051,35.192,0.949c17.004,1.446,29.173,14.03,29.722,31.045
			c0.618,19.252,0.618,38.549,0.028,57.8c-0.54,17.013-12.813,29.534-29.728,31.063c-10.09,0.9-20.271,0.924-30.418,1.332
			C70.898,130.658,70.898,130.377,70.889,130.1z M44.076,20.172c-5.053,0.12-9.876,1.468-14.014,4.6
			c-5.434,4.119-8.16,9.851-8.351,16.417c-0.453,15.293-0.524,30.606-0.559,45.903c-0.011,4.584,0.244,9.219,0.992,13.727
			c1.673,10.063,8.714,16.615,18.928,17.813c4.715,0.547,9.488,0.852,14.235,0.852c13.721-0.01,27.444-0.127,41.157-0.418
			c3.119-0.066,6.33-0.686,9.313-1.647c9.132-2.987,13.806-9.926,14.281-19.088c0.721-13.378,0.656-26.792,0.764-40.184
			c0.043-5.548-0.146-11.111-0.637-16.635c-1.153-12.989-9.328-20.868-22.354-21.33c-8.952-0.307-17.927-0.057-26.892-0.057
			C61.994,20.116,53.033,19.964,44.076,20.172z"/>
		<path fill="#FFFFFF" d="M70.816,38.293c17.154-0.058,31.254,13.94,31.332,31.077c0.058,17.485-13.918,31.589-31.308,31.567
			c-17.19-0.03-31.159-13.988-31.186-31.186C39.624,52.388,53.511,38.365,70.816,38.293z M70.854,90.008
			c11.23,0.016,20.351-9.174,20.33-20.469c-0.025-11.179-9.109-20.278-20.264-20.3c-11.226-0.015-20.35,9.163-20.315,20.465
			C50.629,80.874,59.717,89.982,70.854,90.008z"/>
		<path fill="#FFFFFF" d="M110.702,35.914c-0.024-3.974-3.287-7.237-7.241-7.242c-4.087,0-7.303,3.32-7.234,7.47
			c0.082,4.011,3.36,7.198,7.334,7.114C107.559,43.168,110.729,39.918,110.702,35.914z"/>
	</g>
</g>
</svg>
