<?xml version="1.0" encoding="utf-8"?>
<!-- Generator: Adobe Illustrator 16.0.3, SVG Export Plug-In . SVG Version: 6.00 Build 0)  -->
<!DOCTYPE svg PUBLIC "-//W3C//DTD SVG 1.1//EN" "http://www.w3.org/Graphics/SVG/1.1/DTD/svg11.dtd">
<svg version="1.1" id="Capa_1" xmlns="http://www.w3.org/2000/svg" xmlns:xlink="http://www.w3.org/1999/xlink" x="0px" y="0px"
	 width="100px" height="100px" viewBox="0 0 100 100" enable-background="new 0 0 100 100" xml:space="preserve">
<g>
	<path fill="#F2F2F2" d="M23.882,2.932c17.169,0,34.335,0,51.504,0c0.396,0.322,0.825,0.607,1.183,0.968
		c5.757,5.84,11.498,11.692,17.264,17.523c0.645,0.652,0.93,1.345,0.927,2.274c-0.015,23.605-0.016,47.212,0.004,70.817
		c0.001,1.13-0.326,1.95-1.305,2.482c-23.192,0-46.384,0-69.577,0c-1.119-0.435-1.455-1.303-1.452-2.464
		c0.015-15.363,0.01-30.727,0.01-46.089c0-0.382,0-0.767,0-1.211c-0.461,0-0.789,0-1.115,0c-3.944,0-7.888,0.009-11.831-0.002
		c-3.731-0.007-6.028-2.338-6.031-6.122c-0.005-6.914-0.003-13.832,0-20.749c0.003-3.876,2.31-6.205,6.149-6.207
		c3.942-0.007,7.886-0.002,11.83-0.002c0.317,0,0.633,0,0.998,0c0-3.039,0.02-5.941-0.01-8.846
		C22.42,4.167,22.813,3.353,23.882,2.932z M91.056,93.282c0-22.799,0-45.524,0-68.296c-0.401,0-0.73,0-1.061,0
		c-4.817,0-9.635,0.002-14.455-0.001c-1.887,0-2.484-0.61-2.486-2.535c-0.001-4.93-0.001-9.859-0.001-14.79c0-0.326,0-0.65,0-0.989
		c-15.716,0-31.326,0-46.923,0c0,2.523,0,4.984,0,7.482c4.828,0,9.585-0.003,14.342,0c3.91,0.003,6.188,2.305,6.19,6.256
		c0.003,6.859,0.001,13.717-0.001,20.576c0,0.397,0,0.798-0.04,1.193c-0.271,2.753-2.564,4.957-5.229,5.037
		c-1.146,0.036-1.923-0.583-2.038-1.623c-0.108-0.98,0.493-1.735,1.581-1.992c1.758-0.415,2.113-0.866,2.113-2.709
		c0-6.797,0-13.593,0-20.391c0-2.012-0.661-2.671-2.674-2.671c-10.209-0.001-20.42-0.001-30.63,0c-2.003,0-2.666,0.667-2.666,2.685
		c-0.001,6.797-0.001,13.596,0,20.392c0,1.994,0.638,2.651,2.59,2.651c5.422,0.001,10.843-0.002,16.264,0.004
		c0.389,0,0.787,0.021,1.162,0.111c0.925,0.224,1.422,0.942,1.355,1.882c-0.064,0.874-0.651,1.506-1.547,1.649
		c-0.257,0.043-0.519,0.062-0.797,0.093c0,15.352,0,30.646,0,45.986C47.767,93.282,69.38,93.282,91.056,93.282z M88.029,21.261
		c-3.733-3.803-7.581-7.724-11.313-11.524c0,3.668,0,7.571,0,11.524C80.628,21.261,84.49,21.261,88.029,21.261z"/>
	<path fill="#F2F2F2" d="M64.012,61.923c-5.75,0-11.498,0-17.246-0.003c-0.271,0-0.542,0.014-0.811-0.009
		c-1.014-0.077-1.737-0.771-1.799-1.719c-0.062-0.918,0.612-1.729,1.606-1.901c0.295-0.05,0.599-0.044,0.899-0.044
		c11.586-0.002,23.173-0.002,34.76,0.002c0.387,0.003,0.787,0.026,1.158,0.126c0.859,0.229,1.358,0.979,1.301,1.849
		c-0.056,0.82-0.629,1.492-1.456,1.643c-0.353,0.063-0.721,0.052-1.081,0.053C75.569,61.923,69.79,61.923,64.012,61.923z"/>
	<path fill="#F2F2F2" d="M53.146,83.963c-5.749,0-11.496,0.001-17.244,0c-0.33,0-0.666,0.014-0.991-0.032
		c-0.902-0.131-1.558-0.848-1.605-1.72c-0.046-0.85,0.563-1.646,1.451-1.846c0.318-0.071,0.655-0.077,0.984-0.077
		c11.618-0.006,23.234-0.006,34.852,0.001c0.358,0,0.726,0.013,1.071,0.095c0.856,0.209,1.403,0.951,1.377,1.801
		c-0.026,0.845-0.626,1.563-1.481,1.724c-0.321,0.063-0.657,0.052-0.988,0.052C64.764,83.964,58.955,83.963,53.146,83.963z"/>
	<path fill="#F2F2F2" d="M58.581,69.271c-4.122,0-8.244,0.011-12.365-0.005c-1.481-0.005-2.418-1.116-1.925-2.346
		c0.192-0.472,0.69-0.886,1.145-1.159c0.326-0.197,0.814-0.156,1.232-0.156c7.94-0.01,15.881-0.008,23.824-0.008
		c1.693,0,2.58,0.66,2.549,1.892c-0.031,1.198-0.863,1.781-2.549,1.781C66.523,69.273,62.55,69.273,58.581,69.271z"/>
	<path fill="#F2F2F2" d="M58.637,76.622c-4.002,0-8.001,0-12.004-0.003c-0.33,0-0.666,0.011-0.989-0.046
		c-0.833-0.146-1.463-0.888-1.494-1.72c-0.029-0.784,0.514-1.556,1.307-1.77c0.371-0.101,0.77-0.132,1.156-0.132
		c8.003-0.006,16.004-0.006,24.007,0c0.386,0,0.783,0.034,1.156,0.137c0.798,0.224,1.299,0.971,1.265,1.788
		c-0.037,0.818-0.605,1.523-1.411,1.683c-0.352,0.067-0.719,0.06-1.078,0.06C66.578,76.624,62.607,76.622,58.637,76.622z"/>
	<path fill="#F2F2F2" d="M21.345,29.064c0,1.837,0.053,3.673-0.01,5.505c-0.103,2.896-2.318,5.145-5.12,5.286
		c-2.813,0.142-5.211-1.869-5.636-4.723c-0.206-1.377,0.337-2.309,1.462-2.519c1.056-0.195,1.826,0.484,2.096,1.85
		c0.229,1.155,0.988,1.814,1.971,1.713c1-0.104,1.622-0.861,1.627-2.064c0.014-3.273,0.006-6.544,0.006-9.815
		c0-0.245-0.007-0.49,0.001-0.734c0.049-1.238,0.818-2.087,1.855-2.053c1.021,0.033,1.737,0.842,1.752,2.053
		c0.021,1.834,0.006,3.669,0.006,5.502C21.352,29.064,21.351,29.064,21.345,29.064z"/>
	<path fill="#F2F2F2" d="M36.541,62.011c1.306,1.319,2.601,2.545,3.793,3.872c0.41,0.455,0.789,1.15,0.788,1.738
		c-0.004,1.382-1.57,2.095-2.723,1.335c-0.2-0.132-0.387-0.292-0.554-0.464c-1.62-1.641-3.244-3.276-4.849-4.931
		c-1.045-1.079-1.045-2.03-0.002-3.108c1.647-1.698,3.308-3.385,4.978-5.06c0.946-0.949,2.017-1.025,2.789-0.237
		c0.758,0.771,0.674,1.888-0.248,2.837C39.224,59.318,37.917,60.622,36.541,62.011z"/>
	<path fill="#F2F2F2" d="M80.355,80.3c-1.28-1.299-2.47-2.502-3.652-3.715c-0.252-0.261-0.505-0.53-0.698-0.836
		c-0.442-0.709-0.334-1.606,0.227-2.195c0.548-0.574,1.45-0.712,2.149-0.298c0.255,0.153,0.491,0.355,0.703,0.568
		c1.6,1.615,3.199,3.233,4.786,4.865c1.075,1.104,1.076,2.067,0.003,3.173c-1.67,1.717-3.357,3.417-5.038,5.125
		c-0.55,0.56-1.267,0.923-1.949,0.55c-0.52-0.279-1.108-0.904-1.168-1.435c-0.064-0.58,0.305-1.353,0.723-1.824
		C77.652,82.924,78.982,81.679,80.355,80.3z"/>
	<path fill="#F2F2F2" d="M33.831,43.532c1.023-0.013,1.792,0.722,1.815,1.743c0.028,1.036-0.799,1.906-1.796,1.895
		c-0.953-0.01-1.789-0.861-1.797-1.828C32.044,44.354,32.84,43.545,33.831,43.532z"/>
	<path fill="#F2F2F2" d="M37.829,34.827c-0.358,0.9-0.586,1.886-1.102,2.682c-0.933,1.441-2.368,2.243-4.09,2.323
		c-1.621,0.077-3.262,0.122-4.874-0.038c-2.895-0.286-4.865-2.535-4.983-5.51c1.224,0,2.447,0,3.675,0
		c0.486,1.53,0.916,1.838,2.582,1.838c0.999,0,2,0.007,3.001-0.001c1.19-0.012,2.034-0.816,2.018-1.91
		c-0.014-1.069-0.848-1.836-2.013-1.858c-1.488-0.027-2.994,0.065-4.462-0.122c-2.336-0.295-3.891-1.701-4.558-3.947
		c-0.658-2.204-0.072-4.144,1.586-5.734c1.036-0.992,2.316-1.466,3.735-1.485c1.528-0.021,3.066-0.052,4.583,0.089
		c2.443,0.225,4.437,2.219,4.802,4.625c0.017,0.114,0.065,0.223,0.099,0.334c0,0.197,0,0.392,0,0.588c-1.25,0-2.496,0-3.73,0
		c-0.295-1.382-0.909-1.882-2.258-1.883c-1.078-0.001-2.156-0.005-3.234,0c-1.241,0.009-2.091,0.794-2.079,1.907
		c0.014,1.088,0.856,1.853,2.065,1.861c1.136,0.007,2.274-0.009,3.411,0.003c1.938,0.021,3.531,0.755,4.719,2.317
		c0.618,0.814,0.895,1.766,1.107,2.745C37.829,34.042,37.829,34.436,37.829,34.827z"/>
</g>
<g>
</g>
<g>
</g>
<g>
</g>
<g>
</g>
<g>
</g>
<g>
</g>
</svg>
