<?xml version="1.0" encoding="utf-8"?>
<!-- Generator: Adobe Illustrator 16.0.3, SVG Export Plug-In . SVG Version: 6.00 Build 0)  -->
<!DOCTYPE svg PUBLIC "-//W3C//DTD SVG 1.1//EN" "http://www.w3.org/Graphics/SVG/1.1/DTD/svg11.dtd">
<svg version="1.1" id="Capa_1" xmlns="http://www.w3.org/2000/svg" xmlns:xlink="http://www.w3.org/1999/xlink" x="0px" y="0px"
	 width="140px" height="140px" viewBox="0 0 140 140" enable-background="new 0 0 140 140" xml:space="preserve">
<g opacity="0.8">
	<path fill="#00A0C6" d="M29.679,6.214c22.634,0,45.268,0,67.901,0c0.523,0.425,1.09,0.802,1.563,1.278
		c7.588,7.698,15.156,15.415,22.758,23.102c0.851,0.858,1.226,1.771,1.223,2.997c-0.021,31.121-0.021,62.243,0.005,93.363
		c0.003,1.489-0.433,2.569-1.721,3.272c-30.575,0-61.15,0-91.728,0c-1.473-0.572-1.916-1.717-1.914-3.246
		c0.02-20.256,0.015-40.511,0.015-60.763c0-0.506,0-1.014,0-1.598c-0.609,0-1.041,0-1.473,0c-5.198,0-10.397,0.011-15.596-0.001
		c-4.919-0.012-7.946-3.084-7.951-8.071c-0.007-9.117-0.003-18.237,0-27.354c0.005-5.11,3.045-8.179,8.107-8.184
		c5.197-0.008,10.397-0.002,15.597-0.002c0.415,0,0.833,0,1.315,0c0-4.004,0.025-7.834-0.015-11.661
		C27.751,7.843,28.271,6.77,29.679,6.214z M118.238,125.327c0-30.056,0-60.018,0-90.039c-0.529,0-0.963,0-1.399,0
		c-6.351,0-12.703,0.003-19.056-0.001c-2.489,0-3.276-0.804-3.277-3.341c-0.004-6.5-0.004-12.999-0.004-19.499
		c0-0.429,0-0.857,0-1.304c-20.718,0-41.296,0-61.861,0c0,3.328,0,6.571,0,9.863c6.367,0,12.639-0.004,18.911,0
		c5.154,0.005,8.158,3.039,8.159,8.247c0.003,9.044,0.001,18.084-0.001,27.128c0,0.524,0,1.052-0.053,1.572
		c-0.359,3.629-3.382,6.535-6.894,6.642c-1.511,0.048-2.535-0.77-2.687-2.142c-0.141-1.292,0.649-2.286,2.084-2.624
		c2.318-0.548,2.788-1.142,2.788-3.572c0-8.961,0-17.922,0-26.883c0-2.654-0.872-3.521-3.526-3.521
		c-13.46-0.002-26.919-0.002-40.38,0c-2.642,0-3.515,0.88-3.515,3.539c-0.003,8.962-0.003,17.924,0,26.884
		c0,2.627,0.842,3.494,3.416,3.494c7.148,0.001,14.294-0.001,21.44,0.007c0.512,0,1.038,0.026,1.533,0.146
		c1.219,0.295,1.875,1.243,1.787,2.481c-0.085,1.153-0.857,1.986-2.039,2.176c-0.339,0.055-0.684,0.08-1.051,0.121
		c0,20.242,0,40.402,0,60.626C61.169,125.327,89.659,125.327,118.238,125.327z M114.249,30.379
		c-4.923-5.016-9.995-10.185-14.917-15.194c0,4.836,0,9.983,0,15.194C104.488,30.379,109.583,30.379,114.249,30.379z"/>
	<path fill="#00A0C6" d="M82.584,83.982c-7.579,0-15.157,0-22.735-0.002c-0.357,0-0.715,0.017-1.071-0.01
		c-1.335-0.103-2.288-1.02-2.369-2.268c-0.082-1.21,0.809-2.28,2.117-2.508c0.389-0.065,0.791-0.057,1.186-0.059
		c15.274-0.003,30.55-0.003,45.827,0.004c0.51,0.002,1.038,0.034,1.523,0.164c1.133,0.305,1.795,1.293,1.715,2.438
		c-0.071,1.084-0.829,1.968-1.916,2.165c-0.465,0.085-0.95,0.068-1.424,0.07C97.818,83.982,90.202,83.982,82.584,83.982z"/>
	<path fill="#00A0C6" d="M68.259,113.042c-7.578,0-15.156,0.003-22.735,0c-0.435,0-0.877,0.019-1.305-0.042
		c-1.189-0.173-2.052-1.117-2.115-2.27c-0.062-1.116,0.742-2.17,1.913-2.432c0.418-0.094,0.863-0.104,1.297-0.104
		c15.315-0.006,30.629-0.006,45.948,0.004c0.471,0,0.959,0.015,1.412,0.126c1.127,0.272,1.85,1.253,1.814,2.372
		c-0.033,1.113-0.823,2.061-1.951,2.273c-0.423,0.08-0.868,0.067-1.305,0.067C83.577,113.045,75.918,113.042,68.259,113.042z"/>
	<path fill="#00A0C6" d="M75.425,93.675c-5.435,0-10.869,0.015-16.299-0.007c-1.955-0.007-3.189-1.475-2.539-3.094
		c0.252-0.622,0.908-1.166,1.509-1.526c0.43-0.26,1.073-0.208,1.624-0.208c10.468-0.011,20.938-0.008,31.408-0.008
		c2.231,0,3.399,0.87,3.358,2.494c-0.039,1.578-1.135,2.349-3.358,2.349C85.895,93.677,80.658,93.677,75.425,93.675z"/>
	<path fill="#00A0C6" d="M75.496,103.365c-5.275,0-10.548,0-15.825-0.006c-0.435,0-0.875,0.016-1.303-0.061
		c-1.099-0.191-1.928-1.171-1.969-2.267c-0.038-1.034,0.678-2.052,1.722-2.332c0.488-0.136,1.015-0.175,1.524-0.175
		c10.551-0.01,21.098-0.01,31.648,0c0.51,0,1.036,0.045,1.525,0.182c1.051,0.293,1.714,1.277,1.666,2.355
		c-0.047,1.078-0.799,2.008-1.86,2.219c-0.463,0.09-0.946,0.076-1.419,0.076C85.968,103.367,80.73,103.365,75.496,103.365z"/>
	<path fill="#00A0C6" d="M26.335,40.666c0,2.421,0.07,4.842-0.013,7.257c-0.135,3.82-3.057,6.784-6.75,6.968
		c-3.709,0.188-6.872-2.462-7.43-6.225c-0.271-1.816,0.443-3.047,1.928-3.321c1.393-0.258,2.408,0.638,2.763,2.439
		c0.304,1.522,1.305,2.392,2.599,2.257c1.318-0.135,2.139-1.134,2.147-2.72c0.018-4.315,0.006-8.629,0.006-12.942
		c0-0.322-0.01-0.645,0.002-0.968c0.064-1.633,1.079-2.75,2.446-2.707c1.346,0.043,2.29,1.109,2.31,2.707
		c0.026,2.418,0.006,4.837,0.006,7.254C26.345,40.666,26.342,40.666,26.335,40.666z"/>
	<path fill="#00A0C6" d="M46.367,84.102c1.722,1.738,3.43,3.355,5.002,5.104c0.542,0.599,1.04,1.519,1.038,2.291
		c-0.005,1.823-2.069,2.764-3.59,1.76c-0.264-0.175-0.51-0.387-0.73-0.61c-2.137-2.162-4.277-4.316-6.394-6.502
		c-1.376-1.42-1.376-2.674-0.002-4.096c2.174-2.24,4.36-4.463,6.562-6.671c1.247-1.251,2.66-1.353,3.678-0.313
		c1,1.019,0.888,2.49-0.327,3.74C49.905,80.552,48.182,82.27,46.367,84.102z"/>
	<path fill="#00A0C6" d="M104.131,108.213c-1.686-1.712-3.255-3.299-4.813-4.896c-0.332-0.344-0.67-0.698-0.922-1.103
		c-0.584-0.937-0.439-2.116,0.301-2.894c0.721-0.758,1.91-0.938,2.832-0.394c0.338,0.201,0.647,0.468,0.927,0.749
		c2.112,2.131,4.218,4.262,6.308,6.413c1.422,1.457,1.424,2.726,0.006,4.183c-2.201,2.266-4.427,4.508-6.642,6.76
		c-0.726,0.736-1.669,1.216-2.569,0.726c-0.682-0.366-1.461-1.192-1.539-1.893c-0.088-0.765,0.4-1.784,0.951-2.404
		C100.566,111.673,102.322,110.031,104.131,108.213z"/>
	<path fill="#00A0C6" d="M42.794,59.741c1.35-0.017,2.363,0.952,2.395,2.296c0.035,1.367-1.053,2.514-2.368,2.498
		c-1.257-0.013-2.359-1.135-2.37-2.41C40.44,60.825,41.489,59.757,42.794,59.741z"/>
	<path fill="#00A0C6" d="M48.066,48.263c-0.47,1.187-0.771,2.487-1.453,3.535c-1.227,1.899-3.12,2.957-5.389,3.063
		c-2.139,0.103-4.302,0.161-6.427-0.049c-3.816-0.376-6.414-3.34-6.569-7.263c1.612,0,3.226,0,4.845,0
		c0.641,2.017,1.207,2.422,3.404,2.422c1.316,0,2.637,0.009,3.958-0.002c1.569-0.017,2.682-1.076,2.658-2.517
		c-0.018-1.41-1.117-2.42-2.653-2.451c-1.963-0.036-3.949,0.085-5.883-0.16c-3.082-0.389-5.13-2.242-6.009-5.204
		c-0.867-2.905-0.095-5.463,2.09-7.558c1.366-1.309,3.055-1.934,4.925-1.958c2.014-0.027,4.043-0.067,6.043,0.117
		c3.221,0.295,5.85,2.926,6.329,6.098c0.023,0.148,0.086,0.293,0.13,0.44c0,0.259,0,0.517,0,0.775c-1.646,0-3.29,0-4.917,0
		c-0.389-1.822-1.199-2.481-2.979-2.484c-1.42-0.002-2.841-0.006-4.262,0c-1.636,0.013-2.756,1.048-2.741,2.513
		c0.018,1.435,1.129,2.444,2.723,2.456c1.498,0.008,2.999-0.012,4.497,0.003c2.554,0.028,4.654,0.995,6.22,3.055
		c0.815,1.074,1.18,2.328,1.459,3.619C48.066,47.228,48.066,47.746,48.066,48.263z"/>
</g>
<g opacity="0.6">
	<path fill="#FF0000" d="M37.289,4.554c22.634,0,45.266,0,67.9,0c0.521,0.425,1.09,0.8,1.561,1.278
		c7.59,7.698,15.159,15.415,22.759,23.1c0.853,0.86,1.226,1.773,1.222,2.999c-0.02,31.12-0.021,62.242,0.006,93.363
		c0.002,1.488-0.432,2.571-1.721,3.272c-30.576,0-61.148,0-91.726,0c-1.476-0.573-1.917-1.717-1.917-3.248
		c0.022-20.254,0.015-40.51,0.015-60.76c0-0.506,0-1.014,0-1.598c-0.609,0-1.041,0-1.471,0c-5.198,0-10.398,0.011-15.596-0.001
		c-4.919-0.013-7.948-3.085-7.951-8.073c-0.008-9.115-0.005-18.235,0-27.354c0.003-5.11,3.043-8.178,8.105-8.183
		c5.199-0.008,10.397-0.002,15.596-0.002c0.418,0,0.836,0,1.316,0c0-4.006,0.023-7.834-0.015-11.662
		C35.359,6.183,35.879,5.109,37.289,4.554z M125.848,123.666c0-30.057,0-60.017,0-90.039c-0.531,0-0.964,0-1.398,0
		c-6.354,0-12.705,0.002-19.057-0.001c-2.488,0-3.275-0.804-3.279-3.342c-0.002-6.498-0.002-12.997-0.002-19.498
		c0-0.428,0-0.856,0-1.305c-20.719,0-41.297,0-61.86,0c0,3.328,0,6.572,0,9.865c6.364,0,12.637-0.004,18.91,0
		c5.155,0.005,8.157,3.039,8.159,8.248c0.003,9.043,0.001,18.085-0.001,27.128c0,0.522,0,1.05-0.053,1.572
		c-0.359,3.629-3.381,6.535-6.894,6.641c-1.509,0.046-2.535-0.77-2.685-2.142c-0.143-1.292,0.647-2.287,2.082-2.625
		c2.317-0.546,2.787-1.142,2.787-3.571c0-8.962,0-17.922,0-26.884c0-2.653-0.87-3.521-3.524-3.521
		c-13.462-0.003-26.921-0.003-40.381,0c-2.642,0-3.515,0.88-3.515,3.54c-0.002,8.961-0.002,17.922,0,26.883
		c0,2.628,0.842,3.495,3.416,3.495c7.149,0.001,14.295-0.002,21.441,0.006c0.512,0,1.038,0.027,1.531,0.146
		c1.22,0.296,1.873,1.243,1.786,2.481c-0.083,1.153-0.855,1.985-2.039,2.174c-0.339,0.057-0.684,0.082-1.051,0.122
		c0,20.243,0,40.404,0,60.625C68.775,123.666,97.27,123.666,125.848,123.666z M121.855,28.717
		c-4.922-5.014-9.994-10.183-14.916-15.192c0,4.836,0,9.982,0,15.192C112.098,28.717,117.191,28.717,121.855,28.717z"/>
	<path fill="#FF0000" d="M90.191,82.323c-7.58,0-15.155,0-22.735-0.003c-0.357,0-0.715,0.016-1.069-0.012
		c-1.335-0.102-2.29-1.018-2.371-2.266c-0.083-1.21,0.807-2.279,2.119-2.508c0.387-0.064,0.789-0.057,1.184-0.059
		c15.275-0.002,30.552-0.002,45.828,0.004c0.512,0.002,1.037,0.035,1.524,0.166c1.134,0.304,1.795,1.293,1.716,2.438
		c-0.074,1.083-0.83,1.968-1.919,2.166c-0.465,0.084-0.948,0.066-1.423,0.07C105.428,82.323,97.811,82.323,90.191,82.323z"/>
	<path fill="#FF0000" d="M75.868,111.382c-7.58,0-15.155,0.003-22.737,0c-0.435,0-0.875,0.019-1.305-0.043
		c-1.189-0.172-2.054-1.116-2.116-2.269c-0.061-1.118,0.742-2.17,1.913-2.432c0.42-0.095,0.863-0.104,1.296-0.104
		c15.316-0.005,30.63-0.005,45.949,0.003c0.47,0,0.958,0.015,1.411,0.126c1.127,0.273,1.85,1.254,1.813,2.372
		c-0.032,1.114-0.823,2.06-1.948,2.274c-0.426,0.08-0.871,0.066-1.306,0.066C91.186,111.385,83.525,111.382,75.868,111.382z"/>
	<path fill="#FF0000" d="M83.032,92.016c-5.435,0-10.868,0.014-16.299-0.01c-1.953-0.005-3.191-1.473-2.539-3.092
		c0.252-0.622,0.91-1.167,1.511-1.525c0.43-0.261,1.072-0.209,1.622-0.209c10.47-0.011,20.938-0.009,31.409-0.009
		c2.231,0,3.4,0.87,3.357,2.495c-0.039,1.579-1.136,2.35-3.357,2.35C93.501,92.018,88.266,92.018,83.032,92.016z"/>
	<path fill="#FF0000" d="M83.104,101.704c-5.272,0-10.545,0-15.822-0.005c-0.435,0-0.878,0.014-1.304-0.063
		c-1.099-0.189-1.929-1.169-1.971-2.266c-0.038-1.033,0.677-2.053,1.722-2.333c0.488-0.134,1.016-0.174,1.524-0.174
		c10.551-0.009,21.1-0.009,31.65,0c0.51,0,1.033,0.046,1.523,0.182c1.051,0.293,1.715,1.278,1.667,2.356
		c-0.049,1.078-0.799,2.008-1.86,2.218c-0.463,0.09-0.947,0.078-1.422,0.078C93.575,101.706,88.341,101.704,83.104,101.704z"/>
	<path fill="#FF0000" d="M33.943,39.005c0,2.421,0.071,4.841-0.013,7.257c-0.136,3.819-3.057,6.783-6.75,6.968
		c-3.708,0.188-6.871-2.462-7.43-6.226c-0.271-1.817,0.445-3.046,1.929-3.321c1.392-0.258,2.408,0.639,2.763,2.44
		c0.302,1.521,1.303,2.389,2.598,2.256c1.318-0.136,2.139-1.134,2.146-2.72c0.018-4.315,0.006-8.628,0.006-12.941
		c0-0.321-0.008-0.645,0.003-0.967c0.065-1.634,1.076-2.753,2.444-2.707c1.347,0.043,2.29,1.109,2.31,2.707
		c0.028,2.417,0.007,4.835,0.007,7.253C33.951,39.005,33.949,39.005,33.943,39.005z"/>
	<path fill="#FF0000" d="M53.977,82.441c1.72,1.738,3.427,3.354,5.001,5.104c0.542,0.602,1.04,1.52,1.038,2.291
		c-0.005,1.823-2.069,2.766-3.588,1.762c-0.266-0.176-0.511-0.387-0.732-0.611c-2.137-2.161-4.277-4.318-6.392-6.502
		c-1.378-1.422-1.378-2.676-0.002-4.098c2.172-2.238,4.36-4.462,6.562-6.669c1.247-1.252,2.658-1.352,3.676-0.313
		c1,1.019,0.889,2.49-0.327,3.74C57.513,78.891,55.792,80.607,53.977,82.441z"/>
	<path fill="#FF0000" d="M111.738,106.551c-1.684-1.712-3.254-3.297-4.813-4.896c-0.329-0.344-0.667-0.698-0.92-1.102
		c-0.584-0.937-0.442-2.117,0.3-2.893c0.721-0.76,1.912-0.939,2.834-0.395c0.336,0.201,0.647,0.467,0.926,0.75
		c2.108,2.129,4.219,4.26,6.309,6.412c1.418,1.457,1.422,2.725,0.005,4.182c-2.201,2.266-4.426,4.508-6.642,6.759
		c-0.725,0.739-1.668,1.217-2.571,0.728c-0.681-0.369-1.458-1.193-1.539-1.893c-0.085-0.766,0.401-1.784,0.953-2.405
		C108.175,110.014,109.932,108.369,111.738,106.551z"/>
	<path fill="#FF0000" d="M50.403,58.08c1.35-0.018,2.363,0.953,2.393,2.295c0.037,1.369-1.053,2.515-2.368,2.498
		c-1.257-0.011-2.359-1.134-2.368-2.409C48.049,59.163,49.097,58.095,50.403,58.08z"/>
	<path fill="#FF0000" d="M55.675,46.603c-0.472,1.186-0.772,2.486-1.453,3.535c-1.23,1.899-3.121,2.957-5.391,3.063
		c-2.139,0.103-4.302,0.161-6.427-0.049c-3.817-0.377-6.412-3.34-6.568-7.263c1.614,0,3.226,0,4.847,0
		c0.639,2.017,1.207,2.422,3.402,2.422c1.318,0,2.637,0.009,3.957-0.001c1.57-0.017,2.683-1.076,2.66-2.519
		c-0.018-1.408-1.116-2.421-2.651-2.449c-1.963-0.036-3.949,0.084-5.883-0.16c-3.083-0.391-5.13-2.242-6.011-5.205
		c-0.867-2.905-0.094-5.463,2.092-7.559c1.365-1.308,3.053-1.933,4.923-1.958c2.014-0.026,4.043-0.066,6.042,0.118
		c3.225,0.295,5.851,2.926,6.331,6.098c0.023,0.149,0.084,0.293,0.131,0.44c0,0.259,0,0.515,0,0.775c-1.647,0-3.291,0-4.917,0
		c-0.389-1.823-1.199-2.481-2.98-2.483c-1.419-0.003-2.841-0.006-4.262,0c-1.634,0.01-2.756,1.046-2.739,2.512
		c0.017,1.436,1.125,2.444,2.721,2.455c1.498,0.008,2.997-0.011,4.496,0.004c2.556,0.027,4.656,0.995,6.222,3.055
		c0.815,1.073,1.18,2.327,1.459,3.618C55.675,45.568,55.675,46.087,55.675,46.603z"/>
</g>
<g>
	<path fill="#FFFFFF" d="M33.015,4.554c22.634,0,45.266,0,67.899,0c0.523,0.425,1.09,0.8,1.563,1.278
		c7.588,7.698,15.157,15.415,22.76,23.1c0.851,0.86,1.224,1.773,1.221,2.999c-0.021,31.12-0.021,62.242,0.005,93.363
		c0.003,1.488-0.433,2.571-1.721,3.272c-30.575,0-61.15,0-91.726,0c-1.475-0.573-1.918-1.717-1.915-3.248
		c0.02-20.254,0.013-40.51,0.013-60.76c0-0.506,0-1.014,0-1.598c-0.609,0-1.041,0-1.471,0c-5.2,0-10.399,0.011-15.596-0.001
		c-4.921-0.013-7.948-3.085-7.952-8.073c-0.008-9.115-0.005-18.235,0-27.354c0.003-5.11,3.045-8.178,8.106-8.183
		c5.197-0.008,10.397-0.002,15.597-0.002c0.417,0,0.833,0,1.315,0c0-4.006,0.025-7.834-0.013-11.662
		C31.085,6.183,31.605,5.109,33.015,4.554z M121.572,123.666c0-30.057,0-60.017,0-90.039c-0.529,0-0.963,0-1.397,0
		c-6.353,0-12.704,0.002-19.058-0.001c-2.487,0-3.274-0.804-3.277-3.342c-0.002-6.498-0.002-12.997-0.002-19.498
		c0-0.428,0-0.856,0-1.305c-20.718,0-41.298,0-61.861,0c0,3.328,0,6.572,0,9.865c6.366,0,12.637-0.004,18.912,0
		c5.152,0.005,8.155,3.039,8.157,8.248c0.003,9.043,0.003,18.085-0.001,27.128c0,0.522,0,1.05-0.053,1.572
		c-0.358,3.629-3.38,6.535-6.892,6.641c-1.513,0.046-2.537-0.77-2.687-2.142c-0.143-1.292,0.647-2.287,2.082-2.625
		c2.318-0.546,2.788-1.142,2.788-3.571c0-8.962,0-17.922,0-26.884c0-2.653-0.87-3.521-3.526-3.521
		c-13.46-0.003-26.919-0.003-40.38,0c-2.642,0-3.515,0.88-3.515,3.54c-0.003,8.961-0.003,17.922,0,26.883
		c0,2.628,0.842,3.495,3.416,3.495c7.149,0.001,14.295-0.002,21.44,0.006c0.513,0,1.04,0.027,1.533,0.146
		c1.22,0.296,1.875,1.243,1.787,2.481c-0.085,1.153-0.857,1.985-2.039,2.174c-0.339,0.057-0.684,0.082-1.051,0.122
		c0,20.243,0,40.404,0,60.625C64.503,123.666,92.994,123.666,121.572,123.666z M117.583,28.717
		c-4.923-5.014-9.995-10.183-14.915-15.192c0,4.836,0,9.982,0,15.192C107.825,28.717,112.917,28.717,117.583,28.717z"/>
	<path fill="#FFFFFF" d="M85.918,82.323c-7.578,0-15.156,0-22.735-0.003c-0.357,0-0.715,0.016-1.069-0.012
		c-1.337-0.102-2.29-1.018-2.371-2.266c-0.082-1.21,0.809-2.279,2.118-2.508c0.388-0.064,0.789-0.057,1.184-0.059
		c15.275-0.002,30.553-0.002,45.827,0.004c0.51,0.002,1.038,0.035,1.526,0.166c1.133,0.304,1.793,1.293,1.713,2.438
		c-0.071,1.083-0.83,1.968-1.918,2.166c-0.465,0.084-0.947,0.066-1.422,0.07C101.152,82.323,93.536,82.323,85.918,82.323z"/>
	<path fill="#FFFFFF" d="M71.594,111.382c-7.579,0-15.157,0.003-22.734,0c-0.435,0-0.878,0.019-1.307-0.043
		c-1.189-0.172-2.052-1.116-2.115-2.269c-0.062-1.118,0.742-2.17,1.913-2.432c0.418-0.095,0.863-0.104,1.297-0.104
		c15.316-0.005,30.629-0.005,45.948,0.003c0.471,0,0.959,0.015,1.412,0.126c1.127,0.273,1.85,1.254,1.814,2.372
		c-0.033,1.114-0.823,2.06-1.951,2.274c-0.423,0.08-0.866,0.066-1.303,0.066C86.911,111.385,79.254,111.382,71.594,111.382z"/>
	<path fill="#FFFFFF" d="M78.759,92.016c-5.435,0-10.869,0.014-16.3-0.01c-1.954-0.005-3.189-1.473-2.538-3.092
		c0.254-0.622,0.909-1.167,1.509-1.525c0.432-0.261,1.074-0.209,1.624-0.209c10.469-0.011,20.939-0.009,31.409-0.009
		c2.23,0,3.4,0.87,3.359,2.495c-0.04,1.579-1.137,2.35-3.359,2.35C89.229,92.018,83.992,92.018,78.759,92.016z"/>
	<path fill="#FFFFFF" d="M78.832,101.704c-5.275,0-10.548,0-15.825-0.005c-0.437,0-0.876,0.014-1.305-0.063
		c-1.097-0.189-1.927-1.169-1.969-2.266c-0.038-1.033,0.678-2.053,1.722-2.333c0.49-0.134,1.016-0.174,1.524-0.174
		c10.552-0.009,21.1-0.009,31.649,0c0.511,0,1.035,0.046,1.524,0.182c1.051,0.293,1.714,1.278,1.666,2.356
		c-0.045,1.078-0.797,2.008-1.858,2.218c-0.463,0.09-0.948,0.078-1.421,0.078C89.302,101.706,84.066,101.704,78.832,101.704z"/>
	<path fill="#FFFFFF" d="M29.669,39.005c0,2.421,0.07,4.841-0.013,7.257c-0.135,3.819-3.057,6.783-6.75,6.968
		c-3.709,0.188-6.871-2.462-7.43-6.226c-0.271-1.817,0.443-3.046,1.928-3.321c1.393-0.258,2.408,0.639,2.765,2.44
		c0.302,1.521,1.303,2.389,2.599,2.256c1.316-0.136,2.138-1.134,2.145-2.72c0.018-4.315,0.006-8.628,0.006-12.941
		c0-0.321-0.01-0.645,0.002-0.967c0.066-1.634,1.079-2.753,2.446-2.707c1.346,0.043,2.29,1.109,2.31,2.707
		c0.026,2.417,0.008,4.835,0.008,7.253C29.679,39.005,29.676,39.005,29.669,39.005z"/>
	<path fill="#FFFFFF" d="M49.703,82.441c1.72,1.738,3.429,3.354,5.001,5.104c0.542,0.602,1.04,1.52,1.038,2.291
		c-0.005,1.823-2.069,2.766-3.59,1.762c-0.264-0.176-0.51-0.387-0.729-0.611c-2.139-2.161-4.277-4.318-6.394-6.502
		c-1.378-1.422-1.378-2.676-0.001-4.098c2.172-2.238,4.36-4.462,6.562-6.669c1.247-1.252,2.658-1.352,3.676-0.313
		c1,1.019,0.89,2.49-0.327,3.74C53.241,78.891,51.516,80.607,49.703,82.441z"/>
	<path fill="#FFFFFF" d="M107.466,106.551c-1.687-1.712-3.256-3.297-4.813-4.896c-0.332-0.344-0.668-0.698-0.92-1.102
		c-0.586-0.937-0.441-2.117,0.301-2.893c0.719-0.76,1.91-0.939,2.832-0.395c0.336,0.201,0.646,0.467,0.925,0.75
		c2.112,2.129,4.219,4.26,6.31,6.412c1.42,1.457,1.422,2.725,0.006,4.182c-2.201,2.266-4.428,4.508-6.643,6.759
		c-0.727,0.739-1.67,1.217-2.57,0.728c-0.682-0.369-1.461-1.193-1.539-1.893c-0.086-0.766,0.4-1.784,0.951-2.405
		C103.9,110.014,105.656,108.369,107.466,106.551z"/>
	<path fill="#FFFFFF" d="M46.13,58.08c1.348-0.018,2.361,0.953,2.394,2.295c0.035,1.369-1.054,2.515-2.369,2.498
		c-1.257-0.011-2.359-1.134-2.368-2.409C43.774,59.163,44.823,58.095,46.13,58.08z"/>
	<path fill="#FFFFFF" d="M51.4,46.603c-0.47,1.186-0.771,2.486-1.451,3.535c-1.229,1.899-3.122,2.957-5.391,3.063
		c-2.139,0.103-4.301,0.161-6.427-0.049c-3.816-0.377-6.413-3.34-6.568-7.263c1.612,0,3.226,0,4.846,0
		c0.639,2.017,1.207,2.422,3.402,2.422c1.316,0,2.638,0.009,3.958-0.001c1.569-0.017,2.682-1.076,2.66-2.519
		c-0.019-1.408-1.118-2.421-2.655-2.449c-1.963-0.036-3.947,0.084-5.883-0.16c-3.082-0.391-5.129-2.242-6.009-5.205
		c-0.867-2.905-0.095-5.463,2.092-7.559c1.365-1.308,3.054-1.933,4.925-1.958c2.014-0.026,4.042-0.066,6.042,0.118
		c3.221,0.295,5.85,2.926,6.329,6.098c0.023,0.149,0.086,0.293,0.13,0.44c0,0.259,0,0.515,0,0.775c-1.646,0-3.29,0-4.917,0
		c-0.389-1.823-1.197-2.481-2.979-2.483c-1.42-0.003-2.841-0.006-4.262,0c-1.636,0.01-2.756,1.046-2.741,2.512
		c0.02,1.436,1.129,2.444,2.723,2.455c1.498,0.008,2.999-0.011,4.497,0.004c2.555,0.027,4.655,0.995,6.221,3.055
		c0.813,1.073,1.181,2.327,1.458,3.618C51.4,45.568,51.4,46.087,51.4,46.603z"/>
</g>
</svg>
