<?xml version="1.0" encoding="utf-8"?>
<!-- Generator: Adobe Illustrator 16.0.3, SVG Export Plug-In . SVG Version: 6.00 Build 0)  -->
<!DOCTYPE svg PUBLIC "-//W3C//DTD SVG 1.1//EN" "http://www.w3.org/Graphics/SVG/1.1/DTD/svg11.dtd">
<svg version="1.1" xmlns="http://www.w3.org/2000/svg" xmlns:xlink="http://www.w3.org/1999/xlink" x="0px" y="0px" width="140px"
	 height="140px" viewBox="0 0 140 140" enable-background="new 0 0 140 140" xml:space="preserve">
<g id="Capa_1" display="none">
	<g display="inline" opacity="0.75">
		<path fill="#FF0000" d="M71.396,118.179c-16.421,0-32.836,0.007-49.254,0c-11.887-0.007-18.545-6.655-18.545-18.5
			c-0.001-21.976-0.005-43.954,0-65.935c0.005-11.113,6.836-17.945,18.021-17.952c33.188-0.021,66.373-0.021,99.562,0
			c11.195,0.007,18.014,6.833,18.014,17.952c0.007,22.154,0.007,44.315,0,66.468c0,11.12-6.832,17.944-18.014,17.964
			C104.584,118.195,87.99,118.179,71.396,118.179z M25.933,48.147c0,21.808,0,43.026,0,64.306c30.39,0,60.599,0,90.803,0
			c0-21.413,0-42.659,0-64.183c-0.849,0.643-1.421,1.054-1.97,1.494c-13.526,10.898-27.081,21.771-40.569,32.737
			c-1.975,1.597-3.514,1.753-5.562,0.089C59.63,75.202,50.531,67.934,41.46,60.628C36.399,56.555,31.339,52.492,25.933,48.147z
			 M122.44,112.405c6.392,0.235,11.21-4.324,11.25-10.826c0.122-23.033,0.092-46.069,0.013-69.099
			c-0.013-5.125-2.934-8.921-7.378-10.571c-1.773-0.666-3.086-0.392-4.576,0.818c-15.735,12.805-31.53,25.543-47.304,38.299
			c-2.86,2.319-3.29,2.319-6.121,0.023C52.55,48.297,36.755,35.556,21.011,22.755c-1.463-1.184-2.765-1.529-4.564-0.847
			c-4.755,1.789-7.386,5.758-7.388,11.651c-0.016,22.233-0.016,44.474,0.01,66.717c0,1.392,0.112,2.828,0.429,4.188
			c1.137,4.832,5.766,8.289,10.707,7.854c0-0.995,0-2.036,0-3.067c0-21.536,0-43.066,0.009-64.602c0-0.97-0.051-1.962,0.151-2.896
			c0.431-2.038,2.249-2.833,4.036-1.791c0.829,0.487,1.556,1.151,2.311,1.76C40.663,52.956,54.605,64.189,68.55,75.429
			c0.941,0.748,1.896,1.489,2.857,2.233c12.156-9.793,24.108-19.423,36.063-29.054c3.43-2.764,6.829-5.584,10.331-8.258
			c2.288-1.745,4.366-0.751,4.616,2.064c0.063,0.797,0.027,1.593,0.027,2.388c0,21.443,0,42.888,0,64.336
			C122.44,110.187,122.44,111.225,122.44,112.405z M71.364,56.474c14.352-11.605,28.561-23.092,43.22-34.948
			c-29.032,0-57.421,0-86.443,0C42.778,33.362,56.946,44.81,71.364,56.474z"/>
		<path fill="#FF0000" d="M79.286,87.491c0.788-1.017,1.282-1.954,2.036-2.561c6.153-4.987,12.364-9.908,18.548-14.854
			c1.48-1.19,3.063-1.684,4.386,0c1.289,1.65,0.542,3.099-0.97,4.3c-6.198,4.921-12.337,9.924-18.614,14.763
			c-0.864,0.661-2.394,0.803-3.534,0.633C80.499,89.672,80.021,88.448,79.286,87.491z"/>
		<path fill="#FF0000" d="M108.469,69.146c-0.687-1.026-1.727-1.974-1.977-3.092c-0.34-1.507,1.972-3.439,3.653-3.376
			c1.676,0.069,2.57,0.981,2.602,2.653C112.775,67.035,110.862,68.771,108.469,69.146z"/>
	</g>
	<g display="inline" opacity="0.8">
		<path fill="#00A0C6" d="M69,113.928c-16.421,0-32.836,0.007-49.254,0c-11.887-0.007-18.545-6.655-18.545-18.5
			c-0.001-21.976-0.005-43.954,0-65.935C1.206,18.38,8.037,11.548,19.222,11.541c33.188-0.021,66.373-0.021,99.562,0
			c11.195,0.007,18.014,6.833,18.014,17.952c0.007,22.154,0.007,44.315,0,66.468c0,11.12-6.832,17.944-18.014,17.964
			C102.188,113.944,85.595,113.928,69,113.928z M23.537,43.896c0,21.807,0,43.026,0,64.306c30.39,0,60.599,0,90.803,0
			c0-21.413,0-42.659,0-64.183c-0.849,0.643-1.421,1.054-1.97,1.494C98.844,56.411,85.289,67.284,71.801,78.25
			c-1.975,1.597-3.515,1.753-5.562,0.089c-9.004-7.388-18.104-14.656-27.174-21.961C34.004,52.304,28.943,48.241,23.537,43.896z
			 M120.045,108.154c6.392,0.235,11.21-4.324,11.25-10.826c0.122-23.033,0.092-46.069,0.013-69.099
			c-0.013-5.125-2.934-8.921-7.378-10.571c-1.773-0.666-3.086-0.392-4.576,0.818c-15.735,12.805-31.53,25.543-47.304,38.299
			c-2.861,2.319-3.289,2.319-6.121,0.023C50.154,44.046,34.359,31.305,18.615,18.504c-1.463-1.184-2.765-1.529-4.564-0.847
			c-4.755,1.789-7.386,5.758-7.388,11.651c-0.016,22.233-0.016,44.474,0.01,66.717c0,1.392,0.112,2.828,0.429,4.188
			c1.137,4.832,5.766,8.289,10.707,7.854c0-0.995,0-2.036,0-3.067c0-21.536,0-43.066,0.009-64.602c0-0.97-0.051-1.962,0.151-2.896
			c0.431-2.038,2.249-2.833,4.036-1.791c0.829,0.487,1.556,1.151,2.311,1.76c13.953,11.233,27.895,22.467,41.839,33.706
			c0.941,0.748,1.896,1.489,2.856,2.233c12.157-9.793,24.109-19.423,36.063-29.054c3.43-2.764,6.829-5.584,10.331-8.258
			c2.288-1.745,4.366-0.751,4.616,2.064c0.063,0.797,0.027,1.593,0.027,2.388c0,21.444,0,42.888,0,64.336
			C120.045,105.936,120.045,106.974,120.045,108.154z M68.968,52.223c14.353-11.605,28.562-23.092,43.221-34.948
			c-29.032,0-57.421,0-86.443,0C40.382,29.111,54.551,40.559,68.968,52.223z"/>
		<path fill="#00A0C6" d="M76.891,83.24c0.788-1.017,1.282-1.954,2.036-2.561c6.153-4.987,12.364-9.908,18.548-14.854
			c1.48-1.19,3.063-1.684,4.386,0c1.289,1.649,0.542,3.099-0.97,4.3c-6.198,4.921-12.337,9.924-18.614,14.763
			c-0.864,0.661-2.394,0.803-3.534,0.633C78.104,85.421,77.626,84.197,76.891,83.24z"/>
		<path fill="#00A0C6" d="M106.073,64.895c-0.687-1.027-1.727-1.974-1.977-3.092c-0.34-1.507,1.972-3.439,3.653-3.376
			c1.676,0.069,2.57,0.981,2.602,2.653C110.38,62.784,108.467,64.52,106.073,64.895z"/>
	</g>
	<g display="inline">
		<path d="M70.894,116.104c-16.421,0-32.836,0.007-49.254,0c-11.887-0.007-18.545-6.655-18.545-18.5
			c-0.001-21.976-0.005-43.954,0-65.935c0.005-11.113,6.836-17.945,18.021-17.952c33.188-0.021,66.373-0.021,99.562,0
			c11.195,0.007,18.014,6.833,18.014,17.952c0.007,22.154,0.007,44.315,0,66.468c0,11.12-6.832,17.944-18.014,17.964
			C104.082,116.12,87.488,116.104,70.894,116.104z M25.431,46.072c0,21.807,0,43.026,0,64.306c30.39,0,60.599,0,90.803,0
			c0-21.413,0-42.659,0-64.183c-0.849,0.643-1.421,1.054-1.97,1.494C100.737,58.587,87.183,69.46,73.694,80.426
			c-1.975,1.597-3.514,1.753-5.562,0.089c-9.004-7.388-18.104-14.656-27.174-21.961C35.897,54.479,30.837,50.417,25.431,46.072z
			 M121.938,110.33c6.392,0.235,11.21-4.324,11.25-10.826c0.122-23.033,0.092-46.069,0.013-69.099
			c-0.013-5.125-2.934-8.921-7.378-10.571c-1.773-0.666-3.086-0.392-4.576,0.818c-15.735,12.805-31.53,25.543-47.304,38.299
			c-2.861,2.319-3.29,2.319-6.121,0.023C52.048,46.222,36.253,33.48,20.509,20.68c-1.463-1.184-2.765-1.529-4.564-0.847
			c-4.755,1.789-7.386,5.758-7.388,11.651c-0.016,22.233-0.016,44.474,0.01,66.717c0,1.392,0.112,2.828,0.429,4.188
			c1.137,4.832,5.766,8.289,10.707,7.854c0-0.995,0-2.036,0-3.067c0-21.536,0-43.066,0.009-64.602c0-0.97-0.051-1.962,0.151-2.896
			c0.431-2.038,2.249-2.833,4.036-1.791c0.829,0.487,1.556,1.151,2.311,1.76c13.953,11.233,27.895,22.467,41.839,33.706
			c0.941,0.748,1.896,1.489,2.857,2.233c12.157-9.793,24.109-19.423,36.063-29.054c3.43-2.764,6.829-5.584,10.331-8.258
			c2.288-1.745,4.366-0.751,4.616,2.064c0.063,0.797,0.027,1.593,0.027,2.388c0,21.443,0,42.888,0,64.336
			C121.938,108.111,121.938,109.149,121.938,110.33z M70.862,54.399c14.352-11.605,28.561-23.092,43.22-34.948
			c-29.032,0-57.421,0-86.443,0C42.276,31.287,56.444,42.735,70.862,54.399z"/>
		<path d="M78.784,85.416c0.788-1.017,1.282-1.954,2.036-2.561c6.153-4.987,12.364-9.908,18.548-14.854
			c1.48-1.19,3.063-1.684,4.386,0c1.289,1.65,0.542,3.099-0.97,4.3c-6.198,4.921-12.337,9.924-18.614,14.763
			c-0.864,0.661-2.394,0.803-3.534,0.633C79.997,87.597,79.52,86.373,78.784,85.416z"/>
		<path d="M107.967,67.07c-0.687-1.027-1.727-1.974-1.977-3.092c-0.34-1.507,1.972-3.439,3.653-3.376
			c1.676,0.069,2.57,0.981,2.602,2.653C112.273,64.96,110.36,66.696,107.967,67.07z"/>
	</g>
</g>
<g id="Capa_2" display="none">
	<g display="inline" opacity="0.75">
		<path fill="#00A0C6" d="M65.559,126.754c-9.042,0-18.084,0.021-27.126-0.007c-1.171-0.011-2.355-0.276-3.541-0.408
			C18.408,124.491,6.068,112.35,5.483,95.664C4.798,76.101,4.824,56.478,5.468,36.913C6.023,20.281,18.379,7.858,34.877,6.319
			c8.589-0.791,17.267-0.95,25.896-0.922c11.743,0.035,23.52-0.051,35.192,0.949c17.004,1.446,29.174,14.03,29.723,31.045
			c0.617,19.252,0.617,38.549,0.027,57.8c-0.539,17.013-12.814,29.534-29.727,31.063c-10.09,0.901-20.27,0.924-30.418,1.332
			C65.57,127.313,65.57,127.031,65.559,126.754z M38.748,16.827c-5.053,0.12-9.876,1.468-14.014,4.6
			c-5.434,4.119-8.16,9.851-8.351,16.417c-0.453,15.293-0.524,30.606-0.559,45.903c-0.011,4.584,0.244,9.218,0.992,13.727
			c1.673,10.063,8.714,16.614,18.928,17.812c4.715,0.547,9.488,0.851,14.235,0.851c13.721-0.009,27.444-0.126,41.157-0.417
			c3.119-0.067,6.33-0.686,9.313-1.648c9.133-2.987,13.807-9.926,14.283-19.088c0.721-13.378,0.656-26.792,0.762-40.184
			c0.043-5.548-0.146-11.111-0.635-16.635c-1.154-12.989-9.33-20.868-22.355-21.33c-8.953-0.307-17.926-0.057-26.892-0.057
			C56.666,16.77,47.704,16.619,38.748,16.827z"/>
		<path fill="#00A0C6" d="M65.488,34.948c17.154-0.058,31.254,13.94,31.332,31.077c0.057,17.486-13.92,31.589-31.308,31.568
			c-17.19-0.031-31.159-13.989-31.186-31.186C34.295,49.042,48.182,35.019,65.488,34.948z M65.524,86.662
			c11.232,0.016,20.351-9.174,20.332-20.469c-0.027-11.179-9.111-20.278-20.265-20.3c-11.226-0.015-20.35,9.163-20.315,20.465
			C45.301,77.528,54.388,86.638,65.524,86.662z"/>
		<path fill="#00A0C6" d="M105.373,32.568c-0.023-3.974-3.287-7.237-7.24-7.242c-4.088,0-7.303,3.32-7.234,7.47
			c0.08,4.011,3.359,7.198,7.334,7.114C102.23,39.823,105.398,36.572,105.373,32.568z"/>
	</g>
	<g display="inline" opacity="0.8">
		<path fill="#FF0000" d="M75.331,133.561c-9.042,0-18.084,0.021-27.126-0.007c-1.171-0.011-2.355-0.276-3.541-0.408
			c-16.484-1.848-28.824-13.989-29.409-30.675c-0.685-19.563-0.659-39.186-0.015-58.751c0.555-16.632,12.911-29.055,29.409-30.593
			c8.589-0.791,17.267-0.95,25.896-0.922c11.742,0.035,23.52-0.051,35.192,0.949c17.004,1.446,29.173,14.03,29.722,31.045
			c0.618,19.252,0.618,38.549,0.028,57.8c-0.54,17.013-12.814,29.534-29.727,31.063c-10.09,0.901-20.271,0.924-30.419,1.332
			C75.342,134.119,75.342,133.838,75.331,133.561z M48.52,23.633c-5.053,0.12-9.876,1.468-14.014,4.6
			c-5.434,4.119-8.16,9.851-8.351,16.417c-0.453,15.293-0.524,30.606-0.559,45.903c-0.011,4.584,0.244,9.218,0.992,13.727
			c1.673,10.063,8.714,16.614,18.928,17.812c4.715,0.547,9.488,0.851,14.235,0.851c13.721-0.009,27.444-0.126,41.157-0.417
			c3.119-0.067,6.33-0.686,9.313-1.648c9.132-2.987,13.806-9.926,14.282-19.088c0.721-13.378,0.656-26.792,0.763-40.184
			c0.043-5.548-0.146-11.111-0.636-16.635c-1.154-12.989-9.329-20.868-22.355-21.33c-8.952-0.307-17.926-0.057-26.891-0.057
			C66.438,23.577,57.476,23.425,48.52,23.633z"/>
		<path fill="#FF0000" d="M75.26,41.754c17.154-0.058,31.254,13.94,31.332,31.078c0.057,17.485-13.919,31.589-31.308,31.567
			c-17.19-0.031-31.159-13.989-31.186-31.186C44.067,55.849,57.954,41.826,75.26,41.754z M75.296,93.469
			C86.527,93.484,95.646,84.295,95.627,73c-0.026-11.18-9.11-20.278-20.264-20.301c-11.227-0.015-20.35,9.163-20.315,20.465
			C55.073,84.335,64.16,93.444,75.296,93.469z"/>
		<path fill="#FF0000" d="M115.146,39.375c-0.024-3.974-3.287-7.237-7.241-7.242c-4.087,0-7.303,3.32-7.234,7.47
			c0.081,4.011,3.36,7.198,7.334,7.114C112.002,46.629,115.171,43.379,115.146,39.375z"/>
	</g>
	<g display="inline">
		<path d="M70.888,130.1c-9.042,0-18.084,0.021-27.126-0.007c-1.171-0.011-2.355-0.276-3.541-0.408
			c-16.484-1.848-28.824-13.989-29.409-30.675c-0.685-19.563-0.659-39.186-0.015-58.751c0.555-16.632,12.911-29.055,29.409-30.593
			c8.589-0.791,17.267-0.95,25.896-0.922c11.742,0.035,23.52-0.051,35.192,0.949c17.004,1.446,29.173,14.03,29.722,31.045
			c0.618,19.252,0.618,38.549,0.028,57.8c-0.54,17.013-12.814,29.534-29.727,31.063c-10.09,0.901-20.271,0.924-30.418,1.332
			C70.899,130.658,70.899,130.377,70.888,130.1z M44.076,20.172c-5.053,0.12-9.876,1.468-14.014,4.6
			c-5.434,4.119-8.16,9.851-8.351,16.417c-0.453,15.293-0.524,30.606-0.559,45.903c-0.011,4.584,0.244,9.218,0.992,13.727
			c1.673,10.063,8.714,16.614,18.928,17.812c4.715,0.547,9.488,0.851,14.235,0.851c13.721-0.009,27.444-0.126,41.157-0.417
			c3.119-0.067,6.33-0.686,9.313-1.648c9.132-2.987,13.806-9.926,14.282-19.088c0.721-13.378,0.656-26.792,0.763-40.184
			c0.043-5.548-0.146-11.111-0.636-16.635c-1.154-12.989-9.329-20.868-22.355-21.33c-8.952-0.307-17.926-0.057-26.891-0.057
			C61.994,20.116,53.033,19.964,44.076,20.172z"/>
		<path d="M70.817,38.293c17.154-0.058,31.253,13.94,31.332,31.077c0.057,17.486-13.919,31.589-31.308,31.568
			c-17.19-0.031-31.159-13.989-31.186-31.186C39.624,52.388,53.511,38.365,70.817,38.293z M70.853,90.008
			c11.231,0.016,20.351-9.174,20.331-20.469c-0.026-11.179-9.11-20.278-20.264-20.3c-11.226-0.015-20.35,9.163-20.315,20.465
			C50.629,80.874,59.717,89.983,70.853,90.008z"/>
		<path d="M110.702,35.914c-0.024-3.974-3.287-7.237-7.241-7.242c-4.087,0-7.303,3.32-7.234,7.47
			c0.081,4.011,3.36,7.198,7.334,7.114C107.559,43.168,110.728,39.918,110.702,35.914z"/>
	</g>
</g>
<g id="Capa_3">
	<g opacity="0.8">
		<path fill="#00A0C6" d="M88.421,5.83c0.997,0.777,2.092,1.466,2.982,2.345c7.369,7.321,14.688,14.691,22.068,22.013
			c1.23,1.214,1.828,2.545,1.804,4.29c-0.061,4.965-0.022,9.923-0.022,14.99c-2.629,0-5.215,0-7.926,0c0-3.887,0-7.795,0-11.831
			c-0.581,0-1.02,0-1.466,0c-4.636,0-9.275,0.013-13.91,0c-5.134-0.022-8.479-3.348-8.494-8.462
			c-0.021-4.643-0.007-9.286-0.007-13.915c0-0.449,0-0.894,0-1.471c-0.545,0-0.994,0-1.43,0c-19.077,0-38.159,0-57.244,0
			c-3.49,0-4.932,1.423-4.932,4.87c0,33.854,0,67.716,0,101.573c0,3.399,1.447,4.86,4.816,4.86c8.48,0,16.967,0,25.455,0
			c0.444,0,0.898,0,1.527,0c0,2.696,0,5.318,0,7.951c-9.683,0-19.372,0-29.061,0c-0.15-0.061-0.297-0.153-0.453-0.179
			c-3.068-0.429-5.542-1.889-7.534-4.259c-1.53-1.822-2.207-3.979-2.696-6.252c0-35.272,0-70.55,0-105.834
			c0.07-0.194,0.17-0.377,0.197-0.578c0.446-2.965,1.872-5.372,4.146-7.328c1.833-1.58,4.034-2.284,6.339-2.782
			C44.525,5.83,66.477,5.83,88.421,5.83z"/>
	</g>
	<g opacity="0.8">
		<path fill="#00A0C6" d="M75.579,112.52c-5.935,0-11.602,0-17.375,0c0-18.817,0-37.578,0-56.454c5.473,0,10.954,0,16.666,0
			c0,2.459,0,4.899,0,7.336c0.114,0.021,0.226,0.036,0.322,0.058c0.44-0.606,0.856-1.246,1.316-1.827
			c3.427-4.326,7.991-6.642,13.398-6.946c3.045-0.177,6.222,0.079,9.186,0.747c7.61,1.722,11.367,7.178,12.733,14.449
			c0.602,3.233,0.944,6.57,0.98,9.861c0.129,10.494,0.063,20.982,0.069,31.476c0,0.382,0,0.758,0,1.252c-5.856,0-11.62,0-17.568,0
			c0-0.598,0-1.193,0-1.775c-0.007-9.278,0.035-18.555-0.036-27.841c-0.016-2.015-0.234-4.077-0.649-6.062
			c-0.859-4.083-3.208-6.237-6.967-6.673c-4.916-0.58-8.69,1.023-10.341,4.759c-0.833,1.883-1.445,4.02-1.491,6.046
			c-0.209,9.773-0.187,19.542-0.237,29.321C75.572,110.958,75.579,111.669,75.579,112.52z"/>
		<path fill="#00A0C6" d="M46.832,112.543c-5.779,0-11.457,0-17.27,0c0-18.803,0-37.585,0-56.48c5.713,0,11.426,0,17.27,0
			C46.832,74.823,46.832,93.602,46.832,112.543z"/>
		<path fill="#00A0C6" d="M48.35,38.015c-0.035,5.631-4.683,10.294-10.211,10.207c-5.559-0.074-10.154-4.787-10.103-10.372
			c0.046-5.517,4.658-10.085,10.177-10.09C43.85,27.752,48.381,32.339,48.35,38.015z"/>
	</g>
	<g opacity="0.75">
		<path fill="#FF0000" d="M97.671,5.83c0.997,0.777,2.092,1.466,2.982,2.345c7.369,7.321,14.688,14.691,22.068,22.013
			c1.23,1.214,1.828,2.545,1.804,4.29c-0.061,4.965-0.022,9.923-0.022,14.99c-2.629,0-5.215,0-7.926,0c0-3.887,0-7.795,0-11.831
			c-0.581,0-1.02,0-1.466,0c-4.636,0-9.275,0.013-13.91,0c-5.134-0.022-8.479-3.348-8.494-8.462
			c-0.021-4.643-0.007-9.286-0.007-13.915c0-0.449,0-0.894,0-1.471c-0.545,0-0.994,0-1.43,0c-19.077,0-38.159,0-57.244,0
			c-3.49,0-4.932,1.423-4.932,4.87c0,33.854,0,67.716,0,101.573c0,3.399,1.447,4.86,4.816,4.86c8.48,0,16.967,0,25.455,0
			c0.444,0,0.898,0,1.527,0c0,2.696,0,5.318,0,7.951c-9.683,0-19.372,0-29.061,0c-0.15-0.061-0.297-0.153-0.453-0.179
			c-3.068-0.429-5.542-1.889-7.534-4.259c-1.53-1.822-2.207-3.979-2.696-6.252c0-35.272,0-70.55,0-105.834
			c0.07-0.194,0.17-0.377,0.197-0.578c0.446-2.965,1.872-5.372,4.146-7.328c1.833-1.58,4.034-2.284,6.339-2.782
			C53.775,5.83,75.727,5.83,97.671,5.83z"/>
	</g>
	<g opacity="0.75">
		<path fill="#FF0000" d="M84.829,112.52c-5.935,0-11.602,0-17.375,0c0-18.817,0-37.578,0-56.454c5.473,0,10.954,0,16.666,0
			c0,2.459,0,4.899,0,7.336c0.114,0.021,0.226,0.036,0.322,0.058c0.44-0.606,0.856-1.246,1.316-1.827
			c3.427-4.326,7.991-6.642,13.398-6.946c3.045-0.177,6.222,0.079,9.186,0.747c7.61,1.722,11.367,7.178,12.733,14.449
			c0.602,3.233,0.944,6.57,0.98,9.861c0.129,10.494,0.063,20.982,0.069,31.476c0,0.382,0,0.758,0,1.252c-5.856,0-11.62,0-17.568,0
			c0-0.598,0-1.193,0-1.775c-0.007-9.278,0.035-18.555-0.036-27.841c-0.016-2.015-0.234-4.077-0.649-6.062
			c-0.859-4.083-3.208-6.237-6.967-6.673c-4.916-0.58-8.69,1.023-10.341,4.759c-0.833,1.883-1.445,4.02-1.491,6.046
			c-0.209,9.773-0.187,19.542-0.237,29.321C84.822,110.958,84.829,111.669,84.829,112.52z"/>
		<path fill="#FF0000" d="M56.082,112.543c-5.779,0-11.457,0-17.27,0c0-18.803,0-37.585,0-56.48c5.713,0,11.426,0,17.27,0
			C56.082,74.823,56.082,93.602,56.082,112.543z"/>
		<path fill="#FF0000" d="M57.6,38.015c-0.035,5.631-4.683,10.294-10.211,10.207c-5.559-0.074-10.154-4.787-10.103-10.372
			c0.046-5.517,4.658-10.085,10.177-10.09C53.1,27.752,57.631,32.339,57.6,38.015z"/>
	</g>
	<g>
		<path d="M92.487,5.83c0.997,0.777,2.092,1.466,2.982,2.345c7.369,7.321,14.688,14.691,22.068,22.013
			c1.23,1.214,1.828,2.545,1.804,4.29c-0.061,4.965-0.022,9.923-0.022,14.99c-2.629,0-5.215,0-7.926,0c0-3.887,0-7.795,0-11.831
			c-0.581,0-1.02,0-1.466,0c-4.636,0-9.275,0.013-13.91,0c-5.134-0.022-8.479-3.348-8.494-8.462
			c-0.021-4.643-0.007-9.286-0.007-13.915c0-0.449,0-0.894,0-1.471c-0.545,0-0.994,0-1.43,0c-19.077,0-38.16,0-57.244,0
			c-3.49,0-4.932,1.423-4.932,4.87c0,33.854,0,67.716,0,101.573c0,3.399,1.447,4.86,4.816,4.86c8.479,0,16.967,0,25.455,0
			c0.444,0,0.898,0,1.526,0c0,2.696,0,5.318,0,7.951c-9.682,0-19.372,0-29.061,0c-0.15-0.061-0.297-0.153-0.453-0.179
			c-3.068-0.429-5.542-1.889-7.534-4.259c-1.53-1.822-2.207-3.979-2.696-6.252c0-35.272,0-70.55,0-105.834
			c0.07-0.194,0.17-0.377,0.197-0.578c0.446-2.965,1.872-5.372,4.146-7.328c1.833-1.58,4.034-2.284,6.339-2.782
			C48.592,5.83,70.542,5.83,92.487,5.83z"/>
	</g>
	<g>
		<path d="M79.646,112.52c-5.935,0-11.602,0-17.375,0c0-18.817,0-37.578,0-56.454c5.473,0,10.954,0,16.666,0c0,2.46,0,4.898,0,7.336
			c0.114,0.022,0.226,0.036,0.322,0.058c0.44-0.607,0.856-1.246,1.316-1.827c3.427-4.326,7.991-6.642,13.398-6.946
			c3.045-0.177,6.222,0.079,9.186,0.747c7.61,1.722,11.367,7.177,12.733,14.45c0.602,3.233,0.944,6.57,0.98,9.861
			c0.129,10.494,0.063,20.982,0.069,31.476c0,0.382,0,0.758,0,1.252c-5.856,0-11.62,0-17.568,0c0-0.598,0-1.193,0-1.775
			c-0.007-9.278,0.035-18.555-0.036-27.841c-0.016-2.015-0.234-4.077-0.649-6.062c-0.859-4.083-3.208-6.237-6.967-6.673
			c-4.916-0.58-8.69,1.023-10.341,4.759c-0.833,1.883-1.445,4.02-1.491,6.046c-0.209,9.773-0.187,19.542-0.237,29.321
			C79.639,110.958,79.646,111.669,79.646,112.52z"/>
		<path d="M50.898,112.543c-5.779,0-11.457,0-17.269,0c0-18.803,0-37.585,0-56.48c5.712,0,11.426,0,17.269,0
			C50.898,74.823,50.898,93.602,50.898,112.543z"/>
		<path d="M52.416,38.015c-0.034,5.631-4.682,10.294-10.21,10.207c-5.559-0.074-10.154-4.787-10.103-10.372
			c0.046-5.517,4.658-10.085,10.177-10.09C47.917,27.752,52.447,32.339,52.416,38.015z"/>
	</g>
	<g>
	</g>
	<g>
	</g>
	<g>
	</g>
	<g>
	</g>
	<g>
	</g>
	<g>
	</g>
</g>
</svg>
