<?xml version="1.0" encoding="utf-8"?>
<!-- Generator: Adobe Illustrator 16.0.3, SVG Export Plug-In . SVG Version: 6.00 Build 0)  -->
<!DOCTYPE svg PUBLIC "-//W3C//DTD SVG 1.1//EN" "http://www.w3.org/Graphics/SVG/1.1/DTD/svg11.dtd">
<svg version="1.1" id="Capa_1" xmlns="http://www.w3.org/2000/svg" xmlns:xlink="http://www.w3.org/1999/xlink" x="0px" y="0px"
	 width="140px" height="140px" viewBox="0 0 140 140" enable-background="new 0 0 140 140" xml:space="preserve">
<g opacity="0.8">
	<path fill-rule="evenodd" clip-rule="evenodd" fill="#00A0C6" d="M122.36,39.399c-4.452-2.147-8.875-4.28-13.472-6.497
		c-0.117,0.869-0.204,1.563-0.305,2.254c-0.585,4.038-2.137,7.675-4.652,10.876c-0.558,0.71-0.607,1.221-0.173,2.015
		c2.711,4.955,5.379,9.934,8.02,14.927c0.386,0.73,0.817,0.995,1.651,1.013c12.906,0.284,23.024,10.158,23.375,23.037
		c0.223,8.129-3.164,14.664-9.611,19.609c-0.178,0.137-0.366,0.26-0.559,0.373c-0.07,0.045-0.167,0.047-0.369,0.1
		c-0.04-0.344-0.107-0.67-0.11-0.998c-0.011-1.568-0.001-3.139-0.006-4.709c-0.014-4.678-2.65-7.314-7.36-7.334
		c-3.724-0.016-7.445-0.016-11.168,0.002c-4.695,0.02-7.328,2.67-7.345,7.357c-0.006,1.863-0.001,3.725-0.001,5.588
		c-0.126,0.076-0.25,0.154-0.376,0.23c-1.312-1.172-2.711-2.264-3.909-3.541c-1.217-1.299-2.234-2.783-3.393-4.254
		c-0.189,0.094-0.438,0.178-0.64,0.326c-2.405,1.799-4.792,3.625-7.213,5.402c-0.59,0.434-0.723,0.84-0.585,1.576
		c0.414,2.195,0.66,4.422,1.06,6.619c0.085,0.477,0.437,1.092,0.84,1.293c4.78,2.367,9.586,4.684,14.411,6.957
		c0.382,0.18,1.058,0.115,1.426-0.111c3.331-2.059,6.972-2.068,9.829,0.047c2.888,2.141,4.207,5.686,3.357,9.025
		c-0.899,3.529-3.823,6.035-7.577,6.488c-5.173,0.627-10.02-4.367-9.251-9.541c0.092-0.615,0.255-1.219,0.423-2.012
		c-4.596-2.225-9.216-4.461-14.039-6.795c-1.63,6.016-4.788,10.875-10.165,14.477c0-2.24,0.01-4.238-0.002-6.236
		c-0.024-4.27-2.681-7.004-6.938-7.057c-3.991-0.047-7.983-0.049-11.975,0.002c-4.25,0.053-6.899,2.785-6.943,7.07
		c-0.02,1.955-0.003,3.914-0.003,6.109c-2.522-1.486-4.326-3.373-5.922-5.469c-2.47-3.242-3.924-6.928-4.494-10.947
		c-0.122-0.863-0.429-1.117-1.266-1.105c-3.005,0.041-6.01,0.037-9.014,0.002c-0.777-0.01-1.166,0.211-1.479,0.982
		c-1.672,4.098-5.789,6.244-9.898,5.248c-4.019-0.975-6.953-4.902-6.606-8.842c0.391-4.443,3.677-7.699,8.141-8.066
		c3.382-0.279,6.912,1.916,8.28,5.307c0.376,0.934,0.855,1.172,1.779,1.156c2.914-0.049,5.83-0.039,8.745-0.006
		c0.808,0.01,1.163-0.191,1.289-1.084c1.653-11.682,11.367-20.375,23.107-20.406c8.367-0.021,15.045,3.533,19.85,10.457
		c0.255,0.369,0.498,0.746,0.755,1.113c0.049,0.07,0.132,0.119,0.279,0.246c0.262-0.156,0.572-0.301,0.842-0.502
		c2.336-1.744,4.651-3.516,7.003-5.238c0.618-0.453,0.854-0.852,0.6-1.66c-3.873-12.344,3.507-25.751,16.087-29.324
		c0.336-0.096,0.661-0.23,1.08-0.378c-0.175-0.381-0.304-0.704-0.467-1.007c-2.432-4.545-4.86-9.093-7.316-13.626
		c-0.291-0.54-0.784-0.969-1.082-1.507c-0.312-0.565-0.607-1.18-0.714-1.807c-0.125-0.742-0.01-1.521-0.055-2.282
		c-0.195-3.317-2.681-6.041-6.001-6.153c-4.613-0.155-9.239-0.156-13.853,0.006c-3.253,0.115-5.748,2.799-5.938,6.058
		c-0.107,1.833-0.037,3.676-0.055,5.514c-0.004,0.429-0.043,0.859-0.077,1.508c-2.85-1.757-5.072-3.919-6.622-6.589
		c-1.531-2.639-2.644-5.521-3.993-8.409c-3.102,2.65-6.388,5.457-9.722,8.306c0.61,0.897,1.177,1.691,1.702,2.512
		c1.994,3.119,3.076,6.543,3.487,10.214c0.071,0.635,0.396,1.42,0.872,1.803c3.419,2.76,6.921,5.417,10.362,8.151
		c0.671,0.533,1.139,0.541,1.88,0.102c3.361-1.987,7.617-1.434,10.297,1.249c2.741,2.745,3.347,6.811,1.509,10.151
		c-1.888,3.43-5.701,5.154-9.464,4.275c-3.715-0.863-6.479-4.16-6.603-8.018c-0.032-0.963,0.324-1.933,0.396-2.907
		c0.031-0.418-0.065-1.032-0.345-1.258c-2.759-2.222-5.568-4.381-8.365-6.554c-0.173-0.134-0.366-0.243-0.765-0.503
		c-1.372,6.515-4.63,11.688-10.337,15.588c0-2.256,0.007-4.209-0.002-6.162c-0.019-4.347-2.682-7.09-7.008-7.138
		c-3.946-0.044-7.894-0.044-11.84,0c-4.323,0.048-6.988,2.786-7.019,7.134c-0.014,1.922-0.002,3.846-0.002,5.77
		c-0.116,0.098-0.23,0.193-0.345,0.291c-1.396-1.256-2.945-2.379-4.163-3.787C9.907,68.298,8.159,60.087,11.57,51.19
		c3.285-8.566,9.804-13.465,18.857-14.946c0.69-0.112,1.04-0.288,1.033-1.058c-0.029-3.139-0.041-6.279,0.007-9.418
		c0.013-0.845-0.479-1.015-1.086-1.267c-3.608-1.505-5.748-5.05-5.334-8.779c0.427-3.846,3.298-6.896,7.123-7.566
		c4.211-0.737,8.298,1.821,9.582,5.998c1.261,4.105-0.727,8.532-4.765,10.211c-1.115,0.463-1.328,1.044-1.309,2.089
		c0.052,2.87,0.028,5.741,0.011,8.611c-0.004,0.668,0.121,1.062,0.917,1.165c4.318,0.557,8.204,2.176,11.62,4.895
		c0.172,0.137,0.37,0.24,0.641,0.414c1.503-1.276,3.005-2.544,4.5-3.822c2.284-1.953,4.522-3.96,6.861-5.844
		c0.988-0.796,1.412-1.678,1.554-2.925c1.148-10.051,8.268-18.013,18.096-20.333c12.742-3.007,25.819,5.31,28.409,18.106
		c0.188,0.936,0.579,1.479,1.439,1.885c4.742,2.24,9.448,4.557,14.2,6.774c0.485,0.227,1.325,0.176,1.787-0.102
		c3.193-1.926,7.066-1.853,9.859,0.296c2.874,2.211,4.093,5.873,3.071,9.225c-1.115,3.657-4.083,5.963-7.941,6.173
		c-5.296,0.288-9.702-4.799-8.686-10.034C122.108,40.461,122.229,39.988,122.36,39.399z M113.278,89.785
		c4.741-0.033,8.629-3.988,8.559-8.705c-0.069-4.723-3.902-8.51-8.614-8.512c-4.757-0.002-8.643,3.893-8.619,8.635
		C104.629,85.953,108.538,89.82,113.278,89.785z M52.941,106.908c-0.054,4.738,3.796,8.658,8.553,8.707
		c4.689,0.049,8.573-3.74,8.665-8.453c0.093-4.748-3.711-8.686-8.479-8.777C56.975,98.293,52.994,102.178,52.941,106.908z
		 M85.28,33.818c4.747-0.027,8.618-3.954,8.564-8.691c-0.053-4.72-3.88-8.52-8.593-8.529c-4.749-0.009-8.652,3.888-8.64,8.624
		C76.627,29.956,80.55,33.845,85.28,33.818z M33.595,61.808c4.744-0.016,8.609-3.924,8.577-8.674
		c-0.031-4.714-3.85-8.528-8.563-8.552c-4.746-0.023-8.649,3.859-8.649,8.604C24.96,57.92,28.871,61.824,33.595,61.808z"/>
	<path fill-rule="evenodd" clip-rule="evenodd" fill="#00A0C6" d="M61.532,124.242c1.969,0,3.938-0.027,5.907,0.006
		c1.856,0.031,2.691,0.883,2.71,2.748c0.024,2.506-0.018,5.014,0.021,7.52c0.012,0.697-0.227,1.025-0.88,1.254
		c-5.135,1.779-10.258,1.785-15.4,0.025c-0.722-0.246-0.946-0.635-0.934-1.371c0.038-2.506-0.004-5.012,0.022-7.518
		c0.019-1.789,0.846-2.623,2.646-2.656C57.593,124.213,59.563,124.242,61.532,124.242z"/>
	<path fill-rule="evenodd" clip-rule="evenodd" fill="#00A0C6" d="M33.583,70.443c1.924,0,3.85-0.029,5.772,0.008
		c2.044,0.04,2.812,0.852,2.821,2.91c0.011,2.416-0.034,4.834,0.021,7.248c0.02,0.822-0.279,1.164-1.035,1.41
		c-5.016,1.641-10.016,1.645-15.045,0.055c-0.885-0.279-1.181-0.701-1.157-1.621c0.063-2.416,0.008-4.832,0.026-7.249
		c0.014-1.896,0.78-2.702,2.69-2.749C29.644,70.407,31.613,70.444,33.583,70.443z"/>
	<path fill-rule="evenodd" clip-rule="evenodd" fill="#00A0C6" d="M85.311,42.453c1.927-0.001,3.855-0.033,5.781,0.008
		c1.901,0.041,2.706,0.852,2.728,2.734c0.027,2.509,0.048,5.02-0.032,7.527c-0.014,0.425-0.461,1.077-0.852,1.214
		c-5.124,1.808-10.28,1.809-15.403-0.003c-0.39-0.138-0.829-0.802-0.842-1.233c-0.08-2.551-0.066-5.107-0.028-7.661
		c0.025-1.713,0.844-2.528,2.6-2.572C81.276,42.415,83.295,42.454,85.311,42.453z"/>
	<path fill-rule="evenodd" clip-rule="evenodd" fill="#00A0C6" d="M113.238,98.424c1.927,0,3.853-0.031,5.779,0.008
		c1.972,0.041,2.772,0.859,2.79,2.814c0.021,2.465-0.021,4.93,0.021,7.395c0.012,0.748-0.229,1.107-0.958,1.346
		c-5.112,1.684-10.217,1.713-15.299-0.057c-0.399-0.139-0.873-0.773-0.887-1.193c-0.082-2.551-0.065-5.107-0.033-7.66
		c0.025-1.795,0.826-2.594,2.671-2.641C109.294,98.387,111.267,98.424,113.238,98.424z"/>
	<path fill-rule="evenodd" clip-rule="evenodd" fill="#00A0C6" d="M113.173,76.895c2.33-0.033,4.296,1.926,4.295,4.275
		c-0.002,2.316-1.847,4.221-4.144,4.279c-2.355,0.057-4.313-1.824-4.362-4.195C108.913,78.916,110.835,76.926,113.173,76.895z"/>
	<path fill-rule="evenodd" clip-rule="evenodd" fill="#00A0C6" d="M57.286,106.945c0.029-2.359,1.98-4.236,4.354-4.191
		c2.306,0.045,4.181,1.941,4.189,4.236c0.01,2.336-1.959,4.287-4.299,4.266C59.158,111.232,57.257,109.303,57.286,106.945z"/>
	<path fill-rule="evenodd" clip-rule="evenodd" fill="#00A0C6" d="M89.499,25.256c-0.037,2.359-1.997,4.26-4.347,4.213
		c-2.369-0.048-4.227-1.992-4.175-4.368c0.051-2.303,1.954-4.156,4.265-4.155C87.578,20.946,89.536,22.928,89.499,25.256z"/>
	<path fill-rule="evenodd" clip-rule="evenodd" fill="#00A0C6" d="M33.512,48.914c2.291-0.044,4.305,1.918,4.336,4.226
		c0.032,2.314-1.911,4.299-4.226,4.321c-2.336,0.021-4.293-1.881-4.33-4.21C29.256,50.942,31.187,48.958,33.512,48.914z"/>
</g>
<g opacity="0.8">
	<path fill-rule="evenodd" clip-rule="evenodd" fill="#FF0000" d="M117.36,35.274c-4.452-2.147-8.875-4.28-13.472-6.497
		c-0.117,0.869-0.204,1.563-0.305,2.254c-0.585,4.038-2.137,7.675-4.652,10.876c-0.558,0.71-0.607,1.221-0.173,2.015
		c2.711,4.955,5.379,9.934,8.02,14.927c0.386,0.73,0.817,0.995,1.651,1.013c12.906,0.284,23.024,10.158,23.375,23.037
		c0.223,8.128-3.164,14.663-9.611,19.609c-0.178,0.136-0.366,0.259-0.559,0.373c-0.07,0.045-0.167,0.047-0.369,0.099
		c-0.04-0.343-0.107-0.67-0.11-0.998c-0.011-1.568-0.001-3.139-0.006-4.708c-0.014-4.678-2.65-7.315-7.36-7.334
		c-3.724-0.016-7.445-0.016-11.168,0.001c-4.695,0.021-7.328,2.67-7.345,7.357c-0.006,1.863-0.001,3.726-0.001,5.589
		c-0.126,0.076-0.25,0.153-0.376,0.23c-1.312-1.173-2.711-2.264-3.909-3.542c-1.217-1.299-2.234-2.783-3.393-4.254
		c-0.189,0.095-0.438,0.178-0.64,0.327c-2.405,1.799-4.792,3.625-7.213,5.402c-0.59,0.433-0.723,0.839-0.585,1.575
		c0.414,2.196,0.66,4.422,1.06,6.619c0.085,0.477,0.437,1.093,0.84,1.293c4.78,2.367,9.586,4.684,14.411,6.958
		c0.382,0.18,1.058,0.115,1.426-0.112c3.331-2.059,6.972-2.068,9.829,0.048c2.888,2.14,4.207,5.685,3.357,9.024
		c-0.899,3.53-3.823,6.035-7.577,6.489c-5.173,0.626-10.02-4.368-9.251-9.541c0.092-0.616,0.255-1.22,0.423-2.012
		c-4.596-2.225-9.216-4.461-14.039-6.796c-1.63,6.016-4.788,10.875-10.165,14.477c0-2.239,0.01-4.237-0.002-6.236
		c-0.024-4.269-2.682-7.003-6.938-7.056c-3.991-0.047-7.983-0.049-11.975,0.002c-4.25,0.053-6.899,2.784-6.943,7.069
		c-0.02,1.956-0.003,3.914-0.003,6.11c-2.522-1.486-4.326-3.373-5.922-5.469c-2.47-3.243-3.924-6.928-4.494-10.948
		c-0.122-0.862-0.429-1.116-1.266-1.104c-3.005,0.041-6.01,0.037-9.014,0.001c-0.777-0.01-1.166,0.212-1.479,0.982
		c-1.672,4.099-5.789,6.245-9.898,5.249c-4.019-0.975-6.953-4.902-6.606-8.842c0.391-4.443,3.677-7.699,8.141-8.067
		c3.382-0.279,6.912,1.916,8.28,5.307c0.376,0.934,0.855,1.172,1.779,1.157c2.914-0.049,5.83-0.039,8.745-0.006
		c0.808,0.009,1.163-0.192,1.289-1.085c1.653-11.682,11.367-20.375,23.107-20.406c8.368-0.021,15.045,3.533,19.85,10.458
		c0.255,0.369,0.498,0.745,0.755,1.113c0.049,0.069,0.132,0.118,0.279,0.245c0.262-0.155,0.572-0.301,0.842-0.502
		c2.336-1.744,4.651-3.515,7.003-5.237c0.618-0.453,0.854-0.852,0.6-1.66c-3.873-12.345,3.507-25.752,16.087-29.324
		c0.336-0.096,0.661-0.23,1.08-0.378c-0.175-0.381-0.304-0.704-0.467-1.007c-2.432-4.545-4.86-9.093-7.316-13.626
		c-0.291-0.54-0.784-0.969-1.082-1.507c-0.312-0.565-0.607-1.18-0.714-1.807c-0.125-0.742-0.01-1.521-0.055-2.282
		c-0.195-3.317-2.681-6.041-6.001-6.153c-4.613-0.155-9.239-0.156-13.853,0.006c-3.253,0.115-5.748,2.799-5.938,6.058
		c-0.107,1.833-0.037,3.676-0.055,5.514c-0.004,0.429-0.043,0.859-0.077,1.508c-2.851-1.757-5.071-3.919-6.622-6.589
		c-1.531-2.639-2.644-5.521-3.993-8.409c-3.102,2.65-6.388,5.457-9.722,8.306c0.61,0.897,1.177,1.691,1.702,2.512
		c1.994,3.119,3.076,6.543,3.487,10.214c0.071,0.635,0.396,1.42,0.872,1.803c3.419,2.76,6.922,5.417,10.361,8.151
		c0.672,0.533,1.14,0.54,1.881,0.103c3.361-1.987,7.617-1.435,10.297,1.248c2.741,2.745,3.347,6.812,1.509,10.151
		c-1.888,3.43-5.701,5.153-9.464,4.275c-3.715-0.864-6.479-4.16-6.604-8.018c-0.031-0.963,0.324-1.933,0.396-2.907
		c0.031-0.418-0.064-1.033-0.345-1.258c-2.759-2.223-5.568-4.381-8.365-6.555c-0.173-0.134-0.366-0.243-0.765-0.503
		c-1.372,6.515-4.63,11.688-10.337,15.588c0-2.256,0.007-4.209-0.002-6.162c-0.019-4.348-2.682-7.091-7.008-7.139
		c-3.946-0.044-7.894-0.044-11.84,0c-4.323,0.048-6.988,2.786-7.019,7.134c-0.014,1.923-0.002,3.846-0.002,5.77
		c-0.116,0.098-0.23,0.194-0.345,0.292c-1.396-1.256-2.945-2.379-4.163-3.788C4.907,64.174,3.159,55.963,6.57,47.065
		c3.285-8.566,9.804-13.465,18.857-14.946c0.69-0.112,1.04-0.288,1.033-1.058c-0.029-3.139-0.041-6.279,0.007-9.418
		c0.013-0.845-0.479-1.015-1.086-1.267c-3.608-1.505-5.748-5.05-5.334-8.779c0.427-3.846,3.298-6.896,7.123-7.566
		c4.211-0.737,8.298,1.821,9.582,5.998c1.261,4.105-0.727,8.532-4.765,10.211c-1.115,0.463-1.328,1.044-1.309,2.089
		c0.052,2.87,0.028,5.741,0.011,8.611c-0.004,0.668,0.121,1.062,0.917,1.165c4.318,0.557,8.204,2.176,11.62,4.895
		c0.172,0.137,0.37,0.24,0.641,0.414c1.503-1.276,3.005-2.544,4.5-3.822c2.284-1.953,4.522-3.96,6.861-5.844
		c0.988-0.796,1.412-1.678,1.554-2.925c1.148-10.051,8.267-18.013,18.096-20.333c12.742-3.007,25.819,5.31,28.409,18.106
		c0.188,0.936,0.579,1.479,1.439,1.885c4.742,2.24,9.448,4.557,14.2,6.774c0.485,0.227,1.325,0.176,1.787-0.102
		c3.193-1.926,7.066-1.853,9.859,0.296c2.874,2.211,4.093,5.873,3.071,9.225c-1.115,3.657-4.083,5.963-7.941,6.173
		c-5.296,0.288-9.702-4.799-8.686-10.034C117.108,36.336,117.229,35.864,117.36,35.274z M108.278,85.661
		c4.741-0.034,8.629-3.988,8.559-8.706c-0.069-4.723-3.902-8.509-8.614-8.511c-4.757-0.002-8.643,3.892-8.619,8.635
		C99.629,81.828,103.538,85.695,108.278,85.661z M47.941,102.784c-0.054,4.738,3.796,8.658,8.553,8.706
		c4.689,0.049,8.573-3.74,8.665-8.453c0.093-4.747-3.712-8.686-8.479-8.777C51.975,94.169,47.994,98.053,47.941,102.784z
		 M80.28,29.694c4.747-0.027,8.618-3.954,8.564-8.691c-0.053-4.72-3.88-8.52-8.593-8.529c-4.749-0.009-8.652,3.888-8.64,8.624
		C71.627,25.831,75.55,29.721,80.28,29.694z M28.595,57.683c4.744-0.016,8.609-3.924,8.577-8.674
		c-0.031-4.714-3.85-8.528-8.563-8.552c-4.746-0.023-8.649,3.859-8.649,8.604C19.96,53.795,23.871,57.699,28.595,57.683z"/>
	<path fill-rule="evenodd" clip-rule="evenodd" fill="#FF0000" d="M56.532,120.117c1.969,0,3.938-0.026,5.907,0.007
		c1.856,0.031,2.691,0.882,2.71,2.748c0.024,2.506-0.018,5.013,0.021,7.52c0.012,0.696-0.228,1.025-0.881,1.253
		c-5.135,1.779-10.258,1.786-15.4,0.025c-0.722-0.246-0.946-0.634-0.934-1.37c0.038-2.506-0.004-5.012,0.022-7.519
		c0.019-1.788,0.846-2.622,2.646-2.655C52.593,120.089,54.563,120.117,56.532,120.117z"/>
	<path fill-rule="evenodd" clip-rule="evenodd" fill="#FF0000" d="M28.583,66.319c1.924-0.001,3.85-0.03,5.772,0.008
		c2.044,0.04,2.812,0.852,2.821,2.909c0.011,2.416-0.034,4.834,0.021,7.248c0.02,0.822-0.279,1.164-1.035,1.411
		c-5.016,1.64-10.016,1.644-15.045,0.054c-0.885-0.279-1.181-0.701-1.157-1.621c0.063-2.415,0.008-4.832,0.026-7.248
		c0.014-1.896,0.78-2.703,2.69-2.749C24.644,66.283,26.613,66.32,28.583,66.319z"/>
	<path fill-rule="evenodd" clip-rule="evenodd" fill="#FF0000" d="M80.311,38.329c1.927-0.001,3.855-0.033,5.781,0.008
		c1.901,0.041,2.706,0.852,2.728,2.734c0.027,2.509,0.048,5.02-0.032,7.527c-0.014,0.425-0.461,1.077-0.852,1.214
		c-5.124,1.808-10.28,1.809-15.403-0.003c-0.39-0.138-0.829-0.802-0.842-1.233c-0.08-2.551-0.066-5.107-0.028-7.661
		c0.025-1.713,0.844-2.528,2.6-2.572C76.276,38.291,78.295,38.33,80.311,38.329z"/>
	<path fill-rule="evenodd" clip-rule="evenodd" fill="#FF0000" d="M108.238,94.299c1.927,0,3.853-0.03,5.779,0.009
		c1.972,0.04,2.772,0.858,2.79,2.814c0.021,2.464-0.021,4.93,0.021,7.394c0.012,0.748-0.229,1.108-0.958,1.347
		c-5.112,1.683-10.217,1.712-15.299-0.057c-0.399-0.139-0.873-0.774-0.887-1.193c-0.082-2.552-0.065-5.108-0.033-7.661
		c0.025-1.795,0.826-2.594,2.671-2.641C104.294,94.262,106.267,94.299,108.238,94.299z"/>
	<path fill-rule="evenodd" clip-rule="evenodd" fill="#FF0000" d="M108.173,72.77c2.33-0.032,4.296,1.927,4.295,4.276
		c-0.002,2.315-1.847,4.22-4.144,4.278c-2.355,0.058-4.313-1.823-4.362-4.195C103.913,74.791,105.835,72.802,108.173,72.77z"/>
	<path fill-rule="evenodd" clip-rule="evenodd" fill="#FF0000" d="M52.286,102.821c0.029-2.359,1.98-4.237,4.354-4.191
		c2.306,0.044,4.181,1.94,4.189,4.235c0.01,2.337-1.959,4.288-4.299,4.267C54.158,107.108,52.257,105.179,52.286,102.821z"/>
	<path fill-rule="evenodd" clip-rule="evenodd" fill="#FF0000" d="M84.499,21.132c-0.037,2.359-1.997,4.26-4.347,4.213
		c-2.369-0.048-4.227-1.992-4.175-4.368c0.051-2.303,1.954-4.156,4.265-4.155C82.578,16.822,84.536,18.803,84.499,21.132z"/>
	<path fill-rule="evenodd" clip-rule="evenodd" fill="#FF0000" d="M28.512,44.789c2.291-0.044,4.305,1.918,4.336,4.226
		c0.032,2.314-1.911,4.299-4.226,4.321c-2.336,0.021-4.293-1.881-4.33-4.21C24.256,46.818,26.187,44.834,28.512,44.789z"/>
</g>
<g>
	<path fill-rule="evenodd" clip-rule="evenodd" d="M119.762,36.88c-4.452-2.147-8.875-4.28-13.472-6.497
		c-0.117,0.869-0.204,1.563-0.305,2.254c-0.585,4.038-2.137,7.675-4.652,10.876c-0.558,0.71-0.607,1.221-0.173,2.015
		c2.711,4.955,5.379,9.934,8.02,14.927c0.386,0.73,0.817,0.995,1.651,1.013c12.906,0.284,23.024,10.158,23.375,23.037
		c0.223,8.128-3.164,14.663-9.611,19.609c-0.178,0.136-0.366,0.259-0.559,0.373c-0.07,0.045-0.167,0.047-0.369,0.099
		c-0.04-0.343-0.107-0.67-0.11-0.998c-0.011-1.568-0.001-3.139-0.006-4.708c-0.014-4.678-2.65-7.315-7.36-7.334
		c-3.724-0.016-7.445-0.016-11.168,0.001c-4.695,0.021-7.328,2.67-7.345,7.357c-0.006,1.863-0.001,3.726-0.001,5.589
		c-0.126,0.076-0.25,0.153-0.376,0.23c-1.312-1.173-2.711-2.264-3.909-3.542c-1.217-1.299-2.234-2.783-3.393-4.254
		c-0.189,0.095-0.438,0.178-0.64,0.327c-2.405,1.799-4.792,3.625-7.213,5.402c-0.59,0.433-0.723,0.839-0.585,1.575
		c0.414,2.196,0.66,4.422,1.06,6.619c0.085,0.477,0.437,1.093,0.84,1.293c4.78,2.367,9.586,4.684,14.411,6.958
		c0.382,0.18,1.058,0.115,1.426-0.112c3.331-2.059,6.972-2.068,9.829,0.048c2.888,2.14,4.207,5.685,3.357,9.024
		c-0.899,3.53-3.823,6.035-7.577,6.489c-5.173,0.626-10.02-4.368-9.251-9.541c0.092-0.616,0.255-1.22,0.423-2.012
		c-4.596-2.225-9.216-4.461-14.039-6.796c-1.63,6.016-4.788,10.875-10.165,14.477c0-2.239,0.01-4.237-0.002-6.236
		c-0.024-4.269-2.681-7.003-6.938-7.056c-3.991-0.047-7.983-0.049-11.975,0.002c-4.25,0.053-6.899,2.784-6.943,7.069
		c-0.02,1.956-0.003,3.914-0.003,6.11c-2.522-1.486-4.326-3.373-5.922-5.469c-2.47-3.243-3.924-6.928-4.494-10.948
		c-0.122-0.862-0.429-1.116-1.266-1.104c-3.005,0.041-6.01,0.037-9.014,0.001c-0.777-0.01-1.166,0.212-1.479,0.982
		c-1.672,4.099-5.789,6.245-9.898,5.249c-4.019-0.975-6.953-4.902-6.606-8.842c0.391-4.443,3.677-7.699,8.141-8.067
		c3.382-0.279,6.912,1.916,8.28,5.307c0.376,0.934,0.855,1.172,1.779,1.157c2.914-0.049,5.83-0.039,8.745-0.006
		c0.808,0.009,1.163-0.192,1.289-1.085c1.653-11.682,11.367-20.375,23.107-20.406c8.367-0.021,15.045,3.533,19.85,10.458
		c0.255,0.369,0.498,0.745,0.755,1.113c0.049,0.069,0.132,0.118,0.279,0.245c0.262-0.155,0.572-0.301,0.842-0.502
		c2.336-1.744,4.651-3.515,7.003-5.237c0.618-0.453,0.854-0.852,0.6-1.66c-3.873-12.345,3.507-25.752,16.087-29.324
		c0.336-0.096,0.661-0.23,1.08-0.378c-0.175-0.381-0.304-0.704-0.467-1.007c-2.432-4.545-4.86-9.093-7.316-13.626
		c-0.291-0.54-0.784-0.969-1.082-1.507c-0.312-0.565-0.607-1.18-0.714-1.807c-0.125-0.742-0.01-1.521-0.055-2.282
		c-0.195-3.317-2.681-6.041-6.001-6.153c-4.613-0.155-9.239-0.156-13.853,0.006c-3.253,0.115-5.748,2.799-5.938,6.058
		c-0.107,1.833-0.037,3.676-0.055,5.514c-0.004,0.429-0.042,0.859-0.077,1.508c-2.85-1.757-5.072-3.919-6.622-6.589
		c-1.531-2.639-2.644-5.521-3.993-8.409c-3.102,2.65-6.388,5.457-9.722,8.306c0.61,0.897,1.177,1.691,1.702,2.512
		c1.994,3.119,3.076,6.543,3.487,10.214c0.071,0.635,0.396,1.42,0.872,1.803c3.419,2.76,6.921,5.417,10.362,8.151
		c0.671,0.533,1.139,0.541,1.88,0.102c3.361-1.987,7.617-1.434,10.297,1.249c2.741,2.745,3.347,6.812,1.509,10.151
		c-1.888,3.43-5.701,5.153-9.463,4.275c-3.716-0.864-6.479-4.16-6.604-8.018c-0.032-0.963,0.324-1.933,0.396-2.908
		c0.031-0.418-0.065-1.032-0.345-1.258c-2.759-2.222-5.568-4.381-8.365-6.554c-0.173-0.134-0.366-0.243-0.765-0.503
		c-1.372,6.515-4.63,11.688-10.337,15.588c0-2.256,0.007-4.209-0.002-6.162c-0.019-4.348-2.682-7.091-7.008-7.139
		c-3.946-0.044-7.894-0.044-11.84,0c-4.323,0.048-6.988,2.786-7.019,7.134c-0.014,1.922-0.002,3.845-0.002,5.769
		c-0.116,0.098-0.23,0.194-0.345,0.292c-1.396-1.256-2.945-2.379-4.163-3.788C7.308,65.779,5.56,57.568,8.971,48.671
		c3.285-8.566,9.804-13.465,18.857-14.946c0.69-0.112,1.04-0.288,1.033-1.058c-0.029-3.139-0.041-6.279,0.007-9.418
		c0.013-0.845-0.479-1.015-1.086-1.267c-3.608-1.505-5.748-5.05-5.334-8.779c0.427-3.846,3.298-6.896,7.123-7.566
		c4.211-0.737,8.298,1.821,9.582,5.998c1.261,4.105-0.727,8.532-4.765,10.211c-1.115,0.463-1.328,1.044-1.309,2.089
		c0.052,2.87,0.028,5.741,0.011,8.611c-0.004,0.668,0.121,1.062,0.917,1.165c4.318,0.557,8.204,2.176,11.62,4.895
		c0.172,0.137,0.37,0.24,0.641,0.414c1.503-1.276,3.005-2.544,4.5-3.822c2.284-1.953,4.522-3.96,6.861-5.844
		c0.988-0.796,1.412-1.678,1.554-2.925C60.33,16.378,67.45,8.416,77.278,6.097c12.742-3.007,25.819,5.31,28.409,18.106
		c0.188,0.936,0.579,1.479,1.439,1.885c4.742,2.24,9.448,4.557,14.2,6.774c0.485,0.227,1.325,0.176,1.787-0.102
		c3.193-1.926,7.066-1.853,9.859,0.296c2.874,2.211,4.093,5.873,3.071,9.225c-1.115,3.657-4.083,5.963-7.941,6.173
		c-5.296,0.288-9.702-4.799-8.686-10.034C119.51,37.942,119.63,37.469,119.762,36.88z M110.68,87.267
		c4.741-0.034,8.629-3.988,8.559-8.706c-0.069-4.723-3.902-8.509-8.614-8.511c-4.757-0.002-8.643,3.892-8.619,8.635
		C102.03,83.434,105.939,87.301,110.68,87.267z M50.342,104.39c-0.054,4.738,3.796,8.658,8.553,8.706
		c4.689,0.049,8.573-3.74,8.665-8.453c0.093-4.747-3.711-8.686-8.479-8.777C54.376,95.774,50.396,99.658,50.342,104.39z
		 M82.682,31.299c4.747-0.027,8.618-3.954,8.564-8.691c-0.053-4.72-3.88-8.52-8.593-8.529c-4.749-0.009-8.652,3.888-8.64,8.624
		C74.028,27.437,77.951,31.326,82.682,31.299z M30.997,59.289c4.744-0.016,8.609-3.924,8.577-8.674
		c-0.031-4.714-3.85-8.528-8.563-8.552c-4.746-0.023-8.649,3.859-8.649,8.604C22.362,55.401,26.272,59.305,30.997,59.289z"/>
	<path fill-rule="evenodd" clip-rule="evenodd" d="M58.934,121.723c1.969,0,3.938-0.026,5.907,0.007
		c1.856,0.031,2.691,0.882,2.71,2.748c0.024,2.506-0.018,5.013,0.021,7.52c0.012,0.696-0.227,1.025-0.88,1.253
		c-5.135,1.779-10.258,1.786-15.4,0.025c-0.722-0.246-0.946-0.634-0.934-1.37c0.038-2.506-0.004-5.012,0.022-7.519
		c0.019-1.788,0.846-2.622,2.646-2.655C54.995,121.694,56.964,121.723,58.934,121.723z"/>
	<path fill-rule="evenodd" clip-rule="evenodd" d="M30.984,67.925c1.924,0,3.85-0.03,5.772,0.008
		c2.044,0.04,2.812,0.852,2.821,2.909c0.011,2.416-0.034,4.834,0.021,7.248c0.02,0.822-0.279,1.164-1.035,1.411
		c-5.016,1.64-10.016,1.644-15.045,0.054c-0.885-0.279-1.181-0.701-1.157-1.621c0.063-2.415,0.008-4.832,0.026-7.249
		c0.014-1.896,0.78-2.702,2.69-2.749C27.045,67.888,29.015,67.925,30.984,67.925z"/>
	<path fill-rule="evenodd" clip-rule="evenodd" d="M82.712,39.934c1.927-0.001,3.855-0.033,5.781,0.008
		c1.901,0.041,2.706,0.852,2.728,2.734c0.027,2.509,0.048,5.02-0.032,7.527c-0.014,0.425-0.461,1.077-0.852,1.214
		c-5.124,1.808-10.28,1.809-15.403-0.003c-0.39-0.138-0.829-0.802-0.842-1.233c-0.08-2.551-0.066-5.107-0.028-7.661
		c0.025-1.713,0.844-2.528,2.6-2.572C78.678,39.896,80.696,39.935,82.712,39.934z"/>
	<path fill-rule="evenodd" clip-rule="evenodd" d="M110.64,95.904c1.927,0,3.853-0.03,5.779,0.009
		c1.972,0.04,2.772,0.858,2.79,2.814c0.021,2.464-0.021,4.93,0.021,7.394c0.012,0.748-0.229,1.108-0.958,1.347
		c-5.112,1.683-10.217,1.712-15.299-0.057c-0.399-0.139-0.873-0.774-0.887-1.193c-0.082-2.552-0.065-5.108-0.033-7.661
		c0.025-1.795,0.826-2.594,2.671-2.641C106.695,95.867,108.668,95.904,110.64,95.904z"/>
	<path fill-rule="evenodd" clip-rule="evenodd" d="M110.574,74.375c2.33-0.032,4.296,1.927,4.295,4.276
		c-0.002,2.315-1.847,4.22-4.144,4.278c-2.355,0.058-4.313-1.823-4.362-4.195C106.314,76.396,108.236,74.407,110.574,74.375z"/>
	<path fill-rule="evenodd" clip-rule="evenodd" d="M54.687,104.427c0.029-2.359,1.98-4.237,4.354-4.191
		c2.306,0.044,4.181,1.94,4.189,4.235c0.01,2.337-1.959,4.288-4.299,4.267C56.56,108.714,54.659,106.784,54.687,104.427z"/>
	<path fill-rule="evenodd" clip-rule="evenodd" d="M86.9,22.737c-0.037,2.359-1.997,4.26-4.347,4.213
		c-2.369-0.048-4.227-1.992-4.175-4.368c0.051-2.303,1.954-4.156,4.265-4.155C84.979,18.427,86.938,20.409,86.9,22.737z"/>
	<path fill-rule="evenodd" clip-rule="evenodd" d="M30.914,46.395c2.291-0.044,4.305,1.918,4.336,4.226
		c0.032,2.314-1.911,4.299-4.226,4.321c-2.336,0.021-4.293-1.881-4.33-4.21C26.657,48.423,28.588,46.439,30.914,46.395z"/>
</g>
<g>
</g>
<g>
</g>
<g>
</g>
<g>
</g>
<g>
</g>
<g>
</g>
</svg>
