<?xml version="1.0" encoding="utf-8"?>
<!-- Generator: Adobe Illustrator 16.0.3, SVG Export Plug-In . SVG Version: 6.00 Build 0)  -->
<!DOCTYPE svg PUBLIC "-//W3C//DTD SVG 1.1//EN" "http://www.w3.org/Graphics/SVG/1.1/DTD/svg11.dtd">
<svg version="1.1" id="Capa_1" xmlns="http://www.w3.org/2000/svg" xmlns:xlink="http://www.w3.org/1999/xlink" x="0px" y="0px"
	 width="140px" height="140px" viewBox="0 0 140 140" enable-background="new 0 0 140 140" xml:space="preserve">
<g opacity="0.7">
	<path fill="#00A0C6" d="M97.107,88.333c0,3.173,0,6.169,0,9.319c-5.236,0-10.422,0-15.825,0c0,0.826,0,1.506,0,2.184
		c0,3.256,0.065,6.514-0.032,9.766c-0.044,1.385,0.426,1.781,1.736,1.668c1.201-0.104,2.418-0.053,3.625-0.002
		c2.623,0.111,4.508,1.992,4.565,4.512c0.062,2.516-1.743,4.488-4.349,4.74c-0.461,0.043-0.93,0.033-1.395,0.033
		c-13.625,0.002-27.249,0.006-40.874-0.011c-0.83,0-1.688-0.04-2.481-0.257c-2.169-0.598-3.465-2.622-3.252-4.909
		c0.199-2.13,1.921-3.901,4.11-4.067c1.48-0.11,2.977-0.107,4.461-0.041c1.068,0.049,1.346-0.373,1.333-1.377
		c-0.045-3.58-0.058-7.162,0.007-10.742c0.02-1.149-0.318-1.498-1.489-1.494c-10.415,0.045-20.831,0.039-31.248,0.021
		c-5.227-0.011-9.137-2.88-10.482-7.723c-0.307-1.104-0.429-2.292-0.43-3.44c-0.024-21.854-0.024-43.71-0.015-65.565
		c0.005-6.809,4.367-11.2,11.154-11.202c32.503-0.01,65.008-0.01,97.51,0c6.799,0.001,11.101,4.272,11.107,11.051
		c0.021,16.275,0.008,32.55,0.008,48.824c0,0.454,0,0.907,0,1.446c-3.145,0-6.136,0-9.301,0c0-0.667,0-1.258,0-1.851
		c0-15.902,0-31.805,0-47.708c0-2.413-0.046-2.46-2.389-2.46c-32.085,0-64.17,0-96.255,0c-2.405,0-2.439,0.034-2.439,2.393
		c0,21.437,0,42.873,0,64.31c0,2.58,0.001,2.582,2.667,2.582c25.994,0,51.987,0,77.98,0C95.756,88.333,96.391,88.333,97.107,88.333z
		"/>
	<path fill="#00A0C6" d="M103.16,105.771c0-7.25-0.006-14.498,0.004-21.746c0.004-4.661,2.271-6.933,6.936-6.938
		c7.295-0.01,14.592-0.01,21.887,0c4.677,0.006,7.013,2.356,7.015,7.046c0.001,14.405,0.002,28.813-0.002,43.217
		c0,4.528-2.347,6.9-6.841,6.906c-7.389,0.01-14.775,0.008-22.165,0c-4.563-0.005-6.821-2.277-6.827-6.878
		C103.152,120.176,103.16,112.975,103.16,105.771z M131.907,123.334c0-13.152,0-26.136,0-39.191c-7.259,0-14.429,0-21.661,0
		c-0.034,0.449-0.087,0.813-0.087,1.176c-0.005,12.267,0.009,24.529-0.022,36.791c-0.004,1.037,0.299,1.353,1.34,1.346
		c6.41-0.043,12.821-0.021,19.231-0.023C131.068,123.428,131.436,123.372,131.907,123.334z M121.1,125.904
		c-1.355-0.028-2.564,1.14-2.632,2.544c-0.063,1.342,1.126,2.62,2.489,2.678c1.359,0.06,2.632-1.104,2.693-2.466
		C123.718,127.203,122.544,125.938,121.1,125.904z"/>
</g>
<g opacity="0.8">
	<path fill="#FF0000" d="M93.741,83.596c0,3.172,0,6.168,0,9.319c-5.236,0-10.421,0-15.825,0c0,0.826,0,1.505,0,2.183
		c0,3.256,0.066,6.514-0.032,9.768c-0.044,1.385,0.427,1.779,1.737,1.668c1.199-0.104,2.417-0.055,3.625-0.004
		c2.623,0.111,4.507,1.992,4.566,4.513c0.06,2.517-1.744,4.487-4.351,4.74c-0.461,0.044-0.928,0.032-1.396,0.032
		c-13.624,0.002-27.248,0.006-40.873-0.01c-0.83,0-1.688-0.041-2.481-0.258c-2.169-0.597-3.465-2.622-3.252-4.908
		c0.199-2.131,1.921-3.902,4.11-4.068c1.48-0.11,2.977-0.107,4.461-0.041c1.068,0.05,1.346-0.371,1.333-1.377
		c-0.045-3.578-0.058-7.161,0.007-10.74c0.02-1.151-0.318-1.499-1.489-1.494c-10.415,0.043-20.831,0.038-31.248,0.02
		C7.41,92.925,3.5,90.057,2.155,85.213c-0.307-1.104-0.429-2.292-0.43-3.439C1.701,59.918,1.701,38.063,1.71,16.208
		c0.004-6.81,4.367-11.2,11.154-11.203c32.503-0.01,65.008-0.01,97.51,0c6.799,0.001,11.101,4.272,11.106,11.051
		c0.021,16.275,0.008,32.55,0.008,48.824c0,0.454,0,0.908,0,1.448c-3.143,0-6.135,0-9.299,0c0-0.669,0-1.26,0-1.851
		c0-15.902,0-31.805-0.002-47.708c0-2.413-0.043-2.46-2.388-2.46c-32.085,0-64.17,0-96.255,0c-2.405,0-2.439,0.034-2.439,2.393
		c0,21.437,0,42.873,0,64.31c0,2.58,0.001,2.582,2.667,2.582c25.994,0,51.988,0,77.98,0C92.391,83.596,93.023,83.596,93.741,83.596z
		"/>
	<path fill="#FF0000" d="M99.794,101.032c0-7.249-0.006-14.497,0.004-21.746c0.004-4.661,2.271-6.931,6.937-6.937
		c7.295-0.012,14.592-0.012,21.888,0c4.675,0.006,7.011,2.356,7.013,7.045c0.002,14.404,0.002,28.812-0.002,43.215
		c0,4.531-2.345,6.901-6.841,6.908c-7.39,0.008-14.774,0.008-22.165,0c-4.563-0.004-6.82-2.277-6.827-6.877
		C99.787,115.438,99.794,108.234,99.794,101.032z M128.541,118.596c0-13.152,0-26.136,0-39.191c-7.259,0-14.43,0-21.661,0
		c-0.034,0.449-0.087,0.813-0.087,1.178c-0.004,12.266,0.009,24.527-0.023,36.791c-0.002,1.036,0.299,1.352,1.34,1.344
		c6.412-0.043,12.822-0.021,19.232-0.023C127.703,118.689,128.068,118.634,128.541,118.596z M117.732,121.167
		c-1.356-0.028-2.565,1.14-2.631,2.543c-0.063,1.342,1.125,2.621,2.487,2.679c1.36,0.061,2.634-1.104,2.693-2.467
		C120.352,122.465,119.178,121.198,117.732,121.167z"/>
</g>
<g>
	<path fill="#FFFFFF" d="M95.527,85.846c0,3.172,0,6.168,0,9.319c-5.236,0-10.422,0-15.825,0c0,0.826,0,1.505,0,2.183
		c0,3.256,0.065,6.514-0.032,9.768c-0.044,1.385,0.426,1.779,1.737,1.668c1.2-0.104,2.417-0.055,3.625-0.004
		c2.622,0.111,4.507,1.992,4.565,4.513c0.061,2.517-1.744,4.487-4.35,4.74c-0.461,0.044-0.93,0.032-1.395,0.032
		c-13.625,0.002-27.249,0.006-40.874-0.01c-0.83,0-1.688-0.041-2.481-0.258c-2.169-0.597-3.465-2.622-3.252-4.908
		c0.199-2.131,1.921-3.902,4.11-4.068c1.48-0.11,2.977-0.107,4.461-0.041c1.068,0.05,1.346-0.371,1.333-1.377
		c-0.045-3.578-0.058-7.161,0.007-10.74c0.02-1.151-0.318-1.499-1.489-1.494c-10.415,0.043-20.831,0.038-31.248,0.02
		c-5.227-0.012-9.137-2.879-10.482-7.724c-0.307-1.104-0.429-2.292-0.43-3.438C3.485,62.17,3.485,40.315,3.494,18.46
		C3.5,11.648,7.863,7.258,14.65,7.255c32.503-0.01,65.008-0.01,97.51,0c6.799,0.001,11.102,4.272,11.107,11.051
		c0.021,16.275,0.008,32.55,0.008,48.825c0,0.454,0,0.907,0,1.448c-3.145,0-6.135,0-9.301,0c0-0.669,0-1.26,0-1.85
		c0-15.903,0-31.806,0-47.708c0-2.413-0.045-2.46-2.389-2.46c-32.085,0-64.17,0-96.255,0c-2.405,0-2.439,0.034-2.439,2.393
		c0,21.437,0,42.873,0,64.31c0,2.58,0.001,2.582,2.667,2.582c25.994,0,51.987,0,77.98,0C94.176,85.846,94.811,85.846,95.527,85.846z
		"/>
	<path fill="#FFFFFF" d="M101.58,103.282c0-7.249-0.006-14.497,0.004-21.746c0.004-4.661,2.271-6.931,6.936-6.937
		c7.295-0.012,14.592-0.012,21.889,0c4.675,0.006,7.011,2.356,7.013,7.045c0.001,14.404,0.002,28.812-0.002,43.215
		c0,4.531-2.345,6.901-6.841,6.908c-7.389,0.008-14.775,0.008-22.165,0c-4.563-0.004-6.821-2.277-6.827-6.877
		C101.573,117.688,101.58,110.484,101.58,103.282z M130.327,120.846c0-13.152,0-26.136,0-39.191c-7.259,0-14.429,0-21.661,0
		c-0.034,0.449-0.087,0.813-0.087,1.178c-0.004,12.266,0.009,24.527-0.022,36.791c-0.004,1.036,0.299,1.352,1.34,1.344
		c6.41-0.043,12.821-0.021,19.231-0.023C129.488,120.939,129.854,120.884,130.327,120.846z M119.52,123.417
		c-1.355-0.028-2.564,1.14-2.631,2.543c-0.063,1.342,1.125,2.621,2.488,2.679c1.359,0.061,2.632-1.104,2.693-2.467
		C122.139,124.715,120.964,123.448,119.52,123.417z"/>
</g>
<g opacity="0.5">
	<g>
		<path fill="#FF0000" d="M22.09,50.315c0.35,0.886,0.878,1.599,1.569,2.179c2.056,1.723,4.382,2.263,6.985,1.564
			c0.427-0.115,0.869-0.232,1.306-0.245c0.791-0.021,1.334,0.444,1.529,1.203c0.19,0.746-0.081,1.497-0.807,1.819
			c-0.704,0.312-1.458,0.557-2.214,0.693c-4.568,0.824-9.242-1.392-11.336-5.563c-3.108-6.192,0.336-13.583,7.39-14.826
			c3.54-0.622,6.676,0.282,9.323,2.765c0.637,0.597,0.954,1.312,0.625,2.185c-0.206,0.541-0.647,0.872-1.141,1.136
			c-3.693,1.977-7.387,3.955-11.08,5.932C23.533,49.537,22.827,49.92,22.09,50.315z M21.428,48.168
			c3.889-2.088,7.724-4.147,11.64-6.25c-0.357-0.261-0.629-0.493-0.929-0.68c-3.158-1.956-8.65-1.218-10.522,3.836
			C21.253,46.054,21.117,47.055,21.428,48.168z"/>
		<path fill="#FF0000" d="M93.34,62.18c0.109-1.091,0.212-2.135,0.323-3.245c3.144,0,6.331,0,9.63,0
			c-0.203-0.282-0.333-0.481-0.48-0.665c-3.469-4.218-6.937-8.435-10.399-12.656c-0.209-0.255-0.409-0.53-0.547-0.825
			c-0.459-0.993,0.118-2.083,1.19-2.275c0.254-0.043,0.514-0.063,0.771-0.063c4.269,0.002,8.534,0.008,12.802,0.017
			c0.971,0,1.604,0.438,1.794,1.234c0.253,1.057-0.444,2.009-1.524,2.043c-0.836,0.026-1.67,0.012-2.51,0.013
			c-2.32,0-4.641,0-6.961,0c-0.15,0-0.306,0-0.563,0c0.523,0.644,0.984,1.21,1.445,1.773c3.131,3.822,6.262,7.642,9.39,11.467
			c0.21,0.256,0.421,0.52,0.569,0.813c0.602,1.187-0.09,2.353-1.412,2.36c-2.795,0.018-5.59,0.006-8.389,0.008
			c-1.57,0-3.141,0-4.713,0C93.6,62.18,93.445,62.18,93.34,62.18z"/>
		<path fill="#FF0000" d="M47.012,53.068c0-0.582-0.004-1.131,0.002-1.678c0.009-0.677,0.285-1.071,0.938-1.213
			c0.385-0.083,0.807-0.107,1.195-0.048c0.809,0.122,1.12,0.538,1.124,1.369c0.002,0.477,0,0.952,0,1.489
			c0.828-0.179,1.48-0.573,2.019-1.147c0.921-0.984,1.231-2.205,1.235-3.512c0.013-3.415,0.002-6.832,0.005-10.249
			c0-0.885,0.352-1.417,1.069-1.639c0.833-0.258,1.667,0.272,1.785,1.142c0.026,0.185,0.027,0.375,0.028,0.563
			c0.002,3.402,0.008,6.802-0.001,10.206c-0.006,2.198-0.633,4.159-2.255,5.72c-0.981,0.944-2.158,1.53-3.469,1.837
			c-0.335,0.079-0.427,0.214-0.423,0.548c0.018,1.737,0.009,3.474,0.008,5.21c-0.002,0.886-0.375,1.301-1.257,1.377
			c-0.271,0.023-0.548,0.026-0.818-0.001c-0.784-0.083-1.181-0.532-1.185-1.321c-0.003-1.693-0.015-3.387,0.011-5.082
			c0.006-0.4-0.119-0.532-0.495-0.616c-3.49-0.776-5.946-3.857-5.954-7.44c-0.006-3.43-0.014-6.861-0.016-10.291
			c0-0.257,0.021-0.521,0.072-0.773c0.153-0.744,0.671-1.149,1.414-1.132c0.713,0.018,1.249,0.488,1.357,1.214
			c0.034,0.228,0.036,0.462,0.036,0.693c0.002,2.083-0.005,4.169,0.003,6.252c0.007,1.433,0.025,2.865,0.057,4.296
			C43.547,50.892,45.107,52.793,47.012,53.068z"/>
		<path fill="#FF0000" d="M75.784,58.334c0.062,1.136,0.114,2.212,0.174,3.344c-0.128,0-0.281,0-0.437,0c-3.746,0-7.497,0-11.244,0
			c-0.056,0-0.114,0-0.174,0c-0.736-0.018-1.373-0.239-1.718-0.946c-0.354-0.723-0.088-1.35,0.374-1.92
			c0.946-1.167,1.9-2.326,2.854-3.489c2.593-3.16,5.189-6.318,7.785-9.48c0.133-0.167,0.26-0.343,0.455-0.608
			c-0.236,0-0.385,0-0.53,0c-3.027,0-6.054,0.001-9.082-0.002c-0.256,0-0.522-0.008-0.77-0.069
			c-0.839-0.206-1.226-0.801-1.174-1.761c0.04-0.742,0.561-1.29,1.347-1.403c0.226-0.032,0.458-0.052,0.687-0.053
			c4.281-0.008,8.563-0.011,12.843-0.011c0.723,0,1.335,0.218,1.676,0.924c0.346,0.709,0.191,1.346-0.285,1.931
			c-2.641,3.217-5.277,6.433-7.918,9.65c-1.042,1.272-2.083,2.545-3.187,3.894C70.285,58.334,73.037,58.334,75.784,58.334z"/>
		<path fill="#FF0000" d="M76.764,54.796c0-1.751-0.002-3.504,0.006-5.255c0.002-0.286,0.02-0.583,0.094-0.856
			c0.181-0.668,0.691-1.023,1.383-1.003c0.674,0.02,1.178,0.422,1.318,1.091c0.056,0.267,0.08,0.543,0.08,0.816
			c0.017,3.417,0.004,6.832,0.039,10.249c0.028,3.194,2.438,4.905,5.299,4.708c0.441-0.029,0.89-0.095,1.319-0.201
			c1.989-0.492,3.208-1.945,3.372-4.001c0.038-0.49,0.061-0.982,0.061-1.473c0.007-3.157,0-6.311,0.005-9.467
			c0.002-0.944,0.331-1.45,1.071-1.67c0.76-0.226,1.515,0.18,1.722,0.951c0.065,0.234,0.085,0.485,0.087,0.729
			c0.005,3.416,0.027,6.833-0.006,10.249c-0.025,2.772-0.999,5.094-3.438,6.604c-2.499,1.547-6.673,1.884-9.37-0.291
			c-1.957-1.581-3.035-3.585-3.022-6.14c0.008-1.68,0-3.359,0-5.037C76.777,54.796,76.771,54.796,76.764,54.796z"/>
		<path fill="#FF0000" d="M37.973,60.323c1.62-1.095,3.149-2.126,4.673-3.161c0.461-0.312,0.929-0.59,1.514-0.522
			c0.765,0.089,1.359,0.596,1.536,1.325c0.18,0.746-0.079,1.355-0.691,1.779c-1.515,1.049-3.048,2.077-4.577,3.107
			c-0.933,0.629-1.866,1.256-2.805,1.874c-0.228,0.147-0.47,0.283-0.724,0.382c-1.229,0.475-2.301-0.261-2.309-1.588
			c-0.009-1.838-0.011-3.675-0.011-5.513c0.002-3.851,0.004-7.698,0.01-11.548c0.001-1.305,0.857-2.013,2.117-1.764
			c0.698,0.138,1.181,0.698,1.255,1.464c0.016,0.172,0.011,0.348,0.011,0.521c0,4.354,0,8.711,0,13.068
			C37.973,59.905,37.973,60.059,37.973,60.323z"/>
		<path fill="#FF0000" d="M61.098,52.348c0,2.604,0.001,5.209-0.002,7.813c0,0.245-0.016,0.492-0.062,0.733
			c-0.155,0.825-0.706,1.275-1.54,1.286c-0.887,0.008-1.421-0.401-1.605-1.253c-0.052-0.238-0.076-0.487-0.076-0.731
			c-0.003-5.237-0.003-10.474,0-15.711c0-0.258,0.029-0.52,0.082-0.772c0.161-0.778,0.745-1.24,1.541-1.244
			c0.807-0.004,1.395,0.438,1.571,1.208c0.062,0.265,0.085,0.544,0.085,0.816C61.101,47.111,61.098,49.73,61.098,52.348z"/>
		<path fill="#FF0000" d="M83.811,49.715c-0.015,0.58-0.427,0.979-0.996,0.963c-0.541-0.016-1.002-0.473-1.002-0.996
			c0.002-0.559,0.514-1.064,1.058-1.045C83.427,48.659,83.823,49.113,83.811,49.715z"/>
		<path fill="#FF0000" d="M87.004,48.638c0.528-0.003,1.021,0.49,1.029,1.027c0.01,0.53-0.487,1.015-1.034,1.013
			c-0.556-0.002-0.974-0.426-0.978-0.993C86.016,49.108,86.453,48.642,87.004,48.638z"/>
	</g>
</g>
<g>
	<g>
		<path fill="#FFFFFF" d="M22.803,48.984c0.351,0.886,0.878,1.599,1.569,2.179c2.056,1.723,4.382,2.264,6.985,1.564
			c0.428-0.114,0.87-0.232,1.306-0.245c0.792-0.021,1.335,0.445,1.53,1.203c0.19,0.746-0.081,1.497-0.807,1.819
			c-0.703,0.312-1.459,0.557-2.214,0.693c-4.568,0.824-9.242-1.392-11.335-5.564c-3.108-6.192,0.337-13.583,7.39-14.826
			c3.54-0.622,6.675,0.282,9.324,2.766c0.636,0.597,0.954,1.311,0.623,2.185c-0.205,0.541-0.646,0.872-1.14,1.137
			c-3.692,1.977-7.387,3.955-11.08,5.932C24.247,48.206,23.541,48.589,22.803,48.984z M22.142,46.837
			c3.887-2.088,7.723-4.147,11.64-6.25c-0.358-0.261-0.63-0.493-0.931-0.68c-3.157-1.956-8.649-1.218-10.522,3.836
			C21.966,44.723,21.832,45.724,22.142,46.837z"/>
		<path fill="#FFFFFF" d="M94.053,60.849c0.109-1.091,0.213-2.135,0.323-3.245c3.144,0,6.331,0,9.63,0
			c-0.203-0.282-0.333-0.481-0.48-0.664c-3.467-4.219-6.937-8.436-10.398-12.657c-0.21-0.255-0.41-0.53-0.548-0.825
			c-0.458-0.993,0.118-2.083,1.192-2.275c0.252-0.044,0.512-0.063,0.769-0.063c4.269,0.002,8.535,0.008,12.802,0.017
			c0.973,0,1.604,0.438,1.795,1.234c0.252,1.057-0.445,2.009-1.525,2.043c-0.834,0.026-1.67,0.012-2.51,0.013
			c-2.319,0-4.64,0-6.959,0c-0.152,0-0.307,0-0.563,0c0.524,0.644,0.981,1.211,1.444,1.773c3.131,3.822,6.263,7.643,9.39,11.467
			c0.209,0.256,0.421,0.52,0.569,0.814c0.602,1.186-0.088,2.353-1.412,2.359c-2.795,0.018-5.59,0.007-8.387,0.008
			c-1.572,0-3.143,0-4.713,0C94.313,60.849,94.159,60.849,94.053,60.849z"/>
		<path fill="#FFFFFF" d="M47.726,51.737c0-0.581-0.004-1.131,0.001-1.678c0.01-0.677,0.285-1.071,0.938-1.213
			c0.386-0.083,0.808-0.107,1.195-0.048c0.809,0.122,1.122,0.539,1.124,1.369c0.004,0.477,0,0.952,0,1.489
			c0.829-0.179,1.482-0.572,2.02-1.147c0.921-0.983,1.231-2.205,1.235-3.512c0.012-3.415,0.002-6.832,0.005-10.249
			c0-0.885,0.352-1.417,1.069-1.639c0.833-0.258,1.666,0.272,1.785,1.142c0.025,0.185,0.027,0.375,0.027,0.563
			c0.003,3.402,0.008,6.802,0,10.206c-0.007,2.198-0.634,4.159-2.256,5.72c-0.981,0.944-2.158,1.53-3.469,1.837
			c-0.334,0.079-0.426,0.214-0.423,0.548c0.018,1.737,0.01,3.475,0.007,5.211c0,0.885-0.373,1.3-1.255,1.376
			c-0.271,0.023-0.548,0.026-0.818-0.001c-0.784-0.083-1.181-0.531-1.185-1.321c-0.003-1.693-0.015-3.387,0.011-5.082
			c0.005-0.4-0.119-0.532-0.496-0.616c-3.49-0.776-5.946-3.858-5.954-7.441c-0.008-3.43-0.015-6.861-0.017-10.29
			c0-0.258,0.021-0.521,0.073-0.774c0.153-0.744,0.671-1.149,1.414-1.132c0.714,0.017,1.25,0.488,1.358,1.213
			c0.035,0.228,0.035,0.462,0.035,0.693c0.003,2.084-0.005,4.169,0.005,6.252c0.006,1.433,0.024,2.865,0.055,4.297
			C44.261,49.561,45.821,51.462,47.726,51.737z"/>
		<path fill="#FFFFFF" d="M76.497,57.003c0.062,1.136,0.116,2.212,0.174,3.344c-0.128,0-0.28,0-0.437,0c-3.745,0-7.495,0-11.243,0
			c-0.055,0-0.113,0-0.173,0c-0.736-0.017-1.374-0.239-1.719-0.946c-0.353-0.723-0.088-1.35,0.375-1.92
			c0.945-1.167,1.9-2.326,2.853-3.489c2.593-3.161,5.188-6.318,7.784-9.48c0.134-0.167,0.26-0.343,0.457-0.609
			c-0.238,0-0.387,0-0.531,0c-3.027,0-6.054,0.001-9.083-0.002c-0.256,0-0.522-0.009-0.77-0.069
			c-0.838-0.206-1.226-0.801-1.174-1.761c0.04-0.742,0.561-1.29,1.346-1.403c0.226-0.032,0.459-0.052,0.688-0.053
			c4.28-0.007,8.562-0.011,12.843-0.011c0.723,0,1.334,0.218,1.676,0.923c0.347,0.709,0.191,1.346-0.285,1.931
			c-2.641,3.217-5.277,6.433-7.918,9.65c-1.042,1.272-2.083,2.546-3.188,3.894C70.999,57.003,73.751,57.003,76.497,57.003z"/>
		<path fill="#FFFFFF" d="M77.479,53.465c0-1.751-0.004-3.504,0.004-5.255c0.002-0.286,0.019-0.583,0.094-0.856
			c0.181-0.668,0.693-1.023,1.383-1.002c0.675,0.019,1.178,0.422,1.318,1.09c0.057,0.267,0.08,0.543,0.08,0.817
			c0.017,3.417,0.006,6.832,0.039,10.249c0.03,3.194,2.438,4.905,5.299,4.708c0.441-0.029,0.89-0.095,1.32-0.201
			c1.988-0.493,3.209-1.945,3.373-4.002c0.037-0.49,0.06-0.982,0.06-1.473c0.007-3.157,0-6.311,0.003-9.468
			c0.004-0.944,0.333-1.45,1.072-1.67c0.761-0.226,1.515,0.18,1.724,0.951c0.063,0.234,0.084,0.485,0.085,0.729
			c0.006,3.415,0.027,6.833-0.006,10.249c-0.024,2.773-0.999,5.094-3.438,6.604c-2.5,1.547-6.674,1.884-9.369-0.291
			c-1.959-1.581-3.037-3.585-3.023-6.14c0.006-1.68,0-3.359,0-5.037C77.491,53.465,77.482,53.465,77.479,53.465z"/>
		<path fill="#FFFFFF" d="M38.686,58.993c1.621-1.095,3.15-2.126,4.673-3.162c0.46-0.312,0.93-0.59,1.513-0.522
			c0.765,0.088,1.36,0.596,1.537,1.325c0.179,0.746-0.079,1.355-0.691,1.779c-1.514,1.05-3.049,2.077-4.577,3.107
			c-0.933,0.629-1.867,1.256-2.805,1.874c-0.227,0.148-0.47,0.283-0.724,0.382c-1.229,0.475-2.299-0.261-2.308-1.588
			c-0.009-1.838-0.011-3.675-0.011-5.513c0.001-3.851,0.004-7.698,0.01-11.548c0.001-1.305,0.857-2.013,2.117-1.764
			c0.697,0.138,1.181,0.698,1.254,1.464c0.016,0.172,0.011,0.348,0.011,0.521c0,4.354,0,8.711,0,13.068
			C38.686,58.574,38.686,58.728,38.686,58.993z"/>
		<path fill="#FFFFFF" d="M61.812,51.017c0,2.604,0,5.209-0.002,7.813c0,0.245-0.017,0.493-0.062,0.733
			c-0.154,0.825-0.705,1.275-1.54,1.286c-0.887,0.008-1.421-0.401-1.604-1.253c-0.052-0.238-0.075-0.487-0.075-0.731
			c-0.005-5.236-0.005-10.474,0-15.711c0-0.257,0.029-0.52,0.082-0.772c0.161-0.778,0.745-1.24,1.54-1.244
			c0.807-0.004,1.396,0.437,1.572,1.208c0.062,0.265,0.086,0.545,0.086,0.816C61.814,45.781,61.812,48.399,61.812,51.017z"/>
		<path fill="#FFFFFF" d="M84.521,48.385c-0.013,0.58-0.426,0.979-0.996,0.963c-0.541-0.016-1-0.473-1-0.996
			c0.002-0.558,0.513-1.064,1.057-1.045C84.141,47.328,84.537,47.782,84.521,48.385z"/>
		<path fill="#FFFFFF" d="M87.718,47.307c0.527-0.003,1.022,0.49,1.029,1.027c0.01,0.53-0.487,1.015-1.035,1.014
			c-0.556-0.003-0.971-0.426-0.978-0.992C86.729,47.777,87.166,47.311,87.718,47.307z"/>
	</g>
</g>
</svg>
