<?xml version="1.0" encoding="utf-8"?>
<!-- Generator: Adobe Illustrator 16.0.3, SVG Export Plug-In . SVG Version: 6.00 Build 0)  -->
<!DOCTYPE svg PUBLIC "-//W3C//DTD SVG 1.1//EN" "http://www.w3.org/Graphics/SVG/1.1/DTD/svg11.dtd">
<svg version="1.1" id="Capa_1" xmlns="http://www.w3.org/2000/svg" xmlns:xlink="http://www.w3.org/1999/xlink" x="0px" y="0px"
	 width="140px" height="140px" viewBox="0 0 140 140" enable-background="new 0 0 140 140" xml:space="preserve">
<g opacity="0.6">
	<g>
		<path fill="#FA0F0C" d="M96.631,58.761c0.896-1.199,1.76-2.345,2.671-3.565c3.695,2.233,7.438,4.494,11.314,6.836
			c-0.041-0.474-0.053-0.798-0.099-1.119c-1.09-7.394-2.188-14.788-3.273-22.183c-0.065-0.447-0.109-0.911-0.062-1.355
			c0.164-1.486,1.616-2.353,3.007-1.814c0.33,0.127,0.651,0.288,0.953,0.473c5.009,3.03,10.016,6.065,15.021,9.103
			c1.144,0.691,1.576,1.653,1.238,2.719c-0.45,1.416-1.943,2.034-3.236,1.306c-1-0.562-1.973-1.173-2.955-1.766
			c-2.726-1.647-5.452-3.294-8.178-4.941c-0.179-0.108-0.359-0.217-0.663-0.4c0.162,1.127,0.303,2.114,0.445,3.103
			c0.977,6.69,1.958,13.382,2.928,20.074c0.065,0.447,0.128,0.908,0.097,1.355c-0.135,1.815-1.767,2.688-3.328,1.757
			c-3.296-1.964-6.574-3.96-9.859-5.945c-1.846-1.114-3.691-2.23-5.537-3.345C96.936,58.946,96.757,58.836,96.631,58.761z"/>
		<path fill="#FA0F0C" d="M64.391,55.613c1.028,1.735,2.002,3.38,3.026,5.108c-0.2,0.105-0.445,0.234-0.688,0.361
			c-5.911,3.1-11.823,6.2-17.735,9.3c-0.09,0.047-0.181,0.098-0.273,0.142c-1.175,0.583-2.361,0.761-3.489-0.061
			c-1.154-0.841-1.252-2.049-0.992-3.327c0.534-2.614,1.082-5.227,1.628-7.839c1.489-7.108,2.979-14.216,4.467-21.324
			c0.078-0.375,0.127-0.755,0.222-1.334c-0.373,0.196-0.604,0.317-0.836,0.438c-4.774,2.504-9.548,5.01-14.327,7.509
			c-0.405,0.212-0.831,0.419-1.272,0.528c-1.494,0.372-2.593-0.244-3.303-1.794c-0.547-1.198-0.178-2.489,0.969-3.318
			c0.329-0.238,0.68-0.461,1.04-0.65c6.747-3.554,13.497-7.101,20.25-10.643c1.138-0.595,2.286-0.761,3.405,0.063
			c1.128,0.829,1.413,1.956,1.139,3.271c-1.512,7.234-3.027,14.47-4.54,21.704c-0.597,2.861-1.193,5.725-1.823,8.752
			C55.716,60.163,60.056,57.886,64.391,55.613z"/>
		<path fill="#FA0F0C" d="M62.965,50.704c0-4.18-0.01-8.362,0.009-12.542c0.003-0.683,0.046-1.389,0.223-2.042
			c0.431-1.599,1.659-2.442,3.315-2.394c1.619,0.045,2.824,1.01,3.165,2.602c0.134,0.636,0.19,1.299,0.193,1.948
			c0.036,8.154,0.011,16.307,0.093,24.458c0.076,7.621,5.84,11.705,12.701,11.237c1.061-0.073,2.131-0.228,3.163-0.479
			c4.774-1.18,7.695-4.641,8.088-9.55c0.093-1.168,0.141-2.342,0.143-3.515c0.013-7.53,0.002-15.062,0.01-22.593
			c0.002-2.25,0.793-3.459,2.568-3.988c1.821-0.539,3.627,0.432,4.126,2.271c0.152,0.557,0.207,1.158,0.207,1.738
			c0.014,8.151,0.067,16.306-0.01,24.459c-0.063,6.616-2.396,12.154-8.242,15.758c-5.989,3.694-15.995,4.499-22.456-0.693
			c-4.694-3.771-7.279-8.553-7.251-14.655c0.02-4.006,0.003-8.012,0.003-12.019C62.998,50.704,62.981,50.704,62.965,50.704z"/>
		<path fill="#FA0F0C" d="M93.616,113.255c2.854-2.631,5.546-5.104,8.229-7.593c0.812-0.752,1.638-1.42,2.668-1.257
			c1.347,0.218,2.392,1.433,2.703,3.186c0.319,1.792-0.138,3.253-1.214,4.271c-2.668,2.523-5.367,4.99-8.06,7.469
			c-1.643,1.512-3.285,3.016-4.939,4.497c-0.4,0.361-0.828,0.686-1.274,0.921c-2.165,1.143-4.054-0.627-4.064-3.813
			c-0.019-4.412-0.02-8.83-0.02-13.241c0.003-9.248,0.008-18.494,0.018-27.741c0.003-3.132,1.51-4.836,3.726-4.238
			c1.229,0.332,2.08,1.679,2.211,3.521c0.027,0.413,0.018,0.832,0.018,1.25c0.002,10.46,0,20.925,0,31.392
			C93.616,112.249,93.616,112.62,93.616,113.255z"/>
		<path fill="#FA0F0C" d="M72.516,121.625c-3.476-3.204-6.755-6.22-10.026-9.252c-0.988-0.916-1.995-1.729-3.248-1.529
			c-1.642,0.261-2.918,1.745-3.296,3.88c-0.389,2.184,0.17,3.966,1.479,5.204c3.251,3.077,6.542,6.08,9.822,9.102
			c2,1.842,4.002,3.675,6.017,5.479c0.488,0.438,1.01,0.834,1.553,1.12c2.637,1.393,4.938-0.766,4.952-4.643
			c0.022-5.381,0.024-10.762,0.024-16.139c-0.004-11.266-0.009-22.533-0.023-33.799c-0.002-3.818-1.838-5.894-4.538-5.166
			c-1.499,0.404-2.535,2.046-2.692,4.29c-0.033,0.504-0.023,1.016-0.023,1.524c0,12.748,0,25.497,0,38.248
			C72.516,120.399,72.516,120.851,72.516,121.625z"/>
		<path fill="#FA0F0C" d="M79.851,46.147c-0.033,1.382-1.024,2.338-2.387,2.298c-1.298-0.035-2.397-1.13-2.396-2.377
			c0.001-1.332,1.227-2.537,2.528-2.492C78.935,43.625,79.886,44.711,79.851,46.147z"/>
		<path fill="#FA0F0C" d="M87.507,43.575c1.265-0.008,2.449,1.169,2.468,2.451c0.02,1.262-1.173,2.424-2.48,2.419
			c-1.331-0.005-2.33-1.015-2.344-2.371C85.137,44.698,86.187,43.585,87.507,43.575z"/>
		<path fill="#FA0F0C" d="M85.799,64.552c0,2.303-1.865,4.169-4.168,4.169l0,0c-2.304,0-4.17-1.867-4.17-4.169v-4.2
			c0-2.304,1.867-4.171,4.17-4.171l0,0c2.303,0,4.168,1.867,4.168,4.171V64.552z"/>
	</g>
</g>
<path opacity="0.8" fill="#FA0F0C" enable-background="new    " d="M87.037,17.051c-5.801,7.059-11.598,14.123-17.396,21.186
	c-0.775,0.943-1.668,1.748-2.91,1.956c-2.003,0.335-3.389-0.651-4.39-2.271c-4.155-6.726-4.738-13.825-1.894-21.136
	c5.67-14.569,22.902-18.788,34.764-9.492c7.995,6.264,10.716,17.216,6.997,26.64c-0.615,1.561-1.462,3.07-2.426,4.444
	c-1,1.417-2.715,1.679-4.222,0.951c-1.534-0.743-2.293-2.104-1.909-3.787c0.213-0.932,0.654-1.825,1.082-2.691
	c2.608-5.271,2.453-10.483-0.337-15.62c-0.938-1.725-2.233-3.162-3.969-4.289C89.267,14.349,88.149,15.698,87.037,17.051z
	 M79.458,9.689c-11.571,1.85-15.501,13.29-12.686,20.886c0.267,0.721,0.645,1.405,1.052,2.279
	c6.161-7.486,12.194-14.815,18.312-22.248C83.897,9.465,81.706,9.33,79.458,9.689z"/>
<g opacity="0.6">
	<g>
		<path fill="#199DBF" d="M99.188,61.346c0.897-1.198,1.76-2.346,2.673-3.564c3.693,2.23,7.437,4.493,11.312,6.834
			c-0.04-0.474-0.053-0.799-0.101-1.12c-1.088-7.394-2.186-14.788-3.271-22.183c-0.065-0.445-0.109-0.911-0.061-1.355
			c0.163-1.486,1.614-2.352,3.006-1.813c0.329,0.127,0.651,0.29,0.952,0.472c5.01,3.03,10.017,6.066,15.023,9.103
			c1.143,0.693,1.576,1.654,1.238,2.72c-0.452,1.417-1.944,2.034-3.237,1.305c-0.999-0.561-1.973-1.172-2.954-1.764
			c-2.726-1.646-5.452-3.294-8.179-4.942c-0.179-0.107-0.357-0.217-0.662-0.4c0.161,1.127,0.301,2.114,0.445,3.102
			c0.977,6.691,1.955,13.383,2.927,20.075c0.066,0.448,0.128,0.907,0.095,1.354c-0.132,1.816-1.767,2.69-3.326,1.76
			c-3.296-1.966-6.574-3.962-9.859-5.947c-1.846-1.114-3.691-2.229-5.536-3.345C99.492,61.531,99.313,61.421,99.188,61.346z"/>
		<path fill="#199DBF" d="M66.947,58.197c1.028,1.735,2.002,3.381,3.028,5.109c-0.201,0.105-0.445,0.234-0.688,0.361
			c-5.912,3.101-11.824,6.2-17.735,9.3c-0.09,0.047-0.182,0.096-0.273,0.14c-1.173,0.583-2.36,0.764-3.49-0.06
			c-1.152-0.843-1.25-2.05-0.991-3.328c0.535-2.614,1.082-5.225,1.629-7.838c1.488-7.108,2.98-14.216,4.467-21.324
			c0.078-0.374,0.128-0.754,0.222-1.334c-0.373,0.196-0.604,0.317-0.836,0.44c-4.775,2.504-9.548,5.009-14.328,7.507
			c-0.405,0.211-0.831,0.419-1.271,0.527c-1.494,0.373-2.594-0.243-3.303-1.792c-0.548-1.199-0.179-2.488,0.969-3.318
			c0.328-0.239,0.68-0.461,1.04-0.651c6.747-3.552,13.498-7.101,20.25-10.642c1.138-0.596,2.285-0.761,3.405,0.063
			c1.127,0.83,1.412,1.955,1.138,3.271c-1.511,7.233-3.026,14.469-4.539,21.703c-0.597,2.861-1.193,5.725-1.824,8.751
			C58.272,62.746,62.613,60.47,66.947,58.197z"/>
		<path fill="#199DBF" d="M65.521,53.289c0-4.181-0.009-8.362,0.01-12.542c0.003-0.683,0.046-1.39,0.223-2.043
			c0.43-1.598,1.659-2.442,3.315-2.395c1.619,0.046,2.823,1.009,3.165,2.602c0.133,0.636,0.189,1.298,0.193,1.949
			c0.035,8.154,0.012,16.306,0.092,24.458c0.076,7.62,5.842,11.704,12.701,11.236c1.06-0.073,2.13-0.227,3.163-0.479
			c4.775-1.178,7.696-4.641,8.088-9.549c0.093-1.167,0.14-2.343,0.143-3.515c0.011-7.53,0.003-15.061,0.01-22.592
			c0.001-2.251,0.792-3.459,2.569-3.987c1.819-0.54,3.626,0.431,4.126,2.271c0.15,0.556,0.205,1.157,0.207,1.737
			c0.012,8.152,0.067,16.305-0.011,24.46c-0.063,6.616-2.396,12.155-8.243,15.757c-5.989,3.694-15.994,4.497-22.455-0.694
			c-4.694-3.771-7.278-8.552-7.25-14.655c0.019-4.004,0.003-8.011,0.003-12.018C65.554,53.289,65.537,53.289,65.521,53.289z"/>
		<path fill="#199DBF" d="M96.174,115.84c2.853-2.63,5.544-5.104,8.228-7.593c0.813-0.754,1.638-1.42,2.667-1.258
			c1.347,0.218,2.394,1.434,2.704,3.186c0.32,1.794-0.14,3.254-1.213,4.272c-2.671,2.522-5.369,4.988-8.062,7.468
			c-1.642,1.514-3.284,3.014-4.938,4.498c-0.399,0.359-0.828,0.684-1.273,0.919c-2.165,1.143-4.054-0.628-4.064-3.812
			c-0.02-4.412-0.022-8.832-0.02-13.244c0.002-9.247,0.007-18.493,0.017-27.739c0.003-3.134,1.511-4.836,3.728-4.239
			c1.227,0.333,2.079,1.681,2.208,3.521c0.028,0.414,0.02,0.834,0.02,1.252c0,10.462,0,20.925,0,31.39
			C96.174,114.834,96.174,115.204,96.174,115.84z"/>
		<path fill="#199DBF" d="M75.072,124.211c-3.477-3.206-6.755-6.221-10.027-9.252c-0.987-0.916-1.995-1.731-3.249-1.53
			c-1.641,0.262-2.917,1.743-3.295,3.879c-0.389,2.184,0.171,3.966,1.481,5.205c3.251,3.077,6.542,6.079,9.822,9.1
			c1.999,1.845,4.002,3.676,6.016,5.481c0.488,0.438,1.009,0.834,1.552,1.118c2.64,1.395,4.938-0.764,4.954-4.643
			c0.021-5.379,0.024-10.76,0.023-16.137c-0.004-11.267-0.009-22.535-0.022-33.8c-0.003-3.817-1.839-5.893-4.54-5.164
			c-1.498,0.403-2.534,2.046-2.69,4.289c-0.035,0.505-0.023,1.016-0.023,1.525c-0.003,12.746,0,25.496,0,38.249
			C75.072,122.983,75.072,123.436,75.072,124.211z"/>
		<path fill="#199DBF" d="M82.408,48.73c-0.033,1.385-1.025,2.338-2.389,2.298c-1.297-0.035-2.398-1.13-2.396-2.376
			c0.002-1.333,1.227-2.537,2.528-2.491C81.491,46.21,82.442,47.295,82.408,48.73z"/>
		<path fill="#199DBF" d="M90.063,46.16c1.265-0.009,2.45,1.168,2.469,2.451c0.019,1.262-1.174,2.424-2.481,2.419
			c-1.33-0.007-2.33-1.017-2.344-2.372C87.694,47.282,88.743,46.17,90.063,46.16z"/>
		<path fill="#199DBF" d="M88.356,67.135c0,2.303-1.867,4.171-4.172,4.171l0,0c-2.301,0-4.169-1.869-4.169-4.171v-4.199
			c0-2.303,1.868-4.17,4.169-4.17l0,0c2.305,0,4.172,1.867,4.172,4.17V67.135z"/>
	</g>
</g>
<path opacity="0.6" fill="#199DBF" enable-background="new    " d="M91.018,21.06c-5.799,7.06-11.595,14.124-17.396,21.185
	c-0.774,0.943-1.669,1.748-2.909,1.956c-2.005,0.336-3.39-0.651-4.389-2.271c-4.155-6.728-4.739-13.826-1.895-21.138
	c5.67-14.568,22.903-18.787,34.765-9.491c7.993,6.265,10.716,17.216,6.995,26.641c-0.615,1.561-1.462,3.071-2.425,4.443
	c-0.999,1.418-2.716,1.678-4.223,0.95c-1.534-0.742-2.291-2.103-1.908-3.786c0.212-0.932,0.653-1.825,1.083-2.692
	c2.607-5.271,2.452-10.483-0.339-15.62c-0.938-1.725-2.233-3.161-3.968-4.288C93.248,18.358,92.129,19.707,91.018,21.06z
	 M83.439,13.698c-11.571,1.85-15.5,13.291-12.684,20.887c0.264,0.722,0.643,1.405,1.05,2.278C77.968,29.377,84,22.049,90.116,14.617
	C87.878,13.476,85.686,13.34,83.439,13.698z"/>
<g>
	<g>
		<path d="M97.63,60.398c0.897-1.197,1.76-2.345,2.671-3.564c3.694,2.232,7.438,4.494,11.313,6.835
			c-0.041-0.475-0.053-0.799-0.1-1.12c-1.089-7.395-2.187-14.788-3.271-22.183c-0.067-0.446-0.11-0.911-0.063-1.354
			c0.165-1.488,1.616-2.354,3.008-1.815c0.33,0.128,0.65,0.289,0.953,0.472c5.009,3.03,10.015,6.066,15.021,9.103
			c1.143,0.692,1.576,1.652,1.239,2.718c-0.451,1.417-1.945,2.035-3.237,1.307c-1-0.562-1.974-1.173-2.954-1.766
			c-2.725-1.646-5.452-3.293-8.178-4.939c-0.179-0.109-0.357-0.218-0.662-0.4c0.161,1.127,0.301,2.114,0.445,3.101
			c0.978,6.691,1.956,13.383,2.929,20.075c0.063,0.448,0.126,0.908,0.093,1.356c-0.132,1.814-1.766,2.688-3.327,1.757
			c-3.295-1.964-6.573-3.962-9.858-5.945c-1.847-1.115-3.692-2.23-5.537-3.344C97.935,60.583,97.755,60.475,97.63,60.398z"/>
		<path d="M65.39,57.25c1.03,1.736,2.002,3.381,3.027,5.109c-0.201,0.104-0.445,0.232-0.688,0.361
			c-5.911,3.099-11.824,6.201-17.736,9.299c-0.09,0.049-0.181,0.099-0.274,0.142c-1.173,0.582-2.36,0.761-3.488-0.061
			c-1.154-0.843-1.251-2.051-0.991-3.326c0.533-2.615,1.081-5.228,1.628-7.839c1.489-7.107,2.98-14.215,4.467-21.325
			c0.078-0.374,0.128-0.755,0.222-1.334c-0.373,0.195-0.604,0.317-0.836,0.439c-4.774,2.504-9.548,5.01-14.327,7.507
			c-0.405,0.213-0.831,0.42-1.271,0.528c-1.494,0.372-2.593-0.243-3.303-1.793c-0.548-1.197-0.179-2.487,0.97-3.317
			c0.329-0.239,0.68-0.462,1.039-0.652c6.747-3.552,13.498-7.1,20.25-10.641c1.138-0.597,2.285-0.761,3.405,0.062
			c1.128,0.83,1.413,1.957,1.138,3.272c-1.511,7.233-3.027,14.468-4.539,21.703c-0.598,2.861-1.193,5.724-1.824,8.751
			C56.715,61.8,61.055,59.523,65.39,57.25z"/>
		<path d="M63.963,52.342c0-4.181-0.01-8.362,0.01-12.542c0.003-0.684,0.046-1.391,0.223-2.044c0.431-1.598,1.659-2.441,3.316-2.394
			c1.618,0.046,2.823,1.01,3.165,2.603c0.134,0.635,0.19,1.297,0.193,1.948c0.037,8.153,0.012,16.307,0.093,24.458
			c0.077,7.619,5.841,11.705,12.702,11.234c1.06-0.07,2.13-0.225,3.163-0.479c4.775-1.178,7.697-4.64,8.088-9.549
			c0.094-1.167,0.141-2.343,0.144-3.514c0.013-7.53,0.003-15.062,0.01-22.593c0.001-2.25,0.792-3.459,2.568-3.987
			c1.82-0.539,3.627,0.431,4.126,2.271c0.151,0.557,0.205,1.157,0.207,1.738c0.012,8.151,0.067,16.304-0.01,24.459
			c-0.063,6.616-2.396,12.153-8.243,15.76c-5.989,3.689-15.994,4.497-22.456-0.697c-4.693-3.77-7.277-8.552-7.25-14.653
			c0.02-4.007,0.003-8.012,0.003-12.019C63.997,52.342,63.979,52.342,63.963,52.342z"/>
		<path d="M94.616,114.893c2.852-2.63,5.544-5.104,8.229-7.594c0.812-0.752,1.639-1.418,2.667-1.257
			c1.347,0.217,2.393,1.434,2.703,3.187c0.32,1.794-0.138,3.253-1.213,4.271c-2.67,2.525-5.369,4.99-8.063,7.469
			c-1.641,1.513-3.282,3.016-4.937,4.497c-0.399,0.36-0.829,0.685-1.275,0.92c-2.164,1.144-4.052-0.626-4.064-3.812
			c-0.019-4.412-0.021-8.831-0.019-13.243c0.002-9.247,0.007-18.493,0.017-27.74c0.004-3.133,1.511-4.835,3.728-4.238
			c1.228,0.331,2.08,1.681,2.209,3.521c0.026,0.415,0.019,0.834,0.019,1.251c0.001,10.461,0,20.926,0,31.392
			C94.616,113.887,94.616,114.257,94.616,114.893z"/>
		<path d="M73.514,123.264c-3.475-3.205-6.755-6.221-10.026-9.253c-0.989-0.915-1.996-1.729-3.249-1.53
			c-1.642,0.262-2.917,1.746-3.295,3.88c-0.39,2.185,0.17,3.966,1.48,5.205c3.252,3.077,6.542,6.078,9.823,9.102
			c2,1.843,4.001,3.673,6.015,5.48c0.488,0.438,1.011,0.832,1.553,1.118c2.639,1.394,4.939-0.764,4.953-4.643
			c0.021-5.38,0.025-10.762,0.023-16.138c-0.003-11.267-0.008-22.533-0.021-33.8c-0.002-3.817-1.841-5.892-4.541-5.164
			c-1.498,0.403-2.535,2.045-2.691,4.289c-0.033,0.506-0.023,1.016-0.023,1.525c0,12.747,0,25.497,0,38.248
			C73.514,122.037,73.514,122.488,73.514,123.264z"/>
		<path d="M80.852,47.784c-0.035,1.384-1.027,2.337-2.39,2.297c-1.298-0.035-2.397-1.13-2.397-2.376
			c0.002-1.333,1.227-2.538,2.529-2.492C79.934,45.263,80.887,46.349,80.852,47.784z"/>
		<path d="M88.506,45.212c1.264-0.007,2.448,1.17,2.469,2.452c0.018,1.262-1.174,2.424-2.482,2.419
			c-1.328-0.006-2.329-1.016-2.344-2.372C86.135,46.336,87.185,45.222,88.506,45.212z"/>
		<path d="M86.798,66.189c0,2.303-1.866,4.169-4.17,4.169l0,0c-2.303,0-4.17-1.866-4.17-4.169v-4.201
			c0-2.303,1.867-4.169,4.17-4.169l0,0c2.303,0,4.17,1.867,4.17,4.169V66.189z"/>
	</g>
</g>
<path d="M88.748,17.976c-5.8,7.059-11.597,14.124-17.396,21.186c-0.775,0.941-1.668,1.748-2.91,1.955
	c-2.003,0.336-3.389-0.651-4.389-2.271c-4.156-6.726-4.739-13.824-1.894-21.136C67.829,3.142,85.062-1.078,96.923,8.219
	c7.994,6.264,10.717,17.215,6.997,26.64c-0.616,1.56-1.463,3.07-2.427,4.443c-0.997,1.418-2.714,1.679-4.22,0.951
	c-1.535-0.742-2.292-2.104-1.909-3.786c0.212-0.932,0.652-1.825,1.081-2.693c2.609-5.271,2.453-10.481-0.336-15.62
	c-0.937-1.725-2.233-3.161-3.969-4.289C90.978,15.274,89.86,16.622,88.748,17.976z M81.17,10.613
	c-11.572,1.851-15.5,13.291-12.685,20.887c0.264,0.722,0.645,1.405,1.05,2.279c6.162-7.486,12.194-14.815,18.312-22.248
	C85.607,10.391,83.417,10.254,81.17,10.613z"/>
</svg>
