<?xml version="1.0" encoding="utf-8"?>
<!-- Generator: Adobe Illustrator 16.0.3, SVG Export Plug-In . SVG Version: 6.00 Build 0)  -->
<!DOCTYPE svg PUBLIC "-//W3C//DTD SVG 1.1//EN" "http://www.w3.org/Graphics/SVG/1.1/DTD/svg11.dtd">
<svg version="1.1" id="Capa_1" xmlns="http://www.w3.org/2000/svg" xmlns:xlink="http://www.w3.org/1999/xlink" x="0px" y="0px"
	 width="140px" height="140px" viewBox="0 0 140 140" enable-background="new 0 0 140 140" xml:space="preserve">
<g opacity="0.75">
	<path fill="#FF0000" d="M4.135,94.973c1.898-1.548,2.578-1.511,4.496,0.131c4.676,4.002,9.867,7.021,16.019,8.074
		c1.422,0.243,2.894,0.278,4.343,0.278c27.581,0.015,55.163-0.127,82.743,0.087c8.455,0.064,15.498-2.773,21.822-8.025
		c0.299-0.248,0.582-0.516,0.877-0.767c1.334-1.13,2.639-1.166,3.604-0.103c0.945,1.043,0.871,2.564-0.447,3.569
		c-2.609,1.994-5.207,4.06-8.039,5.701c-5.293,3.067-11.047,4.396-17.24,4.374c-27.821-0.104-55.646-0.021-83.469-0.046
		c-9.824-0.009-17.824-4.249-24.708-10.95C4.135,96.521,4.135,95.748,4.135,94.973z"/>
	<path fill="#FF0000" d="M64.912,10.188c9.982,0,19.963-0.001,29.943,0c2.699,0,3.506,0.792,3.508,3.448
		c0.006,5.241,0.01,10.48,0.004,15.721c-0.004,2.219-0.85,3.092-3.072,3.101c-6.887,0.024-13.773,0-20.66,0.041
		c-1.475,0.01-2.424-0.579-3.109-1.871c-1.399-2.644-2.869-5.253-4.341-7.86c-1.26-2.229-3.085-3.109-5.177-2.56
		c-2.161,0.567-3.252,2.129-3.279,4.73c-0.018,1.548,0.025,3.096-0.016,4.642c-0.052,1.957-0.915,2.854-2.864,2.861
		c-7.186,0.027-14.373,0.026-21.561,0c-1.896-0.008-2.755-0.884-2.763-2.763c-0.023-5.539-0.022-11.079-0.001-16.618
		c0.009-2.026,0.953-2.868,3.145-2.869C44.749,10.185,54.831,10.188,64.912,10.188z"/>
	<path fill="#FF0000" d="M76.193,78.92c0-0.729,0-1.252,0-1.775c0-14.974-0.002-29.948,0-44.92c0-2.922,0.633-3.538,3.613-3.54
		c4.118-0.002,8.237-0.011,12.356-0.004c2.366,0.004,3.183,0.785,3.185,3.111c0.01,11.533-0.002,23.067,0.02,34.599
		c0.002,0.857-0.227,1.345-1.004,1.85c-1.074,0.697-2.014,1.652-2.877,2.613C87.434,75.352,82.469,78.079,76.193,78.92z"/>
	<path fill="#FF0000" d="M54.374,60.222c-6.373,0-12.654,0-19.045,0c-0.024-0.375-0.077-0.799-0.077-1.224
		c-0.006-10.561-0.011-21.122-0.002-31.682c0.002-2.555,0.735-3.279,3.291-3.284c4.313-0.011,8.623-0.013,12.935,0.004
		c2.085,0.008,2.97,0.86,2.972,2.882c0.017,15.407,0.011,26.162,0.01,32.263C54.458,59.557,54.397,59.933,54.374,60.222z"/>
	<path fill="#FF0000" d="M44.755,93.616c-4.312,0.001-8.623,0.013-12.935-0.005c-2.516-0.006-3.303-0.889-3.021-3.412
		c0.301-2.696,0.674-5.383,0.991-8.076c0.166-1.395,0.874-2.311,2.192-2.799c2.296-0.854,3.234-2.608,3.269-4.973
		c0.072-4.656,0.141-4.713,4.742-4.716c3.779-0.002,7.558-0.017,11.337-0.006c2.355,0.007,3.112,0.788,3.125,3.151
		c0.002,0.63-0.016,1.261,0.005,1.89c0.077,2.193,1.047,3.818,3.142,4.606c1.496,0.562,2.204,1.584,2.363,3.149
		c0.275,2.697,0.673,5.384,0.947,8.082c0.221,2.147-0.634,3.085-2.786,3.099C53.67,93.634,49.211,93.615,44.755,93.616z
		 M44.875,79.225c0.82,0,1.647,0.055,2.463-0.015c1.41-0.116,2.368-1.178,2.325-2.478c-0.04-1.248-0.981-2.275-2.319-2.336
		c-1.64-0.076-3.285-0.069-4.926,0c-1.417,0.06-2.417,1.119-2.417,2.397c-0.002,1.281,0.981,2.304,2.411,2.415
		C43.229,79.275,44.055,79.223,44.875,79.225z M44.81,88.854c0.821,0,1.646,0.045,2.464-0.013c1.42-0.096,2.401-1.123,2.391-2.424
		c-0.01-1.244-0.935-2.328-2.266-2.401c-1.687-0.092-3.385-0.092-5.072-0.005c-1.381,0.071-2.375,1.232-2.33,2.499
		c0.046,1.229,1.01,2.225,2.349,2.327C43.163,88.9,43.989,88.85,44.81,88.854z"/>
	<path fill="#FF0000" d="M76.373,83.9c0.637-0.105,1.303-0.209,1.963-0.33c6.891-1.271,12.611-4.59,17.123-9.93
		c0.998-1.183,2.068-1.793,3.621-1.666c1.107,0.092,2.229,0.006,3.344,0.031c1.182,0.023,2.037,0.559,2.414,1.723
		c0.309,0.939,0.188,1.623-0.859,2.106c-2.285,1.058-4.521,2.224-6.768,3.364c-1.672,0.85-2.248,2.176-1.566,3.514
		c0.681,1.332,2.07,1.654,3.777,0.822c2.09-1.02,4.205-2,6.225-3.146c1.09-0.621,1.82-0.509,2.621,0.394
		c0.471,0.528,1.101,0.917,1.867,1.54c-1.303,0.671-2.236,1.152-3.17,1.634c-1.801,0.927-2.398,2.198-1.682,3.584
		c0.705,1.356,2.086,1.626,3.9,0.745c1.131-0.551,2.282-1.073,3.377-1.696c0.741-0.423,1.215-0.308,1.705,0.364
		c0.627,0.859,1.336,1.66,2.006,2.488c0.688,0.853,0.996,1.781,0.49,2.83c-0.511,1.056-1.433,1.349-2.529,1.347
		c-5.478-0.007-10.955,0.008-16.431,0.008c-6.106,0-12.215-0.001-18.323-0.013c-2.605-0.006-3.289-0.688-3.291-3.256
		c0-1.985,0.016-3.974,0.037-5.961C76.225,84.261,76.303,84.125,76.373,83.9z"/>
	<path fill="#FF0000" d="M97.797,98.486c6.148-0.002,12.299-0.012,18.445,0.01c0.615,0.002,1.283,0.056,1.834,0.292
		c1.365,0.584,1.393,1.841,1.34,3.088c-0.049,1.196-1.086,0.962-1.746,1.075c-1.232,0.212-2.498,0.318-3.75,0.32
		c-11.428,0.018-22.854,0.004-34.279-0.004c-0.481,0-0.975,0.012-1.447-0.072c-1.19-0.217-1.895-0.947-1.965-2.17
		c-0.076-1.299,0.605-2.11,1.826-2.438c0.455-0.122,0.961-0.096,1.441-0.096C85.596,98.486,91.697,98.489,97.797,98.486z"/>
	<path fill="#FF0000" d="M39.659,125.342c-0.029,5.096-4.293,9.301-9.362,9.235c-5.087-0.065-9.198-4.327-9.125-9.46
		c0.071-5.047,4.227-9.139,9.261-9.121C35.548,116.014,39.689,120.209,39.659,125.342z"/>
	<path fill="#FF0000" d="M121.969,125.342c-0.027,5.096-4.293,9.301-9.359,9.235c-5.09-0.065-9.2-4.327-9.127-9.46
		c0.072-5.047,4.228-9.139,9.261-9.121C117.859,116.014,122,120.209,121.969,125.342z"/>
	<path fill="#FF0000" d="M44.835,98.489c4.644,0,9.289-0.058,13.932,0.051c0.845,0.021,1.925,0.503,2.457,1.14
		c1.034,1.239,0.164,3.135-1.443,3.482c-0.513,0.111-1.056,0.104-1.586,0.104c-8.903,0.006-17.804,0.006-26.706,0.004
		c-0.194,0-0.388,0.004-0.582-0.002c-1.787-0.051-2.877-0.953-2.881-2.384c-0.004-1.418,1.122-2.383,2.875-2.391
		C35.546,98.479,40.19,98.489,44.835,98.489z"/>
	<path fill="#FF0000" d="M24.474,109.148c4.001,0,7.843,0,11.883,0c-0.18,1.022-0.317,1.863-0.48,2.699
		c-0.247,1.264-1.058,1.967-2.31,2.004c-2.076,0.063-4.155,0.061-6.23,0.014c-1.322-0.027-2.164-0.746-2.417-2.068
		C24.755,110.945,24.631,110.089,24.474,109.148z"/>
	<path fill="#FF0000" d="M118.074,109.189c0.012,0.068,0.049,0.166,0.037,0.258c-0.49,4.174-0.803,4.449-5.043,4.449
		c-1.014,0-2.027,0.006-3.041-0.002c-2.359-0.017-2.982-0.527-3.416-2.816c-0.105-0.559-0.164-1.125-0.271-1.889
		C110.328,109.189,114.197,109.189,118.074,109.189z"/>
</g>
<g opacity="0.7">
	<path fill="#00A0C6" d="M-2,91.566c1.898-1.545,2.578-1.51,4.497,0.132c4.676,4.003,9.866,7.022,16.019,8.075
		c1.422,0.242,2.895,0.278,4.344,0.278c27.581,0.015,55.162-0.128,82.742,0.087c8.453,0.063,15.498-2.773,21.822-8.027
		c0.299-0.246,0.582-0.514,0.877-0.766c1.334-1.13,2.639-1.166,3.604-0.101c0.943,1.043,0.871,2.563-0.446,3.569
		c-2.608,1.992-5.207,4.059-8.037,5.699c-5.297,3.067-11.047,4.396-17.241,4.373c-27.822-0.103-55.646-0.019-83.47-0.044
		c-9.824-0.01-17.824-4.251-24.708-10.95C-2,93.119-2,92.343-2,91.566z"/>
	<path fill="#00A0C6" d="M58.777,6.784c9.982,0,19.963-0.001,29.944,0c2.698,0,3.506,0.792,3.508,3.448
		c0.006,5.24,0.01,10.48,0.004,15.72c-0.004,2.219-0.853,3.092-3.072,3.101c-6.887,0.024-13.775,0-20.66,0.041
		c-1.475,0.009-2.424-0.58-3.109-1.871c-1.402-2.644-2.87-5.253-4.342-7.86c-1.26-2.229-3.085-3.109-5.178-2.56
		c-2.16,0.567-3.252,2.129-3.279,4.73c-0.017,1.548,0.025,3.096-0.015,4.642c-0.052,1.957-0.915,2.854-2.864,2.861
		c-7.186,0.027-14.373,0.026-21.56,0c-1.896-0.008-2.755-0.884-2.764-2.763c-0.023-5.539-0.022-11.079,0-16.618
		c0.008-2.026,0.952-2.868,3.145-2.869C38.614,6.78,48.695,6.784,58.777,6.784z"/>
	<path fill="#00A0C6" d="M70.061,75.516c0-0.729,0-1.252,0-1.775c0-14.973-0.002-29.947,0-44.92c0-2.922,0.629-3.538,3.611-3.54
		c4.119-0.002,8.238-0.011,12.355-0.004c2.369,0.004,3.184,0.785,3.186,3.111c0.01,11.533-0.002,23.067,0.02,34.6
		c0.002,0.857-0.227,1.344-1.004,1.849c-1.074,0.697-2.012,1.652-2.877,2.614C81.299,71.945,76.334,74.676,70.061,75.516z"/>
	<path fill="#00A0C6" d="M48.239,56.817c-6.373,0-12.654,0-19.045,0c-0.024-0.374-0.076-0.799-0.076-1.224
		c-0.006-10.561-0.011-21.122-0.003-31.682c0.002-2.555,0.736-3.279,3.292-3.284c4.311-0.011,8.623-0.013,12.934,0.004
		c2.086,0.008,2.97,0.86,2.972,2.882c0.017,15.407,0.011,26.162,0.009,32.263C48.322,56.153,48.263,56.528,48.239,56.817z"/>
	<path fill="#00A0C6" d="M38.62,90.213c-4.311,0-8.623,0.012-12.935-0.004c-2.516-0.008-3.303-0.891-3.021-3.415
		c0.301-2.694,0.674-5.382,0.991-8.075c0.165-1.395,0.874-2.31,2.192-2.799c2.296-0.854,3.234-2.607,3.269-4.973
		c0.071-4.655,0.14-4.713,4.741-4.715c3.779-0.002,7.558-0.017,11.337-0.006c2.356,0.007,3.112,0.788,3.124,3.151
		c0.003,0.63-0.014,1.262,0.007,1.891c0.076,2.192,1.046,3.817,3.142,4.606c1.495,0.562,2.204,1.583,2.363,3.149
		c0.275,2.697,0.673,5.383,0.947,8.08c0.22,2.147-0.634,3.086-2.786,3.099C47.535,90.23,43.077,90.211,38.62,90.213z M38.74,75.818
		c0.821,0,1.647,0.057,2.462-0.014c1.411-0.115,2.369-1.179,2.326-2.479c-0.04-1.247-0.981-2.274-2.32-2.334
		c-1.639-0.076-3.285-0.07-4.925,0c-1.417,0.059-2.416,1.119-2.417,2.398c-0.001,1.28,0.981,2.303,2.412,2.414
		C37.094,75.871,37.919,75.818,38.74,75.818z M38.675,85.448c0.822,0,1.646,0.046,2.464-0.013c1.42-0.095,2.4-1.121,2.391-2.425
		c-0.01-1.243-0.936-2.327-2.267-2.399c-1.687-0.092-3.385-0.092-5.072-0.004c-1.38,0.068-2.375,1.231-2.329,2.496
		c0.045,1.229,1.01,2.227,2.348,2.328C37.028,85.496,37.854,85.443,38.675,85.448z"/>
	<path fill="#00A0C6" d="M70.24,80.497c0.635-0.106,1.299-0.209,1.961-0.331c6.891-1.27,12.609-4.589,17.121-9.93
		c0.998-1.182,2.07-1.792,3.623-1.665c1.106,0.092,2.229,0.006,3.344,0.031c1.182,0.025,2.035,0.557,2.414,1.722
		c0.309,0.939,0.189,1.623-0.859,2.107c-2.285,1.057-4.521,2.223-6.768,3.363c-1.672,0.85-2.248,2.178-1.566,3.514
		c0.68,1.334,2.07,1.653,3.777,0.822c2.09-1.018,4.205-2.001,6.225-3.146c1.09-0.62,1.822-0.508,2.623,0.394
		c0.469,0.528,1.096,0.918,1.867,1.54c-1.305,0.672-2.238,1.152-3.172,1.635c-1.801,0.928-2.398,2.2-1.682,3.583
		c0.705,1.358,2.086,1.628,3.899,0.745c1.134-0.55,2.283-1.07,3.379-1.693c0.74-0.424,1.214-0.309,1.703,0.362
		c0.625,0.861,1.336,1.66,2.009,2.49c0.688,0.851,0.993,1.778,0.487,2.828c-0.51,1.057-1.433,1.349-2.528,1.347
		c-5.479-0.006-10.955,0.008-16.431,0.008c-6.106,0-12.215,0-18.324-0.012c-2.604-0.006-3.288-0.688-3.291-3.256
		c0-1.987,0.017-3.975,0.035-5.961C70.088,80.855,70.168,80.723,70.24,80.497z"/>
	<path fill="#00A0C6" d="M91.662,95.082c6.148-0.002,12.299-0.012,18.445,0.01c0.615,0.002,1.281,0.057,1.836,0.292
		c1.363,0.585,1.391,1.841,1.338,3.089c-0.051,1.194-1.086,0.961-1.744,1.075c-1.234,0.211-2.5,0.317-3.752,0.319
		c-11.428,0.017-22.854,0.005-34.279-0.002c-0.482,0-0.977,0.011-1.447-0.074c-1.19-0.217-1.895-0.947-1.967-2.169
		c-0.074-1.3,0.605-2.112,1.826-2.438c0.457-0.121,0.963-0.096,1.443-0.096C79.461,95.082,85.563,95.084,91.662,95.082z"/>
	<path fill="#00A0C6" d="M33.524,121.938c-0.029,5.097-4.292,9.303-9.361,9.235c-5.087-0.065-9.199-4.327-9.125-9.46
		c0.071-5.048,4.227-9.14,9.261-9.122C29.413,112.607,33.554,116.805,33.524,121.938z"/>
	<path fill="#00A0C6" d="M115.836,121.938c-0.029,5.097-4.293,9.303-9.363,9.235c-5.088-0.065-9.199-4.327-9.125-9.46
		c0.072-5.048,4.226-9.14,9.26-9.122C111.725,112.607,115.865,116.805,115.836,121.938z"/>
	<path fill="#00A0C6" d="M38.701,95.084c4.644,0,9.29-0.057,13.932,0.053c0.845,0.021,1.926,0.504,2.458,1.141
		c1.034,1.238,0.163,3.134-1.443,3.481c-0.514,0.11-1.057,0.104-1.587,0.104c-8.903,0.006-17.804,0.004-26.706,0.004
		c-0.194,0-0.388,0.003-0.581-0.002c-1.787-0.053-2.877-0.954-2.881-2.385c-0.004-1.418,1.122-2.383,2.875-2.392
		C29.411,95.074,34.055,95.084,38.701,95.084z"/>
	<path fill="#00A0C6" d="M18.339,105.744c4.001,0,7.844,0,11.883,0c-0.18,1.023-0.317,1.865-0.479,2.701
		c-0.247,1.263-1.059,1.965-2.311,2.004c-2.075,0.062-4.154,0.058-6.23,0.012c-1.322-0.027-2.164-0.747-2.418-2.068
		C18.62,107.541,18.496,106.686,18.339,105.744z"/>
	<path fill="#00A0C6" d="M111.941,105.785c0.01,0.068,0.047,0.166,0.037,0.257c-0.492,4.175-0.808,4.45-5.045,4.45
		c-1.015,0-2.027,0.006-3.041,0c-2.359-0.018-2.982-0.528-3.416-2.819c-0.105-0.557-0.164-1.124-0.271-1.888
		C104.193,105.785,108.063,105.785,111.941,105.785z"/>
</g>
<g>
	<path d="M2.067,92.98c1.898-1.547,2.579-1.51,4.497,0.133c4.677,4.001,9.866,7.021,16.02,8.074
		c1.422,0.242,2.894,0.277,4.343,0.277c27.581,0.014,55.161-0.127,82.743,0.087c8.453,0.064,15.496-2.774,21.822-8.026
		c0.297-0.248,0.582-0.515,0.877-0.766c1.334-1.13,2.637-1.167,3.602-0.102c0.945,1.043,0.871,2.564-0.445,3.568
		c-2.61,1.994-5.209,4.06-8.039,5.7c-5.295,3.067-11.047,4.396-17.239,4.375c-27.822-0.103-55.646-0.021-83.47-0.046
		c-9.824-0.009-17.824-4.249-24.709-10.949C2.067,94.532,2.067,93.757,2.067,92.98z"/>
	<path d="M62.845,8.198c9.981,0,19.961-0.001,29.944,0c2.699,0,3.506,0.792,3.508,3.448c0.004,5.24,0.01,10.48,0.002,15.72
		c-0.002,2.219-0.85,3.093-3.07,3.101c-6.887,0.024-13.774,0-20.66,0.042c-1.477,0.009-2.425-0.58-3.109-1.871
		c-1.402-2.644-2.87-5.254-4.342-7.86c-1.26-2.229-3.085-3.11-5.178-2.561c-2.16,0.567-3.251,2.13-3.279,4.731
		c-0.017,1.546,0.025,3.095-0.015,4.641c-0.052,1.957-0.915,2.854-2.864,2.861c-7.188,0.026-14.373,0.026-21.56,0
		c-1.896-0.008-2.755-0.884-2.764-2.762c-0.023-5.54-0.022-11.079,0-16.619c0.008-2.026,0.952-2.868,3.145-2.869
		C42.682,8.194,52.763,8.198,62.845,8.198z"/>
	<path d="M74.127,76.93c0-0.729,0-1.252,0-1.775c0-14.973-0.002-29.947,0-44.92c0-2.923,0.631-3.538,3.613-3.539
		c4.119-0.002,8.236-0.011,12.355-0.004c2.368,0.004,3.182,0.785,3.184,3.112c0.012,11.532-0.002,23.065,0.021,34.599
		c0.002,0.857-0.227,1.345-1.004,1.849c-1.075,0.696-2.014,1.652-2.879,2.614C85.365,73.359,80.4,76.089,74.127,76.93z"/>
	<path d="M52.307,58.231c-6.373,0-12.654,0-19.045,0c-0.024-0.375-0.076-0.799-0.076-1.224c-0.006-10.561-0.011-21.122-0.003-31.682
		c0.002-2.555,0.735-3.279,3.292-3.284c4.312-0.011,8.623-0.013,12.934,0.003c2.086,0.008,2.97,0.86,2.972,2.881
		c0.018,15.408,0.011,26.163,0.009,32.264C52.39,57.566,52.33,57.942,52.307,58.231z"/>
	<path d="M42.688,91.626c-4.312,0.001-8.623,0.013-12.935-0.004c-2.516-0.008-3.304-0.89-3.021-3.413
		c0.301-2.695,0.674-5.383,0.991-8.076c0.165-1.395,0.873-2.31,2.192-2.799c2.296-0.854,3.233-2.609,3.269-4.973
		c0.07-4.655,0.14-4.714,4.741-4.715c3.779-0.001,7.558-0.016,11.336-0.005c2.356,0.006,3.112,0.787,3.125,3.152
		c0.003,0.629-0.015,1.26,0.007,1.889c0.076,2.193,1.045,3.818,3.141,4.606c1.495,0.562,2.204,1.584,2.363,3.149
		c0.275,2.697,0.673,5.383,0.948,8.082c0.219,2.147-0.635,3.084-2.787,3.098C51.602,91.645,47.145,91.625,42.688,91.626z
		 M42.808,77.232c0.821,0,1.647,0.056,2.462-0.014c1.411-0.115,2.369-1.178,2.327-2.479c-0.04-1.248-0.981-2.274-2.321-2.336
		c-1.639-0.074-3.285-0.068-4.925,0c-1.417,0.06-2.416,1.121-2.417,2.398c-0.001,1.281,0.981,2.303,2.412,2.415
		C41.162,77.284,41.987,77.232,42.808,77.232z M42.743,86.861c0.822,0,1.646,0.046,2.464-0.012c1.42-0.096,2.401-1.123,2.392-2.424
		c-0.01-1.244-0.936-2.328-2.267-2.4c-1.687-0.092-3.385-0.092-5.072-0.006c-1.38,0.07-2.374,1.232-2.328,2.5
		c0.045,1.229,1.01,2.224,2.348,2.326C41.096,86.909,41.921,86.857,42.743,86.861z"/>
	<path d="M74.307,81.911c0.635-0.106,1.301-0.21,1.961-0.332c6.894-1.269,12.611-4.589,17.123-9.929
		c0.998-1.184,2.07-1.793,3.623-1.666c1.107,0.091,2.229,0.004,3.344,0.03c1.183,0.026,2.035,0.557,2.414,1.723
		c0.308,0.938,0.188,1.623-0.858,2.107c-2.287,1.057-4.522,2.223-6.769,3.363c-1.672,0.85-2.248,2.176-1.565,3.514
		c0.68,1.332,2.069,1.654,3.774,0.822c2.09-1.02,4.207-2.001,6.226-3.146c1.092-0.619,1.821-0.508,2.623,0.395
		c0.471,0.527,1.098,0.917,1.866,1.54c-1.305,0.671-2.235,1.151-3.17,1.634c-1.801,0.928-2.397,2.199-1.682,3.584
		c0.703,1.356,2.086,1.626,3.9,0.744c1.131-0.55,2.283-1.072,3.377-1.695c0.74-0.423,1.213-0.308,1.705,0.363
		c0.625,0.861,1.336,1.661,2.006,2.49c0.689,0.852,0.996,1.779,0.49,2.829c-0.51,1.056-1.432,1.349-2.531,1.347
		c-5.477-0.006-10.953,0.008-16.43,0.008c-6.107,0-12.215,0-18.322-0.013c-2.605-0.005-3.291-0.688-3.293-3.256
		c0-1.986,0.018-3.974,0.037-5.961C74.156,82.271,74.236,82.135,74.307,81.911z"/>
	<path d="M95.729,96.496c6.15-0.002,12.299-0.012,18.447,0.009c0.615,0.002,1.281,0.058,1.834,0.293
		c1.365,0.584,1.391,1.841,1.34,3.087c-0.051,1.197-1.086,0.963-1.746,1.076c-1.231,0.212-2.5,0.318-3.752,0.32
		c-11.426,0.018-22.852,0.005-34.276-0.004c-0.482,0-0.978,0.013-1.447-0.073c-1.192-0.215-1.896-0.946-1.967-2.168
		c-0.076-1.3,0.604-2.112,1.825-2.438c0.457-0.121,0.961-0.097,1.443-0.097C83.527,96.496,89.629,96.498,95.729,96.496z"/>
	<path d="M37.592,123.352c-0.028,5.096-4.292,9.301-9.361,9.234c-5.088-0.064-9.199-4.326-9.126-9.459
		c0.071-5.048,4.227-9.141,9.261-9.122C33.481,114.021,37.622,118.219,37.592,123.352z"/>
	<path d="M119.902,123.352c-0.027,5.096-4.293,9.301-9.361,9.234c-5.088-0.064-9.199-4.326-9.127-9.459
		c0.074-5.048,4.227-9.141,9.262-9.122C115.791,114.021,119.932,118.219,119.902,123.352z"/>
	<path d="M42.768,96.498c4.644,0,9.29-0.057,13.932,0.052c0.845,0.021,1.926,0.503,2.458,1.14c1.033,1.24,0.163,3.136-1.443,3.482
		c-0.514,0.111-1.058,0.104-1.587,0.104c-8.903,0.007-17.805,0.006-26.707,0.004c-0.194,0-0.387,0.005-0.581-0.002
		c-1.787-0.051-2.877-0.953-2.881-2.383c-0.005-1.418,1.121-2.385,2.875-2.393C33.479,96.488,38.123,96.498,42.768,96.498z"/>
	<path d="M22.407,107.158c4.001,0,7.844,0,11.883,0c-0.18,1.021-0.318,1.863-0.48,2.699c-0.247,1.264-1.059,1.968-2.31,2.004
		c-2.076,0.063-4.154,0.061-6.23,0.014c-1.322-0.027-2.164-0.747-2.418-2.068C22.688,108.956,22.563,108.1,22.407,107.158z"/>
	<path d="M116.008,107.199c0.012,0.068,0.049,0.166,0.037,0.257c-0.492,4.174-0.805,4.45-5.043,4.45
		c-1.014,0-2.027,0.006-3.041-0.002c-2.359-0.016-2.982-0.527-3.416-2.817c-0.105-0.558-0.166-1.125-0.271-1.888
		C108.26,107.199,112.131,107.199,116.008,107.199z"/>
</g>
</svg>
