<?xml version="1.0" encoding="utf-8"?>
<!-- Generator: Adobe Illustrator 16.0.3, SVG Export Plug-In . SVG Version: 6.00 Build 0)  -->
<!DOCTYPE svg PUBLIC "-//W3C//DTD SVG 1.1//EN" "http://www.w3.org/Graphics/SVG/1.1/DTD/svg11.dtd">
<svg version="1.1" id="Capa_1" xmlns="http://www.w3.org/2000/svg" xmlns:xlink="http://www.w3.org/1999/xlink" x="0px" y="0px"
	 width="140px" height="140px" viewBox="0 0 140 140" enable-background="new 0 0 140 140" xml:space="preserve">
<g opacity="0.75">
	<path fill-rule="evenodd" clip-rule="evenodd" fill="#FF0000" d="M26.528,47.86c0.972,2.233,1.927,4.475,2.917,6.699
		c3.085,6.926,1.579,5.222,8.076,8.498c1.094,0.553,2.165,1.168,3.3,1.619c0.99,0.391,1.266,1.008,1.194,2.015
		c-0.52,7.37,0.338,14.599,2.52,21.645c1.749,5.654,1.88,11.259,0.687,17.072c-1.338,6.512-2.107,13.14-3.27,19.688
		c-0.248,1.399-0.872,2.889-1.759,3.983c-1.637,2.022-4.508,2.422-6.835,1.322c-2.411-1.141-3.787-3.498-3.411-6.239
		c0.568-4.118,1.267-8.22,1.918-12.326c0.721-4.541,1.461-9.079,2.164-13.623c0.077-0.502,0.052-1.055-0.069-1.55
		c-1.489-6.035-3.035-12.056-4.491-18.101c-0.375-1.559-1.399-0.843-2.417-1.036c0.58,3.02,1.118,5.838,1.661,8.655
		c0.646,3.355,1.417,6.691,1.882,10.071c0.188,1.355,0.062,2.979-0.53,4.185c-4.443,9.085-9.016,18.11-13.6,27.127
		c-1.601,3.148-5.139,4.279-8.155,2.747c-3.013-1.53-4.186-5.033-2.612-8.196c4.021-8.075,8.119-16.111,12.13-24.191
		c0.337-0.679,0.472-1.604,0.336-2.349c-1.038-5.729-2.172-11.439-3.257-17.159c-0.121-0.641-0.173-1.303-0.173-1.955
		c-0.01-12.662-0.01-25.323-0.006-37.984c0-4.966,2.87-7.848,7.817-7.857c3.811-0.007,7.623-0.004,11.435-0.001
		c5.006,0.004,7.595,2.39,8.031,7.391c0.011,0.126,0.058,0.248,0.15,0.622c5.503-1.373,10.99-2.74,16.476-4.108
		c0.049,0.065,0.097,0.131,0.146,0.196c-0.267,0.294-0.524,0.599-0.804,0.881c-1.605,1.616-3.222,3.223-4.824,4.841
		c-2.394,2.416-2.62,3.163-1.957,6.577c-1.926,0.481-3.872,1.358-5.796,1.318c-1.407-0.03-2.92-1.09-4.151-2.007
		c-2.094-1.561-4.003-3.368-6.203-4.886c1.328,1.805,2.754,3.548,3.959,5.432c1.491,2.332,3.474,3.88,6,5.021
		c4.386,1.983,8.66,4.216,12.958,6.391c2.171,1.1,3.188,3.258,2.757,5.584c-0.417,2.262-2.246,3.99-4.636,4.135
		c-0.917,0.055-1.947-0.156-2.775-0.557c-5.796-2.797-11.573-5.641-17.308-8.563c-0.971-0.495-1.849-1.339-2.527-2.211
		c-2.281-2.935-4.452-5.955-6.666-8.942C26.72,47.775,26.624,47.817,26.528,47.86z"/>
	<path fill-rule="evenodd" clip-rule="evenodd" fill="#FF0000" d="M105.954,79.088c0.121,2.435,0.237,4.87,0.362,7.307
		c0.212,4.111,0.5,8.221,0.601,12.334c0.03,1.22-0.25,2.55-0.758,3.661c-3.67,8.046-7.437,16.05-11.17,24.064
		c-0.131,0.279-0.255,0.559-0.39,0.834c-1.611,3.269-4.94,4.569-7.987,3.119c-3.046-1.45-4.175-4.874-2.655-8.154
		c3.48-7.509,7.007-14.994,10.431-22.526c0.462-1.018,0.65-2.257,0.615-3.383c-0.137-4.289-0.4-8.574-0.655-12.857
		c-0.049-0.805,0.143-1.236,0.956-1.565c2.469-0.997,3.973-2.914,4.817-5.405c1.786-5.266,3.472-10.57,5.451-15.762
		c0.891-2.336,2.362-4.454,3.616-6.645c0.597-1.043,1.301-2.024,1.729-3.22c-1.689,1.616-3.301,3.328-5.091,4.825
		c-2.124,1.778-3.413,3.945-4.227,6.588c-1.402,4.557-3.027,9.048-4.623,13.544c-1.289,3.632-5.54,4.791-8.313,2.294
		c-1.616-1.455-2.179-3.318-1.495-5.371c2.104-6.311,4.264-12.606,6.483-18.878c0.306-0.863,0.979-1.66,1.647-2.321
		c2.767-2.739,5.597-5.413,8.244-8.355c-1.916,1.122-3.832,2.243-5.991,3.505c0.377-1.328-0.109-2.544,1.053-3.502
		c0.414-0.342,0.355-1.301,0.439-1.987c0.504-4.05,3.655-6.794,7.709-6.433c4.446,0.396,8.884,0.925,13.306,1.544
		c3.763,0.526,6.342,3.929,5.926,7.734c-0.989,9.01-2.043,18.013-3.078,27.018c-0.35,3.044-0.742,6.083-1.075,9.129
		c-0.05,0.457,0.052,0.958,0.195,1.403c1.34,4.166,2.898,8.275,3.994,12.505c0.717,2.767,0.849,5.698,1.113,8.566
		c0.665,7.196,1.26,14.399,1.879,21.599c0.247,2.88-1.199,5.291-3.756,6.277c-2.403,0.928-5.2,0.254-6.676-1.902
		c-0.704-1.028-1.167-2.376-1.289-3.623c-0.857-8.85-1.596-17.71-2.388-26.565c-0.05-0.56-0.174-1.126-0.353-1.658
		c-1.746-5.231-3.514-10.454-5.271-15.683C108.558,78.989,108.558,78.983,105.954,79.088z"/>
	<path fill-rule="evenodd" clip-rule="evenodd" fill="#FF0000" d="M55.1,71.173c5.611-0.578,7.922-2.75,8.918-8.405
		c2.114,3.33,4.967,5.396,8.794,5.916c2.795,0.381,5.396-0.23,7.788-1.725c4.562-2.85,6.556-8.506,4.821-13.678
		c-1.682-5.013-6.712-8.349-11.908-7.9c-6.393,0.553-9.878,4.525-11.054,12.7c-3.072-3.393-7.579-4.25-11.214-7.014
		c0.813-0.085,1.63-0.257,2.439-0.23c0.866,0.028,1.427-0.167,1.614-1.093c0.193-0.952,1.33-1.737,0.052-2.874
		c-2.04-1.816-1.961-2.346-0.059-4.232c1.711-1.697,3.405-3.411,5.121-5.103c1.243-1.223,1.994-1.213,3.239-0.011
		c1.322,1.276,2.555,1.362,4.043,0.231c0.201-0.153,0.326-0.494,0.359-0.764c0.058-0.475,0.006-0.962,0.022-1.443
		c0.048-1.473,0.637-2.107,2.072-2.12c2.804-0.026,5.608-0.026,8.411,0c1.388,0.012,1.961,0.621,2.036,2.019
		c0.008,0.131-0.013,0.265,0.008,0.394c0.093,0.626-0.022,1.524,0.344,1.818c0.685,0.552,1.629,0.872,2.513,1.043
		c0.342,0.066,0.857-0.49,1.218-0.841c1.694-1.652,2.252-1.665,3.896-0.021c1.767,1.765,3.539,3.524,5.302,5.294
		c1.189,1.196,1.185,2.023,0.002,3.241c-0.704,0.724-1.759,1.313-0.878,2.603c0.075,0.108-0.287,0.53-0.468,0.792
		c-0.533,0.777-1.281,1.474-1.586,2.331c-2.257,6.353-4.434,12.733-6.612,19.114c-0.252,0.739-0.572,1.558-0.482,2.292
		c0.189,1.53-0.593,2.175-1.855,2.472c-1.145,0.269-1.47,0.903-1.424,2.059c0.09,2.235-0.447,2.71-2.654,2.711
		c-2.496,0.003-4.994,0.011-7.492-0.002c-1.76-0.009-2.326-0.598-2.353-2.389c-0.023-1.649-1.094-2.831-2.765-2.978
		c-0.246-0.022-0.555,0.188-0.768,0.368c-0.433,0.369-0.8,0.813-1.227,1.189c-0.807,0.711-1.723,0.786-2.487,0.043
		C58.921,75.125,57.086,73.195,55.1,71.173z"/>
	<path fill-rule="evenodd" clip-rule="evenodd" fill="#FF0000" d="M30.479,26.282c-5.893,0.013-10.746-4.787-10.774-10.654
		C19.678,9.741,24.603,4.799,30.48,4.819c5.874,0.019,10.687,4.86,10.683,10.746C41.159,21.48,36.386,26.268,30.479,26.282z"/>
	<path fill-rule="evenodd" clip-rule="evenodd" fill="#FF0000" d="M106.121,21.571c-0.021-5.856,4.712-10.617,10.567-10.63
		c5.865-0.013,10.619,4.716,10.627,10.573c0.008,5.864-4.729,10.63-10.573,10.638C110.891,32.161,106.141,27.43,106.121,21.571z"/>
	<path fill-rule="evenodd" clip-rule="evenodd" fill="#FF0000" d="M82.544,54.615c1.608,5.244-2.195,10.763-7.407,11.02
		c-0.447,0.021-1.129-0.43-1.35-0.847c-0.858-1.616-0.616-3.973,0.848-5.058C77.135,57.877,79.859,56.328,82.544,54.615z"/>
</g>
<g opacity="0.8">
	<path fill-rule="evenodd" clip-rule="evenodd" fill="#00A0C6" d="M31.487,50.86c0.972,2.233,1.927,4.475,2.917,6.699
		c3.085,6.926,1.579,5.222,8.076,8.498c1.094,0.553,2.165,1.168,3.3,1.619c0.99,0.391,1.266,1.008,1.194,2.015
		c-0.52,7.37,0.338,14.599,2.52,21.645c1.749,5.654,1.88,11.259,0.687,17.072c-1.338,6.512-2.107,13.14-3.27,19.688
		c-0.248,1.399-0.872,2.889-1.759,3.983c-1.637,2.022-4.508,2.422-6.835,1.322c-2.411-1.141-3.787-3.498-3.411-6.239
		c0.568-4.118,1.267-8.22,1.918-12.326c0.721-4.541,1.461-9.079,2.164-13.623c0.077-0.502,0.052-1.055-0.069-1.55
		c-1.489-6.035-3.035-12.056-4.491-18.101c-0.375-1.559-1.399-0.843-2.417-1.036c0.58,3.02,1.118,5.838,1.661,8.655
		c0.646,3.355,1.417,6.691,1.882,10.071c0.188,1.355,0.062,2.979-0.53,4.185c-4.443,9.085-9.016,18.11-13.6,27.127
		c-1.601,3.148-5.139,4.279-8.155,2.747c-3.013-1.53-4.186-5.033-2.612-8.196c4.021-8.075,8.119-16.111,12.13-24.191
		c0.337-0.679,0.472-1.604,0.336-2.349c-1.038-5.729-2.172-11.439-3.257-17.159c-0.121-0.641-0.173-1.303-0.173-1.955
		c-0.01-12.662-0.01-25.323-0.006-37.984c0-4.966,2.87-7.848,7.817-7.857c3.811-0.007,7.623-0.004,11.435-0.001
		c5.006,0.004,7.595,2.39,8.031,7.391c0.011,0.126,0.058,0.248,0.15,0.622c5.503-1.373,10.99-2.74,16.476-4.108
		c0.05,0.065,0.098,0.131,0.146,0.196c-0.267,0.294-0.523,0.599-0.804,0.881c-1.605,1.616-3.222,3.223-4.824,4.841
		c-2.394,2.416-2.62,3.163-1.957,6.577c-1.926,0.481-3.872,1.358-5.796,1.318c-1.407-0.03-2.92-1.09-4.151-2.007
		c-2.094-1.561-4.003-3.368-6.203-4.886c1.328,1.805,2.754,3.548,3.959,5.432c1.491,2.332,3.474,3.88,6,5.021
		c4.386,1.983,8.66,4.216,12.958,6.391c2.172,1.1,3.188,3.258,2.758,5.584c-0.418,2.262-2.246,3.99-4.637,4.135
		c-0.917,0.055-1.947-0.156-2.775-0.557c-5.796-2.797-11.573-5.64-17.308-8.563c-0.971-0.495-1.849-1.339-2.527-2.211
		c-2.281-2.935-4.452-5.955-6.666-8.942C31.679,50.775,31.583,50.817,31.487,50.86z"/>
	<path fill-rule="evenodd" clip-rule="evenodd" fill="#00A0C6" d="M110.913,82.088c0.121,2.435,0.237,4.87,0.362,7.307
		c0.212,4.111,0.5,8.221,0.601,12.334c0.03,1.22-0.25,2.55-0.758,3.661c-3.67,8.046-7.437,16.05-11.17,24.064
		c-0.131,0.279-0.255,0.559-0.39,0.834c-1.611,3.269-4.94,4.569-7.987,3.119c-3.046-1.45-4.175-4.874-2.655-8.154
		c3.48-7.509,7.007-14.994,10.431-22.526c0.462-1.018,0.65-2.257,0.615-3.383c-0.137-4.289-0.4-8.574-0.655-12.857
		c-0.049-0.805,0.143-1.236,0.956-1.565c2.469-0.997,3.973-2.914,4.817-5.405c1.786-5.266,3.472-10.57,5.451-15.762
		c0.891-2.335,2.362-4.454,3.616-6.644c0.597-1.043,1.301-2.024,1.729-3.22c-1.689,1.616-3.301,3.328-5.091,4.825
		c-2.124,1.778-3.413,3.945-4.227,6.588c-1.402,4.557-3.027,9.048-4.623,13.544c-1.289,3.632-5.54,4.791-8.313,2.294
		c-1.616-1.455-2.179-3.318-1.495-5.371c2.104-6.311,4.264-12.606,6.483-18.878c0.306-0.863,0.979-1.66,1.647-2.321
		c2.767-2.739,5.597-5.413,8.244-8.355c-1.916,1.122-3.832,2.243-5.991,3.505c0.377-1.328-0.109-2.544,1.053-3.502
		c0.414-0.342,0.355-1.301,0.439-1.987c0.504-4.05,3.655-6.794,7.709-6.433c4.446,0.396,8.884,0.925,13.306,1.544
		c3.763,0.526,6.342,3.929,5.926,7.734c-0.989,9.01-2.043,18.013-3.078,27.018c-0.35,3.044-0.742,6.083-1.075,9.129
		c-0.05,0.457,0.052,0.958,0.195,1.403c1.34,4.166,2.898,8.275,3.994,12.505c0.717,2.767,0.849,5.698,1.113,8.566
		c0.665,7.196,1.26,14.399,1.879,21.599c0.247,2.88-1.199,5.291-3.756,6.277c-2.403,0.928-5.2,0.254-6.676-1.902
		c-0.704-1.028-1.167-2.376-1.289-3.623c-0.857-8.85-1.596-17.71-2.388-26.565c-0.05-0.56-0.174-1.126-0.353-1.658
		c-1.746-5.231-3.514-10.454-5.271-15.683C113.517,81.989,113.517,81.983,110.913,82.088z"/>
	<path fill-rule="evenodd" clip-rule="evenodd" fill="#00A0C6" d="M60.059,74.173c5.611-0.578,7.922-2.75,8.918-8.405
		c2.113,3.33,4.967,5.396,8.794,5.916c2.795,0.381,5.396-0.23,7.788-1.725c4.562-2.85,6.556-8.506,4.821-13.678
		c-1.682-5.013-6.712-8.349-11.908-7.9c-6.394,0.553-9.878,4.525-11.054,12.7c-3.072-3.393-7.58-4.251-11.214-7.014
		c0.813-0.085,1.63-0.257,2.439-0.23c0.866,0.028,1.427-0.167,1.614-1.093c0.193-0.952,1.33-1.737,0.052-2.874
		c-2.04-1.816-1.961-2.346-0.059-4.232c1.711-1.697,3.406-3.411,5.121-5.103c1.242-1.223,1.994-1.213,3.239-0.011
		c1.322,1.276,2.556,1.362,4.044,0.231c0.2-0.153,0.325-0.494,0.358-0.764c0.058-0.475,0.007-0.962,0.022-1.443
		c0.048-1.473,0.637-2.107,2.072-2.12c2.804-0.026,5.608-0.026,8.411,0c1.388,0.012,1.961,0.621,2.036,2.019
		c0.008,0.131-0.013,0.265,0.008,0.394c0.093,0.626-0.022,1.524,0.344,1.818c0.685,0.552,1.629,0.872,2.513,1.043
		c0.342,0.066,0.857-0.49,1.218-0.841c1.694-1.652,2.252-1.665,3.896-0.021c1.767,1.765,3.539,3.524,5.302,5.294
		c1.189,1.196,1.185,2.023,0.002,3.241c-0.704,0.724-1.759,1.313-0.878,2.603c0.075,0.108-0.287,0.53-0.468,0.792
		c-0.533,0.777-1.281,1.474-1.586,2.331c-2.257,6.353-4.434,12.733-6.612,19.114c-0.252,0.739-0.572,1.558-0.482,2.292
		c0.189,1.53-0.593,2.175-1.855,2.472c-1.145,0.269-1.47,0.903-1.424,2.059c0.09,2.235-0.447,2.71-2.654,2.711
		c-2.496,0.003-4.994,0.011-7.492-0.002c-1.76-0.009-2.326-0.598-2.354-2.389c-0.023-1.649-1.094-2.831-2.764-2.978
		c-0.246-0.022-0.556,0.188-0.768,0.368c-0.434,0.369-0.801,0.813-1.227,1.189c-0.808,0.711-1.724,0.786-2.488,0.043
		C63.88,78.125,62.045,76.195,60.059,74.173z"/>
	<path fill-rule="evenodd" clip-rule="evenodd" fill="#00A0C6" d="M35.438,29.282c-5.893,0.013-10.746-4.787-10.774-10.654
		c-0.027-5.887,4.898-10.828,10.776-10.809c5.874,0.019,10.687,4.86,10.683,10.746C46.118,24.48,41.345,29.268,35.438,29.282z"/>
	<path fill-rule="evenodd" clip-rule="evenodd" fill="#00A0C6" d="M111.08,24.571c-0.021-5.856,4.712-10.617,10.567-10.63
		c5.865-0.013,10.619,4.716,10.627,10.573c0.008,5.864-4.729,10.63-10.573,10.638C115.85,35.161,111.1,30.43,111.08,24.571z"/>
	<path fill-rule="evenodd" clip-rule="evenodd" fill="#00A0C6" d="M87.503,57.615c1.608,5.244-2.195,10.763-7.407,11.02
		c-0.447,0.021-1.129-0.43-1.35-0.847c-0.858-1.616-0.616-3.973,0.848-5.058C82.094,60.877,84.818,59.328,87.503,57.615z"/>
</g>
<g>
	<path fill-rule="evenodd" clip-rule="evenodd" d="M29.169,48.154c0.972,2.233,1.927,4.475,2.917,6.699
		c3.085,6.926,1.579,5.222,8.076,8.498c1.094,0.552,2.165,1.168,3.3,1.618c0.99,0.392,1.266,1.009,1.194,2.015
		c-0.52,7.37,0.338,14.599,2.52,21.645c1.749,5.654,1.88,11.259,0.687,17.072c-1.338,6.512-2.107,13.14-3.27,19.688
		c-0.248,1.399-0.872,2.889-1.759,3.983c-1.637,2.022-4.508,2.422-6.835,1.322c-2.411-1.141-3.787-3.498-3.411-6.239
		c0.568-4.118,1.267-8.22,1.918-12.326c0.721-4.541,1.461-9.079,2.164-13.623c0.077-0.502,0.052-1.055-0.069-1.55
		c-1.489-6.035-3.035-12.056-4.491-18.101c-0.375-1.559-1.399-0.843-2.417-1.036c0.58,3.02,1.118,5.838,1.661,8.655
		c0.646,3.355,1.417,6.691,1.882,10.071c0.188,1.355,0.062,2.979-0.53,4.185c-4.443,9.085-9.016,18.11-13.6,27.127
		c-1.601,3.148-5.139,4.279-8.155,2.747c-3.013-1.53-4.186-5.033-2.612-8.196c4.021-8.075,8.119-16.111,12.13-24.191
		c0.337-0.679,0.472-1.604,0.336-2.349c-1.038-5.729-2.172-11.439-3.257-17.159c-0.121-0.641-0.173-1.303-0.173-1.955
		c-0.01-12.662-0.01-25.323-0.006-37.984c0-4.966,2.87-7.848,7.817-7.857c3.811-0.007,7.623-0.004,11.435-0.001
		c5.006,0.004,7.595,2.39,8.031,7.391c0.011,0.126,0.058,0.248,0.15,0.622c5.503-1.373,10.99-2.74,16.476-4.108
		c0.049,0.065,0.097,0.131,0.146,0.196c-0.267,0.294-0.524,0.599-0.804,0.881c-1.605,1.616-3.222,3.223-4.824,4.841
		c-2.394,2.416-2.62,3.163-1.957,6.577c-1.926,0.481-3.872,1.358-5.796,1.318c-1.407-0.03-2.92-1.09-4.151-2.007
		c-2.094-1.561-4.003-3.368-6.203-4.886c1.328,1.805,2.754,3.548,3.959,5.432c1.491,2.332,3.474,3.88,6,5.021
		c4.386,1.983,8.66,4.216,12.958,6.391c2.171,1.1,3.188,3.258,2.757,5.584c-0.417,2.262-2.246,3.991-4.636,4.135
		c-0.917,0.055-1.947-0.156-2.775-0.557c-5.796-2.797-11.573-5.64-17.308-8.563c-0.971-0.495-1.849-1.339-2.527-2.211
		c-2.281-2.935-4.452-5.955-6.666-8.942C29.361,48.069,29.265,48.111,29.169,48.154z"/>
	<path fill-rule="evenodd" clip-rule="evenodd" d="M108.596,79.382c0.121,2.435,0.237,4.87,0.362,7.307
		c0.212,4.111,0.5,8.221,0.601,12.334c0.03,1.22-0.25,2.55-0.758,3.661c-3.67,8.046-7.437,16.05-11.17,24.064
		c-0.131,0.279-0.255,0.559-0.39,0.834c-1.611,3.269-4.94,4.569-7.987,3.119c-3.046-1.45-4.175-4.874-2.655-8.154
		c3.48-7.509,7.007-14.994,10.431-22.526c0.462-1.018,0.65-2.257,0.615-3.383c-0.137-4.289-0.4-8.574-0.655-12.857
		c-0.049-0.805,0.143-1.236,0.956-1.565c2.469-0.997,3.973-2.914,4.817-5.405c1.786-5.266,3.472-10.57,5.451-15.762
		c0.891-2.335,2.362-4.454,3.616-6.644c0.597-1.043,1.301-2.024,1.729-3.22c-1.689,1.616-3.301,3.328-5.091,4.825
		c-2.124,1.778-3.413,3.945-4.227,6.587c-1.402,4.558-3.027,9.048-4.623,13.544c-1.289,3.632-5.54,4.791-8.313,2.294
		c-1.616-1.455-2.179-3.318-1.495-5.371c2.104-6.311,4.264-12.606,6.483-18.878c0.306-0.863,0.979-1.66,1.647-2.321
		c2.767-2.739,5.597-5.413,8.244-8.355c-1.916,1.122-3.832,2.243-5.991,3.505c0.377-1.328-0.109-2.544,1.053-3.502
		c0.414-0.342,0.355-1.301,0.439-1.987c0.504-4.05,3.655-6.794,7.709-6.433c4.446,0.396,8.884,0.925,13.306,1.544
		c3.763,0.526,6.342,3.929,5.926,7.734c-0.989,9.01-2.043,18.013-3.078,27.018c-0.35,3.044-0.742,6.083-1.075,9.129
		c-0.05,0.457,0.052,0.958,0.195,1.403c1.34,4.166,2.898,8.275,3.994,12.505c0.717,2.767,0.849,5.698,1.113,8.566
		c0.665,7.196,1.26,14.399,1.879,21.599c0.247,2.88-1.199,5.291-3.756,6.277c-2.403,0.928-5.2,0.254-6.676-1.902
		c-0.704-1.028-1.167-2.376-1.289-3.623c-0.857-8.85-1.596-17.71-2.388-26.565c-0.05-0.56-0.174-1.126-0.353-1.658
		c-1.746-5.231-3.514-10.454-5.271-15.683C111.199,79.283,111.199,79.277,108.596,79.382z"/>
	<path fill-rule="evenodd" clip-rule="evenodd" d="M57.742,71.467c5.611-0.578,7.922-2.75,8.918-8.406
		c2.114,3.33,4.967,5.396,8.794,5.917c2.795,0.381,5.396-0.23,7.788-1.726c4.562-2.849,6.556-8.506,4.821-13.678
		c-1.682-5.013-6.712-8.349-11.908-7.9c-6.393,0.553-9.878,4.525-11.054,12.7c-3.072-3.393-7.579-4.251-11.214-7.014
		c0.813-0.085,1.63-0.257,2.439-0.23c0.866,0.028,1.427-0.167,1.614-1.093c0.193-0.952,1.33-1.737,0.052-2.874
		c-2.04-1.816-1.961-2.346-0.059-4.232c1.711-1.697,3.405-3.411,5.121-5.103c1.243-1.223,1.994-1.213,3.239-0.011
		c1.322,1.276,2.555,1.362,4.043,0.231c0.201-0.153,0.326-0.494,0.359-0.764c0.058-0.475,0.006-0.962,0.022-1.443
		c0.048-1.473,0.637-2.107,2.072-2.12c2.804-0.026,5.608-0.026,8.411,0c1.388,0.012,1.961,0.621,2.036,2.019
		c0.008,0.131-0.013,0.265,0.008,0.394c0.093,0.626-0.022,1.524,0.344,1.818c0.685,0.552,1.629,0.872,2.513,1.043
		c0.342,0.066,0.857-0.49,1.218-0.841c1.694-1.652,2.252-1.665,3.896-0.021c1.767,1.765,3.539,3.524,5.302,5.294
		c1.189,1.196,1.185,2.023,0.002,3.241c-0.704,0.724-1.759,1.313-0.878,2.603c0.075,0.108-0.287,0.53-0.468,0.792
		c-0.533,0.777-1.281,1.474-1.586,2.331c-2.257,6.353-4.434,12.733-6.612,19.114c-0.252,0.739-0.572,1.558-0.482,2.292
		c0.189,1.53-0.593,2.175-1.855,2.472c-1.145,0.269-1.47,0.903-1.424,2.059c0.09,2.235-0.447,2.71-2.654,2.711
		c-2.496,0.003-4.994,0.011-7.492-0.002c-1.76-0.009-2.326-0.598-2.353-2.389c-0.023-1.649-1.094-2.831-2.765-2.978
		c-0.246-0.022-0.555,0.188-0.768,0.368c-0.433,0.369-0.8,0.813-1.227,1.189c-0.807,0.711-1.723,0.786-2.487,0.043
		C61.563,75.419,59.728,73.489,57.742,71.467z"/>
	<path fill-rule="evenodd" clip-rule="evenodd" d="M33.12,26.576c-5.893,0.013-10.746-4.787-10.774-10.654
		c-0.027-5.887,4.898-10.828,10.776-10.809c5.874,0.019,10.687,4.86,10.683,10.746C43.801,21.774,39.027,26.562,33.12,26.576z"/>
	<path fill-rule="evenodd" clip-rule="evenodd" d="M108.763,21.865c-0.021-5.856,4.712-10.617,10.567-10.63
		c5.865-0.013,10.619,4.716,10.627,10.573c0.008,5.864-4.729,10.63-10.573,10.638C113.532,32.455,108.782,27.724,108.763,21.865z"/>
	<path fill-rule="evenodd" clip-rule="evenodd" d="M85.186,54.909c1.608,5.244-2.195,10.763-7.407,11.019
		c-0.447,0.021-1.129-0.429-1.35-0.846c-0.858-1.616-0.616-3.973,0.848-5.058C79.776,58.171,82.501,56.622,85.186,54.909z"/>
</g>
<g>
</g>
<g>
</g>
<g>
</g>
<g>
</g>
<g>
</g>
<g>
</g>
</svg>
