<?xml version="1.0" encoding="utf-8"?>
<!-- Generator: Adobe Illustrator 16.0.3, SVG Export Plug-In . SVG Version: 6.00 Build 0)  -->
<!DOCTYPE svg PUBLIC "-//W3C//DTD SVG 1.1//EN" "http://www.w3.org/Graphics/SVG/1.1/DTD/svg11.dtd">
<svg version="1.1" id="Capa_1" xmlns="http://www.w3.org/2000/svg" xmlns:xlink="http://www.w3.org/1999/xlink" x="0px" y="0px"
	 width="140px" height="140px" viewBox="0 0 140 140" enable-background="new 0 0 140 140" xml:space="preserve">
<g opacity="0.75">
	<path fill="#FF0000" d="M26.528,47.86c0.972,2.233,1.927,4.475,2.917,6.699c3.085,6.926,1.579,5.222,8.076,8.498
		c1.094,0.553,2.165,1.168,3.3,1.619c0.99,0.391,1.266,1.008,1.194,2.015c-0.52,7.37,0.338,14.599,2.52,21.645
		c1.749,5.654,1.88,11.26,0.687,17.072c-1.338,6.512-2.107,13.14-3.27,19.688c-0.248,1.399-0.872,2.889-1.759,3.983
		c-1.637,2.022-4.508,2.422-6.835,1.321c-2.411-1.141-3.787-3.498-3.411-6.238c0.568-4.118,1.267-8.221,1.918-12.326
		c0.721-4.541,1.461-9.079,2.164-13.623c0.077-0.502,0.052-1.055-0.069-1.55c-1.489-6.035-3.035-12.056-4.491-18.101
		c-0.375-1.56-1.399-0.844-2.417-1.037c0.58,3.021,1.118,5.838,1.661,8.656c0.646,3.354,1.417,6.69,1.882,10.07
		c0.188,1.355,0.062,2.979-0.53,4.186c-4.443,9.084-9.016,18.109-13.6,27.127c-1.601,3.147-5.139,4.278-8.155,2.746
		c-3.013-1.529-4.186-5.033-2.612-8.195c4.021-8.075,8.119-16.111,12.13-24.191c0.337-0.679,0.472-1.604,0.336-2.349
		c-1.038-5.729-2.172-11.439-3.257-17.159c-0.121-0.641-0.173-1.303-0.173-1.955c-0.01-12.662-0.01-25.323-0.006-37.984
		c0-4.966,2.87-7.848,7.817-7.857c3.811-0.007,7.623-0.004,11.435-0.001c5.006,0.004,7.595,2.39,8.031,7.391
		c0.011,0.126,0.058,0.248,0.15,0.622c5.503-1.373,10.99-2.74,16.476-4.108c0.049,0.065,0.097,0.131,0.146,0.196
		c-0.267,0.294-0.524,0.599-0.804,0.881c-1.605,1.616-3.222,3.223-4.824,4.841c-2.394,2.416-2.62,3.163-1.957,6.577
		c-1.926,0.481-3.872,1.358-5.796,1.318c-1.407-0.03-2.92-1.09-4.151-2.007c-2.094-1.561-4.003-3.368-6.203-4.886
		c1.328,1.805,2.754,3.548,3.959,5.432c1.491,2.332,3.474,3.88,6,5.021c4.386,1.983,8.66,4.216,12.958,6.391
		c2.171,1.1,3.188,3.258,2.757,5.584c-0.417,2.262-2.246,3.99-4.636,4.135c-0.917,0.055-1.947-0.156-2.775-0.557
		c-5.796-2.797-11.573-5.641-17.308-8.563c-0.971-0.495-1.849-1.339-2.527-2.211c-2.281-2.935-4.452-5.955-6.666-8.942
		C26.72,47.775,26.624,47.817,26.528,47.86z"/>
	<path fill="#FF0000" d="M105.954,79.088c0.121,2.436,0.237,4.87,0.362,7.307c0.211,4.111,0.5,8.222,0.601,12.334
		c0.03,1.221-0.25,2.551-0.758,3.662c-3.671,8.045-7.437,16.049-11.171,24.063c-0.131,0.278-0.254,0.56-0.389,0.834
		c-1.611,3.269-4.94,4.569-7.988,3.119c-3.045-1.45-4.174-4.874-2.654-8.154c3.48-7.509,7.007-14.994,10.432-22.526
		c0.461-1.018,0.649-2.256,0.614-3.383c-0.137-4.289-0.399-8.574-0.655-12.857c-0.049-0.805,0.144-1.235,0.957-1.564
		c2.469-0.997,3.973-2.914,4.816-5.404c1.786-5.267,3.472-10.571,5.451-15.763c0.891-2.336,2.361-4.454,3.615-6.645
		c0.598-1.043,1.302-2.024,1.729-3.22c-1.688,1.616-3.301,3.328-5.091,4.825c-2.124,1.778-3.413,3.945-4.227,6.588
		c-1.402,4.557-3.027,9.049-4.623,13.545c-1.289,3.631-5.541,4.791-8.313,2.293c-1.616-1.455-2.179-3.317-1.495-5.371
		c2.104-6.311,4.264-12.605,6.482-18.877c0.307-0.863,0.979-1.66,1.647-2.321c2.767-2.739,5.597-5.413,8.244-8.355
		c-1.916,1.122-3.832,2.243-5.991,3.505c0.377-1.328-0.109-2.544,1.053-3.502c0.414-0.342,0.355-1.301,0.439-1.987
		c0.504-4.05,3.655-6.794,7.709-6.433c4.446,0.396,8.885,0.925,13.307,1.544c3.762,0.526,6.342,3.929,5.926,7.734
		c-0.989,9.01-2.043,18.013-3.078,27.019c-0.35,3.043-0.742,6.082-1.075,9.129c-0.05,0.457,0.052,0.957,0.194,1.402
		c1.341,4.166,2.898,8.275,3.994,12.505c0.717,2.767,0.85,5.698,1.113,8.566c0.665,7.196,1.26,14.399,1.879,21.599
		c0.247,2.88-1.199,5.291-3.756,6.277c-2.402,0.928-5.199,0.254-6.676-1.902c-0.704-1.027-1.167-2.376-1.289-3.623
		c-0.857-8.85-1.596-17.71-2.389-26.564c-0.049-0.561-0.174-1.127-0.353-1.658c-1.745-5.23-3.514-10.454-5.271-15.684
		C108.559,78.989,108.559,78.982,105.954,79.088z"/>
	<path fill="#FF0000" d="M55.1,71.173c5.611-0.577,7.922-2.75,8.918-8.405c2.114,3.33,4.967,5.396,8.794,5.916
		c2.795,0.381,5.396-0.23,7.787-1.725c4.563-2.85,6.557-8.506,4.821-13.678c-1.683-5.013-6.712-8.349-11.907-7.9
		c-6.394,0.553-9.879,4.525-11.055,12.7c-3.072-3.393-7.579-4.25-11.214-7.014c0.813-0.085,1.63-0.257,2.439-0.23
		c0.866,0.028,1.427-0.167,1.614-1.093c0.193-0.952,1.33-1.737,0.052-2.874c-2.04-1.816-1.961-2.346-0.059-4.232
		c1.711-1.697,3.405-3.411,5.121-5.103c1.243-1.223,1.994-1.213,3.239-0.011c1.322,1.276,2.555,1.362,4.043,0.231
		c0.201-0.153,0.326-0.494,0.359-0.764c0.058-0.475,0.006-0.962,0.022-1.443c0.048-1.473,0.637-2.107,2.072-2.12
		c2.804-0.026,5.608-0.026,8.412,0c1.387,0.012,1.961,0.621,2.035,2.019c0.008,0.131-0.013,0.265,0.008,0.394
		c0.094,0.626-0.021,1.524,0.344,1.818c0.686,0.552,1.63,0.872,2.514,1.043c0.342,0.066,0.857-0.49,1.218-0.841
		c1.694-1.652,2.253-1.665,3.896-0.021c1.767,1.765,3.538,3.524,5.302,5.294c1.189,1.196,1.186,2.023,0.002,3.241
		c-0.704,0.724-1.759,1.313-0.878,2.603c0.075,0.108-0.287,0.53-0.468,0.792c-0.533,0.777-1.281,1.474-1.586,2.331
		c-2.258,6.353-4.434,12.733-6.612,19.114c-0.252,0.739-0.571,1.559-0.481,2.292c0.188,1.53-0.594,2.175-1.855,2.472
		c-1.145,0.27-1.471,0.903-1.424,2.06c0.09,2.235-0.447,2.71-2.654,2.711c-2.496,0.003-4.994,0.011-7.492-0.002
		c-1.76-0.009-2.326-0.599-2.353-2.39c-0.023-1.648-1.094-2.83-2.765-2.978c-0.246-0.022-0.555,0.188-0.768,0.368
		c-0.433,0.369-0.8,0.813-1.227,1.189c-0.807,0.711-1.723,0.785-2.487,0.043C58.921,75.125,57.086,73.195,55.1,71.173z"/>
	<path fill="#FF0000" d="M30.479,26.282c-5.893,0.013-10.746-4.787-10.774-10.654C19.678,9.741,24.603,4.799,30.48,4.819
		c5.874,0.019,10.687,4.86,10.683,10.746C41.159,21.48,36.386,26.268,30.479,26.282z"/>
	<path fill="#FF0000" d="M106.121,21.571c-0.021-5.856,4.712-10.617,10.566-10.63c5.865-0.013,10.619,4.716,10.627,10.573
		c0.009,5.864-4.729,10.63-10.572,10.638C110.891,32.161,106.141,27.43,106.121,21.571z"/>
	<path fill="#FF0000" d="M82.544,54.615c1.608,5.244-2.194,10.763-7.407,11.02c-0.447,0.021-1.129-0.43-1.35-0.847
		c-0.857-1.616-0.616-3.973,0.848-5.058C77.135,57.877,79.859,56.328,82.544,54.615z"/>
</g>
<g opacity="0.8">
	<path fill="#00A0C6" d="M31.487,50.86c0.972,2.233,1.927,4.475,2.917,6.699c3.085,6.926,1.579,5.222,8.076,8.498
		c1.094,0.553,2.165,1.168,3.3,1.619c0.99,0.391,1.266,1.008,1.194,2.015c-0.52,7.37,0.338,14.599,2.52,21.645
		c1.749,5.654,1.88,11.26,0.687,17.072c-1.338,6.512-2.107,13.14-3.27,19.688c-0.248,1.399-0.872,2.889-1.759,3.983
		c-1.637,2.022-4.508,2.422-6.835,1.321c-2.411-1.141-3.787-3.498-3.411-6.238c0.568-4.118,1.267-8.221,1.918-12.326
		c0.721-4.541,1.461-9.079,2.164-13.623c0.077-0.502,0.052-1.055-0.069-1.55c-1.489-6.035-3.035-12.056-4.491-18.101
		c-0.375-1.56-1.399-0.844-2.417-1.037c0.58,3.021,1.118,5.838,1.661,8.656c0.646,3.354,1.417,6.69,1.882,10.07
		c0.188,1.355,0.062,2.979-0.53,4.186c-4.443,9.084-9.016,18.109-13.6,27.127c-1.601,3.147-5.139,4.278-8.155,2.746
		c-3.013-1.529-4.186-5.033-2.612-8.195c4.021-8.075,8.119-16.111,12.13-24.191c0.337-0.679,0.472-1.604,0.336-2.349
		c-1.038-5.729-2.172-11.439-3.257-17.159c-0.121-0.641-0.173-1.303-0.173-1.955c-0.01-12.662-0.01-25.323-0.006-37.984
		c0-4.966,2.87-7.848,7.817-7.857c3.811-0.007,7.623-0.004,11.435-0.001c5.006,0.004,7.595,2.39,8.031,7.391
		c0.011,0.126,0.058,0.248,0.15,0.622c5.503-1.373,10.99-2.74,16.476-4.108c0.05,0.065,0.098,0.131,0.146,0.196
		c-0.267,0.294-0.523,0.599-0.804,0.881c-1.605,1.616-3.222,3.223-4.824,4.841c-2.394,2.416-2.62,3.163-1.957,6.577
		c-1.926,0.481-3.872,1.358-5.796,1.318c-1.407-0.03-2.92-1.09-4.151-2.007c-2.094-1.561-4.003-3.368-6.203-4.886
		c1.328,1.805,2.754,3.548,3.959,5.432c1.491,2.332,3.474,3.88,6,5.021c4.386,1.983,8.66,4.216,12.958,6.391
		c2.172,1.1,3.188,3.258,2.758,5.584c-0.418,2.262-2.246,3.989-4.637,4.135c-0.917,0.056-1.947-0.155-2.775-0.557
		c-5.796-2.797-11.573-5.64-17.308-8.563c-0.971-0.495-1.849-1.339-2.527-2.211c-2.281-2.935-4.452-5.955-6.666-8.942
		C31.679,50.775,31.583,50.817,31.487,50.86z"/>
	<path fill="#00A0C6" d="M110.913,82.088c0.121,2.436,0.237,4.87,0.362,7.307c0.211,4.111,0.5,8.222,0.601,12.334
		c0.03,1.221-0.25,2.551-0.758,3.662c-3.67,8.045-7.437,16.049-11.17,24.063c-0.132,0.278-0.255,0.56-0.39,0.834
		c-1.611,3.269-4.94,4.569-7.988,3.119c-3.045-1.45-4.174-4.874-2.654-8.154c3.48-7.509,7.007-14.994,10.432-22.526
		c0.461-1.018,0.649-2.256,0.614-3.383c-0.137-4.289-0.399-8.574-0.655-12.857c-0.049-0.805,0.144-1.235,0.957-1.564
		c2.469-0.997,3.973-2.914,4.816-5.404c1.786-5.267,3.472-10.571,5.451-15.763c0.891-2.335,2.361-4.454,3.615-6.644
		c0.598-1.043,1.302-2.024,1.729-3.22c-1.688,1.616-3.301,3.328-5.091,4.825c-2.124,1.778-3.413,3.945-4.227,6.588
		c-1.402,4.557-3.027,9.047-4.623,13.543c-1.289,3.633-5.541,4.791-8.313,2.295c-1.616-1.455-2.179-3.318-1.495-5.371
		c2.104-6.312,4.264-12.606,6.482-18.878c0.307-0.863,0.979-1.66,1.647-2.321c2.767-2.739,5.597-5.413,8.244-8.355
		c-1.916,1.122-3.832,2.243-5.991,3.505c0.377-1.328-0.109-2.544,1.053-3.502c0.414-0.342,0.355-1.301,0.439-1.987
		c0.504-4.05,3.655-6.794,7.709-6.433c4.446,0.396,8.885,0.925,13.307,1.544c3.762,0.526,6.342,3.929,5.926,7.734
		c-0.989,9.01-2.043,18.013-3.078,27.018c-0.35,3.045-0.742,6.084-1.075,9.129c-0.05,0.457,0.052,0.959,0.194,1.403
		c1.341,4.166,2.898,8.274,3.994,12.505c0.717,2.768,0.85,5.698,1.113,8.566c0.665,7.195,1.26,14.398,1.879,21.599
		c0.247,2.88-1.199,5.291-3.756,6.277c-2.402,0.928-5.199,0.254-6.676-1.902c-0.704-1.028-1.167-2.376-1.289-3.623
		c-0.857-8.85-1.596-17.71-2.389-26.565c-0.049-0.56-0.174-1.125-0.353-1.657c-1.745-5.231-3.514-10.454-5.271-15.683
		C113.518,81.989,113.518,81.982,110.913,82.088z"/>
	<path fill="#00A0C6" d="M60.059,74.173c5.611-0.577,7.922-2.75,8.918-8.405c2.113,3.33,4.966,5.396,8.794,5.916
		c2.795,0.381,5.396-0.229,7.787-1.725c4.563-2.85,6.557-8.506,4.821-13.678c-1.682-5.013-6.712-8.349-11.907-7.9
		c-6.395,0.553-9.879,4.525-11.055,12.7c-3.072-3.393-7.58-4.251-11.214-7.014c0.813-0.085,1.63-0.257,2.439-0.23
		c0.866,0.028,1.427-0.167,1.614-1.093c0.193-0.952,1.33-1.737,0.052-2.874c-2.04-1.816-1.961-2.346-0.059-4.232
		c1.711-1.697,3.406-3.411,5.121-5.103c1.242-1.223,1.994-1.213,3.239-0.011c1.322,1.276,2.556,1.362,4.044,0.231
		c0.199-0.153,0.324-0.494,0.357-0.764c0.059-0.475,0.008-0.962,0.022-1.443c0.048-1.473,0.637-2.107,2.071-2.12
		c2.805-0.026,5.608-0.026,8.412,0c1.387,0.012,1.961,0.621,2.035,2.019c0.008,0.131-0.013,0.265,0.008,0.394
		c0.094,0.626-0.021,1.524,0.344,1.818c0.686,0.552,1.63,0.872,2.514,1.043c0.342,0.066,0.857-0.49,1.219-0.841
		c1.693-1.652,2.252-1.665,3.896-0.021c1.767,1.765,3.538,3.524,5.302,5.294c1.189,1.196,1.186,2.023,0.002,3.241
		c-0.704,0.724-1.759,1.313-0.878,2.603c0.075,0.108-0.287,0.53-0.468,0.792c-0.533,0.777-1.281,1.474-1.586,2.331
		c-2.258,6.353-4.434,12.733-6.612,19.114c-0.252,0.739-0.571,1.559-0.481,2.292c0.188,1.53-0.594,2.175-1.855,2.472
		c-1.145,0.27-1.471,0.903-1.424,2.06c0.09,2.235-0.447,2.71-2.654,2.711c-2.496,0.003-4.994,0.011-7.492-0.002
		c-1.76-0.009-2.326-0.599-2.354-2.39c-0.023-1.648-1.094-2.83-2.764-2.978c-0.246-0.022-0.556,0.188-0.768,0.368
		c-0.434,0.369-0.801,0.813-1.227,1.189c-0.808,0.711-1.724,0.785-2.488,0.043C63.88,78.125,62.045,76.195,60.059,74.173z"/>
	<path fill="#00A0C6" d="M35.438,29.282c-5.893,0.013-10.746-4.787-10.774-10.654C24.637,12.741,29.562,7.8,35.44,7.819
		c5.874,0.019,10.687,4.86,10.683,10.746C46.118,24.48,41.345,29.268,35.438,29.282z"/>
	<path fill="#00A0C6" d="M111.08,24.571c-0.021-5.856,4.712-10.617,10.566-10.63c5.865-0.013,10.619,4.716,10.627,10.573
		c0.009,5.864-4.729,10.63-10.572,10.638C115.85,35.161,111.1,30.43,111.08,24.571z"/>
	<path fill="#00A0C6" d="M87.503,57.615c1.608,5.244-2.194,10.763-7.407,11.02c-0.447,0.021-1.129-0.43-1.35-0.847
		c-0.857-1.616-0.616-3.973,0.848-5.058C82.094,60.877,84.818,59.328,87.503,57.615z"/>
</g>
<g>
	<path fill="#FFFFFF" d="M29.169,48.154c0.972,2.233,1.927,4.475,2.917,6.699c3.085,6.926,1.579,5.222,8.076,8.498
		c1.094,0.552,2.165,1.168,3.3,1.618c0.99,0.392,1.266,1.009,1.194,2.015c-0.52,7.37,0.338,14.599,2.52,21.645
		c1.749,5.654,1.88,11.26,0.687,17.072c-1.338,6.512-2.107,13.14-3.27,19.688c-0.248,1.399-0.872,2.889-1.759,3.983
		c-1.637,2.022-4.508,2.422-6.835,1.321c-2.411-1.141-3.787-3.498-3.411-6.238c0.568-4.118,1.267-8.221,1.918-12.326
		c0.721-4.541,1.461-9.079,2.164-13.623c0.077-0.502,0.052-1.055-0.069-1.55c-1.489-6.035-3.035-12.056-4.491-18.101
		c-0.375-1.56-1.399-0.844-2.417-1.037c0.58,3.021,1.118,5.839,1.661,8.656c0.646,3.354,1.417,6.69,1.882,10.07
		c0.188,1.355,0.062,2.979-0.53,4.186c-4.443,9.084-9.016,18.109-13.6,27.127c-1.601,3.147-5.139,4.278-8.155,2.746
		c-3.013-1.529-4.186-5.033-2.612-8.195c4.021-8.075,8.119-16.111,12.13-24.191c0.337-0.679,0.472-1.604,0.336-2.349
		c-1.038-5.729-2.172-11.438-3.257-17.159c-0.121-0.641-0.173-1.303-0.173-1.955c-0.01-12.662-0.01-25.323-0.006-37.984
		c0-4.966,2.87-7.848,7.817-7.857c3.811-0.007,7.623-0.004,11.435-0.001c5.006,0.004,7.595,2.39,8.031,7.391
		c0.011,0.126,0.058,0.248,0.15,0.622c5.503-1.373,10.99-2.74,16.476-4.108c0.049,0.065,0.097,0.131,0.146,0.196
		c-0.267,0.294-0.524,0.599-0.804,0.881c-1.605,1.616-3.222,3.223-4.824,4.841c-2.394,2.416-2.62,3.163-1.957,6.577
		c-1.926,0.481-3.872,1.358-5.796,1.318c-1.407-0.03-2.92-1.09-4.151-2.007c-2.094-1.561-4.003-3.368-6.203-4.886
		c1.328,1.805,2.754,3.548,3.959,5.432c1.491,2.332,3.474,3.88,6,5.021c4.386,1.983,8.66,4.216,12.958,6.391
		c2.171,1.1,3.188,3.258,2.757,5.584c-0.417,2.262-2.246,3.991-4.636,4.135c-0.917,0.055-1.947-0.156-2.775-0.557
		c-5.796-2.797-11.573-5.64-17.308-8.563c-0.971-0.495-1.849-1.339-2.527-2.211c-2.281-2.935-4.452-5.955-6.666-8.942
		C29.361,48.069,29.265,48.111,29.169,48.154z"/>
	<path fill="#FFFFFF" d="M108.596,79.382c0.121,2.435,0.237,4.87,0.362,7.308c0.212,4.11,0.5,8.221,0.601,12.334
		c0.03,1.22-0.25,2.55-0.758,3.66c-3.67,8.047-7.438,16.051-11.17,24.064c-0.131,0.279-0.255,0.559-0.39,0.834
		c-1.611,3.27-4.94,4.568-7.987,3.119c-3.046-1.45-4.175-4.874-2.654-8.154c3.479-7.509,7.006-14.994,10.43-22.525
		c0.463-1.019,0.65-2.258,0.615-3.383c-0.137-4.289-0.399-8.574-0.654-12.857c-0.049-0.805,0.143-1.236,0.955-1.565
		c2.47-0.997,3.974-2.914,4.818-5.405c1.785-5.266,3.471-10.569,5.45-15.762c0.892-2.335,2.362-4.454,3.616-6.644
		c0.597-1.043,1.301-2.024,1.729-3.22c-1.688,1.616-3.301,3.328-5.091,4.825c-2.124,1.778-3.413,3.945-4.227,6.587
		c-1.402,4.558-3.027,9.047-4.623,13.543c-1.289,3.633-5.54,4.791-8.313,2.295c-1.615-1.455-2.179-3.318-1.494-5.371
		c2.104-6.312,4.264-12.606,6.482-18.878c0.307-0.863,0.979-1.66,1.646-2.321c2.768-2.739,5.598-5.413,8.244-8.355
		c-1.916,1.122-3.832,2.243-5.99,3.505c0.377-1.328-0.109-2.544,1.053-3.502c0.414-0.342,0.355-1.301,0.439-1.987
		c0.504-4.05,3.654-6.794,7.709-6.433c4.445,0.396,8.883,0.925,13.306,1.544c3.763,0.526,6.342,3.929,5.926,7.734
		c-0.989,9.01-2.043,18.013-3.078,27.018c-0.35,3.045-0.741,6.084-1.075,9.129c-0.05,0.457,0.053,0.959,0.195,1.403
		c1.34,4.166,2.898,8.274,3.994,12.505c0.717,2.768,0.85,5.698,1.113,8.566c0.664,7.195,1.26,14.398,1.879,21.599
		c0.246,2.88-1.199,5.291-3.756,6.277c-2.403,0.928-5.2,0.254-6.676-1.902c-0.705-1.028-1.168-2.376-1.289-3.623
		c-0.857-8.85-1.597-17.71-2.389-26.565c-0.05-0.56-0.174-1.125-0.354-1.657c-1.746-5.231-3.514-10.454-5.271-15.683
		C111.199,79.283,111.199,79.277,108.596,79.382z"/>
	<path fill="#FFFFFF" d="M57.742,71.467c5.611-0.578,7.922-2.75,8.918-8.406c2.114,3.33,4.967,5.396,8.794,5.917
		c2.795,0.381,5.396-0.23,7.788-1.726c4.563-2.849,6.556-8.506,4.82-13.678c-1.682-5.013-6.711-8.349-11.908-7.9
		c-6.392,0.553-9.877,4.525-11.053,12.7c-3.072-3.393-7.579-4.251-11.214-7.014c0.813-0.085,1.63-0.257,2.439-0.23
		c0.866,0.028,1.427-0.167,1.614-1.093c0.193-0.952,1.33-1.737,0.052-2.874c-2.04-1.816-1.961-2.346-0.059-4.232
		c1.711-1.697,3.405-3.411,5.121-5.103c1.243-1.223,1.994-1.213,3.239-0.011c1.322,1.276,2.555,1.362,4.043,0.231
		c0.201-0.153,0.326-0.494,0.359-0.764c0.058-0.475,0.006-0.962,0.021-1.443c0.049-1.473,0.637-2.107,2.072-2.12
		c2.804-0.026,5.607-0.026,8.411,0c1.388,0.012,1.961,0.621,2.036,2.019c0.008,0.131-0.014,0.265,0.008,0.394
		c0.093,0.626-0.021,1.524,0.344,1.818c0.686,0.552,1.629,0.872,2.514,1.043c0.342,0.066,0.856-0.49,1.217-0.841
		c1.695-1.652,2.252-1.665,3.896-0.021c1.768,1.765,3.539,3.524,5.303,5.294c1.188,1.196,1.185,2.023,0.002,3.241
		c-0.705,0.724-1.76,1.313-0.879,2.603c0.075,0.108-0.287,0.53-0.468,0.792c-0.532,0.777-1.28,1.474-1.586,2.331
		c-2.257,6.353-4.435,12.733-6.612,19.114c-0.252,0.739-0.572,1.559-0.481,2.292c0.188,1.53-0.593,2.175-1.854,2.472
		c-1.146,0.27-1.471,0.903-1.425,2.06c0.091,2.235-0.446,2.71-2.653,2.711c-2.496,0.003-4.994,0.011-7.492-0.002
		c-1.76-0.009-2.326-0.599-2.354-2.39c-0.023-1.648-1.094-2.83-2.765-2.978c-0.246-0.022-0.555,0.188-0.768,0.368
		c-0.433,0.369-0.8,0.813-1.227,1.189c-0.807,0.711-1.723,0.785-2.487,0.043C61.563,75.419,59.728,73.489,57.742,71.467z"/>
	<path fill="#FFFFFF" d="M33.12,26.576c-5.893,0.013-10.746-4.787-10.774-10.654c-0.027-5.887,4.898-10.828,10.776-10.809
		c5.874,0.019,10.687,4.86,10.683,10.746C43.801,21.774,39.027,26.562,33.12,26.576z"/>
	<path fill="#FFFFFF" d="M108.764,21.865c-0.021-5.856,4.711-10.617,10.566-10.63c5.865-0.013,10.619,4.716,10.627,10.573
		c0.008,5.864-4.729,10.63-10.573,10.638C113.532,32.455,108.782,27.724,108.764,21.865z"/>
	<path fill="#FFFFFF" d="M85.186,54.909c1.608,5.244-2.194,10.763-7.406,11.019c-0.447,0.021-1.129-0.429-1.35-0.846
		c-0.859-1.616-0.617-3.973,0.848-5.058C79.775,58.171,82.501,56.622,85.186,54.909z"/>
</g>
</svg>
