<?xml version="1.0" encoding="utf-8"?>
<!-- Generator: Adobe Illustrator 16.0.3, SVG Export Plug-In . SVG Version: 6.00 Build 0)  -->
<!DOCTYPE svg PUBLIC "-//W3C//DTD SVG 1.1//EN" "http://www.w3.org/Graphics/SVG/1.1/DTD/svg11.dtd">
<svg version="1.1" id="Capa_1" xmlns="http://www.w3.org/2000/svg" xmlns:xlink="http://www.w3.org/1999/xlink" x="0px" y="0px"
	 width="140px" height="140px" viewBox="0 0 140 140" enable-background="new 0 0 140 140" xml:space="preserve">
<g opacity="0.75">
	<path fill="#FF0000" d="M81.373,80.518c-3.63-1.752-7.077-3.442-10.559-5.054c-0.336-0.155-0.987,0.039-1.333,0.288
		c-1.909,1.391-3.803,2.807-5.63,4.301c-0.804,0.658-1.39,0.656-2.14-0.023c-0.715-0.646-1.529-1.18-2.877-2.201
		c0.715-0.428,1.338-0.682,1.809-1.107c0.82-0.746,1.504-1.642,2.321-2.392c2.576-2.356,3.534-5.337,3.497-8.734
		c-0.021-1.972-0.003-3.943-0.003-6.255c1.458,0.933,2.635,1.636,3.746,2.434c0.282,0.201,0.429,0.688,0.5,1.071
		c0.371,2.001,0.664,4.02,1.069,6.015c0.082,0.405,0.471,0.968,0.826,1.065c3.965,1.083,7.955,2.089,12.071,3.151
		c2.754-7.783,5.479-15.487,8.201-23.179c3.22,0.927,4.506,2.452,4.16,5.574c-0.691,6.254-1.576,12.489-2.441,18.722
		c-0.354,2.543-0.427,2.533,2.269,3.203c0.453-1.051,0.916-2.123,1.379-3.192c0.109,0.021,0.22,0.038,0.33,0.056
		c0,0.674,0.074,1.359-0.014,2.021c-0.201,1.46,0.332,2.234,1.773,2.732c2.184,0.752,4.303,1.707,6.395,2.69
		c1.824,0.86,2.572,2.351,2.394,4.295c-0.296,3.214-1.815,4.437-5.013,3.965c-0.91-0.134-1.81-0.394-2.696-0.64
		c-0.886-0.249-1.75-0.555-2.634-0.834c-0.191,1.016-0.23,2.007-0.584,2.867c-0.361,0.877-1.029,1.631-1.672,2.604
		c4.854,1.699,9.543,3.396,14.666,0.429c-0.213,1.055-0.375,1.854-0.514,2.545c4.439,2.219,8.807,4.399,13.322,6.657
		c5.627-8.104,9.003-17.153,9.822-27.28c-2.267,0-4.422,0-6.68,0c-0.349,1.439-0.208,3.185-1.974,4.266
		c0.194-1.514,0.364-2.829,0.551-4.262c-3.997,0-7.901,0-11.897,0c-0.115,1.035-0.232,2.063-0.381,3.367
		c-3.016-3.813-7.373-4.726-11.279-6.427c-1.004-0.437-1.48-0.864-0.771-2.042c2.392,0,4.876,0,7.485,0
		c-0.063-7.92-0.916-15.597-2.969-23.276c-1.158,0.288-2.236,0.511-3.284,0.829c-0.707,0.214-1.194,0.155-1.659-0.501
		c-0.45-0.635-1.031-1.189-1.616-1.71c-0.549-0.487-1.175-0.884-1.985-1.479c2.467-0.615,4.75-1.184,7.185-1.792
		c-0.597-1.626-1.077-3.117-1.681-4.557c-2.903-6.954-6.569-13.391-12.573-18.205c-2.871-2.303-6.562-3.967-9.474-4.238
		c0,10.117,0,20.221,0,30.544c2.207-0.109,4.4-0.218,6.86-0.341c-0.562,1.607-1.051,3.113-1.632,4.583
		c-0.093,0.24-0.577,0.418-0.902,0.457c-0.965,0.112-1.941,0.224-2.908,0.181c-1.182-0.054-1.605,0.312-1.574,1.571
		c0.089,3.612,0.031,7.227,0.031,10.84c0,0.499,0,0.998,0,1.669c-1.084-0.264-2-0.413-2.854-0.732
		c-0.338-0.127-0.719-0.601-0.775-0.964c-0.57-3.682-1.666-7.305-1.311-11.097c0.068-0.722-0.057-1.235-0.998-1.26
		c-8.097-0.218-16.021-1.547-23.813-3.731c-0.168-0.048-0.352-0.042-0.65-0.075c-0.265,1.001-0.521,1.966-0.84,3.167
		c-1.383-0.589-2.71-1.078-3.943-1.741c-0.26-0.14-0.36-0.984-0.216-1.393c0.457-1.311,0.065-1.859-1.226-2.442
		c-3.452-1.561-6.792-3.367-10.174-5.081c-0.401-0.204-0.787-0.438-1.253-0.7c-0.602,0.869-1.143,1.651-1.747,2.523
		c-1.416-0.845-2.752-1.645-4.088-2.441C39.707,17.664,70.637,3.087,101.225,15.57c29.321,11.967,44.897,44.623,34.594,75.331
		c-10.528,31.367-43.219,48.363-74.68,39.113c-32.172-9.462-48.561-41.805-42.327-70.327c1.362,0.767,2.704,1.465,3.969,2.281
		c0.262,0.168,0.362,0.788,0.328,1.182c-0.223,2.619-0.503,5.235-0.787,8.077c0.726,0,1.217,0,1.705,0
		c5.606,0,11.215,0.1,16.816-0.058c1.819-0.052,3.394,0.356,5.019,0.989c2.528,0.98,5.091,1.871,7.808,2.859
		c-1.817,2.227-4.252,0.594-6.165,1.364c-0.28,3.647,1.544,16.011,2.758,18.962c6.558-1.207,13.085-2.406,19.612-3.607
		c0.11,0.166,0.222,0.332,0.332,0.498c-0.622,1.556-1.188,3.136-1.913,4.642c-0.145,0.3-0.895,0.345-1.381,0.437
		c-4.765,0.93-9.535,1.842-14.302,2.767c-0.264,0.052-0.515,0.166-0.938,0.307c0.591,1.597,1.106,3.167,1.745,4.687
		c2.929,6.947,6.639,13.367,12.717,18.094c2.769,2.154,5.849,3.68,9.568,4.197c0-5.521,0-10.92,0-16.213
		c1.707-0.534,3.233-1.014,4.938-1.547c0,5.83,0,11.709,0,17.744c3.754-0.58,6.807-2.147,9.563-4.308
		c4.384-3.435,7.628-7.819,10.095-12.757c1.585-3.178,2.9-6.486,4.414-9.909c-5.119-1.672-10.135-2.386-15.385-3.118
		c0.846-1.48,1.543-2.886,2.441-4.146c0.258-0.36,1.104-0.303,1.981-0.506c-0.155-1.918-0.33-3.992-0.504-6.103
		c-1.383-0.489-2.59-0.921-3.897-1.387c-0.338,0.557-0.646,1.063-0.951,1.571c-3.07,5.121-6.135,10.248-9.211,15.369
		c-0.237,0.394-0.525,0.762-0.815,1.123c-1.521,1.887-2.815,2.122-4.951,0.905c-0.358-0.202-0.696-0.438-1.179-0.741
		C75.271,95.771,78.289,88.23,81.373,80.518z M113.809,71.107c6.857,0,13.494,0,20.187,0c-0.183-11.559-3.593-21.923-10.026-31.192
		c-4.494,2.247-8.859,4.43-13.344,6.671C112.648,54.52,113.771,62.704,113.809,71.107z M75.63,16.152
		c-3.655,0.521-6.737,2.048-9.507,4.205c-6.075,4.731-9.769,11.161-12.699,18.105c-0.64,1.515-1.153,3.086-1.752,4.706
		c7.941,2.31,15.855,3.456,23.959,3.624C75.63,36.498,75.63,26.381,75.63,16.152z M32.603,103.757
		c0.418-0.217,0.736-0.389,1.057-0.549c3.588-1.808,7.153-3.657,10.777-5.384c0.939-0.45,1.116-0.84,0.93-1.859
		C44.4,90.65,43.528,85.32,42.672,79.986c-0.195-1.217-0.196-2.461-0.286-3.67c-6.655,0-13.147,0-19.717,0
		C23.488,86.434,26.845,95.482,32.603,103.757z M96.115,19.073c6.123,6.485,10.099,14.183,13.092,22.819
		c3.979-1.943,7.805-3.811,11.855-5.791C114.098,27.923,105.936,22.316,96.115,19.073z M109.221,101.578
		c-3,8.701-6.982,16.382-13.104,22.855c9.825-3.24,17.97-8.865,24.942-17.029C117.016,105.414,113.202,103.538,109.221,101.578z
		 M46.967,41.841c3.015-8.571,6.902-16.183,12.926-22.601C50.26,22.495,42.244,28.055,35.4,36.085
		C39.329,38.04,43.027,39.88,46.967,41.841z M59.869,124.236c-6.07-6.42-9.896-14.103-12.929-22.565
		c-3.923,1.958-7.612,3.802-11.521,5.753C42.27,115.436,50.247,121.004,59.869,124.236z"/>
	<path fill="#FF0000" d="M29.973,28.345c-2.154,2.526-4.005,4.699-5.893,6.915c-1.479-0.846-2.851-1.699-4.282-2.436
		c-3.249-1.67-5.039-0.684-5.245,2.992c-0.046,0.828,0.346,1.941,0.938,2.495c2.184,2.045,4.366,4.168,6.854,5.796
		c8.517,5.574,17.782,9.701,27.203,13.474c3.865,1.548,7.781,2.973,11.695,4.392c0.819,0.296,1.096,0.72,1.234,1.562
		c0.459,2.794-0.833,4.922-2.527,7.098c-2.337-0.821-4.739-1.622-7.109-2.507c-9.585-3.58-19.108-7.312-28.094-12.261
		c-5.242-2.888-10.294-6.065-14.481-10.43c-2.183-2.276-4.052-4.795-4.461-7.99c-0.614-4.801,1.167-8.886,4.671-12.049
		c3.213-2.9,7.143-2.982,10.97-1.425C24.292,25.129,26.942,26.767,29.973,28.345z"/>
</g>
<g opacity="0.8">
	<path fill="#00A0C6" d="M77.255,81.995c-3.631-1.754-7.078-3.443-10.56-5.054c-0.336-0.156-0.987,0.037-1.332,0.287
		c-1.91,1.391-3.804,2.807-5.63,4.301c-0.804,0.658-1.39,0.656-2.14-0.022c-0.714-0.646-1.528-1.181-2.877-2.202
		c0.715-0.427,1.338-0.682,1.809-1.107c0.82-0.745,1.504-1.643,2.321-2.391c2.576-2.357,3.534-5.336,3.497-8.735
		c-0.021-1.972-0.003-3.943-0.003-6.255c1.458,0.932,2.636,1.636,3.746,2.433c0.282,0.201,0.429,0.688,0.5,1.071
		c0.371,2.001,0.665,4.02,1.07,6.015c0.083,0.405,0.47,0.969,0.827,1.064c3.965,1.084,7.955,2.089,12.072,3.15
		c2.754-7.783,5.479-15.486,8.2-23.179c3.22,0.928,4.507,2.452,4.16,5.574c-0.69,6.254-1.576,12.489-2.44,18.723
		c-0.354,2.543-0.428,2.533,2.268,3.201c0.453-1.05,0.917-2.122,1.379-3.19c0.109,0.019,0.22,0.037,0.33,0.055
		c0,0.675,0.074,1.359-0.014,2.021c-0.201,1.46,0.332,2.236,1.773,2.731c2.184,0.755,4.303,1.709,6.395,2.693
		c1.824,0.86,2.572,2.35,2.394,4.295c-0.296,3.213-1.815,4.436-5.013,3.965c-0.91-0.135-1.81-0.394-2.696-0.641
		c-0.886-0.249-1.75-0.554-2.633-0.834c-0.192,1.016-0.231,2.006-0.585,2.867c-0.361,0.877-1.029,1.63-1.672,2.605
		c4.854,1.698,9.543,3.395,14.666,0.429c-0.213,1.055-0.375,1.852-0.514,2.543c4.439,2.219,8.807,4.401,13.322,6.659
		c5.628-8.104,9.003-17.154,9.824-27.281c-2.268,0-4.424,0-6.682,0c-0.349,1.439-0.207,3.186-1.973,4.266
		c0.194-1.514,0.364-2.828,0.551-4.262c-3.998,0-7.902,0-11.897,0c-0.116,1.035-0.233,2.064-0.382,3.368
		c-3.016-3.813-7.373-4.726-11.278-6.427c-1.004-0.438-1.481-0.865-0.771-2.043c2.391,0,4.875,0,7.484,0
		c-0.063-7.919-0.916-15.596-2.969-23.275c-1.158,0.288-2.236,0.511-3.284,0.83c-0.707,0.214-1.192,0.155-1.659-0.502
		c-0.449-0.635-1.031-1.189-1.615-1.71c-0.55-0.487-1.175-0.883-1.985-1.479c2.466-0.616,4.751-1.185,7.184-1.792
		c-0.597-1.626-1.077-3.117-1.68-4.558c-2.904-6.954-6.57-13.39-12.574-18.205c-2.871-2.303-6.562-3.967-9.474-4.238
		c0,10.117,0,20.221,0,30.544c2.207-0.109,4.4-0.219,6.861-0.341c-0.561,1.607-1.052,3.113-1.633,4.583
		c-0.093,0.239-0.576,0.418-0.9,0.456c-0.967,0.112-1.943,0.224-2.909,0.181c-1.183-0.054-1.606,0.312-1.575,1.571
		c0.089,3.612,0.031,7.228,0.031,10.84c0,0.499,0,0.999,0,1.668c-1.084-0.263-2-0.412-2.854-0.731
		c-0.338-0.127-0.719-0.601-0.775-0.964c-0.569-3.682-1.666-7.305-1.311-11.097c0.069-0.722-0.056-1.235-0.998-1.26
		c-8.096-0.218-16.021-1.547-23.813-3.73c-0.168-0.048-0.352-0.042-0.65-0.076c-0.265,1.001-0.521,1.966-0.84,3.167
		c-1.383-0.589-2.71-1.077-3.943-1.741c-0.26-0.141-0.359-0.984-0.216-1.393c0.457-1.312,0.065-1.859-1.226-2.442
		c-3.452-1.561-6.792-3.367-10.174-5.082c-0.401-0.203-0.787-0.438-1.253-0.7c-0.602,0.869-1.143,1.652-1.747,2.524
		c-1.416-0.846-2.752-1.645-4.087-2.441C35.589,19.139,66.52,4.562,97.105,17.044c29.322,11.966,44.898,44.623,34.595,75.329
		c-10.528,31.367-43.218,48.361-74.68,39.111C24.848,122.025,8.46,89.682,14.693,61.16c1.362,0.767,2.704,1.465,3.969,2.281
		c0.262,0.168,0.362,0.788,0.328,1.182c-0.223,2.62-0.503,5.236-0.787,8.075c0.726,0,1.217,0,1.705,0
		c5.607,0,11.215,0.101,16.816-0.056c1.819-0.053,3.394,0.356,5.019,0.987c2.528,0.981,5.091,1.872,7.809,2.86
		c-1.818,2.227-4.252,0.595-6.165,1.365c-0.28,3.647,1.544,16.009,2.758,18.961c6.558-1.207,13.085-2.405,19.612-3.606
		c0.11,0.166,0.222,0.332,0.333,0.498c-0.622,1.556-1.188,3.135-1.914,4.642c-0.145,0.299-0.895,0.344-1.381,0.437
		c-4.765,0.929-9.535,1.84-14.302,2.766c-0.264,0.052-0.515,0.166-0.938,0.308c0.591,1.595,1.106,3.166,1.745,4.685
		c2.929,6.948,6.639,13.367,12.717,18.095c2.769,2.155,5.849,3.68,9.568,4.196c0-5.521,0-10.918,0-16.212
		c1.707-0.534,3.233-1.014,4.938-1.546c0,5.829,0,11.708,0,17.741c3.754-0.578,6.807-2.146,9.563-4.305
		c4.384-3.435,7.628-7.82,10.095-12.758c1.586-3.177,2.9-6.486,4.414-9.908c-5.119-1.673-10.135-2.386-15.385-3.119
		c0.846-1.48,1.543-2.886,2.441-4.146c0.258-0.36,1.104-0.304,1.981-0.506c-0.155-1.918-0.329-3.994-0.504-6.103
		c-1.383-0.49-2.59-0.922-3.897-1.388c-0.338,0.558-0.646,1.063-0.95,1.572c-3.071,5.121-6.136,10.246-9.212,15.368
		c-0.237,0.394-0.525,0.763-0.814,1.123c-1.521,1.887-2.816,2.123-4.952,0.906c-0.358-0.203-0.697-0.438-1.179-0.742
		C71.152,97.249,74.17,89.708,77.255,81.995z M109.689,72.585c6.856,0,13.494,0,20.186,0c-0.184-11.558-3.592-21.923-10.025-31.192
		c-4.496,2.247-8.859,4.431-13.345,6.671C108.531,55.998,109.652,64.181,109.689,72.585z M71.512,17.63
		c-3.656,0.521-6.738,2.047-9.508,4.205c-6.075,4.73-9.769,11.16-12.699,18.105c-0.64,1.516-1.153,3.086-1.752,4.706
		c7.941,2.31,15.855,3.457,23.96,3.624C71.512,37.976,71.512,27.858,71.512,17.63z M28.483,105.234
		c0.418-0.217,0.736-0.389,1.058-0.549c3.587-1.809,7.152-3.658,10.776-5.385c0.939-0.449,1.116-0.84,0.93-1.859
		c-0.966-5.313-1.839-10.645-2.695-15.979c-0.195-1.217-0.196-2.46-0.286-3.669c-6.655,0-13.147,0-19.717,0
		C19.369,87.91,22.727,96.961,28.483,105.234z M91.996,20.551c6.124,6.485,10.1,14.183,13.092,22.819
		c3.979-1.943,7.805-3.811,11.855-5.791C109.979,29.4,101.816,23.794,91.996,20.551z M105.102,103.057
		c-2.998,8.701-6.982,16.381-13.104,22.854c9.826-3.238,17.97-8.863,24.942-17.028C112.896,106.891,109.083,105.016,105.102,103.057
		z M42.848,43.319c3.015-8.571,6.902-16.182,12.926-22.6c-9.633,3.254-17.649,8.814-24.493,16.844
		C35.209,39.518,38.908,41.358,42.848,43.319z M55.75,125.714c-6.07-6.419-9.896-14.103-12.929-22.565
		c-3.923,1.959-7.612,3.802-11.52,5.754C38.151,116.911,46.128,122.48,55.75,125.714z"/>
	<path fill="#00A0C6" d="M25.854,29.822c-2.154,2.526-4.006,4.7-5.894,6.915c-1.479-0.846-2.851-1.699-4.282-2.436
		c-3.249-1.67-5.039-0.684-5.245,2.992c-0.045,0.828,0.346,1.941,0.938,2.495c2.183,2.045,4.365,4.168,6.854,5.796
		c8.516,5.574,17.782,9.701,27.202,13.475c3.866,1.548,7.781,2.973,11.695,4.392c0.819,0.296,1.096,0.721,1.234,1.562
		c0.459,2.795-0.833,4.923-2.527,7.096c-2.336-0.819-4.738-1.622-7.109-2.505c-9.585-3.581-19.108-7.312-28.094-12.262
		c-5.243-2.888-10.294-6.065-14.481-10.43c-2.184-2.276-4.052-4.795-4.461-7.99c-0.614-4.801,1.167-8.887,4.671-12.05
		c3.213-2.9,7.143-2.982,10.971-1.425C20.173,26.607,22.823,28.245,25.854,29.822z"/>
</g>
<g>
	<path fill="#FFFFFF" d="M78.803,79.857c-3.631-1.752-7.078-3.441-10.559-5.053c-0.337-0.156-0.988,0.037-1.333,0.287
		c-1.91,1.391-3.804,2.807-5.63,4.301c-0.804,0.658-1.39,0.656-2.14-0.022c-0.715-0.646-1.529-1.181-2.877-2.201
		c0.715-0.428,1.338-0.683,1.809-1.108c0.82-0.744,1.504-1.642,2.321-2.391c2.576-2.357,3.534-5.337,3.497-8.735
		c-0.021-1.972-0.003-3.943-0.003-6.255c1.458,0.932,2.635,1.636,3.746,2.433c0.282,0.201,0.429,0.688,0.5,1.071
		c0.372,2.001,0.664,4.02,1.07,6.015c0.083,0.404,0.47,0.968,0.826,1.065c3.966,1.083,7.955,2.089,12.072,3.151
		c2.754-7.784,5.479-15.487,8.201-23.18c3.219,0.928,4.506,2.452,4.16,5.574c-0.691,6.254-1.576,12.49-2.441,18.724
		c-0.354,2.543-0.426,2.531,2.269,3.199c0.453-1.049,0.916-2.121,1.378-3.191c0.109,0.021,0.221,0.039,0.331,0.059
		c0,0.674,0.075,1.358-0.015,2.02c-0.201,1.459,0.332,2.234,1.774,2.732c2.183,0.752,4.304,1.707,6.396,2.691
		c1.824,0.859,2.572,2.352,2.393,4.295c-0.297,3.213-1.814,4.436-5.013,3.965c-0.911-0.134-1.81-0.393-2.696-0.641
		c-0.885-0.248-1.751-0.553-2.634-0.834c-0.192,1.016-0.231,2.006-0.585,2.867c-0.361,0.878-1.028,1.63-1.672,2.604
		c4.854,1.699,9.543,3.396,14.667,0.431c-0.214,1.055-0.374,1.851-0.513,2.543c4.438,2.219,8.806,4.4,13.32,6.658
		c5.628-8.104,9.004-17.154,9.823-27.281c-2.267,0-4.421,0-6.679,0c-0.351,1.44-0.209,3.185-1.976,4.266
		c0.196-1.514,0.365-2.829,0.552-4.262c-3.998,0-7.902,0-11.897,0c-0.115,1.035-0.231,2.063-0.381,3.369
		c-3.017-3.813-7.372-4.727-11.278-6.428c-1.004-0.438-1.482-0.865-0.771-2.043c2.393,0,4.877,0,7.485,0
		c-0.063-7.92-0.915-15.596-2.969-23.276c-1.157,0.288-2.235,0.511-3.283,0.83c-0.708,0.214-1.194,0.155-1.659-0.502
		c-0.449-0.635-1.031-1.189-1.617-1.71c-0.549-0.487-1.174-0.883-1.984-1.479c2.467-0.616,4.751-1.185,7.186-1.792
		c-0.598-1.627-1.078-3.117-1.681-4.558c-2.903-6.954-6.569-13.391-12.574-18.205c-2.872-2.303-6.563-3.967-9.474-4.238
		c0,10.117,0,20.221,0,30.544c2.207-0.11,4.4-0.219,6.859-0.341c-0.56,1.607-1.049,3.113-1.631,4.583
		c-0.093,0.239-0.578,0.418-0.902,0.456c-0.965,0.112-1.941,0.224-2.908,0.181c-1.182-0.054-1.605,0.312-1.574,1.571
		c0.088,3.612,0.031,7.228,0.031,10.84c0,0.499,0,0.998,0,1.669c-1.084-0.264-1.999-0.413-2.854-0.732
		c-0.338-0.127-0.72-0.601-0.775-0.964c-0.57-3.682-1.666-7.305-1.311-11.097c0.068-0.722-0.057-1.235-0.998-1.26
		c-8.097-0.218-16.021-1.547-23.813-3.731c-0.168-0.048-0.352-0.042-0.65-0.075c-0.265,1.001-0.521,1.966-0.84,3.167
		c-1.383-0.589-2.71-1.078-3.943-1.741c-0.26-0.141-0.36-0.984-0.216-1.394c0.457-1.311,0.065-1.859-1.226-2.442
		c-3.452-1.56-6.792-3.367-10.174-5.081c-0.401-0.203-0.787-0.438-1.253-0.7c-0.602,0.869-1.143,1.652-1.747,2.523
		c-1.416-0.845-2.752-1.644-4.088-2.441C37.137,17.002,68.067,2.425,98.654,14.907c29.322,11.967,44.898,44.623,34.594,75.331
		c-10.527,31.365-43.219,48.361-74.68,39.111c-32.172-9.459-48.561-41.803-42.327-70.326c1.362,0.767,2.704,1.465,3.969,2.281
		c0.262,0.168,0.362,0.788,0.328,1.182c-0.223,2.62-0.503,5.236-0.787,8.076c0.726,0,1.217,0,1.705,0
		c5.606,0,11.215,0.102,16.816-0.057c1.819-0.051,3.394,0.358,5.019,0.989c2.528,0.981,5.091,1.871,7.808,2.858
		c-1.817,2.229-4.252,0.597-6.165,1.365c-0.28,3.648,1.544,16.01,2.758,18.963c6.558-1.207,13.085-2.406,19.612-3.606
		c0.11,0.166,0.222,0.332,0.332,0.498c-0.622,1.555-1.188,3.135-1.913,4.641c-0.145,0.298-0.895,0.343-1.381,0.437
		c-4.765,0.93-9.535,1.841-14.302,2.766c-0.264,0.052-0.515,0.167-0.938,0.309c0.591,1.594,1.106,3.166,1.745,4.684
		c2.929,6.947,6.639,13.367,12.717,18.095c2.768,2.156,5.848,3.679,9.568,4.197c0-5.521,0-10.918,0-16.212
		c1.708-0.534,3.235-1.014,4.94-1.549c0,5.83,0,11.709,0,17.744c3.754-0.578,6.806-2.146,9.563-4.307
		c4.385-3.434,7.629-7.818,10.096-12.757c1.584-3.177,2.899-6.487,4.412-9.909c-5.119-1.672-10.135-2.384-15.385-3.117
		c0.848-1.482,1.544-2.887,2.442-4.146c0.258-0.362,1.104-0.304,1.981-0.507c-0.156-1.918-0.33-3.994-0.504-6.103
		c-1.384-0.491-2.591-0.921-3.896-1.387c-0.338,0.557-0.646,1.063-0.952,1.571c-3.07,5.121-6.136,10.246-9.212,15.369
		c-0.237,0.394-0.524,0.762-0.814,1.121c-1.521,1.887-2.816,2.125-4.951,0.907c-0.357-0.204-0.697-0.438-1.179-0.743
		C72.701,95.111,75.718,87.57,78.803,79.857z M111.236,70.448c6.859,0,13.496,0,20.188,0c-0.184-11.557-3.592-21.922-10.027-31.191
		c-4.494,2.247-8.858,4.431-13.344,6.671C110.078,53.861,111.2,62.044,111.236,70.448z M73.061,15.494
		c-3.657,0.521-6.739,2.047-9.509,4.205c-6.075,4.73-9.769,11.16-12.699,18.105c-0.64,1.516-1.153,3.086-1.752,4.706
		c7.941,2.31,15.855,3.457,23.959,3.624C73.061,35.839,73.061,25.722,73.061,15.494z M30.032,103.1
		c0.418-0.219,0.736-0.39,1.057-0.551c3.588-1.807,7.153-3.656,10.777-5.384c0.939-0.449,1.116-0.84,0.93-1.858
		c-0.966-5.313-1.839-10.646-2.695-15.979c-0.195-1.217-0.196-2.46-0.286-3.669c-6.655,0-13.147,0-19.717,0
		C20.917,85.773,24.274,94.824,30.032,103.1z M93.544,18.414c6.124,6.485,10.099,14.183,13.093,22.819
		c3.979-1.943,7.803-3.811,11.856-5.791C111.525,27.264,103.363,21.658,93.544,18.414z M106.648,100.92
		c-2.998,8.7-6.982,16.381-13.104,22.854c9.825-3.236,17.969-8.861,24.941-17.027C114.443,104.755,110.631,102.879,106.648,100.92z
		 M44.396,41.182c3.015-8.571,6.902-16.182,12.926-22.6c-9.633,3.254-17.649,8.814-24.493,16.844
		C36.758,37.381,40.457,39.221,44.396,41.182z M57.298,123.578c-6.07-6.419-9.896-14.104-12.929-22.566
		c-3.923,1.959-7.612,3.803-11.521,5.754C39.699,114.775,47.676,120.344,57.298,123.578z"/>
	<path fill="#FFFFFF" d="M27.402,27.686c-2.154,2.526-4.005,4.699-5.893,6.915c-1.479-0.846-2.851-1.699-4.282-2.436
		c-3.249-1.67-5.039-0.684-5.245,2.992c-0.046,0.828,0.346,1.941,0.938,2.495c2.183,2.045,4.366,4.168,6.854,5.796
		c8.517,5.574,17.782,9.701,27.203,13.475c3.865,1.548,7.781,2.973,11.695,4.392c0.819,0.296,1.096,0.721,1.234,1.562
		c0.459,2.795-0.833,4.922-2.527,7.098c-2.337-0.82-4.739-1.622-7.109-2.507c-9.585-3.58-19.108-7.312-28.094-12.262
		c-5.242-2.888-10.294-6.065-14.481-10.43c-2.183-2.276-4.052-4.795-4.461-7.99c-0.614-4.801,1.167-8.887,4.671-12.05
		c3.213-2.9,7.143-2.982,10.97-1.425C21.722,24.47,24.372,26.108,27.402,27.686z"/>
</g>
</svg>
