<?xml version="1.0" encoding="utf-8"?>
<!-- Generator: Adobe Illustrator 16.0.3, SVG Export Plug-In . SVG Version: 6.00 Build 0)  -->
<!DOCTYPE svg PUBLIC "-//W3C//DTD SVG 1.1//EN" "http://www.w3.org/Graphics/SVG/1.1/DTD/svg11.dtd">
<svg version="1.1" id="Capa_1" xmlns="http://www.w3.org/2000/svg" xmlns:xlink="http://www.w3.org/1999/xlink" x="0px" y="0px"
	 width="84px" height="86px" viewBox="0 0 84 86" enable-background="new 0 0 84 86" xml:space="preserve">
<g>
	<path fill-rule="evenodd" clip-rule="evenodd" fill="#5B5B5B" d="M42.404,73.156c-9.75,0-19.497,0.004-29.245,0
		C6.101,73.153,2.148,69.205,2.148,62.172c-0.001-13.048-0.003-26.098,0-39.149c0.003-6.598,4.059-10.655,10.7-10.659
		c19.705-0.013,39.409-0.013,59.115,0c6.646,0.004,10.695,4.057,10.695,10.659c0.004,13.154,0.004,26.312,0,39.465
		c0,6.603-4.057,10.655-10.695,10.666C62.109,73.166,52.257,73.156,42.404,73.156z M15.41,31.575c0,12.948,0,25.547,0,38.182
		c18.044,0,35.98,0,53.914,0c0-12.714,0-25.329,0-38.109c-0.504,0.382-0.843,0.626-1.169,0.887
		c-8.032,6.471-16.08,12.927-24.089,19.437c-1.172,0.949-2.086,1.041-3.302,0.053c-5.346-4.387-10.749-8.702-16.134-13.039
		C21.625,36.567,18.62,34.155,15.41,31.575z M72.712,69.728c3.794,0.14,6.656-2.567,6.678-6.428
		c0.074-13.676,0.056-27.353,0.008-41.027c-0.008-3.043-1.741-5.297-4.38-6.277c-1.052-0.395-1.832-0.233-2.716,0.486
		c-9.344,7.603-18.722,15.166-28.087,22.74c-1.699,1.377-1.954,1.377-3.635,0.014c-9.366-7.572-18.744-15.137-28.092-22.737
		c-0.869-0.703-1.642-0.908-2.71-0.503c-2.824,1.062-4.386,3.419-4.387,6.918C5.382,36.115,5.382,49.32,5.397,62.527
		c0,0.827,0.067,1.68,0.255,2.487c0.675,2.869,3.423,4.921,6.357,4.663c0-0.591,0-1.209,0-1.821c0-12.788,0-25.571,0.005-38.358
		c0-0.576-0.03-1.165,0.09-1.719c0.256-1.21,1.335-1.682,2.396-1.063c0.492,0.289,0.924,0.683,1.372,1.045
		C24.156,34.43,32.434,41.1,40.714,47.773c0.559,0.445,1.126,0.885,1.696,1.327c7.218-5.815,14.315-11.533,21.413-17.251
		c2.037-1.641,4.054-3.316,6.134-4.903c1.358-1.036,2.593-0.446,2.741,1.226c0.037,0.473,0.015,0.945,0.015,1.418
		c0,12.732,0,25.464,0,38.199C72.712,68.411,72.712,69.027,72.712,69.728z M42.385,36.519c8.521-6.89,16.958-13.711,25.662-20.75
		c-17.239,0-34.094,0-51.326,0C25.412,22.797,33.824,29.594,42.385,36.519z"/>
	<path fill-rule="evenodd" clip-rule="evenodd" fill="#5B5B5B" d="M47.089,54.936c0.467-0.604,0.76-1.161,1.209-1.521
		c3.653-2.961,7.34-5.883,11.012-8.819c0.879-0.707,1.819-1.001,2.604,0c0.766,0.979,0.322,1.839-0.575,2.553
		c-3.681,2.921-7.326,5.892-11.053,8.765c-0.513,0.393-1.421,0.476-2.098,0.375C47.808,56.23,47.525,55.504,47.089,54.936z"/>
	<path fill-rule="evenodd" clip-rule="evenodd" fill="#5B5B5B" d="M64.416,44.043c-0.408-0.61-1.026-1.172-1.174-1.836
		c-0.202-0.895,1.171-2.042,2.169-2.005c0.995,0.041,1.527,0.583,1.545,1.576C66.973,42.79,65.837,43.821,64.416,44.043z"/>
</g>
</svg>
