<?xml version="1.0" encoding="utf-8"?>
<!-- Generator: Adobe Illustrator 16.0.3, SVG Export Plug-In . SVG Version: 6.00 Build 0)  -->
<!DOCTYPE svg PUBLIC "-//W3C//DTD SVG 1.1//EN" "http://www.w3.org/Graphics/SVG/1.1/DTD/svg11.dtd">
<svg version="1.1" id="Capa_1" xmlns="http://www.w3.org/2000/svg" xmlns:xlink="http://www.w3.org/1999/xlink" x="0px" y="0px"
	 width="84px" height="86px" viewBox="0 0 84 86" enable-background="new 0 0 84 86" xml:space="preserve">
<g>
	<path fill="#5B5B5B" d="M41.708,75.996c-4.971,0-9.943,0.011-14.914-0.005c-0.644-0.004-1.295-0.152-1.947-0.224
		C15.784,74.751,9,68.076,8.678,58.902C8.302,48.146,8.316,37.358,8.67,26.601c0.305-9.144,7.098-15.974,16.169-16.82
		c4.722-0.435,9.493-0.522,14.237-0.507c6.456,0.019,12.931-0.028,19.349,0.522c9.348,0.795,16.039,7.714,16.341,17.068
		c0.339,10.585,0.339,21.194,0.015,31.779c-0.296,9.353-7.045,16.237-16.343,17.078c-5.547,0.496-11.145,0.508-16.724,0.732
		C41.714,76.302,41.714,76.148,41.708,75.996z M26.967,15.558c-2.778,0.066-5.43,0.807-7.705,2.529
		c-2.987,2.264-4.486,5.416-4.591,9.026c-0.249,8.408-0.288,16.827-0.307,25.236c-0.006,2.521,0.134,5.069,0.545,7.548
		c0.92,5.532,4.791,9.134,10.407,9.792c2.592,0.301,5.216,0.468,7.826,0.468c7.544-0.004,15.088-0.069,22.628-0.229
		c1.715-0.037,3.48-0.377,5.12-0.907c5.021-1.642,7.591-5.457,7.852-10.493c0.396-7.356,0.362-14.731,0.42-22.094
		c0.024-3.05-0.081-6.109-0.35-9.146c-0.634-7.141-5.128-11.473-12.291-11.727c-4.921-0.169-9.855-0.031-14.784-0.031
		C36.818,15.527,31.891,15.444,26.967,15.558z"/>
	<path fill="#5B5B5B" d="M41.669,25.521c9.43-0.032,17.182,7.664,17.226,17.086c0.031,9.614-7.653,17.368-17.213,17.356
		c-9.451-0.017-17.131-7.692-17.146-17.146C24.519,33.27,32.154,25.56,41.669,25.521z M41.688,53.953
		c6.175,0.009,11.189-5.044,11.178-11.254c-0.014-6.146-5.009-11.148-11.141-11.161c-6.172-0.008-11.188,5.038-11.169,11.252
		C30.57,48.931,35.566,53.94,41.688,53.953z"/>
	<path fill="#5B5B5B" d="M63.597,24.213c-0.013-2.185-1.807-3.979-3.981-3.982c-2.247,0-4.014,1.825-3.977,4.107
		c0.044,2.205,1.847,3.957,4.032,3.911C61.869,28.201,63.611,26.414,63.597,24.213z"/>
</g>
</svg>
