<?xml version="1.0" encoding="utf-8"?>
<!-- Generator: Adobe Illustrator 16.0.3, SVG Export Plug-In . SVG Version: 6.00 Build 0)  -->
<!DOCTYPE svg PUBLIC "-//W3C//DTD SVG 1.1//EN" "http://www.w3.org/Graphics/SVG/1.1/DTD/svg11.dtd">
<svg version="1.1" id="Capa_1" xmlns="http://www.w3.org/2000/svg" xmlns:xlink="http://www.w3.org/1999/xlink" x="0px" y="0px"
	 width="84px" height="86px" viewBox="0 0 84 86" enable-background="new 0 0 84 86" xml:space="preserve">
<g>
	<path fill="#5B5B5B" d="M55.934,8.56c0.551,0.429,1.155,0.809,1.646,1.295c4.069,4.042,8.11,8.111,12.183,12.153
		c0.68,0.67,1.01,1.405,0.997,2.368c-0.034,2.741-0.013,5.478-0.013,8.276c-1.451,0-2.879,0-4.375,0c0-2.146,0-4.304,0-6.532
		c-0.321,0-0.564,0-0.809,0c-2.56,0-5.121,0.007-7.68,0c-2.834-0.012-4.681-1.848-4.689-4.672c-0.012-2.563-0.004-5.126-0.004-7.682
		c0-0.248,0-0.493,0-0.812c-0.301,0-0.549,0-0.789,0c-10.533,0-21.068,0-31.604,0c-1.927,0-2.723,0.785-2.723,2.688
		c0,18.69,0,37.385,0,56.077c0,1.877,0.799,2.684,2.659,2.684c4.681,0,9.367,0,14.053,0c0.245,0,0.496,0,0.843,0
		c0,1.488,0,2.936,0,4.389c-5.346,0-10.695,0-16.044,0c-0.083-0.033-0.164-0.084-0.25-0.098c-1.694-0.237-3.059-1.043-4.159-2.352
		c-0.845-1.006-1.219-2.197-1.489-3.451c0-19.474,0-38.95,0-58.43c0.039-0.107,0.094-0.208,0.109-0.319
		c0.246-1.637,1.033-2.966,2.289-4.046c1.012-0.872,2.227-1.261,3.5-1.536C31.7,8.56,43.818,8.56,55.934,8.56z"/>
</g>
<g>
	<path fill="#5B5B5B" d="M48.844,67.462c-3.275,0-6.405,0-9.592,0c0-10.389,0-20.746,0-31.167c3.021,0,6.047,0,9.2,0
		c0,1.358,0,2.704,0,4.05c0.063,0.012,0.125,0.02,0.179,0.032c0.243-0.335,0.473-0.688,0.727-1.009
		c1.891-2.388,4.412-3.667,7.396-3.835c1.681-0.097,3.435,0.044,5.071,0.413c4.203,0.95,6.277,3.962,7.031,7.977
		c0.332,1.785,0.521,3.628,0.541,5.444c0.071,5.794,0.035,11.584,0.039,17.377c0,0.211,0,0.419,0,0.691c-3.234,0-6.416,0-9.699,0
		c0-0.33,0-0.658,0-0.98c-0.004-5.122,0.018-10.243-0.021-15.37c-0.009-1.112-0.13-2.251-0.359-3.347
		c-0.474-2.254-1.771-3.443-3.846-3.684c-2.714-0.32-4.798,0.565-5.709,2.627c-0.46,1.039-0.798,2.219-0.824,3.338
		c-0.115,5.396-0.102,10.789-0.131,16.188C48.84,66.6,48.844,66.992,48.844,67.462z"/>
	<path fill="#5B5B5B" d="M32.973,67.475c-3.191,0-6.325,0-9.534,0c0-10.381,0-20.75,0-31.182c3.154,0,6.308,0,9.534,0
		C32.973,46.65,32.973,57.018,32.973,67.475z"/>
	<path fill="#5B5B5B" d="M33.811,26.329c-0.019,3.109-2.585,5.683-5.637,5.635c-3.069-0.041-5.606-2.643-5.578-5.726
		c0.025-3.046,2.572-5.568,5.619-5.571C31.327,20.663,33.828,23.196,33.811,26.329z"/>
</g>
</svg>
