<?xml version="1.0" encoding="utf-8"?>
<!-- Generator: Adobe Illustrator 16.0.3, SVG Export Plug-In . SVG Version: 6.00 Build 0)  -->
<!DOCTYPE svg PUBLIC "-//W3C//DTD SVG 1.1//EN" "http://www.w3.org/Graphics/SVG/1.1/DTD/svg11.dtd">
<svg version="1.1" id="Capa_1" xmlns="http://www.w3.org/2000/svg" xmlns:xlink="http://www.w3.org/1999/xlink" x="0px" y="0px"
	 width="84px" height="86px" viewBox="0 0 84 86" enable-background="new 0 0 84 86" xml:space="preserve">
<g>
	<path fill-rule="evenodd" clip-rule="evenodd" fill="#5B5B5B" d="M43.589,80.527c-6.227-0.193-12.455-0.358-18.681-0.598
		c-1.826-0.068-3.663-0.237-5.46-0.549c-3.42-0.589-5.796-3.09-6.5-6.505c-0.689-3.344-0.911-6.728-0.977-10.119
		c-0.099-5.206-0.177-10.417,0.438-15.595c0.208-1.758,0.499-3.564,1.14-5.195c1.298-3.291,3.99-4.717,7.445-5.01
		c12.198-1.036,24.415-0.821,36.63-0.544c2.951,0.068,5.902,0.327,8.845,0.583c4.503,0.39,7.208,2.823,7.924,7.326
		c0.448,2.838,0.725,5.72,0.832,8.591c0.208,5.543,0.225,11.094-0.381,16.619c-0.212,1.908-0.428,3.851-1.333,5.597
		c-1.363,2.627-3.531,4.15-6.488,4.381c-3.896,0.301-7.796,0.602-11.7,0.723c-3.905,0.124-7.817,0.027-11.729,0.027
		C43.591,80.348,43.59,80.439,43.589,80.527z M48.752,69.529c0.648,0.547,1.146,1.063,1.734,1.446
		c2.177,1.415,4.774,0.801,5.35-2.054c0.114-0.571,0.221-1.158,0.229-1.738c0.039-3.494,0.066-6.991,0.059-10.486
		c-0.003-1.17-0.056-2.35-0.203-3.509c-0.308-2.432-2.096-3.714-4.276-2.988c-0.821,0.272-1.523,0.917-2.267,1.412
		c-0.201,0.134-0.354,0.341-0.675,0.661c0-3.223,0-6.217,0-9.223c-1.288,0-2.499,0-3.752,0c0,9.462,0,18.883,0,28.326
		c1.277,0,2.507,0,3.802,0C48.752,70.754,48.752,70.183,48.752,69.529z M70.493,61.553c0-2.112,0.065-4.136-0.031-6.153
		c-0.039-0.853-0.283-1.757-0.667-2.521c-1.228-2.442-3.974-3.453-6.776-2.603c-2.339,0.709-3.791,2.737-3.833,5.557
		c-0.052,3.322-0.088,6.646,0.011,9.969c0.091,3.008,1.616,5.618,5.436,5.901c2.178,0.161,4.215-0.876,5.257-2.767
		c0.837-1.519,0.679-3.148,0.706-4.782c-1.342,0-2.616,0-3.963,0c0,0.769,0.04,1.477-0.008,2.18
		c-0.085,1.165-0.701,1.822-1.676,1.873c-0.97,0.054-1.771-0.545-1.85-1.679c-0.113-1.621-0.027-3.256-0.027-4.976
		C65.54,61.553,68.041,61.553,70.493,61.553z M37.751,50.302c0,0.298,0,0.56,0,0.823c0,4.742-0.033,9.484,0.028,14.226
		c0.012,0.951-0.341,1.575-0.985,2.145c-0.506,0.446-1.066,0.882-1.766,0.636c-0.733-0.258-0.613-0.988-0.615-1.58
		c-0.017-5.134-0.018-10.268-0.024-15.4c0-0.282,0-0.564,0-0.843c-1.328,0-2.54,0-3.792,0c-0.012,0.207-0.028,0.374-0.028,0.54
		c0,5.452-0.01,10.903,0.014,16.354c0.004,0.873,0.123,1.755,0.27,2.617c0.175,1.02,0.838,1.614,1.858,1.807
		c1.71,0.324,2.95-0.567,4.135-1.592c0.28-0.242,0.529-0.52,0.933-0.92c0,0.906,0,1.579,0,2.262c1.293,0,2.523,0,3.749,0
		c0-7.055,0-14.058,0-21.073C40.258,50.302,39.045,50.302,37.751,50.302z M29.958,47.05c0-1.392,0-2.676,0-3.989
		c-4.45,0-8.855,0-13.282,0c0,1.336,0,2.619,0,4.015c1.505,0,2.976,0,4.501,0c0,8.165,0,16.22,0,24.306c1.437,0,2.813,0,4.266,0
		c0-8.123,0-16.195,0-24.331C26.977,47.05,28.434,47.05,29.958,47.05z"/>
	<path fill-rule="evenodd" clip-rule="evenodd" fill="#5B5B5B" d="M30.119,33.899c-1.458,0-2.816,0-4.271,0c0-0.293,0-0.553,0-0.813
		c0-2.666-0.084-5.333,0.025-7.994c0.099-2.418-0.384-4.709-1.123-6.966c-1.298-3.963-2.641-7.912-3.963-11.867
		c-0.1-0.298-0.188-0.599-0.296-0.944c1.512,0,2.969,0,4.471,0c0.995,3.668,1.99,7.335,2.985,11.002
		c0.04,0.003,0.08,0.007,0.12,0.012c0.388-1.474,0.778-2.946,1.164-4.419c0.531-2.029,1.067-4.058,1.58-6.091
		c0.088-0.352,0.181-0.556,0.607-0.547c1.246,0.027,2.49,0.01,3.813,0.01c-0.062,0.267-0.102,0.492-0.168,0.71
		c-1.568,5.182-3.146,10.362-4.7,15.549c-0.15,0.504-0.228,1.05-0.231,1.577c-0.021,3.3-0.011,6.601-0.011,9.901
		C30.119,33.285,30.119,33.55,30.119,33.899z"/>
	<path fill-rule="evenodd" clip-rule="evenodd" fill="#5B5B5B" d="M49.938,12.635c1.314,0,2.528,0,3.842,0c0,0.312,0,0.594,0,0.878
		c0,4.764-0.003,9.529,0.001,14.293c0.002,0.611,0.022,1.221,0.067,1.83c0.073,0.956,0.611,1.298,1.5,0.981
		c1.066-0.38,1.88-1.537,1.88-2.676c0-4.789,0-9.578,0-14.367c0-0.29,0-0.579,0-0.919c1.284,0,2.518,0,3.799,0
		c0,7.069,0,14.137,0,21.242c-1.249,0-2.461,0-3.772,0c0-0.693,0-1.381,0-2.069c-0.058-0.026-0.112-0.052-0.17-0.079
		c-0.267,0.265-0.519,0.544-0.8,0.792c-1.1,0.968-2.26,1.792-3.844,1.659c-1.208-0.103-2.028-0.765-2.213-1.952
		c-0.151-0.961-0.272-1.938-0.276-2.909c-0.025-5.375-0.014-10.751-0.014-16.126C49.938,13.044,49.938,12.876,49.938,12.635z"/>
	<path fill-rule="evenodd" clip-rule="evenodd" fill="#5B5B5B" d="M46.813,23.413c-0.086,1.966-0.063,4.001-0.293,6.008
		c-0.246,2.162-1.368,3.851-3.547,4.495c-2.15,0.635-4.222,0.432-5.917-1.255c-1.115-1.112-1.601-2.541-1.631-4.051
		c-0.071-3.54-0.101-7.085,0.002-10.624c0.082-2.794,1.622-4.838,3.924-5.406c3.56-0.877,6.723,0.803,7.184,4.704
		C46.772,19.288,46.729,21.327,46.813,23.413z M39.231,23.263c-0.012,0-0.024,0-0.037,0c0,1.416-0.031,2.832,0.014,4.247
		c0.022,0.723,0.113,1.459,0.302,2.154c0.201,0.742,0.809,1.079,1.571,1.065c0.735-0.013,1.286-0.376,1.496-1.075
		c0.173-0.577,0.288-1.194,0.292-1.794c0.03-3.05,0.036-6.101-0.003-9.152c-0.008-0.668-0.163-1.355-0.376-1.991
		c-0.203-0.602-0.736-0.87-1.388-0.888c-0.675-0.018-1.228,0.22-1.495,0.838c-0.199,0.459-0.345,0.977-0.357,1.473
		C39.205,19.846,39.231,21.555,39.231,23.263z"/>
	<path fill-rule="evenodd" clip-rule="evenodd" fill="#5B5B5B" d="M48.743,60.881c0-1.953,0-3.903,0.001-5.855
		c0.001-0.736,0.453-1.235,1.324-1.467c0.827-0.221,1.508-0.012,1.805,0.687c0.225,0.525,0.377,1.123,0.383,1.69
		c0.036,3.269,0.02,6.538,0.017,9.807c0,0.242-0.034,0.486-0.073,0.727c-0.115,0.724-0.32,1.411-1.11,1.66
		c-0.813,0.256-1.49-0.103-2.062-0.631c-0.178-0.166-0.27-0.503-0.272-0.765C48.733,64.783,48.743,62.832,48.743,60.881z"/>
	<path fill-rule="evenodd" clip-rule="evenodd" fill="#5B5B5B" d="M66.832,58.324c-1.37,0-2.558,0-3.835,0
		c-0.04-1.271-0.186-2.531,0.249-3.746c0.291-0.809,0.913-1.147,1.784-1.08c0.821,0.063,1.41,0.533,1.553,1.487
		C66.748,56.058,66.751,57.154,66.832,58.324z"/>
</g>
</svg>
