<?xml version="1.0" encoding="utf-8"?>
<!-- Generator: Adobe Illustrator 16.0.3, SVG Export Plug-In . SVG Version: 6.00 Build 0)  -->
<!DOCTYPE svg PUBLIC "-//W3C//DTD SVG 1.1//EN" "http://www.w3.org/Graphics/SVG/1.1/DTD/svg11.dtd">
<svg version="1.1" id="Capa_1" xmlns="http://www.w3.org/2000/svg" xmlns:xlink="http://www.w3.org/1999/xlink" x="0px" y="0px"
	 width="50px" height="50px" viewBox="0 0 50 50" enable-background="new 0 0 50 50" xml:space="preserve">
<g>
	<path fill="#FF0092" d="M24.945,49.779C13.103,49.771,3.002,41.257,0.959,29.563C-1.256,16.878,6.814,4.622,19.338,1.647
		c13.069-3.104,26.277,4.972,29.369,18.049c1.609,6.81,0.415,13.193-3.357,19.085c-0.643,1.001-1.775,1.281-2.697,0.701
		c-0.946-0.604-1.172-1.743-0.504-2.776c2.33-3.603,3.485-7.537,3.412-11.833c-0.168-9.294-6.955-17.565-16.047-19.546
		C19.099,3.058,8.867,8.838,5.464,18.911C1.775,29.83,8.036,41.859,19.119,45.094c5.674,1.653,11.09,0.975,16.232-1.93
		c1.078-0.609,1.996-0.553,2.66,0.171c0.848,0.918,0.635,2.308-0.494,2.983c-2.211,1.33-4.569,2.332-7.102,2.832
		c-1.799,0.354-3.633,0.529-5.451,0.785C24.959,49.883,24.952,49.831,24.945,49.779z"/>
	<path fill="#FF0092" d="M24.924,19.676c-2.813,0-5.627,0.005-8.44-0.003c-0.914-0.003-1.637-0.528-1.893-1.323
		c-0.249-0.771,0.026-1.709,0.741-2.118c0.4-0.228,0.913-0.354,1.376-0.356c3.914-0.027,7.827-0.014,11.739-0.014
		c1.546,0,3.09,0,4.636,0c1.513,0,2.392,0.708,2.382,1.921c-0.01,1.204-0.888,1.893-2.417,1.893
		C30.339,19.677,27.633,19.677,24.924,19.676z"/>
	<path fill="#FF0092" d="M24.994,27.297c-2.834,0-5.67,0.003-8.504-0.001c-0.781-0.002-1.4-0.323-1.761-1.03
		c-0.347-0.68-0.297-1.354,0.144-1.98c0.365-0.518,0.881-0.794,1.512-0.794c5.732-0.006,11.467-0.011,17.198,0.003
		c1.097,0.002,1.888,0.846,1.883,1.904c-0.006,1.073-0.827,1.889-1.967,1.893C30.664,27.309,27.83,27.296,24.994,27.297z"/>
	<path fill="#FF0092" d="M24.943,34.919c-2.792,0-5.585,0.004-8.377-0.002c-1.191-0.001-2.033-0.778-2.051-1.871
		c-0.019-1.119,0.83-1.937,2.049-1.937c5.627-0.008,11.254-0.008,16.879,0c1.188,0,2.031,0.813,2.021,1.896
		c-0.008,1.102-0.836,1.905-2.021,1.909c-2.834,0.015-5.67,0.005-8.502,0.005C24.943,34.921,24.943,34.921,24.943,34.919z"/>
</g>
</svg>
