<?xml version="1.0" encoding="utf-8"?>
<!-- Generator: Adobe Illustrator 16.0.3, SVG Export Plug-In . SVG Version: 6.00 Build 0)  -->
<!DOCTYPE svg PUBLIC "-//W3C//DTD SVG 1.1//EN" "http://www.w3.org/Graphics/SVG/1.1/DTD/svg11.dtd">
<svg version="1.1" id="Capa_1" xmlns="http://www.w3.org/2000/svg" xmlns:xlink="http://www.w3.org/1999/xlink" x="0px" y="0px"
	 width="50px" height="50px" viewBox="0 0 50 50" enable-background="new 0 0 50 50" xml:space="preserve">
<g>
	<path fill="#551A87" stroke="#551A87" stroke-miterlimit="10" d="M25.111,48.309C14.116,48.301,4.737,40.395,2.84,29.537
		C0.783,17.759,8.276,6.379,19.905,3.617c12.135-2.883,24.4,4.616,27.268,16.758c1.494,6.324,0.388,12.25-3.116,17.723
		c-0.597,0.928-1.648,1.188-2.505,0.649c-0.877-0.562-1.088-1.619-0.469-2.578c2.164-3.345,3.237-6.999,3.17-10.987
		c-0.155-8.629-6.459-16.309-14.899-18.148c-9.669-2.107-19.17,3.26-22.331,12.613c-3.426,10.138,2.388,21.307,12.679,24.31
		c5.268,1.534,10.295,0.904,15.071-1.791c1.002-0.566,1.854-0.514,2.471,0.157c0.787,0.853,0.59,2.144-0.459,2.771
		c-2.053,1.234-4.242,2.165-6.594,2.629c-1.67,0.329-3.373,0.492-5.062,0.729C25.124,48.404,25.118,48.355,25.111,48.309z"/>
	<path fill="#551A87" stroke="#551A87" stroke-miterlimit="10" d="M25.091,20.356c-2.612,0-5.225,0.005-7.836-0.003
		c-0.849-0.002-1.52-0.49-1.758-1.228c-0.231-0.716,0.024-1.587,0.688-1.967c0.372-0.211,0.848-0.329,1.278-0.331
		c3.634-0.025,7.267-0.013,10.898-0.013c1.437,0,2.869,0,4.306,0c1.403,0,2.222,0.658,2.211,1.784
		c-0.01,1.118-0.821,1.757-2.241,1.757C30.12,20.357,27.605,20.357,25.091,20.356z"/>
	<path fill="#551A87" stroke="#551A87" stroke-miterlimit="10" d="M25.157,27.434c-2.632,0-5.265,0.002-7.896-0.002
		c-0.726-0.002-1.3-0.3-1.635-0.955c-0.323-0.633-0.276-1.258,0.133-1.839c0.339-0.481,0.818-0.737,1.404-0.737
		c5.323-0.006,10.647-0.01,15.969,0.003c1.019,0.001,1.752,0.785,1.748,1.768c-0.006,0.995-0.771,1.754-1.825,1.759
		C30.421,27.443,27.79,27.432,25.157,27.434z"/>
	<path fill="#551A87" stroke="#551A87" stroke-miterlimit="10" d="M25.109,34.509c-2.592,0-5.186,0.005-7.778-0.001
		c-1.106,0-1.888-0.722-1.904-1.736c-0.018-1.039,0.771-1.799,1.902-1.799c5.225-0.007,10.448-0.007,15.672,0
		c1.104,0,1.888,0.756,1.877,1.762c-0.008,1.022-0.774,1.769-1.877,1.771c-2.631,0.016-5.265,0.005-7.894,0.005
		C25.109,34.511,25.109,34.511,25.109,34.509z"/>
</g>
</svg>
