<?xml version="1.0" encoding="utf-8"?>
<!-- Generator: Adobe Illustrator 16.0.3, SVG Export Plug-In . SVG Version: 6.00 Build 0)  -->
<!DOCTYPE svg PUBLIC "-//W3C//DTD SVG 1.1//EN" "http://www.w3.org/Graphics/SVG/1.1/DTD/svg11.dtd">
<svg version="1.1" id="Capa_1" xmlns="http://www.w3.org/2000/svg" xmlns:xlink="http://www.w3.org/1999/xlink" x="0px" y="0px"
	 width="50px" height="50px" viewBox="0 0 50 50" enable-background="new 0 0 50 50" xml:space="preserve">
<g>
	<path fill-rule="evenodd" clip-rule="evenodd" fill="#FFFFFF" d="M16.963,24.292c-2.978-3.968-5.927-7.9-8.875-11.832
		c-1.727-2.302-3.451-4.606-5.181-6.906C2.596,5.14,2.372,4.699,2.445,4.168c0.164-1.193,1.298-1.792,2.447-1.275
		c1.65,0.742,3.291,1.509,4.935,2.268c10.668,4.924,21.335,9.848,32.003,14.771c1.996,0.921,3.996,1.833,5.988,2.762
		c1.072,0.5,1.498,1.534,0.928,2.407c-0.236,0.366-0.66,0.67-1.064,0.86c-3.865,1.807-7.744,3.584-11.619,5.371
		c-10.316,4.762-20.629,9.525-30.95,14.275c-0.356,0.164-0.775,0.311-1.154,0.287c-1.315-0.08-1.968-1.525-1.19-2.627
		C3.55,42.158,4.384,41.086,5.199,40c3.851-5.137,7.702-10.271,11.554-15.405C16.819,24.506,16.879,24.412,16.963,24.292z"/>
</g>
</svg>
