<?xml version="1.0" encoding="utf-8"?>
<!-- Generator: Adobe Illustrator 16.0.3, SVG Export Plug-In . SVG Version: 6.00 Build 0)  -->
<!DOCTYPE svg PUBLIC "-//W3C//DTD SVG 1.1//EN" "http://www.w3.org/Graphics/SVG/1.1/DTD/svg11.dtd">
<svg version="1.1" id="Capa_1" xmlns="http://www.w3.org/2000/svg" xmlns:xlink="http://www.w3.org/1999/xlink" x="0px" y="0px"
	 width="260px" height="90px" viewBox="0 0 260 90" enable-background="new 0 0 260 90" xml:space="preserve">
<g>
	<g>
		<path d="M17.302,40.595c0.956,2.419,2.4,4.369,4.287,5.951c5.615,4.707,11.971,6.185,19.08,4.271
			c1.168-0.314,2.374-0.637,3.567-0.668c2.16-0.058,3.644,1.213,4.177,3.287c0.522,2.037-0.219,4.086-2.203,4.967
			c-1.921,0.852-3.982,1.52-6.048,1.893C27.684,62.55,14.917,56.494,9.198,45.097c-8.49-16.912,0.92-37.104,20.188-40.495
			c9.669-1.7,18.236,0.771,25.467,7.551c1.74,1.632,2.61,3.583,1.707,5.968c-0.561,1.478-1.768,2.381-3.116,3.104
			C43.355,26.626,33.265,32.028,23.178,37.43C21.243,38.467,19.314,39.512,17.302,40.595z M15.494,34.729
			c10.622-5.702,21.095-11.328,31.794-17.074c-0.973-0.715-1.718-1.348-2.539-1.856c-8.628-5.343-23.628-3.327-28.742,10.478
			C15.016,28.955,14.644,31.69,15.494,34.729z"/>
		<path d="M211.924,73.002c0.297-2.979,0.582-5.832,0.885-8.861c8.588,0,17.295,0,26.305,0c-0.557-0.771-0.91-1.313-1.32-1.813
			c-9.467-11.523-18.943-23.04-28.404-34.571c-0.572-0.695-1.121-1.445-1.496-2.255c-1.252-2.711,0.326-5.694,3.252-6.213
			c0.691-0.121,1.406-0.176,2.109-0.176c11.652,0.006,23.307,0.025,34.959,0.047c2.658,0.003,4.387,1.198,4.906,3.373
			c0.689,2.888-1.217,5.489-4.168,5.581c-2.28,0.072-4.567,0.031-6.852,0.033c-6.338,0.002-12.676,0.001-19.015,0.001
			c-0.417,0-0.834,0-1.538,0c1.434,1.76,2.688,3.308,3.948,4.847c8.551,10.438,17.106,20.874,25.647,31.319
			c0.571,0.699,1.151,1.422,1.558,2.223c1.643,3.242-0.242,6.425-3.858,6.445c-7.637,0.045-15.273,0.019-22.912,0.021
			c-4.291,0.001-8.582,0-12.873,0C212.637,73.002,212.214,73.002,211.924,73.002z"/>
		<path d="M85.381,48.113c0-1.59-0.015-3.089,0.005-4.583c0.023-1.851,0.777-2.928,2.563-3.314c1.054-0.226,2.203-0.293,3.265-0.132
			c2.212,0.332,3.062,1.47,3.072,3.741c0.006,1.302,0,2.603,0,4.067c2.262-0.486,4.043-1.566,5.513-3.134
			c2.517-2.685,3.362-6.021,3.375-9.591c0.033-9.331,0.008-18.663,0.014-27.994c0.001-2.418,0.963-3.87,2.921-4.476
			c2.274-0.704,4.55,0.742,4.875,3.119c0.069,0.506,0.077,1.024,0.078,1.538c0.004,9.293,0.021,18.583-0.004,27.876
			c-0.016,6.005-1.73,11.362-6.157,15.621c-2.682,2.58-5.897,4.18-9.48,5.018c-0.915,0.216-1.164,0.586-1.154,1.499
			c0.047,4.746,0.025,9.489,0.02,14.233c-0.002,2.42-1.023,3.553-3.432,3.762c-0.741,0.064-1.498,0.07-2.237-0.006
			c-2.138-0.227-3.227-1.452-3.233-3.608c-0.011-4.628-0.044-9.254,0.027-13.882c0.017-1.094-0.322-1.453-1.354-1.68
			c-9.535-2.119-16.243-10.539-16.262-20.324c-0.017-9.371-0.039-18.74-0.044-28.111c-0.001-0.705,0.057-1.424,0.197-2.114
			c0.418-2.031,1.835-3.139,3.862-3.091c1.947,0.045,3.412,1.333,3.708,3.313c0.095,0.622,0.099,1.26,0.099,1.892
			c0.007,5.694-0.015,11.387,0.011,17.081c0.017,3.912,0.068,7.826,0.157,11.736C75.913,42.17,80.175,47.361,85.381,48.113z"/>
		<path d="M163.973,62.5c0.161,3.104,0.313,6.043,0.473,9.135c-0.348,0-0.771,0-1.19,0c-10.237,0-20.476,0-30.712,0
			c-0.156,0-0.314,0.002-0.475-0.001c-2.009-0.047-3.748-0.653-4.694-2.583c-0.966-1.974-0.24-3.688,1.023-5.244
			c2.585-3.188,5.192-6.357,7.796-9.529c7.084-8.633,14.173-17.26,21.257-25.895c0.37-0.455,0.708-0.939,1.249-1.661
			c-0.645,0-1.047,0-1.448,0c-8.267,0-16.536,0.005-24.806-0.007c-0.702-0.001-1.428-0.024-2.104-0.189
			c-2.293-0.563-3.349-2.188-3.208-4.811c0.109-2.025,1.529-3.521,3.679-3.832c0.619-0.089,1.252-0.143,1.877-0.145
			c11.693-0.02,23.388-0.031,35.082-0.031c1.967,0,3.646,0.596,4.58,2.521c0.94,1.938,0.525,3.679-0.785,5.277
			c-7.207,8.787-14.416,17.573-21.625,26.359c-2.85,3.476-5.696,6.954-8.709,10.634C148.95,62.5,156.466,62.5,163.973,62.5z"/>
		<path d="M166.646,52.834c0-4.786-0.01-9.572,0.014-14.356c0.003-0.782,0.052-1.59,0.253-2.34c0.491-1.828,1.892-2.795,3.778-2.739
			c1.844,0.053,3.219,1.155,3.604,2.979c0.154,0.726,0.218,1.485,0.222,2.229c0.041,9.333,0.012,18.665,0.106,27.995
			c0.086,8.723,6.655,13.397,14.474,12.859c1.209-0.082,2.43-0.258,3.605-0.547c5.441-1.348,8.771-5.313,9.218-10.93
			c0.104-1.338,0.16-2.684,0.163-4.024c0.014-8.62,0.002-17.239,0.009-25.86c0.003-2.576,0.905-3.959,2.927-4.563
			c2.078-0.617,4.137,0.493,4.705,2.597c0.174,0.638,0.233,1.324,0.234,1.99c0.016,9.332,0.077,18.665-0.012,27.996
			c-0.071,7.573-2.732,13.915-9.395,18.04c-6.826,4.227-18.228,5.146-25.592-0.794c-5.35-4.317-8.294-9.792-8.262-16.773
			c0.021-4.588,0.003-9.172,0.003-13.759C166.686,52.834,166.667,52.834,166.646,52.834z"/>
		<path d="M60.685,67.934c4.425-2.99,8.602-5.805,12.765-8.635c1.256-0.854,2.539-1.613,4.135-1.429
			c2.089,0.244,3.712,1.63,4.195,3.621c0.494,2.039-0.218,3.7-1.886,4.858c-4.139,2.868-8.327,5.672-12.502,8.491
			c-2.545,1.718-5.095,3.429-7.66,5.116c-0.621,0.406-1.286,0.775-1.977,1.043c-3.356,1.301-6.286-0.712-6.305-4.334
			c-0.027-5.02-0.03-10.04-0.03-15.057c0.004-10.517,0.011-21.03,0.028-31.545c0.005-3.563,2.342-5.498,5.78-4.819
			c1.906,0.377,3.227,1.909,3.427,4.003c0.043,0.471,0.029,0.948,0.029,1.422c0.001,11.897,0,23.795,0,35.695
			C60.685,66.788,60.685,67.211,60.685,67.934z"/>
		<path d="M123.854,46.148c0,7.112,0.004,14.229-0.007,21.341c0,0.668-0.043,1.346-0.167,2c-0.425,2.255-1.928,3.485-4.207,3.513
			c-2.423,0.023-3.883-1.094-4.383-3.421c-0.14-0.649-0.205-1.328-0.205-1.995c-0.011-14.306-0.011-28.612,0-42.918
			c0.001-0.705,0.077-1.422,0.22-2.112c0.442-2.127,2.037-3.387,4.212-3.398c2.203-0.01,3.811,1.196,4.295,3.302
			c0.167,0.723,0.23,1.486,0.231,2.229C123.862,31.843,123.854,38.995,123.854,46.148z"/>
		<path d="M185.893,38.955c-0.037,1.583-1.166,2.674-2.72,2.629c-1.479-0.042-2.735-1.293-2.731-2.722
			c0.002-1.524,1.397-2.905,2.883-2.851C184.848,36.068,185.934,37.312,185.893,38.955z"/>
		<path d="M194.619,36.011c1.439-0.01,2.789,1.338,2.811,2.807c0.023,1.445-1.334,2.773-2.824,2.768
			c-1.519-0.007-2.656-1.163-2.672-2.712C191.917,37.297,193.113,36.022,194.619,36.011z"/>
	</g>
</g>
</svg>
