<?xml version="1.0" encoding="utf-8"?>
<!-- Generator: Adobe Illustrator 16.0.3, SVG Export Plug-In . SVG Version: 6.00 Build 0)  -->
<!DOCTYPE svg PUBLIC "-//W3C//DTD SVG 1.1//EN" "http://www.w3.org/Graphics/SVG/1.1/DTD/svg11.dtd">
<svg version="1.1" id="Capa_1" xmlns="http://www.w3.org/2000/svg" xmlns:xlink="http://www.w3.org/1999/xlink" x="0px" y="0px"
	 width="260px" height="90px" viewBox="0 0 260 90" enable-background="new 0 0 260 90" xml:space="preserve">
<g>
	<g>
		<path fill="#F2F2F2" d="M17.622,41.019c0.956,2.418,2.4,4.37,4.287,5.95c5.615,4.707,11.972,6.186,19.08,4.271
			c1.168-0.313,2.374-0.637,3.567-0.668c2.16-0.057,3.644,1.213,4.177,3.287c0.522,2.037-0.22,4.086-2.203,4.967
			c-1.921,0.854-3.981,1.521-6.048,1.895c-12.479,2.254-25.245-3.803-30.964-15.197c-8.49-16.914,0.92-37.105,20.188-40.497
			c9.668-1.7,18.235,0.771,25.467,7.551c1.739,1.632,2.609,3.583,1.707,5.968c-0.562,1.478-1.769,2.381-3.117,3.104
			c-10.088,5.4-20.178,10.802-30.266,16.204C21.563,38.891,19.635,39.936,17.622,41.019z M15.814,35.152
			c10.622-5.702,21.095-11.328,31.794-17.074c-0.974-0.715-1.718-1.348-2.539-1.856c-8.628-5.343-23.628-3.327-28.742,10.478
			C15.336,29.378,14.965,32.114,15.814,35.152z"/>
		<path fill="#F2F2F2" d="M212.244,73.426c0.297-2.979,0.582-5.832,0.885-8.861c8.588,0,17.295,0,26.305,0
			c-0.557-0.771-0.908-1.313-1.318-1.813c-9.467-11.523-18.941-23.041-28.402-34.571c-0.572-0.695-1.121-1.445-1.496-2.255
			c-1.252-2.711,0.326-5.694,3.252-6.213c0.689-0.121,1.404-0.176,2.107-0.176c11.652,0.006,23.309,0.025,34.959,0.047
			c2.658,0.003,4.389,1.198,4.906,3.373c0.688,2.888-1.219,5.489-4.168,5.581c-2.28,0.072-4.567,0.031-6.854,0.033
			c-6.338,0.002-12.676,0.001-19.015,0.001c-0.417,0-0.834,0-1.538,0c1.434,1.76,2.688,3.308,3.948,4.847
			c8.551,10.439,17.106,20.875,25.647,31.32c0.569,0.699,1.149,1.422,1.558,2.223c1.643,3.242-0.242,6.424-3.858,6.445
			c-7.637,0.045-15.273,0.018-22.912,0.02c-4.291,0.002-8.582,0-12.873,0C212.957,73.426,212.534,73.426,212.244,73.426z"/>
		<path fill="#F2F2F2" d="M85.701,48.537c0-1.59-0.015-3.09,0.006-4.584c0.022-1.851,0.776-2.928,2.563-3.313
			c1.054-0.226,2.203-0.293,3.265-0.132c2.212,0.332,3.062,1.47,3.072,3.74c0.006,1.303,0,2.604,0,4.068
			c2.262-0.486,4.043-1.566,5.513-3.135c2.518-2.686,3.362-6.022,3.375-9.592c0.033-9.331,0.008-18.663,0.014-27.994
			c0.002-2.418,0.963-3.87,2.922-4.476c2.273-0.704,4.55,0.742,4.875,3.119c0.068,0.506,0.076,1.024,0.078,1.538
			c0.004,9.293,0.021,18.583-0.004,27.876c-0.017,6.006-1.73,11.363-6.158,15.623c-2.682,2.58-5.896,4.18-9.479,5.018
			c-0.915,0.215-1.164,0.586-1.153,1.498c0.047,4.746,0.024,9.49,0.02,14.234c-0.002,2.42-1.023,3.553-3.432,3.762
			c-0.742,0.063-1.498,0.07-2.237-0.006c-2.138-0.229-3.228-1.453-3.233-3.609c-0.011-4.627-0.044-9.254,0.027-13.881
			c0.018-1.094-0.322-1.453-1.354-1.68c-9.535-2.119-16.244-10.539-16.263-20.326c-0.017-9.371-0.039-18.74-0.044-28.111
			C68.071,7.47,68.129,6.75,68.27,6.061c0.418-2.031,1.835-3.139,3.861-3.091c1.947,0.045,3.412,1.333,3.709,3.313
			c0.094,0.622,0.099,1.26,0.099,1.892c0.007,5.694-0.015,11.387,0.011,17.081c0.018,3.912,0.068,7.826,0.157,11.736
			C76.233,42.594,80.495,47.785,85.701,48.537z"/>
		<path fill="#F2F2F2" d="M164.293,62.924c0.161,3.104,0.313,6.043,0.473,9.135c-0.348,0-0.771,0-1.188,0
			c-10.235,0-20.478,0-30.712,0c-0.154,0-0.313,0.002-0.477,0c-2.008-0.049-3.748-0.654-4.692-2.584
			c-0.966-1.975-0.239-3.688,1.022-5.244c2.584-3.188,5.192-6.355,7.795-9.529c7.084-8.633,14.175-17.259,21.259-25.895
			c0.368-0.455,0.708-0.939,1.249-1.661c-0.646,0-1.049,0-1.448,0c-8.269,0-16.536,0.005-24.808-0.007
			c-0.7-0.001-1.428-0.024-2.104-0.189c-2.293-0.563-3.349-2.188-3.208-4.811c0.109-2.025,1.529-3.521,3.679-3.832
			c0.619-0.089,1.252-0.143,1.877-0.145c11.693-0.02,23.39-0.031,35.082-0.031c1.967,0,3.646,0.596,4.58,2.521
			c0.94,1.938,0.525,3.679-0.785,5.277c-7.207,8.787-14.416,17.573-21.625,26.358c-2.85,3.477-5.694,6.955-8.709,10.635
			C149.271,62.924,156.786,62.924,164.293,62.924z"/>
		<path fill="#F2F2F2" d="M166.967,53.258c0-4.785-0.01-9.572,0.014-14.356c0.003-0.782,0.052-1.59,0.253-2.34
			c0.491-1.828,1.892-2.795,3.778-2.739c1.844,0.053,3.219,1.155,3.604,2.979c0.154,0.726,0.219,1.485,0.223,2.229
			c0.041,9.333,0.012,18.665,0.105,27.995c0.086,8.725,6.654,13.396,14.475,12.859c1.209-0.082,2.43-0.258,3.604-0.547
			c5.44-1.348,8.771-5.313,9.218-10.93c0.104-1.338,0.16-2.686,0.163-4.025c0.015-8.619,0.002-17.238,0.009-25.859
			c0.004-2.576,0.905-3.959,2.928-4.563c2.078-0.617,4.138,0.493,4.705,2.597c0.174,0.638,0.232,1.324,0.233,1.99
			c0.017,9.332,0.077,18.666-0.013,27.996c-0.07,7.574-2.731,13.916-9.396,18.041c-6.825,4.227-18.228,5.146-25.592-0.795
			c-5.351-4.316-8.294-9.791-8.263-16.771c0.021-4.588,0.004-9.172,0.004-13.76C167.006,53.258,166.987,53.258,166.967,53.258z"/>
		<path fill="#F2F2F2" d="M61.006,68.357c4.424-2.99,8.602-5.807,12.765-8.635c1.256-0.855,2.538-1.613,4.135-1.43
			c2.089,0.242,3.712,1.629,4.194,3.621c0.494,2.037-0.217,3.699-1.885,4.857c-4.14,2.867-8.328,5.672-12.502,8.49
			c-2.545,1.719-5.096,3.43-7.66,5.115c-0.621,0.406-1.287,0.775-1.978,1.043c-3.356,1.303-6.286-0.711-6.305-4.334
			c-0.027-5.02-0.03-10.039-0.03-15.057C51.744,51.512,51.752,41,51.769,30.484c0.005-3.563,2.342-5.498,5.78-4.819
			c1.905,0.377,3.227,1.909,3.426,4.003c0.044,0.471,0.029,0.948,0.029,1.422c0.002,11.897,0,23.794,0,35.695
			C61.006,67.211,61.006,67.635,61.006,68.357z"/>
		<path fill="#F2F2F2" d="M124.174,46.572c0,7.111,0.004,14.229-0.006,21.34c0,0.668-0.043,1.346-0.168,2
			c-0.425,2.256-1.928,3.486-4.207,3.514c-2.423,0.023-3.883-1.094-4.383-3.422c-0.14-0.648-0.205-1.328-0.205-1.994
			c-0.011-14.307-0.011-28.612,0-42.918c0.001-0.705,0.077-1.422,0.221-2.112c0.441-2.127,2.037-3.387,4.211-3.398
			c2.203-0.01,3.812,1.196,4.295,3.302c0.168,0.723,0.23,1.486,0.231,2.229C124.182,32.267,124.174,39.418,124.174,46.572z"/>
		<path fill="#F2F2F2" d="M186.213,39.379c-0.037,1.582-1.166,2.674-2.72,2.629c-1.479-0.043-2.735-1.293-2.731-2.722
			c0.002-1.524,1.397-2.905,2.885-2.851C185.168,36.492,186.254,37.735,186.213,39.379z"/>
		<path fill="#F2F2F2" d="M194.939,36.435c1.439-0.01,2.789,1.338,2.811,2.807c0.023,1.445-1.334,2.773-2.824,2.768
			c-1.519-0.008-2.654-1.163-2.672-2.713C192.237,37.721,193.434,36.445,194.939,36.435z"/>
	</g>
</g>
</svg>
