<?xml version="1.0" encoding="utf-8"?>
<!-- Generator: Adobe Illustrator 16.0.3, SVG Export Plug-In . SVG Version: 6.00 Build 0)  -->
<!DOCTYPE svg PUBLIC "-//W3C//DTD SVG 1.1//EN" "http://www.w3.org/Graphics/SVG/1.1/DTD/svg11.dtd">
<svg version="1.1" id="Capa_1" xmlns="http://www.w3.org/2000/svg" xmlns:xlink="http://www.w3.org/1999/xlink" x="0px" y="0px"
	 width="260px" height="90px" viewBox="0 0 260 90" enable-background="new 0 0 260 90" xml:space="preserve">
<g id="Capa_2">
	<g>
		<path fill="#FFFFFF" d="M125.575,59.063h-16.161v-0.73c2.311-0.219,3.787-0.76,4.433-1.623c0.645-0.863,0.967-2.852,0.967-5.965
			v-32.76l-12.002,8.245v40.203l-3.063,6.676V26.302l-12.586-8.427v30.936c0,4.014,0.489,6.629,1.469,7.844
			c0.637,0.803,2.02,1.361,4.149,1.678v0.73H75.197v-0.73c2.422-0.363,4.006-1.082,4.754-2.152c0.745-1.07,1.119-3.525,1.119-7.369
			V19.662c0-2.675-0.378-4.414-1.132-5.216c-0.607-0.778-2.128-1.265-4.559-1.459v-0.802h13.497l12.623,9.011l13.132-9.011h10.944
			v0.802c-2.164,0.171-3.582,0.687-4.25,1.551c-0.668,0.864-1.002,2.572-1.002,5.125v31.92c0,2.604,0.341,4.342,1.02,5.219
			c0.658,0.705,2.066,1.215,4.232,1.531V59.063L125.575,59.063z"/>
	</g>
	<g>
		<path fill="#FFFFFF" d="M88.236,72.66c0.259-0.889,0.401-1.854,0.809-2.65c0.468-0.91,1.172-1.668,1.919-2.482
			c0.368,3.182,1.95,4.525,4.652,4.258c1.614-0.16,2.436-0.959,2.771-2.57c-0.669-0.322-1.583-0.332-1.715-1.574
			c0.569,0.146,1.109,0.283,1.92,0.492c-0.422-1.148-0.765-2.084-1.172-3.195c-0.185,0.352-0.261,0.461-0.308,0.586
			c-0.217,0.588-0.539,1.031-1.17,0.941c-0.631-0.092-1.058-0.525-1.222-1.195c-0.189-0.76-0.116-1.508,0.411-2.098
			c0.514-0.572,1.133-0.473,1.752-0.23c1.048,0.408,1.697,1.246,2.026,2.395c0.24,0.848,0.433,1.707,0.66,2.609
			c0.249,0,0.51,0,0.701,0c-0.799-11.697-0.862-23.344,0.852-35.201c0.332,2.604,0.552,4.98,0.946,7.322
			c0.91,5.409,0.462,10.864,0.543,16.299c0.054,3.582,0.161,7.174-0.542,10.715c-0.053,0.27,0.137,0.598,0.216,0.898
			c0.21-0.25,0.514-0.461,0.614-0.76c0.223-0.672,0.301-1.402,0.52-2.08c0.41-1.271,1.235-2.08,2.434-2.346
			c0.886-0.197,1.569,0.363,1.748,1.361c0.183,1.029-0.295,2.139-1.094,2.248c-0.362,0.051-0.799-0.258-1.148-0.498
			c-0.182-0.125-0.246-0.459-0.495-0.965c-0.423,1.096-0.774,2.006-1.214,3.143c0.801-0.172,1.349-0.293,1.899-0.41
			c0.062,0.766,0.062,0.766-1.63,1.563c0.23,1.697,1.292,2.555,3.215,2.6c2.408,0.055,3.494-1.082,4.027-4.287
			c1.563,1.021,2.353,2.584,2.761,4.447c0,0.666,0,1.336,0,2.002c-0.057,0.184-0.118,0.365-0.158,0.551
			c-0.442,1.982-1.639,3.166-3.443,3.402c-3.375,0.441-7.066-2.725-7.522-6.469c-0.069-0.578-0.061-1.168-0.155-1.738
			c-0.041-0.24-0.255-0.445-0.5-0.846c-0.085,0.398-0.113,0.477-0.113,0.557c-0.006,0.193-0.006,0.389,0.006,0.582
			c0.098,1.971,0.794,3.703,1.749,5.328c1.577,2.689,1.6,5.371,0.071,8.125c-0.966,1.742-1.805,3.57-2.704,5.363
			c-0.051,0-0.102,0-0.151,0c-0.854-1.875-1.637-3.793-2.578-5.613c-1.457-2.816-1.475-5.482,0.244-8.178
			c1.104-1.732,1.671-3.703,1.615-5.943c-0.243,0.109-0.497,0.271-0.558,0.494c-0.134,0.5-0.178,1.031-0.245,1.555
			c-0.46,3.561-2.433,5.617-5.417,6.568c-2.571,0.82-4.664-0.268-5.471-2.725c-0.161-0.488-0.24-1.008-0.358-1.514
			C88.236,73.219,88.236,72.941,88.236,72.66z"/>
	</g>
</g>
<g id="Capa_2_1_">
	<g>
		<g>
			<path fill="#FFFFFF" d="M72.857,59.273h-16.19v-1.719c2.178-0.275,3.547-0.734,4.107-1.375c0.563-0.641,0.844-2.143,0.844-4.504
				v-4.021h-17.91v4.021c0,2.361,0.281,3.863,0.843,4.504s1.942,1.1,4.143,1.375v1.719H32.468v-1.719
				c2.292-0.275,3.689-0.734,4.193-1.375s0.756-2.406,0.756-5.293v-4.641c0.229-2.865,0.527-5.5,0.895-7.906
				c0.895-5.797,2.027-9.958,3.403-12.479c2.748-5.019,6.508-9.201,11.273-12.546c4.491,3.483,8.031,7.665,10.621,12.546
				c1.695,3.186,3.129,10.118,4.297,20.797v4.227c0,2.889,0.252,4.652,0.756,5.293c0.504,0.643,1.902,1.1,4.194,1.375V59.273
				L72.857,59.273z M61.618,43.289c-0.139-7.332-0.734-12.558-1.789-15.674c-1.648-4.95-3.93-9.086-6.84-12.409
				c-1.947,1.879-3.472,3.781-4.572,5.706c-0.894,1.536-1.854,3.77-2.887,6.703c-1.353,3.804-1.959,9.029-1.822,15.674H61.618z
				 M61.618,45.592v-1.201h-17.91v1.201H61.618z"/>
		</g>
		<g>
			<path fill="#FFFFFF" d="M168.274,59.273h-16.189v-1.719c2.178-0.275,3.547-0.732,4.107-1.375
				c0.563-0.641,0.842-2.141,0.842-4.502v-4.021h-17.908v4.021c0,2.361,0.279,3.861,0.842,4.502c0.563,0.643,1.941,1.1,4.143,1.375
				v1.719h-16.225v-1.719c2.291-0.275,3.688-0.732,4.193-1.375c0.504-0.641,0.756-2.406,0.756-5.293v-4.641
				c0.229-2.863,0.527-5.5,0.895-7.906c0.895-5.797,2.027-9.957,3.402-12.478c2.75-5.019,6.508-9.201,11.273-12.546
				c4.492,3.483,8.033,7.665,10.623,12.546c1.695,3.186,3.127,10.118,4.297,20.796v4.229c0,2.887,0.252,4.652,0.756,5.293
				s1.9,1.1,4.193,1.375V59.273L168.274,59.273z M157.034,43.29c-0.139-7.333-0.732-12.558-1.787-15.674
				c-1.65-4.95-3.932-9.086-6.842-12.409c-1.947,1.879-3.471,3.781-4.57,5.706c-0.895,1.536-1.855,3.77-2.889,6.703
				c-1.353,3.804-1.959,9.029-1.82,15.674H157.034z M157.034,45.594v-1.203h-17.908v1.203H157.034z"/>
			<path fill="#FFFFFF" d="M194.812,14.588c2.018,0.711,3.219,1.066,3.609,1.066c1.189,0,2.051-0.722,2.578-2.166h1.236l0.447,14.23
				h-1.271c-1.191-3.346-2.385-5.786-3.574-7.322c-2.18-2.795-5.064-4.205-8.662-4.228c-4.951-0.023-8.605,2.429-10.967,7.356
				c-1.787,3.712-2.682,8.318-2.682,13.818c0,5.156,1.055,9.544,3.162,13.166c2.566,4.447,6.244,6.668,11.035,6.668
				c0.732,0,1.541-0.074,2.424-0.225c0.881-0.146,1.746-0.395,2.594-0.738c1.33-0.549,2.16-1.008,2.492-1.375
				c0.332-0.365,0.498-0.928,0.498-1.686V42.363c0-2.589-0.303-4.199-0.91-4.83c-0.605-0.63-1.953-1.025-4.039-1.186v-1.272h14.369
				v1.272c-1.354,0.069-2.279,0.344-2.785,0.825c-0.777,0.733-1.168,2.177-1.168,4.331v13.302c0,1.193-2.086,2.395-6.256,3.609
				c-3.553,1.031-6.188,1.547-7.906,1.547c-5.5,0-10.141-1.926-13.922-5.775c-4.146-4.238-6.232-9.944-6.256-17.118
				c0-6.256,1.66-11.641,4.984-16.156c3.643-4.95,8.479-7.424,14.506-7.424C190.571,13.489,192.726,13.855,194.812,14.588z"/>
			<path fill="#FFFFFF" d="M210.21,57.795c2.43-0.252,3.947-0.709,4.555-1.373s0.912-2.246,0.912-4.744V14.726
				c0.709,1.26,1.385,2.36,2.027,3.3c1.559,2.223,2.795,3.415,3.713,3.575v30.077c0,2.705,0.377,4.367,1.135,4.984
				c0.709,0.527,2.152,0.904,4.33,1.133v1.203H210.21V57.795L210.21,57.795z M217.669,9.054l-3.951-3.953l3.951-3.953l3.953,3.953
				L217.669,9.054z"/>
		</g>
	</g>
</g>
</svg>
