<?xml version="1.0" encoding="utf-8"?>
<!-- Generator: Adobe Illustrator 16.0.3, SVG Export Plug-In . SVG Version: 6.00 Build 0)  -->
<!DOCTYPE svg PUBLIC "-//W3C//DTD SVG 1.1//EN" "http://www.w3.org/Graphics/SVG/1.1/DTD/svg11.dtd">
<svg version="1.1" id="Capa_1" xmlns="http://www.w3.org/2000/svg" xmlns:xlink="http://www.w3.org/1999/xlink" x="0px" y="0px"
	 width="260px" height="90px" viewBox="0 0 260 90" enable-background="new 0 0 260 90" xml:space="preserve">
<g>
	<path fill="#FFFFFF" d="M31.573,52.146c-1.938-0.5-3.189-1.5-3.189-3.627c3.189-2.625,6.253-2.313,10.443,0.313
		c2.688,1.688,3.189,3.877,2.563,6.565c-0.25,1.063-0.813,2.313-1.625,3.002c-3.439,2.877-6.878,5.689-11.381,7.004
		c-3.251,0.938-6.128,0.375-8.754-1.563c-4.627-3.438-6.44-8.19-6.065-13.819c0.5-7.127,2.001-14.006,5.753-20.196
		c0.25-0.438,0.563-0.813,0.813-1.313c2.063-4.189,5.94-4.377,9.88-4.252c1.751,0.063,2.313,1.501,1.125,3.001
		c-1.876,2.376-4.064,4.502-5.815,6.941c-3.501,4.94-5.44,10.505-6.19,16.444c-0.313,2.252-0.375,4.564-0.188,6.879
		c0.188,2.252,1.313,3.252,3.626,3.127c4.627-0.25,8.754-1.938,12.006-5.44c1.125-1.25,2.063-2.938,0.188-5.063
		C33.511,50.896,32.573,51.521,31.573,52.146z"/>
	<path fill="#FFFFFF" d="M51.458,53.586c-2.501,5.689-3.314,11.818-4.189,17.885c-0.063,0.563-0.063,1.063-0.188,1.563
		c-0.375,1.501-1.876,2.063-2.876,1.001c-1.188-1.126-2.188-2.438-1.813-4.377c1.313-6.816,2.939-13.569,5.69-20.011
		c0.688-1.625,0.813-3.502,1.25-5.627c0.875-1.563,2.063-3.502,2.939-5.503c3.126-6.816,6.065-13.631,9.192-20.385
		c1.501-3.251,2.939-3.439,5.565-0.938c2.876,2.689,4.877,5.69,4.252,10.067c-1,6.628-1.626,13.256-2.188,19.947
		c-0.375,5.128-0.5,10.256-0.75,15.383c0,0.25,0,0.5-0.063,0.751c-0.188,1.375,0.063,3.063-1.938,3.251
		c-1.313,0.125-2.876-1.688-2.876-3.502c-0.125-3.501,0-6.939,0-10.441c0-1.938-0.063-3.814-0.063-6.004
		C53.146,46.082,54.521,46.645,51.458,53.586z M64.651,27.51c-2.876,3.439-6.815,11.568-7.316,14.757
		c0.875,0.063,1.751,0.188,2.626,0.25c1,0,2.001,0,3.439-0.063C63.839,37.39,64.214,32.826,64.651,27.51z"/>
	<path fill="#FFFFFF" d="M97.416,57.65c-5.94-0.563-10.693-3.127-16.32-3.814c0,3.564,0,7.003,0,10.38
		c-3.502-0.125-4.44-1.001-4.565-4.063c-0.313-7.629-0.5-15.195-0.813-22.824c-0.063-2.564-0.375-5.127-0.5-7.629
		c-0.063-1.375,0-2.688,0-3.814c2.438,0.313,4.377,0.688,6.315,0.813c4.439,0.375,9.317,5.253,9.692,9.63
		c0.188,1.938-0.375,3.502-1.501,5.002c-2.001,2.814-4.002,5.627-6.128,8.566C87.536,53.273,93.664,52.521,97.416,57.65z
		 M83.409,37.515c0.688-1.75,1.375-3.564,1.688-5.44c0.188-1.313-0.563-2.564-2.189-2.564c-1.5-0.063-2.501,1.125-2.376,2.751
		c0.188,2.564,0.438,5.065,0.75,8.504C82.346,39.204,83.097,38.391,83.409,37.515z"/>
	<path fill="#FFFFFF" d="M107.857,53.586c-2.501,5.689-3.314,11.818-4.189,17.885c-0.063,0.563-0.063,1.063-0.188,1.563
		c-0.375,1.501-1.876,2.063-2.876,1.001c-1.188-1.126-2.188-2.438-1.813-4.377c1.313-6.816,2.939-13.569,5.69-20.011
		c0.688-1.625,0.813-3.502,1.25-5.627c0.875-1.563,2.063-3.502,2.939-5.503c3.126-6.816,6.065-13.631,9.192-20.385
		c1.501-3.251,2.939-3.439,5.565-0.938c2.876,2.689,4.877,5.69,4.252,10.067c-1,6.628-1.626,13.256-2.188,19.947
		c-0.375,5.128-0.5,10.256-0.75,15.383c0,0.25,0,0.5-0.063,0.751c-0.188,1.375,0.063,3.063-1.938,3.251
		c-1.313,0.125-2.876-1.688-2.876-3.502c-0.125-3.501,0-6.939,0-10.441c0-1.938-0.063-3.814-0.063-6.004
		C109.546,46.082,110.921,46.645,107.857,53.586z M121.051,27.51c-2.876,3.439-6.815,11.568-7.316,14.757
		c0.875,0.063,1.751,0.188,2.626,0.25c1,0,2.001,0,3.439-0.063C120.239,37.39,120.614,32.826,121.051,27.51z"/>
	<path fill="#FFFFFF" d="M133.743,60.9c-2.876-3-2.876-6.627-2.376-10.441c1.001-8.316,1.813-16.633,2.752-25.262
		c-0.376-0.25-1.063-0.563-1.626-1.063c-2.814-2.376-2.376-5.44,1.125-6.816c1.626-0.688,3.502-1,5.19-0.938
		c4.127,0.188,7.754,1.751,10.941,4.314c2.877,2.314,3.502,4.127,1.876,7.379c-1.188,2.501-2.938,4.752-4.438,7.128
		c-0.438,0.625-0.938,1.188-1.627,2.126c1.752,0.75,3.252,1.25,4.69,2.063c2.063,1.188,4.252,2.313,6.128,3.814
		c2.626,2.126,3.063,4.94,1.438,7.878c-0.813,1.438-1.875,2.814-3.125,3.877c-5.129,4.064-10.381,8.004-15.633,11.881
		c-2.688,2.001-5.44,3.877-8.254,5.753c-2.751,1.876-3.564,1.501-4.316-1.813c-0.188-0.75-0.375-1.438-0.563-2.313
		c2.751-2.313,5.377-4.564,7.941-6.753C133.807,61.402,133.868,61.025,133.743,60.9z M137.12,42.018
		c-1,6.003-2.001,11.755-0.813,17.884c7.629-3.377,13.631-7.816,17.57-15.445C148.188,41.517,142.748,41.768,137.12,42.018z
		 M147.375,23.258c0.063-0.563-0.125-1.5-0.5-1.688c-1.876-0.75-3.752-1.563-5.753-1.938c-1.626-0.313-3.252,0.313-4.252,2.251
		c2.626,1.625,2.938,3.877,2.313,6.628c-0.438,1.938-0.5,4.002-0.75,6.128C142.373,33.013,147.063,27.073,147.375,23.258z"/>
	<path fill="#FFFFFF" d="M167.385,53.586c-2.502,5.689-3.314,11.818-4.189,17.885c-0.063,0.563-0.063,1.063-0.188,1.563
		c-0.375,1.501-1.876,2.063-2.876,1.001c-1.188-1.126-2.188-2.438-1.813-4.377c1.313-6.816,2.939-13.569,5.69-20.011
		c0.688-1.625,0.813-3.502,1.251-5.627c0.875-1.563,2.063-3.502,2.938-5.503c3.127-6.816,6.065-13.631,9.192-20.385
		c1.5-3.251,2.938-3.439,5.563-0.938c2.877,2.689,4.878,5.69,4.253,10.067c-1.001,6.628-1.626,13.256-2.189,19.947
		c-0.375,5.128-0.5,10.256-0.75,15.383c0,0.25,0,0.5-0.063,0.751c-0.188,1.375,0.063,3.063-1.938,3.251
		c-1.313,0.125-2.877-1.688-2.877-3.502c-0.125-3.501,0-6.939,0-10.441c0-1.938-0.063-3.814-0.063-6.004
		C169.072,46.082,170.448,46.645,167.385,53.586z M180.578,27.51c-2.876,3.439-6.814,11.568-7.314,14.757
		c0.875,0.063,1.75,0.188,2.625,0.25c1,0,2.002,0,3.439-0.063C179.766,37.39,180.141,32.826,180.578,27.51z"/>
	<path fill="#FFFFFF" d="M203.025,61.15c-0.125-5.688,0-11.316,0.25-16.944c0.25-4.877,0.813-9.692,1.313-14.757
		c-3.126-0.375-5.878-0.688-8.629-0.938c-2.438-0.188-4.063-1.25-4.877-4.002c1.125-0.25,2.063-0.688,3.001-0.688
		c8.066-0.063,16.133,0.125,24.137,1.688c1.688,0.375,3.377,1.25,4.879,2.126c0.688,0.438,1,1.501,1.75,2.564
		c-4.939-0.375-9.191-0.75-13.757-1.063c-0.751,6.628-1.313,12.694-2.126,18.822c-0.751,5.94-1.938,11.881-0.876,18.321
		C204.714,65.779,203.089,64.277,203.025,61.15z"/>
	<path fill="#FFFFFF" d="M225.661,34.139c1.5-3.189,3.938-4.752,7.128-5.002c7.191-0.625,15.258,5.502,14.132,12.756
		c-0.813,5.189-0.75,10.567-4.877,14.632c-0.813,0.813-1.563,1.688-2.501,2.438c-4.127,3.127-8.38,2.689-11.381-1.563
		c-2.751-3.877-5.378-7.941-4.439-12.694C223.66,40.767,224.16,37.39,225.661,34.139z M228.35,51.835
		c0.625,4.063,3.252,5.44,7.004,3.688c2.438-1.063,4.502-2.877,5.189-5.377c0.876-3.627,1.438-7.316,1.626-11.005
		c0.125-2.689-1.438-4.94-3.877-6.253c-1.188-0.688-2.313-0.813-3.438,0.375c-4.002,4.252-6.879,9.004-6.69,15.131
		C228.225,49.521,228.225,50.709,228.35,51.835z"/>
</g>
<rect x="4.75" y="4.5" fill="none" stroke="#FFFFFF" stroke-width="4" stroke-miterlimit="10" width="251" height="80.5"/>
</svg>
