<?xml version="1.0" encoding="utf-8"?>
<!-- Generator: Adobe Illustrator 16.0.3, SVG Export Plug-In . SVG Version: 6.00 Build 0)  -->
<!DOCTYPE svg PUBLIC "-//W3C//DTD SVG 1.1//EN" "http://www.w3.org/Graphics/SVG/1.1/DTD/svg11.dtd">
<svg version="1.1" id="Capa_1" xmlns="http://www.w3.org/2000/svg" xmlns:xlink="http://www.w3.org/1999/xlink" x="0px" y="0px"
	 width="260px" height="90px" viewBox="0 0 260 90" enable-background="new 0 0 260 90" xml:space="preserve">
<image overflow="visible" width="1330" height="718" xlink:href="5A53B612.jpg"  transform="matrix(1 0 0 1 -8142 -8142)">
</image>
<g>
	<path fill-rule="evenodd" clip-rule="evenodd" fill="#F2F2F2" d="M116.477,68.521c0,0.306,0,0.536,0,0.825
		c-6.38,0-12.755,0-19.173,0c0-0.265,0-0.512,0-0.731c0.962-0.155,1.93-0.207,2.831-0.479c2.642-0.793,4.522-2.534,5.621-5.033
		c6.504-14.782,12.974-29.58,19.474-44.363c0.266-0.605,0.238-1.07-0.05-1.655c-1.506-3.062-3.03-6.12-5.462-8.571
		c-2.6-2.621-5.615-4.398-9.509-3.91c-1.334,0.168-2.651,0.463-4.06,0.714c-0.045-0.204-0.103-0.464-0.17-0.767
		c2.664-1.398,5.42-2.437,8.354-2.958c2.866-0.509,5.718-0.573,8.565,0.224c3.828,1.068,6.91,3.25,9.594,6.115
		c3.405,3.631,5.984,7.822,7.886,12.359c4.837,11.549,9.466,23.184,14.213,34.769c2.742,6.69,5.699,13.283,9.867,19.24
		c2.23,3.188,4.734,6.153,8.083,8.235c4.006,2.492,8.329,3.553,13.037,2.554c0.228-0.048,0.46-0.06,0.709-0.092
		c0.296,0.563,0.178,0.865-0.411,1.141c-4.472,2.11-9.147,3.067-14.083,2.479c-2.83-0.337-5.536-1.165-8.141-2.31
		c-6.173-2.714-10.895-7.153-14.814-12.536c-3.594-4.934-6.191-10.384-8.298-16.086c-0.685-1.85-1.385-3.692-2.052-5.548
		c-0.162-0.453-0.386-0.631-0.894-0.629c-6.655,0.018-13.31,0.016-19.964,0.005c-0.414-0.002-0.64,0.092-0.812,0.508
		c-1.519,3.668-3.075,7.322-4.603,10.989c-0.625,1.5-0.59,2.951,0.553,4.219c0.731,0.812,1.713,1.145,2.777,1.247
		C115.83,68.502,116.113,68.505,116.477,68.521z M136.847,47.612c-2.881-7.669-5.737-15.274-8.638-22.997
		c-3.224,7.7-6.405,15.307-9.624,22.997C124.714,47.612,130.731,47.612,136.847,47.612z"/>
	<path fill-rule="evenodd" clip-rule="evenodd" fill="#F2F2F2" d="M72.668,35.709c0.417-0.197,0.644-0.304,0.909-0.428
		c0.278,0.436,0.514,0.866,0.809,1.25c1.529,1.99,3.705,2.383,6.006,2.281c3.902-0.173,6.459-2.42,8.288-5.653
		c2.014-3.562,2.31-7.444,1.999-11.415c-0.205-2.619-0.829-5.133-2.248-7.381c-1.895-3.002-4.673-4.619-8.15-5.158
		c-2.489-0.385-4.92,0.023-7.36,0.392c-0.95,0.144-1.899,0.299-2.853,0.422c-0.408,0.053-0.621,0.214-0.57,0.646
		c0.016,0.128,0.002,0.259,0.002,0.39c0,17.053,0.008,34.107-0.01,51.16c-0.002,2.133,0.595,3.936,2.4,5.206
		c0.913,0.642,1.916,1.034,3.044,1.058c0.463,0.009,0.927,0.001,1.438,0.001c0.016,0.329,0.027,0.576,0.043,0.879
		c-9.102,0-18.159,0-27.262,0c0-0.278,0-0.527,0-0.869c0.385,0,0.769,0.009,1.15,0C53.437,68.412,55.8,66.13,55.985,63
		c0.013-0.208,0.012-0.416,0.012-0.624c0-15.65,0.002-31.3-0.002-46.949c0-1.601-0.291-3.111-1.529-4.27
		c-1.104-1.034-2.477-1.228-3.91-1.212c-0.44,0.004-0.879,0-1.361,0c-0.045-0.209-0.092-0.429-0.146-0.68
		c0.149-0.033,0.271-0.07,0.396-0.087c5.275-0.718,10.556-1.395,15.823-2.162c3.596-0.524,7.16-1.274,10.764-1.747
		c6.005-0.789,11.932-0.426,17.648,1.768c4.227,1.62,7.581,4.265,9.625,8.397c1.245,2.515,1.789,5.19,1.848,7.979
		c0.084,3.892-0.665,7.593-2.539,11.031c-1.908,3.503-4.728,6.02-8.359,7.631c-4.375,1.939-8.899,2.415-13.552,1.25
		c-2.634-0.661-4.996-1.861-6.502-4.229C73.547,38.074,73.181,36.866,72.668,35.709z"/>
	<path fill-rule="evenodd" clip-rule="evenodd" fill="#F2F2F2" d="M186.533,40.35c-0.013,0.277-0.037,0.531-0.037,0.785
		c0,7.069,0.018,14.141-0.011,21.213c-0.009,2.568,1.026,4.52,3.347,5.588c1.024,0.472,2.25,0.506,3.482,0.757
		c0.013,0.096,0.053,0.348,0.101,0.66c-9.099,0-18.154,0-27.265,0c-0.017-0.261-0.032-0.509-0.052-0.807
		c0.654-0.045,1.273-0.05,1.885-0.135c2.795-0.383,4.832-2.605,4.999-5.432c0.018-0.311,0.011-0.622,0.011-0.935
		c0-16.117-0.044-32.235,0.037-48.353c0.018-3.364-2.453-6.43-6.288-6.321c-0.178,0.005-0.357-0.014-0.585-0.024
		c0-0.274,0-0.519,0-0.866c0.34,0,0.67,0,0.998,0c11.595-0.012,23.188-0.017,34.783-0.037c2.983-0.006,5.886-0.572,8.751-1.361
		c0.169-0.046,0.339-0.084,0.564-0.141c0,5.045,0,10.021,0,15.072c-0.256,0.014-0.497,0.027-0.748,0.04
		c-0.13-1.106-0.199-2.163-0.381-3.201c-0.67-3.817-3.728-6.161-7.291-6.343c-4.408-0.226-8.832-0.132-13.247-0.172
		c-0.985-0.008-1.968-0.001-3.021-0.001c0,8.726,0,17.392,0,26.175c0.228,0,0.475,0,0.722,0c8.215,0,16.43,0.007,24.645-0.002
		c3.918-0.004,6.818-2.127,7.81-5.777c0.232-0.861,0.215-1.79,0.317-2.731c0.23,0,0.478,0,0.777,0c0,6.882,0,13.755,0,20.669
		c-0.265,0-0.512,0-0.795,0c-0.076-0.81-0.072-1.621-0.236-2.397c-0.774-3.636-3.543-5.938-7.422-5.965
		c-8.447-0.06-16.896-0.019-25.345-0.017C186.888,40.291,186.737,40.324,186.533,40.35z"/>
</g>
</svg>
